<?xml version="1.0" encoding="utf-8"?>
<!-- Generator: Adobe Illustrator 19.1.0, SVG Export Plug-In . SVG Version: 6.00 Build 0)  -->
<svg version="1.1" id="Layer_1" xmlns="http://www.w3.org/2000/svg" xmlns:xlink="http://www.w3.org/1999/xlink" x="0px" y="0px"
	 viewBox="0 0 32 32" enable-background="new 0 0 32 32" xml:space="preserve">
<g id="_x31__1_">
	<path fill="#B29D42" d="M32,27V5c0-2.8-2.2-5-5-5L5,0C2.3,0,0,2.2,0,5l0,22c0,2.8,2.2,5,5,5h22C29.8,32,32,29.8,32,27z"/>
	<path fill="#2E317D" d="M1.4,30.4l29-29.1c0,0,1.9,1.9,1.6,4.1v22.1c0,0-0.4,4.4-5,4.4H5C5,31.9,3.2,32.3,1.4,30.4z"/>
	<g>
		<path fill="#FDFDFE" d="M14.8,21.6v2.7h-10v-2.7h3.4v-8.8c0-0.2,0-0.5,0-0.7c0-0.2,0-0.5,0-0.7l-2,1.7c-0.2,0.1-0.4,0.2-0.5,0.2
			c-0.2,0-0.3,0-0.5,0c-0.2,0-0.3-0.1-0.4-0.2C4.7,13.1,4.6,13,4.6,13l-1.2-1.6l5.4-4.6h3.1v14.8H14.8z"/>
		<path fill="#FDFDFE" d="M29.5,15.6c0,1.5-0.2,2.9-0.5,4c-0.3,1.1-0.8,2-1.4,2.8c-0.6,0.7-1.3,1.3-2.1,1.6
			c-0.8,0.4-1.7,0.5-2.6,0.5c-0.9,0-1.8-0.2-2.6-0.5c-0.8-0.4-1.5-0.9-2-1.6c-0.6-0.7-1-1.7-1.4-2.8c-0.3-1.1-0.5-2.4-0.5-4
			s0.2-2.9,0.5-4c0.3-1.1,0.8-2,1.4-2.8c0.6-0.7,1.3-1.3,2-1.6c0.8-0.4,1.6-0.5,2.6-0.5c0.9,0,1.8,0.2,2.6,0.5
			c0.8,0.4,1.5,0.9,2.1,1.6s1,1.7,1.4,2.8C29.4,12.7,29.5,14.1,29.5,15.6z M25.7,15.6c0-1.2-0.1-2.2-0.2-3c-0.2-0.8-0.4-1.4-0.6-1.8
			c-0.3-0.4-0.5-0.7-0.9-0.9c-0.3-0.2-0.6-0.2-1-0.2s-0.6,0.1-1,0.2c-0.3,0.2-0.6,0.5-0.8,0.9c-0.2,0.4-0.4,1-0.6,1.8
			c-0.1,0.8-0.2,1.8-0.2,3c0,1.2,0.1,2.2,0.2,3c0.1,0.8,0.3,1.4,0.6,1.8s0.5,0.7,0.8,0.9c0.3,0.2,0.6,0.2,1,0.2s0.7-0.1,1-0.2
			c0.3-0.2,0.6-0.5,0.9-0.9s0.5-1,0.6-1.8C25.6,17.8,25.7,16.8,25.7,15.6z"/>
	</g>
</g>
</svg>
