<?xml version="1.0" encoding="utf-8"?>
<!-- Generator: Adobe Illustrator 19.1.0, SVG Export Plug-In . SVG Version: 6.00 Build 0)  -->
<svg version="1.1" id="Layer_1" xmlns="http://www.w3.org/2000/svg" xmlns:xlink="http://www.w3.org/1999/xlink" x="0px" y="0px"
	 viewBox="0 0 32 32" enable-background="new 0 0 32 32" xml:space="preserve">
<g id="_x31_1">
	<path fill="#2E317D" d="M32,27V5c0-2.8-2.2-5-5-5L5,0C2.2,0,0,2.2,0,5l0,22c0,2.8,2.2,5,5,5h22C29.8,32,32,29.8,32,27z"/>
	<path fill="#ED1C24" d="M0,15.6h32V5c0,0,0.3-4.1-4.5-5L27,0L5,0c0,0-3.7,0-4.9,4.2L0,15.6z"/>
	<g>
		<path fill="#FFFFFF" d="M14.9,21.3V24h-10v-2.7h3.4v-8.8c0-0.2,0-0.5,0-0.7c0-0.2,0-0.5,0-0.7l-2,1.7C6.2,12.9,6,13,5.8,13
			c-0.2,0-0.3,0-0.5,0c-0.2,0-0.3-0.1-0.4-0.2s-0.2-0.2-0.3-0.2l-1.2-1.6l5.4-4.6H12v14.8H14.9z"/>
		<path fill="#FFFFFF" d="M28.8,21.3V24h-10v-2.7h3.4v-8.8c0-0.2,0-0.5,0-0.7c0-0.2,0-0.5,0-0.7l-2,1.7c-0.2,0.1-0.4,0.2-0.5,0.2
			c-0.2,0-0.3,0-0.5,0c-0.2,0-0.3-0.1-0.4-0.2s-0.2-0.2-0.3-0.2l-1.2-1.6l5.4-4.6h3.1v14.8H28.8z"/>
	</g>
</g>
</svg>
