<?xml version="1.0" encoding="utf-8"?>
<!-- Generator: Adobe Illustrator 19.1.0, SVG Export Plug-In . SVG Version: 6.00 Build 0)  -->
<svg version="1.1" id="Layer_1" xmlns="http://www.w3.org/2000/svg" xmlns:xlink="http://www.w3.org/1999/xlink" x="0px" y="0px"
	 viewBox="0 0 32 32" enable-background="new 0 0 32 32" xml:space="preserve">
<g id="_x37_">
	<path fill="#778CC6" d="M32,27V5c0-2.8-2.2-5-5-5L5,0C2.2,0,0,2.2,0,5l0,22c0,2.8,2.2,5,5,5h22C29.8,32,32,29.8,32,27z"/>
	<path fill="#ED1C24" d="M0,15.6h32V5c0,0,0.3-4.1-4.5-5L27,0L5,0c0,0-3.7,0-4.9,4.2L0,15.6z"/>
	<g>
		<path fill="#FFFFFF" d="M22.7,6.7v1.6c0,0.5-0.1,0.8-0.2,1.1c-0.1,0.3-0.2,0.5-0.3,0.7L16.2,23c-0.2,0.3-0.4,0.6-0.7,0.9
			c-0.3,0.2-0.7,0.4-1.2,0.4h-2.7l6.2-12.5c0.2-0.3,0.4-0.6,0.6-0.9c0.2-0.3,0.4-0.5,0.6-0.8h-7.7c-0.1,0-0.2,0-0.3-0.1
			c-0.1,0-0.2-0.1-0.3-0.2s-0.1-0.2-0.2-0.3c0-0.1-0.1-0.2-0.1-0.3V6.7H22.7z"/>
	</g>
</g>
</svg>
