<?xml version="1.0" encoding="utf-8"?>
<!-- Generator: Adobe Illustrator 19.1.0, SVG Export Plug-In . SVG Version: 6.00 Build 0)  -->
<svg version="1.1" id="Layer_1" xmlns="http://www.w3.org/2000/svg" xmlns:xlink="http://www.w3.org/1999/xlink" x="0px" y="0px"
	 viewBox="0 0 32 32" enable-background="new 0 0 32 32" xml:space="preserve">
<g id="_x38_">
	<path fill="#778CC6" d="M32,27V5c0-2.8-2.2-5-5-5L5,0C2.3,0,0,2.2,0,5l0,22c0,2.8,2.2,5,5,5h22C29.8,32,32,29.8,32,27z"/>
	<path fill="#B29D42" d="M0,15.6h32L32,5c0,0,0.3-4.1-4.5-5L27,0L5,0c0,0-3.7,0-4.9,4.2L0,15.6z"/>
	<g>
		<path fill="#FFFFFF" d="M19.6,14.4c0.5,0.2,1,0.4,1.3,0.7s0.7,0.6,0.9,0.9c0.2,0.4,0.4,0.7,0.5,1.2c0.1,0.4,0.2,0.9,0.2,1.3
			c0,0.8-0.2,1.5-0.5,2.1s-0.7,1.2-1.3,1.6c-0.5,0.5-1.2,0.8-2,1.1c-0.8,0.2-1.6,0.4-2.5,0.4s-1.8-0.1-2.5-0.4s-1.4-0.6-2-1.1
			c-0.5-0.5-1-1-1.3-1.6S10,19.3,10,18.5c0-0.5,0.1-0.9,0.2-1.3c0.1-0.4,0.3-0.8,0.5-1.2c0.2-0.4,0.5-0.7,0.9-0.9s0.8-0.5,1.3-0.7
			c-0.8-0.4-1.4-0.9-1.8-1.5c-0.4-0.6-0.6-1.4-0.6-2.3c0-0.7,0.1-1.3,0.4-1.9s0.7-1.1,1.2-1.5c0.5-0.4,1.1-0.8,1.8-1
			c0.7-0.2,1.5-0.4,2.3-0.4s1.6,0.1,2.3,0.4c0.7,0.2,1.3,0.6,1.8,1c0.5,0.4,0.9,0.9,1.2,1.5s0.4,1.2,0.4,1.9c0,0.9-0.2,1.7-0.6,2.3
			C21,13.5,20.4,14,19.6,14.4z M16.3,20.9c0.4,0,0.8-0.1,1.1-0.2c0.3-0.1,0.6-0.3,0.8-0.5c0.2-0.2,0.3-0.5,0.4-0.8
			c0.1-0.3,0.1-0.6,0.1-1c0-0.4,0-0.7-0.1-1c-0.1-0.3-0.2-0.6-0.4-0.8c-0.2-0.2-0.4-0.4-0.7-0.5c-0.3-0.1-0.7-0.2-1.1-0.2
			s-0.8,0.1-1.1,0.2c-0.3,0.1-0.6,0.3-0.7,0.5c-0.2,0.2-0.3,0.5-0.4,0.8c-0.1,0.3-0.1,0.7-0.1,1c0,0.3,0,0.7,0.1,1
			c0.1,0.3,0.2,0.6,0.4,0.8c0.2,0.2,0.4,0.4,0.7,0.5C15.5,20.8,15.9,20.9,16.3,20.9z M16.3,8.5c-0.4,0-0.7,0.1-0.9,0.2
			c-0.3,0.1-0.5,0.3-0.6,0.5c-0.2,0.2-0.3,0.4-0.4,0.7c-0.1,0.3-0.1,0.5-0.1,0.8c0,0.3,0,0.6,0.1,0.9s0.2,0.5,0.3,0.8
			c0.2,0.2,0.4,0.4,0.6,0.5c0.3,0.1,0.6,0.2,1,0.2s0.8-0.1,1-0.2c0.3-0.1,0.5-0.3,0.6-0.5c0.2-0.2,0.3-0.5,0.3-0.8s0.1-0.6,0.1-0.9
			c0-0.3,0-0.5-0.1-0.8c-0.1-0.3-0.2-0.5-0.4-0.7c-0.2-0.2-0.4-0.4-0.6-0.5C17,8.6,16.7,8.5,16.3,8.5z"/>
	</g>
</g>
</svg>
