<?xml version="1.0" encoding="utf-8"?>
<!-- Generator: Adobe Illustrator 19.1.0, SVG Export Plug-In . SVG Version: 6.00 Build 0)  -->
<svg version="1.1" id="Layer_1" xmlns="http://www.w3.org/2000/svg" xmlns:xlink="http://www.w3.org/1999/xlink" x="0px" y="0px"
	 viewBox="0 0 32 32" enable-background="new 0 0 32 32" xml:space="preserve">
<g id="_x39_">
	<path fill="#ED1C24" d="M32,27V5c0-2.8-2.2-5-5-5L5,0C2.2,0,0,2.2,0,5l0,22c0,2.8,2.2,5,5,5h22C29.8,32,32,29.8,32,27z"/>
	<g>
		<path fill="#FFFFFF" d="M17.3,18.2c0.1-0.1,0.2-0.3,0.3-0.4s0.2-0.3,0.3-0.4c-0.7,0.4-1.6,0.6-2.5,0.6c-0.6,0-1.1-0.1-1.7-0.3
			c-0.6-0.2-1.1-0.5-1.5-0.9s-0.8-0.9-1.1-1.6s-0.4-1.4-0.4-2.2c0-0.8,0.1-1.5,0.4-2.2c0.3-0.7,0.7-1.3,1.2-1.8s1.2-0.9,1.9-1.3
			s1.6-0.5,2.5-0.5c0.9,0,1.8,0.1,2.5,0.4c0.7,0.3,1.4,0.7,1.9,1.2c0.5,0.5,0.9,1.1,1.2,1.9c0.3,0.7,0.4,1.5,0.4,2.4
			c0,1.1-0.2,2.2-0.5,3.1c-0.3,0.9-0.8,1.8-1.4,2.6l-3.8,5.4c-0.2,0.2-0.4,0.4-0.8,0.6c-0.3,0.2-0.7,0.2-1.2,0.2h-3.4L17.3,18.2z
			 M14.3,12.6c0,1.7,0.8,2.6,2.4,2.6c0.8,0,1.4-0.2,1.8-0.7c0.4-0.5,0.6-1.1,0.6-1.9c0-0.4-0.1-0.8-0.2-1.1
			c-0.1-0.3-0.3-0.6-0.5-0.8s-0.5-0.4-0.8-0.5c-0.3-0.1-0.7-0.2-1-0.2c-0.4,0-0.7,0.1-1,0.2s-0.5,0.3-0.7,0.5
			c-0.2,0.2-0.4,0.5-0.5,0.8C14.4,11.9,14.3,12.3,14.3,12.6z"/>
	</g>
</g>
</svg>
