<?xml version="1.0" encoding="utf-8"?>
<!-- Generator: Adobe Illustrator 18.0.0, SVG Export Plug-In . SVG Version: 6.00 Build 0)  -->
<!DOCTYPE svg PUBLIC "-//W3C//DTD SVG 1.1//EN" "http://www.w3.org/Graphics/SVG/1.1/DTD/svg11.dtd">
<svg version="1.1" id="Layer_1" xmlns="http://www.w3.org/2000/svg" xmlns:xlink="http://www.w3.org/1999/xlink" x="0px" y="0px"
	 viewBox="0 0 32 32" enable-background="new 0 0 32 32" xml:space="preserve">
<path fill="#B2B2B2" d="M32,27V5c0-2.8-2.2-5-5-5L5,0C2.2,0,0,2.2,0,5l0,22c0,2.8,2.2,5,5,5h22C29.8,32,32,29.8,32,27z"/>
<g>
	<path fill="#231F20" d="M10.1,12.3c0.1-0.9,0.4-1.6,0.7-2.3c0.4-0.6,0.8-1.2,1.4-1.6s1.2-0.8,1.9-1c0.7-0.2,1.4-0.3,2.2-0.3
		c0.9,0,1.6,0.1,2.3,0.4c0.7,0.2,1.2,0.6,1.7,1s0.8,0.9,1.1,1.4s0.4,1.1,0.4,1.7c0,0.6-0.1,1-0.2,1.5c-0.1,0.4-0.3,0.8-0.5,1.1
		c-0.2,0.3-0.5,0.6-0.8,0.8c-0.3,0.2-0.7,0.4-1.1,0.5c1.9,0.7,2.9,2,2.9,4c0,0.9-0.2,1.7-0.5,2.4c-0.3,0.7-0.8,1.3-1.3,1.7
		c-0.6,0.5-1.2,0.8-2,1c-0.7,0.2-1.5,0.3-2.3,0.3c-0.8,0-1.6-0.1-2.2-0.3c-0.6-0.2-1.2-0.5-1.7-0.8S11,23,10.6,22.4
		c-0.4-0.6-0.7-1.3-1-2.1l1.7-0.7c0.4-0.2,0.8-0.2,1.2-0.1c0.4,0.1,0.6,0.3,0.8,0.6c0.4,0.7,0.7,1.1,1.1,1.4
		c0.4,0.3,0.9,0.5,1.4,0.5c0.4,0,0.8-0.1,1.1-0.2c0.3-0.1,0.6-0.3,0.8-0.5s0.4-0.5,0.5-0.8c0.1-0.3,0.2-0.6,0.2-0.9
		c0-0.4,0-0.7-0.1-1S18,18,17.8,17.8c-0.2-0.2-0.6-0.4-1.1-0.5c-0.5-0.1-1.2-0.2-2-0.2v-2.6c0.7,0,1.3-0.1,1.8-0.2
		c0.4-0.1,0.8-0.3,1-0.5c0.2-0.2,0.4-0.4,0.5-0.7c0.1-0.3,0.1-0.6,0.1-0.9c0-0.7-0.2-1.2-0.5-1.6s-0.8-0.6-1.5-0.6
		c-0.6,0-1,0.1-1.4,0.4c-0.4,0.3-0.6,0.7-0.8,1.1c-0.2,0.4-0.4,0.7-0.7,0.9c-0.3,0.1-0.7,0.2-1.2,0.1L10.1,12.3z"/>
</g>
</svg>
