<?xml version="1.0" encoding="utf-8"?>
<!-- Generator: Adobe Illustrator 18.0.0, SVG Export Plug-In . SVG Version: 6.00 Build 0)  -->
<!DOCTYPE svg PUBLIC "-//W3C//DTD SVG 1.1//EN" "http://www.w3.org/Graphics/SVG/1.1/DTD/svg11.dtd">
<svg version="1.1" id="Layer_1" xmlns="http://www.w3.org/2000/svg" xmlns:xlink="http://www.w3.org/1999/xlink" x="0px" y="0px"
	 viewBox="0 0 32 32" enable-background="new 0 0 32 32" xml:space="preserve">
<path fill="#A61F67" d="M32,27V5c0-2.8-2.2-5-5-5L5,0C2.2,0,0,2.2,0,5l0,22c0,2.8,2.2,5,5,5h22C29.8,32,32,29.8,32,27z"/>
<g>
	<path d="M19.3,15.7c0.5,0.2,1,0.4,1.3,0.7s0.7,0.6,0.9,0.9c0.2,0.4,0.4,0.7,0.5,1.2c0.1,0.4,0.2,0.9,0.2,1.3c0,0.8-0.2,1.5-0.5,2.1
		c-0.3,0.6-0.7,1.2-1.3,1.6s-1.2,0.8-2,1C17.8,24.8,16.9,25,16,25c-0.9,0-1.8-0.1-2.5-0.4s-1.4-0.6-2-1s-1-1-1.3-1.6
		c-0.3-0.6-0.4-1.4-0.4-2.1c0-0.5,0.1-0.9,0.2-1.3c0.1-0.4,0.3-0.8,0.5-1.2c0.2-0.4,0.5-0.7,0.9-0.9c0.4-0.3,0.8-0.5,1.3-0.7
		c-0.8-0.4-1.4-0.9-1.8-1.5c-0.4-0.6-0.6-1.4-0.6-2.3c0-0.7,0.1-1.3,0.4-1.9c0.3-0.6,0.7-1.1,1.2-1.5c0.5-0.4,1.1-0.8,1.8-1
		c0.7-0.2,1.4-0.4,2.3-0.4c0.8,0,1.6,0.1,2.3,0.4c0.7,0.2,1.3,0.6,1.8,1c0.5,0.4,0.9,0.9,1.2,1.5c0.3,0.6,0.4,1.2,0.4,1.9
		c0,0.9-0.2,1.7-0.6,2.3C20.7,14.8,20.1,15.3,19.3,15.7z M16,22.2c0.4,0,0.8-0.1,1.1-0.2c0.3-0.1,0.6-0.3,0.8-0.5
		c0.2-0.2,0.3-0.5,0.4-0.8c0.1-0.3,0.1-0.6,0.1-1c0-0.4,0-0.7-0.1-1c-0.1-0.3-0.2-0.6-0.4-0.8c-0.2-0.2-0.4-0.4-0.7-0.5
		c-0.3-0.1-0.7-0.2-1.1-0.2s-0.8,0.1-1.1,0.2s-0.6,0.3-0.7,0.5c-0.2,0.2-0.3,0.5-0.4,0.8c-0.1,0.3-0.1,0.7-0.1,1c0,0.3,0,0.7,0.1,1
		c0.1,0.3,0.2,0.6,0.4,0.8c0.2,0.2,0.4,0.4,0.7,0.5S15.6,22.2,16,22.2z M16,9.8c-0.4,0-0.7,0.1-0.9,0.2c-0.3,0.1-0.5,0.3-0.6,0.5
		c-0.2,0.2-0.3,0.4-0.4,0.7C14,11.4,14,11.7,14,11.9c0,0.3,0,0.6,0.1,0.9s0.2,0.5,0.3,0.8c0.2,0.2,0.4,0.4,0.6,0.5
		c0.3,0.1,0.6,0.2,1,0.2s0.8-0.1,1-0.2c0.3-0.1,0.5-0.3,0.6-0.5c0.2-0.2,0.3-0.5,0.3-0.8c0.1-0.3,0.1-0.6,0.1-0.9
		c0-0.3,0-0.5-0.1-0.8s-0.2-0.5-0.4-0.7c-0.2-0.2-0.4-0.4-0.6-0.5C16.7,9.9,16.4,9.8,16,9.8z"/>
</g>
</svg>
