<?xml version="1.0" encoding="utf-8"?>
<!-- Generator: Adobe Illustrator 18.1.1, SVG Export Plug-In . SVG Version: 6.00 Build 0)  -->
<svg version="1.1" id="Layer_2" xmlns="http://www.w3.org/2000/svg" xmlns:xlink="http://www.w3.org/1999/xlink" x="0px" y="0px"
	 viewBox="0 0 952 952" enable-background="new 0 0 952 952" xml:space="preserve">
<path fill="#042932" d="M803,952H149C66.7,952,0,885.3,0,803V149C0,66.7,66.7,0,149,0h654c82.3,0,149,66.7,149,149v654
	C952,885.3,885.3,952,803,952z"/>
<g id="Layer_1" display="none">
	<g display="inline">
		<path fill="#FFFFFF" d="M574.5,763.9h-137V327.8l-134.6,39.3V263.4l259-89.6h12.6V763.9z"/>
	</g>
</g>
<g id="Layer_3" display="none">
	<g display="inline">
		<path fill="#FFFFFF" d="M683.5,763.9H271.7v-89.2l189.7-199.4c46.7-53.2,70.1-95.5,70.1-126.9c0-25.4-5.5-44.7-16.6-58
			c-11.1-13.2-27.2-19.9-48.2-19.9c-20.8,0-37.7,8.9-50.7,26.5c-13,17.7-19.5,39.8-19.5,66.3h-137c0-36.2,9-69.6,27.2-100.3
			c18.1-30.7,43.2-54.6,75.4-71.9c32.1-17.3,68.1-25.9,107.8-25.9c63.8,0,112.9,14.7,147.3,44.2c34.4,29.5,51.7,71.7,51.7,126.9
			c0,23.2-4.3,45.9-13,67.9c-8.7,22-22.1,45.1-40.3,69.3c-18.2,24.2-47.6,56.5-88.1,97.1l-76.2,87.9h232.2V763.9z"/>
	</g>
</g>
<g id="Layer_4" display="none">
	<g display="inline">
		<path fill="#FFFFFF" d="M396.6,411.7H461c51.1,0,76.6-25,76.6-75c0-19.5-6.1-35.3-18.2-47.6c-12.2-12.3-29.3-18.4-51.5-18.4
			c-18.1,0-33.8,5.3-47.2,15.8s-20.1,23.6-20.1,39.3H264c0-31.1,8.6-58.8,25.9-83.1c17.3-24.3,41.3-43.3,71.9-56.9
			c30.7-13.6,64.4-20.5,101.1-20.5c65.7,0,117.3,15,154.8,45c37.6,30,56.3,71.2,56.3,123.6c0,25.4-7.8,49.4-23.3,71.9
			c-15.5,22.6-38.2,40.9-67.9,54.9c31.3,11.3,55.9,28.6,73.8,51.7c17.8,23.1,26.7,51.7,26.7,85.7c0,52.7-20.3,94.8-60.8,126.4
			S529,772,463,772c-38.6,0-74.5-7.4-107.6-22.1c-33.1-14.7-58.2-35.1-75.2-61.2c-17-26.1-25.5-55.7-25.5-89h137.4
			c0,18.1,7.3,33.8,21.9,47c14.6,13.2,32.6,19.9,53.9,19.9c24,0,43.2-6.7,57.5-20.1c14.3-13.4,21.5-30.5,21.5-51.3
			c0-29.7-7.4-50.8-22.3-63.2c-14.9-12.4-35.4-18.6-61.6-18.6h-66.5V411.7z"/>
	</g>
</g>
<g id="Layer_5" display="none">
	<g display="inline">
		<path fill="#FFFFFF" d="M610.4,533.3h60v105.4h-60v125.2H473.9V638.6H245.7l-8.1-83.5L473.9,175v-1.2h136.6V533.3z M367.7,533.3
			h106.2V351.7l-8.5,13.8L367.7,533.3z"/>
	</g>
</g>
<g id="Layer_6">
	<g>
		<path fill="#FFFFFF" d="M279.8,480.5l36.1-301.8h344.9V284H427l-13.4,118c9.7-5.7,22.5-10.7,38.3-15.1c15.8-4.3,31.3-6.5,46.4-6.5
			c58.6,0,103.7,17.4,135.2,52.1c31.5,34.7,47.2,83.4,47.2,146.1c0,37.8-8.4,72.1-25.3,102.7c-16.9,30.7-40.6,54.2-71.1,70.7
			c-30.5,16.5-66.6,24.7-108.2,24.7c-37,0-71.7-7.6-104.2-22.9s-57.8-36.2-76.2-62.8c-18.4-26.6-27.4-56.6-27.2-90.1h137
			c1.3,21.6,8.2,38.7,20.7,51.4c12.4,12.7,28.8,19,49,19c45.9,0,68.9-34,68.9-101.9c0-62.8-28.1-94.2-84.3-94.2
			c-31.9,0-55.7,10.2-71.3,30.7L279.8,480.5z"/>
	</g>
</g>
<g id="Layer_7" display="none">
	<g display="inline">
		<path fill="#FFFFFF" d="M600.8,170.9v107.4h-6.1c-51.1,0-93,12.2-125.8,36.7c-32.8,24.5-53,58.4-60.6,101.9
			c30.8-30.3,69.7-45.4,116.7-45.4c51.1,0,91.7,18.6,122,55.9c30.3,37.3,45.4,86.2,45.4,146.7c0,37.6-8.9,72-26.5,103.3
			c-17.7,31.3-42.4,55.9-74.2,73.6c-31.8,17.7-66.9,26.5-105.6,26.5c-41.9,0-79.3-9.5-112.3-28.6c-33-19-58.6-46.3-77-81.7
			C278.5,632,269,591.2,268.5,545v-54.7c0-60.8,13-115.4,39.1-163.9c26.1-48.5,63.3-86.5,111.7-114.1c48.4-27.6,102-41.3,160.9-41.3
			H600.8z M477.6,476.9c-18.1,0-33.2,4.2-45.4,12.5c-12.2,8.3-21.2,18.6-27.2,30.7v40.8c0,74.3,25.8,111.4,77.4,111.4
			c20.8,0,38.2-9.3,52.1-27.8c13.9-18.6,20.9-41.8,20.9-69.8c0-28.8-7.1-52.3-21.3-70.4C520,486,501.1,476.9,477.6,476.9z"/>
	</g>
</g>
</svg>
