<svg id="target" xmlns="http://www.w3.org/2000/svg" xmlns:xlink="http://www.w3.org/1999/xlink" width="174.364" height="118.566" viewBox="0 0 174.364 118.566">
  <defs>
    <linearGradient id="linear-gradient" x1="-8.486" y1="3.925" x2="-8.486" y2="3.934" gradientUnits="objectBoundingBox">
      <stop offset="0"/>
      <stop offset="1" stop-color="#fff"/>
    </linearGradient>
  </defs>
  <g id="Group_30" data-name="Group 30" transform="translate(63.593 10.01)">
    <g id="Group_3" data-name="Group 3" transform="translate(0 0)">
      <g id="Group_2" data-name="Group 2">
        <path id="Path_1" data-name="Path 1" d="M610.846,87.738a87.316,87.316,0,0,1,14.01-26.5c15.987-20.711,40.55-33.555,65.762-32.227a68.043,68.043,0,0,1,7.3.791h0A65.681,65.681,0,0,1,717.5,36.249V137.412H610.369a77.974,77.974,0,0,1-3.558-20.174,83.409,83.409,0,0,1,4.035-29.5Z" transform="translate(-606.732 -28.917)" fill="#fff"/>
      </g>
    </g>
    <g id="Group_6" data-name="Group 6" transform="translate(6.04 7.152)">
      <g id="Group_4" data-name="Group 4" transform="translate(0.114 0.164)">
        <path id="Path_2" data-name="Path 2" d="M616.531,89.169a79,79,0,0,1,32.116-41.888c13.929-8.972,30.463-13.087,46.856-10.269a58.3,58.3,0,0,1,21.917,8.566v91.8H617.281a72.99,72.99,0,0,1-.75-48.2Z" transform="translate(-612.802 -36.135)" fill="#fff"/>
      </g>
      <g id="Group_5" data-name="Group 5">
        <path id="Path_3" data-name="Path 3" d="M616.968,136.879c.051.152.112.294.162.446h.355a.921.921,0,0,0-.132-.335,72.838,72.838,0,0,1-.689-47.778A78.83,78.83,0,0,1,649.5,47a69.725,69.725,0,0,1,23.053-9.367,61.272,61.272,0,0,1,22.941-.416,59.361,59.361,0,0,1,9.235,2.372,57.646,57.646,0,0,1,12.692,6.255v-.487a58.869,58.869,0,0,0-21.867-8.505,61.838,61.838,0,0,0-23.316.487,70.739,70.739,0,0,0-24.1,10.137,79.245,79.245,0,0,0-31.71,41.645,73.192,73.192,0,0,0,.537,47.758Z" transform="translate(-612.69 -35.973)" fill="#fbd5a2"/>
      </g>
    </g>
    <g id="Group_8" data-name="Group 8" transform="translate(12.907 15.252)">
      <g id="Group_7" data-name="Group 7">
        <path id="Path_4" data-name="Path 4" d="M622.734,90.745c9.286-28.77,36.607-48.721,64.454-46.633a52.2,52.2,0,0,1,30.139,12.4v80.755H625.076A64.051,64.051,0,0,1,622.734,90.745Z" transform="translate(-619.464 -43.962)" fill="#231f20"/>
      </g>
    </g>
    <g id="Group_11" data-name="Group 11" transform="translate(17.81 20.957)">
      <g id="Group_9" data-name="Group 9" transform="translate(0.144 0.127)">
        <path id="Path_5" data-name="Path 5" d="M627.4,91.923c9-27.9,36.708-46.5,63.562-41.351a46.045,46.045,0,0,1,26.3,15.125v71.49H631.242C623.994,124.271,622.26,107.838,627.4,91.923Z" transform="translate(-624.442 -49.715)" fill="#231f20"/>
      </g>
      <g id="Group_10" data-name="Group 10">
        <path id="Path_6" data-name="Path 6" d="M717.038,137.188h.223v-.3Zm-85.946,0h.406c-7.258-12.844-9.053-29.277-3.923-45.163,8-24.806,30.93-42.273,54.742-42.061a47.644,47.644,0,0,1,8.566.841,45.943,45.943,0,0,1,22.3,11.151,48.448,48.448,0,0,1,4.055,4.146v-.629a47.879,47.879,0,0,0-4.167-4.2A46.136,46.136,0,0,0,691,50.442a48.659,48.659,0,0,0-8.911-.852c-23.9-.061-46.846,17.487-54.864,42.354C622.121,107.789,623.874,124.232,631.092,137.188Z" transform="translate(-624.3 -49.59)" fill="#6d6e71"/>
      </g>
    </g>
    <g id="Group_13" data-name="Group 13" transform="translate(24.061 28.047)">
      <g id="Group_12" data-name="Group 12">
        <path id="Path_7" data-name="Path 7" d="M633.035,93.349c7.887-24.492,32.237-40.662,55.675-35.948a40.55,40.55,0,0,1,28.466,22.161v42.73a55.09,55.09,0,0,1-9.58,14.8H639.117C630.612,125.383,627.966,109.113,633.035,93.349Z" transform="translate(-630.467 -56.584)" fill="#424caf"/>
      </g>
    </g>
    <g id="Group_16" data-name="Group 16" transform="translate(30.65 35.609)">
      <g id="Group_14" data-name="Group 14" transform="translate(0.154 0.114)">
        <path id="Path_8" data-name="Path 8" d="M639.259,94.938c6.65-20.691,27.24-34.194,46.9-30.027,20.711,4.39,32.521,26.52,25.344,49.3a45.762,45.762,0,0,1-15.865,22.779H649.407C638.469,127.327,634.14,110.864,639.259,94.938Z" transform="translate(-637.118 -64.155)" fill="#424caf"/>
      </g>
      <g id="Group_15" data-name="Group 15">
        <path id="Path_9" data-name="Path 9" d="M648.263,136.118c.284.274.578.547.882.811h.568c-.355-.3-.7-.618-1.014-.933-10.239-9.661-14.193-25.607-9.256-41.016,6.579-20.569,27.128-34.021,46.663-29.885.9.193,1.794.416,2.656.679C701.942,69.687,711,81.122,712.992,95.01a43.164,43.164,0,0,1-1.683,19.15,45.345,45.345,0,0,1-16.027,22.83h.639a45.973,45.973,0,0,0,15.764-22.678,43.45,43.45,0,0,0,1.541-20.275c-2.311-13.665-11.455-24.806-24.573-28.6q-1.186-.345-2.433-.608C666.5,60.553,645.78,74.137,639.109,94.9,634.142,110.348,638.065,126.355,648.263,136.118Z" transform="translate(-636.967 -64.043)" fill="#318cba"/>
      </g>
    </g>
    <g id="Group_18" data-name="Group 18" transform="translate(36.517 42.121)">
      <g id="Group_17" data-name="Group 17">
        <path id="Path_10" data-name="Path 10" d="M644.544,96.28c5.606-17.477,23.012-28.77,39.536-25.131,17.234,3.812,26.956,22.3,20.975,41.26a37.265,37.265,0,0,1-23.58,24.431H662.417C646.714,131.488,639,113.585,644.544,96.28Z" transform="translate(-642.754 -70.467)" fill="#c44390"/>
      </g>
    </g>
    <g id="Group_21" data-name="Group 21" transform="translate(43.227 49.628)">
      <g id="Group_19" data-name="Group 19" transform="translate(0.161 0.123)">
        <path id="Path_11" data-name="Path 11" d="M681.575,78.568c13.179,3.041,20.518,17.3,15.936,31.761S678.391,133.31,665.4,129.377c-12.54-3.8-18.846-17.852-14.487-31.477S668.822,75.628,681.575,78.568Z" transform="translate(-649.532 -77.994)" fill="#c44390"/>
      </g>
      <g id="Group_20" data-name="Group 20">
        <path id="Path_12" data-name="Path 12" d="M663.441,128.892c.618.253,1.247.466,1.9.669,13.037,3.964,27.746-4.6,32.359-19.18,3.477-10.989.1-21.9-7.482-27.878a21.633,21.633,0,0,0-8.576-4.055c-12.824-2.96-26.5,5.8-30.879,19.464C646.592,110.847,652.107,124.279,663.441,128.892Zm.4-.253c-11.344-4.45-16.9-17.791-12.763-30.7,4.319-13.473,17.8-22.11,30.413-19.19a21.38,21.38,0,0,1,8.667,4.227c7.319,5.941,10.543,16.575,7.157,27.31-4.552,14.365-19.038,22.8-31.883,18.906-.558-.162-1.095-.355-1.622-.558Z" transform="translate(-649.373 -77.872)" fill="#b11629"/>
      </g>
    </g>
    <path id="Path_13" data-name="Path 13" d="M678.793,86.876c8.729,2.119,13.5,11.6,10.462,21.167s-12.641,15.206-21.289,12.753c-8.435-2.463-12.763-11.861-9.823-21.045S670.257,84.8,678.793,86.876Z" transform="translate(-606.038 -28.126)" fill="#fff"/>
    <path id="Path_14" data-name="Path 14" d="M676.641,93.264c5.353,1.348,8.242,7.2,6.376,13.047s-7.725,9.377-13.037,7.877-7.958-7.289-6.083-13S671.37,91.986,676.641,93.264Z" transform="translate(-605.954 -28.036)" fill="#fff"/>
    <path id="Path_15" data-name="Path 15" d="M669.922,114.372c5.393,1.521,11.374-2.027,13.27-8.019s-1.014-11.9-6.488-13.26-11.151,2.271-13.017,8.11S664.6,112.872,669.922,114.372Zm12.925-8.11c-1.825,5.748-7.6,9.215-12.814,7.745s-7.806-7.177-6.022-12.763,7.39-9.124,12.571-7.786S684.693,100.555,682.848,106.262Z" transform="translate(-605.957 -28.039)" fill="#cf5b4d"/>
    <path id="Path_16" data-name="Path 16" d="M674.35,99l.284.1a4.3,4.3,0,0,1,2.453,5.555,4.805,4.805,0,0,1-5.626,3.416l-.233-.081a4.288,4.288,0,0,1-2.453-5.555A4.826,4.826,0,0,1,674.35,99Z" transform="translate(-605.883 -27.955)" fill="#fff"/>
    <path id="Path_17" data-name="Path 17" d="M668.523,102.643a4.481,4.481,0,0,0,2.879,5.636,5.008,5.008,0,0,0,5.849-3.568,1.067,1.067,0,0,1,.1-.284,4.471,4.471,0,0,0-2.94-5.6,5.069,5.069,0,0,0-5.809,3.579C668.574,102.481,668.553,102.562,668.523,102.643Zm8.394,2.027a4.623,4.623,0,0,1-5.393,3.285l-.213-.071a4.136,4.136,0,0,1-2.372-5.342,4.653,4.653,0,0,1,5.363-3.295l.253.091a4.126,4.126,0,0,1,2.362,5.332Z" transform="translate(-605.885 -27.957)" fill="#cf5b4d"/>
  </g>
  <g id="Group_33" data-name="Group 33" transform="translate(99.204 93.688)" opacity="0.35">
    <path id="Path_20" data-name="Path 20" d="M672.8,111.46l-30.94,24.877h2.352l30.595-24.33Z" transform="translate(-641.86 -111.46)" fill="#231f20"/>
  </g>
  <g id="Group_34" data-name="Group 34" transform="translate(82.842 84.463)" opacity="0.35">
    <path id="Path_21" data-name="Path 21" d="M680.321,102.36,625.72,136.4h3.649l52.969-33.525Z" transform="translate(-625.72 -102.36)" fill="#231f20"/>
  </g>
  <g id="Group_35" data-name="Group 35" transform="translate(69.065 85.619)" opacity="0.35">
    <path id="Path_22" data-name="Path 22" d="M671.019,103.5,612.13,136.447h3.041l57.835-32.44Z" transform="translate(-612.13 -103.5)" fill="#231f20"/>
  </g>
  <g id="Group_1687" data-name="Group 1687">
    <g id="Group_32" data-name="Group 32" transform="translate(63.593 10.01)" opacity="0.1">
      <g id="Group_31" data-name="Group 31" transform="translate(0 0)">
        <path id="Path_18" data-name="Path 18" d="M610.846,87.738a87.316,87.316,0,0,1,14.01-26.5c15.987-20.711,40.55-33.555,65.762-32.227a68.043,68.043,0,0,1,7.3.791h0A65.681,65.681,0,0,1,717.5,36.249V137.412H610.369a77.974,77.974,0,0,1-3.558-20.174,83.409,83.409,0,0,1,4.035-29.5Z" transform="translate(-606.732 -28.917)" fill="url(#linear-gradient)"/>
      </g>
    </g>
    <g id="Group_41" data-name="Group 41" transform="translate(0 19.264)">
      <g id="Group_36" data-name="Group 36" transform="translate(3.222 2.58)">
        <path id="Path_23" data-name="Path 23" d="M548.194,40.59l-1.014,1.977,125.36,62.579h0a1.014,1.014,0,0,0,1.338-.456l.091-.172h0a1.014,1.014,0,0,0-.446-1.348Z" transform="translate(-547.18 -40.59)" fill="#fbd5a2"/>
      </g>
      <g id="Group_37" data-name="Group 37" transform="translate(3.253 3.664)">
        <path id="Path_24" data-name="Path 24" d="M547.656,41.66l-.446.892,125.361,62.579h0a1.014,1.014,0,0,0,1.338-.446Z" transform="translate(-547.21 -41.66)" fill="#d6a667"/>
      </g>
      <path id="Path_25" data-name="Path 25" d="M547.9,40.493l18.552,9.256s-6.833-8.171-12.013-10.827S547.9,40.493,547.9,40.493Z" transform="translate(-543.948 -38.045)" fill="#493782"/>
      <path id="Path_26" data-name="Path 26" d="M546.939,42.4s-2.565,3.629,2.676,6.174,15.875,3.041,15.875,3.041Z" transform="translate(-543.97 -37.985)" fill="#493782"/>
      <path id="Path_27" data-name="Path 27" d="M545.642,39.322a1.133,1.133,0,0,0-1.014,2.027l2.6,1.3,1.014-1.977-2.6-1.3Z" transform="translate(-544.002 -38.029)" fill="#493782"/>
    </g>
    <g id="Group_47" data-name="Group 47" transform="translate(37.999 0)">
      <g id="Group_42" data-name="Group 42" transform="translate(2.55 2.157)">
        <path id="Path_28" data-name="Path 28" d="M585.45,21.17,584,22.833l97.493,81.293h0a1.014,1.014,0,0,0,1.419-.112l.122-.142h0a1.014,1.014,0,0,0-.112-1.409Z" transform="translate(-584 -21.17)" fill="#fbd5a2"/>
      </g>
      <g id="Group_43" data-name="Group 43" transform="translate(2.56 3.059)">
        <path id="Path_29" data-name="Path 29" d="M584.669,22.06l-.659.76,97.482,81.293h0a1.014,1.014,0,0,0,1.419-.1Z" transform="translate(-584.01 -22.06)" fill="#d6a667"/>
      </g>
      <path id="Path_30" data-name="Path 30" d="M585.21,21.022l16.22,13.513s-5.119-9.56-9.479-13.422S585.21,21.022,585.21,21.022Z" transform="translate(-581.434 -19.038)" fill="#493782"/>
      <path id="Path_31" data-name="Path 31" d="M583.8,22.6s-3.386,2.889,1.075,6.64,15.095,6.853,15.095,6.853Z" transform="translate(-581.47 -18.994)" fill="#493782"/>
      <path id="Path_32" data-name="Path 32" d="M581.764,19.4a1.095,1.095,0,0,0,.091,1.551l2.179,1.906,1.44-1.673-2.2-1.9a1.1,1.1,0,0,0-1.51.111Z" transform="translate(-581.485 -19.043)" fill="#493782"/>
    </g>
    <g id="Group_53" data-name="Group 53" transform="translate(0.42 71.239)">
      <g id="Group_48" data-name="Group 48" transform="translate(3.846 3.735)">
        <path id="Path_33" data-name="Path 33" d="M548.524,93l-.314,2.18,127.327,17.061h0a1.014,1.014,0,0,0,1.135-.841v-.2h0a1.014,1.014,0,0,0-.841-1.135Z" transform="translate(-548.21 -93)" fill="#fbd5a2"/>
      </g>
      <g id="Group_49" data-name="Group 49" transform="translate(3.846 4.88)">
        <path id="Path_34" data-name="Path 34" d="M548.352,94.13l-.142,1.014,127.327,17.061h0a1.014,1.014,0,0,0,1.135-.841Z" transform="translate(-548.21 -94.13)" fill="#d6a667"/>
      </g>
      <path id="Path_35" data-name="Path 35" d="M548.21,92.97l20.954,2.808s-9.479-5.413-15.206-6.336S548.21,92.97,548.21,92.97Z" transform="translate(-544.364 -89.316)" fill="#493782"/>
      <path id="Path_36" data-name="Path 36" d="M547.892,95.07s-1.308,4.248,4.46,5.069,16.788-2.18,16.788-2.18Z" transform="translate(-544.37 -89.237)" fill="#493782"/>
      <path id="Path_37" data-name="Path 37" d="M545.657,92.54a1.1,1.1,0,1,0-.284,2.18l2.879.426.324-2.18L545.7,92.54Z" transform="translate(-544.416 -89.272)" fill="#493782"/>
    </g>
  </g>
</svg>
