<?xml version="1.0" standalone="no"?>
<!DOCTYPE svg PUBLIC "-//W3C//DTD SVG 1.1//EN" "http://www.w3.org/Graphics/SVG/1.1/DTD/svg11.dtd" >
<svg xmlns="http://www.w3.org/2000/svg" xmlns:xlink="http://www.w3.org/1999/xlink" version="1.1">
<metadata>
Created by FontForge 20150318 at Thu Aug 13 10:14:25 2015
 By uniteet7
Copyright (c) 2011 by Ruben Hakobyan (Tarumian). All rights reserved.
</metadata>
<defs>
<font id="arnamu_bold" horiz-adv-x="1128" >
  <font-face 
    font-family="arnamu_bold"
    font-weight="700"
    font-stretch="normal"
    units-per-em="2048"
    panose-1="1 0 0 0 0 0 0 0 0 0"
    ascent="1638"
    descent="-410"
    x-height="1062"
    cap-height="1466"
    bbox="-1229 -692 2296 1951"
    underline-thickness="150"
    underline-position="-142"
    unicode-range="U+0020-FB17"
  />
<missing-glyph horiz-adv-x="1451" 
d="M100 0v1416h1239v-1416h-1239zM1150 189v1038h-861v-1038h861z" />
    <glyph glyph-name=".notdef" horiz-adv-x="1451" 
d="M100 0v1416h1239v-1416h-1239zM1150 189v1038h-861v-1038h861z" />
    <glyph glyph-name=".null" horiz-adv-x="0" 
 />
    <glyph glyph-name="nonmarkingreturn" horiz-adv-x="586" 
 />
    <glyph glyph-name="space" unicode=" " horiz-adv-x="586" 
 />
    <glyph glyph-name="exclam" unicode="!" horiz-adv-x="603" 
d="M210 394l-60 689v383h303v-383l-58 -689h-185zM157 0v284h288v-284h-288z" />
    <glyph glyph-name="quotedbl" unicode="&#x22;" horiz-adv-x="898" 
d="M152 897l-52 299v270h288v-268l-47 -301h-189zM560 897l-50 299v270h288v-270l-49 -299h-189z" />
    <glyph glyph-name="numbersign" unicode="#" horiz-adv-x="1260" 
d="M162 -22l75 386h-137v233h182l46 232h-228v233h272l86 426h240l-83 -426h162l85 426h242l-83 -426h139v-233h-185l-45 -232h230v-233h-276l-77 -386h-240l75 386h-163l-76 -386h-241zM523 597h164l46 232h-164z" />
    <glyph glyph-name="dollar" unicode="$" horiz-adv-x="1225" 
d="M543 -211v192q-57 2 -116.5 9t-115.5 17t-105 22.5t-83 24.5v281q44 -17 94.5 -33t104.5 -29.5t110 -22.5t111 -11v398l-64 18q-71 21 -139 48.5t-121.5 72t-86 111.5t-32.5 166q0 100 34.5 174.5t94.5 126t140.5 82t173.5 43.5v123h178v-115q99 -2 183 -13t150 -25v-280
q-80 20 -150 34.5t-146 20.5l-37 2v-357q52 -13 105.5 -30t102.5 -41.5t92 -58.5t75 -80.5t50.5 -107t18.5 -138.5q0 -93 -32 -166t-90.5 -126t-140 -86.5t-181.5 -46.5v-199h-178zM788 282q34 22 52.5 54t18.5 77q0 60 -32.5 98t-86.5 63l-19 8v-330q38 10 67 30zM474 1186
q-33 -20 -51 -49.5t-18 -68.5q0 -52 32 -84t86 -55l20 -8v294q-39 -10 -69 -29z" />
    <glyph glyph-name="percent" unicode="%" horiz-adv-x="1629" 
d="M100 1104q0 76 16.5 145.5t55 122.5t102 84.5t157.5 31.5t155 -31.5t97 -84t50.5 -122.5t14.5 -146q0 -77 -14.5 -146t-50.5 -122t-97 -84t-155 -31t-157.5 31.5t-102 84t-55 122t-16.5 145.5zM299 1104q0 -64 9.5 -106t27 -67.5t42 -36t53.5 -10.5t52.5 10.5t40 36
t25.5 67.5t9 106t-9 106t-25.5 67.5t-40 36t-52.5 10.5t-53 -10.5t-41.5 -36t-27.5 -67.5t-10 -106zM881 361q0 76 16.5 145.5t55 122.5t102 84.5t157.5 31.5t155 -31.5t97 -84t50.5 -122.5t14.5 -146q0 -77 -14.5 -146t-50.5 -122t-97 -84t-155 -31t-157.5 31.5t-102 84
t-55 122t-16.5 145.5zM1080 361q0 -64 9.5 -106t27 -67.5t42 -36t53.5 -10.5t52.5 10.5t40 36t25.5 67.5t9 106t-9 106t-25.5 67.5t-40 36t-52.5 10.5t-53 -10.5t-41.5 -36t-27.5 -67.5t-10 -106zM171 -22l1073 1510h211l-1073 -1510h-211z" />
    <glyph glyph-name="ampersand" unicode="&#x26;" horiz-adv-x="1453" 
d="M869 897h541v-263h-176v-208q0 -109 -42.5 -192.5t-117.5 -140.5t-178.5 -86t-224.5 -29q-122 0 -227.5 31.5t-183 91t-121.5 145.5t-44 195q0 55 12 107.5t38 97.5t67.5 81t100.5 57q-33 17 -62.5 44t-51.5 62.5t-35 77t-13 88.5q0 104 34 184.5t99.5 135.5t161 83.5
t217.5 28.5q117 0 215 -11.5t173 -25.5v-273q-98 26 -191 38t-198 12q-109 0 -164.5 -42.5t-55.5 -134.5q0 -70 55 -112t161 -42h28v-263h-28q-76 0 -128 -12.5t-84 -37t-46 -60.5t-14 -83t19 -87t55 -69t89 -45.5t122 -16.5q138 0 208 54t70 149v208h-80v263z" />
    <glyph glyph-name="quotesingle" unicode="'" horiz-adv-x="488" 
d="M149 897l-49 295v274h288v-274l-49 -295h-190z" />
    <glyph glyph-name="parenleft" unicode="(" horiz-adv-x="648" 
d="M50 539q0 119 19.5 240.5t57.5 240t94.5 231.5t130.5 215h274q-61 -88 -115.5 -192.5t-95.5 -222t-65 -246.5t-24 -266t24 -269t65 -253.5t95.5 -228.5t115.5 -195h-274q-74 102 -130.5 218t-94.5 238t-57.5 246.5t-19.5 243.5z" />
    <glyph glyph-name="parenright" unicode=")" horiz-adv-x="648" 
d="M557 539q0 -119 -19.5 -243.5t-57.5 -246.5t-94.5 -238t-130.5 -218h-274q61 88 115.5 195t95.5 228.5t65 253.5t24 269t-24 266t-65 246.5t-95.5 222t-115.5 192.5h274q74 -102 130.5 -215t94.5 -231.5t57.5 -240t19.5 -240.5z" />
    <glyph glyph-name="asterisk" unicode="*" horiz-adv-x="858" 
d="M50 1122l74 234l200 -86l-16 218h242l-16 -218l203 83l71 -233l-210 -50l147 -171l-199 -143l-115 186l-108 -188l-201 144l144 173z" />
    <glyph glyph-name="plus" unicode="+" horiz-adv-x="1031" 
d="M362 243v347h-347v241h347v344h258v-344h349v-241h-349v-347h-258z" />
    <glyph glyph-name="comma" unicode="," horiz-adv-x="558" 
d="M135 0v284h288v-235q0 -127 -52 -218.5t-161 -141.5l-88 139q54 24 77 71.5t23 100.5h-87z" />
    <glyph glyph-name="hyphen" unicode="-" horiz-adv-x="655" 
d="M50 399v263h555v-263h-555z" />
    <glyph glyph-name="period" unicode="." horiz-adv-x="558" 
d="M135 0v284h288v-284h-288z" />
    <glyph glyph-name="slash" unicode="/" horiz-adv-x="638" 
d="M0 0l418 1466h220l-420 -1466h-218z" />
    <glyph glyph-name="zero" unicode="0" horiz-adv-x="1229" 
d="M104 722q0 85 7 175t27 175t55.5 160.5t92 132.5t137 90t190.5 33t190.5 -34t137.5 -91.5t92.5 -134t55.5 -161.5t27.5 -174t7.5 -171t-7.5 -169t-27.5 -170t-55.5 -156.5t-92.5 -128.5t-137.5 -87.5t-190.5 -32.5t-190.5 31.5t-137 85.5t-92 126.5t-55.5 155t-27 171
t-7 174.5zM380 722q0 -55 2.5 -114.5t11 -116t24.5 -107.5t42 -89t63.5 -60.5t89.5 -22.5t90 22.5t64 60.5t42 89t24.5 107.5t11.5 116t3 114.5t-3 116t-11.5 120t-24.5 112.5t-42 94t-64 64.5t-91 24t-90.5 -24t-63.5 -64.5t-41.5 -94t-23.5 -112.5t-10.5 -119.5
t-2.5 -116.5z" />
    <glyph glyph-name="one" unicode="1" horiz-adv-x="1229" 
d="M819 0h-265v1227h-201v239h466v-1466z" />
    <glyph glyph-name="two" unicode="2" horiz-adv-x="1229" 
d="M560 1252q-41 0 -80.5 -3.5t-81.5 -11t-87 -20t-97 -30.5v253q69 18 160.5 33t199.5 15q235 0 361.5 -117.5t126.5 -346.5q0 -110 -41.5 -214t-111.5 -201.5t-160.5 -188t-188.5 -172.5h480v-248h-890v210q154 130 273 237.5t200 204t122.5 186.5t41.5 184q0 67 -18 111
t-49 70.5t-72.5 37.5t-87.5 11z" />
    <glyph glyph-name="three" unicode="3" horiz-adv-x="1229" 
d="M535 214q54 0 101.5 8.5t83.5 32.5t57 66.5t21 109.5t-19.5 111.5t-50 70.5t-68 37t-73.5 11h-127v236h124q36 0 66.5 12.5t53 35.5t35 57t12.5 76t-15.5 75t-43 55t-66 33.5t-83.5 11.5q-38 0 -80 -3.5t-85 -11t-83.5 -18t-75.5 -23.5v250q41 10 87 17.5t92 13t89.5 8
t80.5 2.5q97 0 179.5 -27.5t143.5 -79.5t95.5 -126t34.5 -168q0 -101 -38.5 -175t-106.5 -115q103 -51 151 -144t48 -221q0 -123 -43.5 -209t-117.5 -140t-172 -78.5t-207 -24.5q-38 0 -84 4t-94 11t-94.5 17t-85.5 21v250q34 -12 82 -24.5t98 -22.5t97 -16t81 -6z" />
    <glyph glyph-name="four" unicode="4" horiz-adv-x="1229" 
d="M707 0v319h-625v209q63 119 145.5 241.5t176 243t194 235.5t198.5 218h176v-900h137v-247h-137v-319h-265zM707 566v446q-12 -20 -23 -36t-22 -30q-37 -45 -75 -94.5t-73.5 -99.5t-67 -97.5t-55.5 -88.5h316z" />
    <glyph glyph-name="five" unicode="5" horiz-adv-x="1229" 
d="M527 214q56 0 106.5 16t89 49.5t61 85t22.5 122.5q0 107 -50 167t-145 60q-61 0 -110 -26t-84 -87h-241q0 60 4 132t10.5 149.5t15.5 157.5t19 156.5t21.5 145t22.5 124.5h760v-248h-543q-6 -29 -12 -69t-11 -82.5t-8.5 -84t-5.5 -72.5q38 18 88 28.5t106 10.5
q51 0 103.5 -10t102 -32.5t92.5 -58t75.5 -87t51 -119.5t18.5 -155q0 -124 -43.5 -219t-119.5 -159t-179.5 -96.5t-222.5 -32.5q-38 0 -82 4t-90.5 12t-93.5 20t-90 29v257q47 -24 96 -40.5t96 -27t90.5 -15.5t79.5 -5z" />
    <glyph glyph-name="six" unicode="6" horiz-adv-x="1229" 
d="M366 674q0 -98 15 -181.5t48 -144t85 -95t126 -34.5q48 0 88 16.5t69 49.5t45 81.5t16 113.5q0 51 -15 94t-44 73.5t-70.5 47.5t-95.5 17q-59 0 -112.5 -24.5t-94.5 -73.5q-1 14 -1 28v30q0 59 4.5 118t13.5 107q38 22 94.5 36.5t129.5 14.5q105 0 192 -33t148.5 -94
t95.5 -147.5t34 -192.5q0 -121 -39.5 -215t-107.5 -158t-158.5 -97t-192.5 -33q-101 0 -197 34t-172 115t-122 215.5t-46 334.5q0 208 48.5 361t132 253t195.5 148.5t239 48.5q35 0 68 -1.5t66.5 -5t68 -10.5t72.5 -17v-252q-72 32 -134.5 41.5t-110.5 9.5q-81 0 -151 -28.5
t-121 -96t-80 -178.5t-29 -276z" />
    <glyph glyph-name="seven" unicode="7" horiz-adv-x="1229" 
d="M134 1218v248h936v-213q-60 -87 -120 -184.5t-115.5 -201t-104.5 -212.5t-87.5 -219.5t-63.5 -220t-32 -215.5h-294q15 147 63.5 308t119 321t156 311t173.5 278h-631z" />
    <glyph glyph-name="eight" unicode="8" horiz-adv-x="1229" 
d="M100 441q0 65 14.5 121.5t41.5 102.5t64 80t82 53q-80 47 -118.5 120t-38.5 164q0 94 37.5 169.5t101.5 128t149.5 80.5t180.5 28t180 -28t149 -80.5t101.5 -128t37.5 -169.5q0 -89 -40.5 -163.5t-115.5 -123.5q42 -18 79.5 -51t65 -79t43.5 -102.5t16 -121.5
q0 -116 -41.5 -203t-112 -144.5t-164 -86.5t-197.5 -29t-197.5 29t-164 86.5t-112 144.5t-41.5 203zM370 440q0 -58 17.5 -100.5t50 -71t77.5 -42.5t100 -14t100 14t77.5 42.5t50 71t17.5 100.5t-18.5 101t-51.5 71t-78 42t-97 14q-50 0 -94.5 -14t-78 -42t-53 -71
t-19.5 -101zM415 1083q0 -87 54 -133.5t146 -46.5q91 0 145 46.5t54 133.5q0 85 -54 127.5t-145 42.5q-92 0 -146 -42.5t-54 -127.5z" />
    <glyph glyph-name="nine" unicode="9" horiz-adv-x="1229" 
d="M857 792q0 98 -15.5 181.5t-48.5 144t-85 95t-125 34.5q-48 0 -88 -16.5t-69 -49.5t-45 -82t-16 -113q0 -51 15 -94t44 -73.5t70.5 -47.5t95.5 -17q59 0 112.5 24.5t94.5 73.5q1 -14 1 -29v-29q0 -59 -4.5 -118t-13.5 -107q-38 -22 -94.5 -36.5t-130.5 -14.5
q-105 0 -191.5 33t-148 94t-95.5 147t-34 193q0 121 39.5 215t107.5 158t158.5 97t192.5 33q67 0 133 -14.5t125.5 -48t110.5 -87t88.5 -131t58.5 -181.5t21 -237q0 -209 -48.5 -361.5t-132 -252.5t-195.5 -148.5t-239 -48.5q-35 0 -68 1.5t-66.5 5t-68 10t-72.5 17.5v252
q72 -32 134.5 -41.5t110.5 -9.5q81 0 151 28.5t121 96t80 178.5t29 276z" />
    <glyph glyph-name="colon" unicode=":" horiz-adv-x="558" 
d="M135 0v284h288v-284h-288zM135 778v284h288v-284h-288z" />
    <glyph glyph-name="semicolon" unicode=";" horiz-adv-x="558" 
d="M135 0v284h288v-235q0 -127 -52 -218.5t-161 -141.5l-88 139q54 24 77 71.5t23 100.5h-87zM135 778v284h288v-284h-288z" />
    <glyph glyph-name="less" unicode="&#x3c;" horiz-adv-x="1112" 
d="M66 601v212l955 421v-273l-597 -255l597 -259v-271z" />
    <glyph glyph-name="equal" unicode="=" horiz-adv-x="1153" 
d="M1053 782h-953v251h953v-251zM1053 379h-953v250h953v-250z" />
    <glyph glyph-name="greater" unicode="&#x3e;" horiz-adv-x="1112" 
d="M1046 601l-955 -425v272l596 258l-596 255v273l955 -421v-212z" />
    <glyph glyph-name="question" unicode="?" horiz-adv-x="995" 
d="M425 1250q-94 0 -178 -15.5t-167 -42.5v259q69 14 160 25.5t195 11.5q127 0 219.5 -28t152.5 -79t88.5 -122t28.5 -156q0 -66 -15 -117.5t-39.5 -93.5t-56 -78t-64.5 -70t-64.5 -68.5t-57 -75t-41.5 -89t-17 -109.5h-269q0 90 26 162.5t65.5 132.5t85.5 110.5t85.5 97
t65.5 92t26 95.5q0 52 -20.5 83t-53 47.5t-73.5 22t-82 5.5zM289 0v284h288v-284h-288z" />
    <glyph glyph-name="at" unicode="@" horiz-adv-x="1939" 
d="M684 431q0 -51 8.5 -91t27 -68t48.5 -43t73 -15q61 0 109.5 33t82 90t51.5 132.5t18 160.5q0 108 -41 164t-119 56q-51 0 -97.5 -27t-82.5 -80.5t-57 -131.5t-21 -180zM1017 1320q-123 0 -227 -30.5t-188 -85t-148 -129.5t-107 -164t-65 -188t-22 -202q0 -190 52 -334.5
t149.5 -242.5t238.5 -148t320 -50q130 0 235.5 23t191 66t152.5 103.5t121 135.5h202q-74 -136 -179.5 -231t-226.5 -155t-250 -87.5t-249 -27.5q-137 0 -261 27.5t-229.5 81.5t-191 134t-145 185.5t-92 236t-32.5 285.5q0 150 35 280t98.5 237.5t151.5 190.5t193.5 140.5
t225.5 87t247 29.5q187 0 339.5 -59t261 -164.5t168 -252.5t59.5 -322q0 -91 -17.5 -179t-50 -167t-80.5 -146t-109.5 -116t-135 -76.5t-158.5 -27.5q-75 0 -128.5 25.5t-82.5 74.5q-115 -100 -287 -100q-79 0 -150 30t-125 88.5t-85.5 145.5t-31.5 202q0 138 39.5 255
t110 202.5t168.5 134t216 48.5q69 0 131 -20t111 -65l13 63h275l-165 -779q-1 -4 -2.5 -14.5t-1.5 -21.5q0 -20 12 -26t38 -6q60 0 114.5 34.5t96 97.5t66 151.5t24.5 196.5q0 146 -45.5 262t-129 196.5t-200 123.5t-258.5 43z" />
    <glyph glyph-name="A" unicode="A" horiz-adv-x="1473" 
d="M1185 0q-13 59 -32 132t-43 154t-53 169t-62 183h-434q2 6 9.5 24.5t17.5 46.5t21.5 59.5t21.5 59t17.5 47t9.5 22.5h239q-32 80 -64.5 157t-66.5 151h-60q-45 -100 -89.5 -208t-86 -217.5t-79 -218t-69 -209t-55.5 -190.5t-39 -162h-288q22 104 56 228t77 256.5
t92.5 268t101.5 264t104.5 243.5t101.5 206h407q49 -91 102 -206.5t105 -243.5t101.5 -264t92 -268.5t76.5 -256.5t56 -227h-288z" />
    <glyph glyph-name="B" unicode="B" horiz-adv-x="1359" 
d="M150 1466q142 0 285.5 11t285.5 11q126 0 221.5 -29t160 -83t97.5 -131t33 -173q0 -43 -9.5 -86t-29 -81.5t-50.5 -70t-73 -50.5q51 -16 91.5 -48.5t68.5 -77.5t43 -100.5t15 -116.5q0 -112 -42.5 -195t-118 -137.5t-178.5 -81.5t-224 -27h-576v1466zM515 897h211
q101 0 158.5 39.5t57.5 114.5q0 49 -15.5 85t-44.5 57t-69.5 30t-90.5 9q-107 0 -176.5 -7t-110.5 -5v-959h291q130 0 201 43.5t71 136.5q0 56 -18 95t-52.5 61.5t-85.5 31.5t-116 9h-211v259z" />
    <glyph glyph-name="C" unicode="C" horiz-adv-x="1261" 
d="M365 733q0 -134 26 -228t76.5 -153t125.5 -86.5t174 -27.5q85 0 180 11.5t214 43.5v-273q-77 -19 -171.5 -30.5t-222.5 -11.5q-180 0 -311.5 49.5t-217 145.5t-127 236.5t-41.5 323.5q0 165 40.5 304t125 239t215 156t311.5 56q120 0 221 -11t178 -28v-280
q-52 15 -100.5 26t-97 18.5t-98 11t-103.5 3.5q-197 0 -297 -119.5t-100 -375.5z" />
    <glyph glyph-name="D" unicode="D" horiz-adv-x="1456" 
d="M150 1465q55 0 120 3.5t135 8t143 8t144 3.5q181 0 311 -56.5t212.5 -158t121.5 -241.5t39 -307q0 -175 -37 -310t-119 -227.5t-213.5 -140t-320.5 -47.5h-536v1465zM692 1228q-35 0 -76 -2t-78 -4.5t-65.5 -4.5t-37.5 -2v-954h251q104 0 178.5 23.5t122.5 77t71 139
t23 211.5q0 260 -93.5 388t-295.5 128z" />
    <glyph glyph-name="E" unicode="E" horiz-adv-x="1295" 
d="M150 0v1466h1024v-261h-739v-308h652v-259h-652v-373h760v-265h-1045z" />
    <glyph glyph-name="F" unicode="F" horiz-adv-x="1233" 
d="M150 0v1466h1023v-261h-738v-308h652v-259h-652v-638h-285z" />
    <glyph glyph-name="G" unicode="G" horiz-adv-x="1484" 
d="M761 238q81 0 156.5 5.5t131.5 10.5v384h-334v259h619v-897q-70 0 -140 -3.5t-140.5 -7.5t-143.5 -7.5t-149 -3.5q-180 0 -309 49.5t-211.5 145.5t-121.5 236.5t-39 323.5q0 165 41 304t127 239t219 156t317 56q73 0 136 -5t119 -13.5t105.5 -20.5t95.5 -26v-276
q-51 18 -108 32.5t-116.5 25.5t-118.5 17t-113 6q-204 0 -306.5 -119.5t-102.5 -375.5q0 -134 23.5 -228t71.5 -153t120.5 -86.5t170.5 -27.5z" />
    <glyph glyph-name="H" unicode="H" horiz-adv-x="1439" 
d="M1004 1466h285v-1466h-285v638h-569v-638h-285v1466h285v-569h569v569z" />
    <glyph glyph-name="I" unicode="I" horiz-adv-x="585" 
d="M150 0v1466h285v-1466h-285z" />
    <glyph glyph-name="J" unicode="J" horiz-adv-x="585" 
d="M-191 -84q30 -3 57 -3q63 0 115.5 18t90 59t58 109t20.5 168v1199h285v-1216q0 -142 -40 -254t-112.5 -190t-173.5 -119.5t-223 -41.5q-19 0 -38 1t-39 3v267z" />
    <glyph glyph-name="K" unicode="K" horiz-adv-x="1328" 
d="M150 0v1466h285v-565q54 10 125.5 46.5t144.5 105t139 170.5t110 243h297q-35 -117 -84.5 -216.5t-108.5 -183t-125 -150t-134 -117.5q57 -60 113 -125.5t107.5 -134.5t97.5 -139.5t82.5 -139.5t62 -134.5t36.5 -125.5h-296q-18 66 -60 147t-102 168t-134.5 176
t-158.5 171q-30 -11 -58 -17t-54 -9v-636h-285z" />
    <glyph glyph-name="L" unicode="L" horiz-adv-x="1080" 
d="M150 0v1466h285v-1205h645v-261h-930z" />
    <glyph glyph-name="M" unicode="M" horiz-adv-x="1759" 
d="M1324 0v1058q-50 -65 -93 -134t-83 -147.5t-78.5 -170t-80.5 -202.5h-219q-42 109 -81 200t-79 169.5t-83 148t-92 134.5v-1056h-285v1466h253q50 -38 110 -104.5t123 -154.5t125.5 -194.5t118.5 -224.5q55 118 117.5 224.5t125.5 194.5t123 154.5t110 104.5h253v-1466
h-285z" />
    <glyph glyph-name="N" unicode="N" horiz-adv-x="1464" 
d="M150 0v1466h253q48 -33 115.5 -102t144 -162t155.5 -203t150 -226q16 -26 33 -64t28 -81v838h285v-1466h-269q-37 111 -84 218t-100 207t-109 192t-111.5 172.5t-108 148.5t-97.5 120v-1058h-285z" />
    <glyph glyph-name="O" unicode="O" horiz-adv-x="1473" 
d="M80 733q0 104 15 200.5t47.5 180.5t84 153t124.5 118t168.5 76t216.5 27t216.5 -27t168.5 -76t125 -118t84.5 -153t47.5 -180.5t15 -200.5t-15 -200.5t-47.5 -180.5t-84.5 -153t-125 -118t-168.5 -76t-216.5 -27t-216.5 27t-168.5 76t-124.5 118t-84 153t-47.5 180.5
t-15 200.5zM370 733q0 -123 21 -217.5t65 -158.5t113.5 -97t166.5 -33t166.5 33t114 97t65 158.5t20.5 217.5t-20.5 217.5t-65 158.5t-114 97t-166.5 33t-166.5 -33t-113.5 -97t-65 -158.5t-21 -217.5z" />
    <glyph glyph-name="P" unicode="P" horiz-adv-x="1315" 
d="M515 862q27 -11 55 -17.5t54 -11t49 -6t41 -1.5q58 0 105 11t80 35.5t51 64t18 95.5q0 43 -11.5 79t-41.5 62t-81 40.5t-130 14.5q-43 0 -83 -2t-75 -5t-63.5 -5t-47.5 -2v-1214h-285v1466q90 0 167.5 3.5t144 7.5t123 7.5t105.5 3.5q151 0 259.5 -31t178.5 -89.5
t103.5 -141.5t33.5 -188q0 -118 -41.5 -206.5t-114 -147t-171.5 -88t-213 -29.5q-20 0 -46 1.5t-54.5 5t-56.5 9.5t-53 14v265z" />
    <glyph glyph-name="Q" unicode="Q" horiz-adv-x="1503" 
d="M70 733q0 104 15 200.5t47.5 180.5t84 153t124.5 118t168.5 76t216.5 27t216.5 -27t168.5 -76t125 -118t84.5 -153t47.5 -180.5t15 -200.5q0 -137 -26 -258.5t-84 -219.5q30 -16 64.5 -29t75.5 -23v-268q-54 9 -99.5 23t-84.5 31.5t-72 38t-63 42.5q-72 -45 -162.5 -68.5
t-205.5 -23.5q-121 0 -216.5 27t-168.5 76t-124.5 118t-84 153t-47.5 180.5t-15 200.5zM360 733q0 -123 21 -217.5t65 -158.5t113.5 -97t166.5 -33q71 0 128 18q-36 20 -78 35.5t-93 26.5v267q63 -8 114.5 -23.5t94 -36t79 -45t70.5 -50.5q26 61 38.5 139t12.5 175
q0 123 -20.5 217.5t-65 158.5t-114 97t-166.5 33t-166.5 -33t-113.5 -97t-65 -158.5t-21 -217.5z" />
    <glyph glyph-name="R" unicode="R" horiz-adv-x="1347" 
d="M515 878q20 -9 46.5 -16.5t54 -13t52.5 -8.5t43 -3q116 0 179 47t63 149q0 30 -9.5 64t-36.5 63.5t-75.5 48.5t-127.5 19q-43 0 -83 -2t-75 -5t-63.5 -5t-47.5 -2v-1214h-285v1466q90 0 167.5 3.5t144 7.5t123 7.5t105.5 3.5q151 0 257 -39.5t173.5 -103t98.5 -144
t31 -162.5q0 -89 -24.5 -159.5t-68 -122.5t-104 -83t-132.5 -40q74 -67 136.5 -144.5t114 -159.5t92.5 -166t73 -164h-305q-21 45 -50.5 101.5t-67 117.5t-81.5 122.5t-94.5 115.5t-106.5 97.5t-117 68.5v255z" />
    <glyph glyph-name="S" unicode="S" horiz-adv-x="1225" 
d="M100 1053q0 117 47 199.5t126.5 135t184 76.5t219.5 24q114 0 209 -12t168 -27v-280q-53 13 -101.5 24t-96.5 19t-97.5 12t-103.5 4q-56 0 -102 -10.5t-79 -31t-51 -50t-18 -68.5q0 -52 32 -84t85 -54.5t120.5 -39.5t137.5 -39t137.5 -53t120.5 -81t85 -123.5t32 -180.5
q0 -106 -40.5 -187t-113.5 -135.5t-175 -82.5t-226 -28q-61 0 -128.5 6t-132 16.5t-121 24t-95.5 27.5v281q50 -19 106.5 -36.5t117.5 -31t124.5 -21.5t128.5 -8q118 0 183.5 43.5t65.5 131.5q0 60 -32 98t-85 63t-120 43t-137.5 38.5t-137.5 48t-120 72t-85 111.5t-32 166z
" />
    <glyph glyph-name="T" unicode="T" horiz-adv-x="1172" 
d="M443 0v1205h-433v261h1152v-261h-434v-1205h-285z" />
    <glyph glyph-name="U" unicode="U" horiz-adv-x="1440" 
d="M1290 522q0 -129 -44 -230.5t-120.5 -171t-180.5 -106t-225 -36.5t-225 36.5t-180.5 106t-120.5 171t-44 230.5v944h285v-954q0 -69 21 -122t59 -89t90.5 -55t114.5 -19t114.5 19t90.5 55t59 89t21 122v954h285v-944z" />
    <glyph glyph-name="V" unicode="V" horiz-adv-x="1298" 
d="M1298 1466q-11 -87 -41.5 -204t-73.5 -250.5t-95 -274.5t-106 -275t-107 -253.5t-97 -208.5h-258q-44 89 -97 208.5t-107 253.5t-106 275t-95 274.5t-73.5 250.5t-41.5 204h289q5 -49 22 -121t43.5 -159t60 -185.5t71.5 -202.5t79.5 -209t83.5 -204q42 99 83.5 204
t79.5 208.5t71.5 202.5t60 186t43.5 159t22 121h289z" />
    <glyph glyph-name="W" unicode="W" horiz-adv-x="1893" 
d="M940 1466q5 -49 20.5 -122.5t39 -164t54 -193.5t66 -210t74 -214t78.5 -205q39 99 77.5 206.5t73.5 214.5t66 209.5t55 192.5t39.5 163.5t20.5 122.5h289q-11 -85 -39 -202t-68 -250t-88.5 -274.5t-99.5 -276t-102 -254t-95 -209.5h-257q-48 97 -102 224t-108 273
q-54 -142 -108 -269.5t-105 -227.5h-229q-45 90 -95.5 209.5t-101.5 254t-99.5 276t-88 274.5t-68 250t-39.5 202h287q5 -49 20.5 -122.5t39.5 -164t55 -193t66 -209t73.5 -214t77.5 -206.5q24 57 48 119.5t48 127t47.5 129.5t44.5 127q-27 86 -52.5 171.5t-46 164.5
t-35.5 148t-21 122h288z" />
    <glyph glyph-name="X" unicode="X" horiz-adv-x="1309" 
d="M1285 1466q-46 -110 -99.5 -207t-111.5 -185t-119 -169t-123 -158q67 -82 133 -167.5t127.5 -177.5t116.5 -191.5t100 -210.5h-310q-63 144 -153 273t-192 265q-102 -136 -191.5 -265t-153.5 -273h-309q44 111 98.5 210.5t116 191.5t127.5 177.5t133 167.5
q-62 77 -123 158t-119 169t-111 185t-99 207h311q57 -135 140 -257.5t180 -253.5q97 131 180 253.5t141 257.5h310z" />
    <glyph glyph-name="Y" unicode="Y" horiz-adv-x="1388" 
d="M546 0v643q-86 102 -167.5 207t-152 209.5t-128.5 207t-98 199.5h290q30 -68 72.5 -140.5t95 -148t112.5 -152.5t124 -154q64 77 124 154t112.5 152.5t95.5 148t73 140.5h289q-41 -98 -100 -202t-131.5 -210t-155 -213t-170.5 -210v-631h-285z" />
    <glyph glyph-name="Z" unicode="Z" horiz-adv-x="1280" 
d="M80 0v223q18 51 58.5 122t96.5 154.5t124 175t141 184t153 181t161 165.5h-724v261h1098v-232q-71 -68 -149 -151.5t-157 -173.5t-154.5 -182t-140 -177t-115 -158.5t-79.5 -130.5h807v-261h-1120z" />
    <glyph glyph-name="bracketleft" unicode="[" horiz-adv-x="616" 
d="M150 -407v1873h456v-224h-190v-1426h190v-223h-456z" />
    <glyph glyph-name="backslash" unicode="\" horiz-adv-x="636" 
d="M417 0l-417 1466h219l417 -1466h-219z" />
    <glyph glyph-name="bracketright" unicode="]" horiz-adv-x="616" 
d="M466.009 -407v1873h-455.972v-224h189.988v-1426h-189.988v-223h455.972z" />
    <glyph glyph-name="asciicircum" unicode="^" horiz-adv-x="907" 
d="M277 634h-277l352 832h201l354 -832h-276l-147 369q-9 22 -19 51q-10 28 -13 50q-5 -22 -14 -50q-10 -29 -18 -51z" />
    <glyph glyph-name="underscore" unicode="_" horiz-adv-x="1090" 
d="M-30 -407v216h1150v-216h-1150z" />
    <glyph glyph-name="grave" unicode="`" horiz-adv-x="441" 
d="M450 1128h-274l-233 361h311z" />
    <glyph glyph-name="a" unicode="a" horiz-adv-x="1111" 
d="M727 62q-57 -48 -120.5 -66t-137.5 -18q-96 0 -170 23.5t-125 67t-77.5 105t-26.5 138.5q0 86 32.5 151t91 109t138.5 66t175 22h204v53q0 31 -11.5 58t-36.5 47t-63.5 31t-92.5 11q-37 0 -71.5 -2.5t-70.5 -8t-75 -15t-85 -23.5v236q39 8 76 15t73.5 12t74 7.5t78.5 2.5
q124 0 213 -25.5t146 -73t83.5 -115.5t26.5 -153v-717h-249v62zM711 431h-204q-43 0 -74.5 -8.5t-51.5 -23.5t-30 -35.5t-10 -43.5q0 -33 12 -54.5t33.5 -34.5t50.5 -18t62 -5q65 0 119.5 19.5t92.5 58.5v145z" />
    <glyph glyph-name="b" unicode="b" horiz-adv-x="1143" 
d="M400 1466v-452q43 31 103 50.5t126 19.5q88 0 168.5 -29.5t142 -94t97.5 -166.5t36 -247q0 -157 -45 -265.5t-121 -175.5t-174.5 -96.5t-205.5 -29.5q-40 0 -88 3t-99 11.5t-103.5 24t-101.5 40.5v1407h265zM400 221q27 -8 59 -12.5t71 -4.5q135 0 204 82t69 257
q0 85 -15 145t-43.5 98t-70 56t-93.5 18q-37 0 -66.5 -7t-52.5 -18t-38.5 -23.5t-23.5 -22.5v-568z" />
    <glyph glyph-name="c" unicode="c" horiz-adv-x="978" 
d="M351 531q0 -95 17.5 -158t50 -101t79.5 -54t107 -16q66 0 139.5 16t143.5 42v-229q-30 -12 -65.5 -22t-72 -17t-74 -10.5t-71.5 -3.5q-268 0 -396.5 135.5t-128.5 417.5q0 128 30 230.5t93 174t160.5 110t232.5 38.5q75 0 145.5 -12.5t146.5 -38.5v-231q-77 28 -151.5 43
t-140.5 15q-119 0 -182 -78.5t-63 -250.5z" />
    <glyph glyph-name="d" unicode="d" horiz-adv-x="1143" 
d="M743 841q-25 8 -58 13.5t-72 5.5q-44 0 -92.5 -12t-88.5 -48t-66 -103t-26 -178q0 -90 16.5 -151t46.5 -98t70.5 -52.5t88.5 -15.5q60 0 107.5 20t73.5 51v568zM759 0v61q-47 -43 -113 -63t-132 -20q-89 0 -169.5 29.5t-141.5 94t-97 166.5t-36 247q0 119 25 207
t66.5 151.5t96.5 104t116 64.5t123 33t119 9q37 0 68 -3.5t59 -8.5v394h265v-1466h-249z" />
    <glyph glyph-name="e" unicode="e" horiz-adv-x="1140" 
d="M1005 44q-97 -33 -192.5 -49.5t-205.5 -16.5q-142 0 -242 37.5t-163.5 107.5t-92.5 171t-29 229q0 131 30 235t91 176.5t153.5 111t216.5 38.5q121 0 212.5 -38.5t153 -110.5t92.5 -174t31 -228v-97h-704q3 -72 20 -115.5t48.5 -71t77.5 -40t105 -12.5q52 0 97.5 3.5
t92 11.5t97 22.5t111.5 36.5v-227zM774 655q0 104 -50 157t-153 53q-51 0 -88.5 -14t-62 -40t-37.5 -63t-16 -93h407z" />
    <glyph glyph-name="f" unicode="f" horiz-adv-x="774" 
d="M754 1241q-37 13 -73 18t-59 5q-72 0 -101 -51t-29 -151h217v-234h-217v-828h-266v828h-136v234h136q1 118 31 199.5t80.5 131.5t117.5 72.5t143 22.5q13 0 31.5 -0.5t39.5 -2t43 -4.5t42 -7v-233z" />
    <glyph glyph-name="g" unicode="g" horiz-adv-x="1143" 
d="M743 70q-43 -31 -103 -50.5t-126 -19.5q-89 0 -169 26t-141.5 86.5t-97.5 159t-36 243.5q0 157 45 265.5t121 176t174.5 97.5t205.5 30q40 0 88 -3.5t99 -12.5t103 -24.5t102 -40.5v-931q0 -129 -36.5 -220.5t-103.5 -149.5t-161 -87.5t-208 -29.5q-51 0 -121.5 10
t-140.5 29v236q34 -11 69 -20t68 -15t62 -9t52 -3q126 0 190.5 63t64.5 194zM743 841q-27 8 -59 13.5t-71 5.5q-135 0 -204 -83t-69 -258q0 -85 15 -141.5t43.5 -90.5t69.5 -48.5t94 -14.5q37 0 66.5 7t52.5 18t38.5 23t23.5 23v546z" />
    <glyph glyph-name="h" unicode="h" 
d="M400 1466v-460q54 45 112.5 61.5t116.5 16.5q88 0 156 -25t114.5 -72t70 -115.5t23.5 -156.5v-715h-265v687q0 41 -6.5 73t-23 54.5t-45 34t-72.5 11.5q-69 0 -114.5 -22.5t-66.5 -48.5v-789h-265v1466h265z" />
    <glyph glyph-name="i" unicode="i" horiz-adv-x="535" 
d="M135 1177v289h265v-289h-265zM135 0v1062h265v-1062h-265z" />
    <glyph glyph-name="j" unicode="j" horiz-adv-x="535" 
d="M135 1178v288h265v-288h-265zM-128 -194q29 -6 54.5 -9.5t48.5 -3.5q37 0 67 10.5t50.5 35.5t31.5 66.5t11 104.5v1052h265v-1052q0 -120 -29 -203.5t-79.5 -135.5t-118.5 -75t-145 -23q-27 0 -68 1.5t-88 12.5v219z" />
    <glyph glyph-name="k" unicode="k" horiz-adv-x="1084" 
d="M400 0h-265v1466h265v-779q54 12 104.5 46.5t93.5 85t78 113t58 130.5h271q-16 -63 -44.5 -127.5t-67.5 -126.5t-87.5 -119t-104.5 -103q57 -64 105.5 -129t89 -136t73 -150.5t55.5 -170.5h-272q-50 152 -120 263.5t-155 200.5q-37 -10 -77 -15v-449z" />
    <glyph glyph-name="l" unicode="l" horiz-adv-x="535" 
d="M135 0v1466h265v-1466h-265z" />
    <glyph glyph-name="m" unicode="m" horiz-adv-x="1671" 
d="M969 0h-265v687q0 32 -3.5 63t-17.5 55.5t-42.5 39.5t-78.5 15q-22 0 -45.5 -5.5t-45.5 -15.5t-40 -22.5t-30 -27.5v-789h-265v1062h249v-62q45 36 104 60t131 24q88 0 149 -28t103 -74q60 46 131 74t163 28q96 0 165.5 -27t115.5 -77t68 -120.5t22 -157.5v-702h-265v687
q0 39 -6 70.5t-21 54.5t-40 35.5t-63 12.5q-64 0 -109 -21.5t-72 -49.5q4 -23 6 -45t2 -44v-700z" />
    <glyph glyph-name="n" unicode="n" 
d="M384 1062v-62q53 44 114.5 64t130.5 20q88 0 156 -25t114.5 -72t70 -115.5t23.5 -156.5v-715h-265v687q0 41 -6.5 73t-23 54.5t-45 34t-72.5 11.5q-68 0 -114 -22.5t-67 -48.5v-789h-265v1062h249z" />
    <glyph glyph-name="o" unicode="o" 
d="M80 531q0 114 26 215t84.5 176t151.5 118.5t227 43.5q133 0 226 -43.5t151 -118.5t84.5 -176t26.5 -215t-26.5 -215t-84.5 -176t-151 -118.5t-226 -43.5q-134 0 -227 43.5t-151.5 118.5t-84.5 176t-26 215zM351 531q0 -76 12.5 -135.5t38.5 -100t67.5 -62t99.5 -21.5
t99.5 21.5t67.5 62t38.5 100t12.5 135.5t-12.5 135t-38.5 100t-67.5 62.5t-99.5 21.5t-99.5 -21.5t-67.5 -62.5t-38.5 -100t-12.5 -135z" />
    <glyph glyph-name="p" unicode="p" horiz-adv-x="1143" 
d="M400 221q25 -8 58 -13.5t72 -5.5q44 0 92.5 12t88.5 48t66 103t26 178q0 90 -16.5 151t-46.5 98t-70.5 52.5t-88.5 15.5q-60 0 -107.5 -20t-73.5 -51v-568zM384 1062v-61q47 43 113 63t132 20q89 0 169.5 -29.5t141.5 -94t97 -166.5t36 -247q0 -119 -24.5 -207
t-66.5 -151.5t-97 -104t-116 -64.5t-123.5 -33t-118.5 -9q-37 0 -68 3.5t-59 8.5v-397h-265v1469h249z" />
    <glyph glyph-name="q" unicode="q" horiz-adv-x="1143" 
d="M743 -407v455q-43 -31 -103 -50.5t-126 -19.5q-89 0 -169 29.5t-141.5 94t-97.5 166.5t-36 247q0 157 45 265.5t121 176t174.5 97.5t205.5 30q40 0 88 -3.5t99 -12.5t103 -24.5t102 -40.5v-1410h-265zM743 841q-27 8 -59 13.5t-71 5.5q-135 0 -204 -83t-69 -258
q0 -85 15 -145t43.5 -98.5t69.5 -56t94 -17.5q37 0 66.5 7t52.5 18t38.5 23t23.5 23v568z" />
    <glyph glyph-name="r" unicode="r" horiz-adv-x="774" 
d="M135 0v1062h249v-62q41 34 100.5 59t141.5 25q11 0 27 -1t35 -3.5t38.5 -7t37.5 -11.5v-265q-33 22 -61 34.5t-50.5 19t-40.5 8.5t-31 2q-68 0 -112.5 -22t-68.5 -48v-790h-265z" />
    <glyph glyph-name="s" unicode="s" horiz-adv-x="971" 
d="M520 1084q95 0 167.5 -10.5t132.5 -30.5v-230q-86 29 -160.5 38t-139.5 9q-70 0 -107.5 -22.5t-37.5 -70.5q0 -20 12 -36t33 -28.5t49 -22t61 -18.5q62 -16 126 -39.5t116.5 -63.5t85.5 -102t33 -155q0 -78 -30 -138.5t-84 -102t-129.5 -62.5t-167.5 -21q-44 0 -93 5
t-96 13t-90 19.5t-76 25.5v235q81 -29 172.5 -52.5t182.5 -23.5q76 0 111 25.5t35 76.5q0 33 -16 56t-43 39t-61 27t-70 21q-48 13 -104.5 32t-106 53.5t-82.5 89.5t-33 140q0 78 29.5 138.5t83.5 102t129.5 62.5t167.5 21z" />
    <glyph glyph-name="t" unicode="t" horiz-adv-x="794" 
d="M734 -12q-48 -8 -88.5 -9t-67.5 -1q-77 0 -145 17t-118.5 61.5t-79.5 122t-29 198.5v451h-136v234h136v202l266 121v-323h213v-234h-213v-451q0 -53 8.5 -87t25 -54t40.5 -27.5t55 -7.5q12 0 28 0.5t34 2.5t36.5 5t34.5 8v-229z" />
    <glyph glyph-name="u" unicode="u" 
d="M744 0v62q-53 -44 -114.5 -64t-130.5 -20q-177 0 -270.5 96.5t-93.5 272.5v715h265v-687q0 -41 6.5 -73t23 -54.5t45 -34t72.5 -11.5q68 0 114 22.5t67 48.5v789h265v-1062h-249z" />
    <glyph glyph-name="v" unicode="v" horiz-adv-x="1060" 
d="M1020 1062q-9 -65 -30.5 -148.5t-51 -177t-65.5 -193t-74.5 -196t-77 -185.5t-74.5 -162h-234q-36 73 -74.5 162t-77 185.5t-74.5 196t-65.5 193t-51 177.5t-30.5 148h266q9 -68 30.5 -149.5t51.5 -171.5t66 -184t75 -187q39 93 75.5 187.5t66.5 184t52 171t31 149.5h266
z" />
    <glyph glyph-name="w" unicode="w" horiz-adv-x="1546" 
d="M817 1062q9 -68 31 -159.5t51.5 -194t64 -209t68.5 -204.5q28 99 58.5 205.5t58.5 208.5t49.5 193.5t31.5 159.5h266q-9 -63 -29 -145.5t-47.5 -176t-61 -193.5t-70 -197t-74.5 -187t-74 -163h-233q-34 69 -68.5 151.5t-69.5 173.5q-33 -88 -68.5 -170.5t-71.5 -154.5
h-233q-36 73 -73 163t-72.5 187t-68 197t-59 193.5t-45.5 176.5t-28 145h266q10 -69 33 -161t52 -194.5t61.5 -209t62.5 -203.5q32 78 67 168t65 184q-18 57 -34.5 115t-30.5 112.5t-24.5 102.5t-16.5 86h266z" />
    <glyph glyph-name="x" unicode="x" horiz-adv-x="1077" 
d="M1021 1062q-36 -85 -74.5 -157.5t-79.5 -136t-83.5 -119t-84.5 -107.5q45 -54 89.5 -112.5t87.5 -124.5t84 -141.5t77 -163.5h-280q-45 101 -100.5 185t-118.5 163q-63 -79 -118 -163t-100 -185h-280q36 88 76.5 163.5t83.5 141.5t88 124.5t90 112.5q-43 52 -85 107.5
t-83 119t-79.5 136t-74.5 157.5h284q38 -94 88.5 -173t109.5 -154q59 75 110 154.5t89 172.5h284z" />
    <glyph glyph-name="y" unicode="y" horiz-adv-x="1055" 
d="M315 1062q10 -68 33 -151.5t56 -175t73 -187t83 -188.5q36 94 68.5 189.5t59 186.5t46 174t29.5 152h262q-11 -84 -37.5 -188.5t-61.5 -214t-73.5 -216.5t-73.5 -197t-63 -155.5t-40 -90.5q-45 -92 -93 -170t-102.5 -135t-117.5 -89.5t-139 -32.5q-29 0 -68.5 4.5
t-80.5 15.5v237q29 -12 62.5 -17t61.5 -5q36 0 64.5 12.5t54.5 41t52.5 73.5t57.5 111q-40 76 -81 164t-80 180.5t-74.5 186t-64.5 181t-49.5 165.5t-28.5 139h265z" />
    <glyph glyph-name="z" unicode="z" horiz-adv-x="1070" 
d="M943 1062v-193q-41 -34 -89 -81.5t-99 -103t-102.5 -115.5t-98 -119t-86 -114.5t-67.5 -101.5h559v-234h-870v190q30 72 85.5 159t121.5 174t133.5 166.5t120.5 137.5h-437v235h829z" />
    <glyph glyph-name="braceleft" unicode="{" horiz-adv-x="688" 
d="M35 649q53 0 87.5 18.5t55 59t29 104.5t8.5 155q0 99 12 186.5t47 153t100 103t171 37.5h103v-229h-81q-30 0 -48.5 -17.5t-29 -53.5t-14.5 -92.5t-4 -134.5q0 -87 -12.5 -152t-34.5 -113.5t-52 -83t-64 -59.5q34 -26 64 -60t52 -83t34.5 -114t12.5 -152q0 -78 4 -134.5
t14.5 -93.5t29 -54.5t48.5 -17.5h81v-229h-103q-106 0 -171 38t-100 103.5t-47 153.5t-12 187q0 91 -8.5 155t-29 104.5t-55 59.5t-87.5 19v236z" />
    <glyph glyph-name="bar" unicode="|" horiz-adv-x="515" 
d="M135 -407v1873h245v-1873h-245z" />
    <glyph glyph-name="braceright" unicode="}" horiz-adv-x="688" 
d="M653.002 649q-52.9961 0 -87.4941 18.5t-54.9971 59t-28.998 104.5q-8.5 64 -8.5 155q0 99 -11.999 186.5t-46.9971 153t-99.9941 103t-170.989 37.5h-102.994v-229h80.9951q29.999 0 48.4971 -17.5q18.499 -17.5 28.999 -53.5q10.499 -36 14.499 -92.5
q3.99902 -56.5 3.99902 -134.5q0 -87 12.5 -152q12.499 -65 34.4971 -113.5q21.999 -48.5 51.9971 -83t63.9961 -59.5q-33.998 -26 -63.9961 -60t-51.9971 -83q-21.998 -49 -34.4971 -114q-12.5 -65 -12.5 -152q0 -78 -3.99902 -134.5q-4 -56.5 -14.499 -93.5
q-10.5 -37 -28.999 -54.5q-18.498 -17.5 -48.4971 -17.5h-80.9951v-229h102.994q105.993 0 170.989 38t99.9941 103.5t46.9971 153.5t11.999 187q0 91 8.5 155q8.49902 64 28.998 104.5t54.9971 59.5t87.4941 19v236z" />
    <glyph glyph-name="asciitilde" unicode="~" horiz-adv-x="1100" 
d="M50 587q118 142 296 142q56 0 115 -18t115 -40.5t106.5 -42t88.5 -21.5q5 0 8.5 -0.5t8.5 -0.5q30 0 60 7.5t61.5 25.5t66 47.5t74.5 74.5v-261q-67 -67 -133 -100.5t-147 -33.5q-54 0 -110.5 19t-113.5 41.5t-111.5 41.5t-103.5 19q-32 0 -64.5 -5.5t-67 -23t-71.5 -49
t-78 -82.5v260z" />
    <glyph glyph-name="nonbreakingspace" unicode="&#xa0;" horiz-adv-x="586" 
 />
    <glyph glyph-name="exclamdown" unicode="&#xa1;" horiz-adv-x="555" 
d="M251 668.024l-60 -688.958v-382.977h303v382.977l-58 688.958h-185zM198 1062v-283.982h288v283.982h-288z" />
    <glyph glyph-name="uni00A2" unicode="&#xa2;" horiz-adv-x="931" 
d="M407 -407h-182l109 423q-91 33 -152 97q-128 137 -128 418q0 128 30 230.5t93 174t160.5 110t232.5 38.5h19q9 0 19 -1l99 383h184l-106 -410q19 -5 38 -10.5t39 -12.5v-231q-68 24 -133 39l-165 -639q81 0 154.5 16t143.5 42v-229q-30 -12 -65.5 -22t-72 -17t-74 -10.5
t-71.5 -3.5q-38 0 -72 3zM325 531q0 -95 17.5 -158t55.5 -108l153 594q-104 -6 -163 -78q-63 -78 -63 -250z" />
    <glyph glyph-name="sterling" unicode="&#xa3;" horiz-adv-x="1240" 
d="M802 897v-263h-219q2 -20 4 -40.5t2 -41.5q0 -65 -17 -134t-58 -127q8 1 15 1h15q40 0 85 -8t90 -17t87.5 -17t78.5 -8q28 0 62.5 4.5t71.5 16t74.5 32.5t73.5 54v-290q-47 -31 -85.5 -47.5t-71.5 -24t-62 -8.5t-56 -1q-53 0 -108.5 12.5t-111 28t-110 28t-105.5 12.5
q-57 0 -121.5 -30.5t-145.5 -82.5l-102 255q64 36 106 73.5t67.5 76t36 77.5t10.5 78q0 31 -4 63t-10 65h-207v263h143q-9 42 -15 82.5t-6 80.5q0 95 29 173.5t84.5 135t135.5 88t182 31.5q205 0 312.5 -110.5t107.5 -315.5h-273q0 58 -10.5 96t-30 59.5t-47.5 30t-62 8.5
q-36 0 -63.5 -13.5t-45.5 -37t-27 -54.5t-9 -67q0 -50 7.5 -96t18.5 -91h284z" />
    <glyph glyph-name="currency" unicode="&#xa4;" horiz-adv-x="1154" 
d="M66 1036l171 177l140 -138q89 47 194 47q106 0 195 -47l139 138l173 -177l-136 -134q25 -47 37.5 -94.5t12.5 -100.5q0 -52 -13 -99.5t-38 -94.5l137 -134l-173 -177l-138 138q-42 -21 -93.5 -34t-102.5 -13t-102 13t-93 34l-139 -138l-171 177l135 134
q-22 45 -35.5 95.5t-13.5 98.5q0 49 14 99.5t36 95.5zM385 707q0 -39 14.5 -73.5t39.5 -61t58.5 -41.5t72.5 -15t72.5 15t58.5 41.5t39.5 61t14.5 73.5t-14.5 73.5t-39.5 61t-58.5 41.5t-72.5 15q-38 0 -71.5 -15t-58.5 -41.5t-40 -61t-15 -73.5z" />
    <glyph glyph-name="uni00A5" unicode="&#xa5;" horiz-adv-x="1388" 
d="M546 0v202h-285v173h285v102h-285v173h285q-86 94 -167.5 198.5t-152 210t-128.5 208t-98 199.5h290q30 -68 72.5 -140.5t95 -148t112.5 -156t124 -157.5q64 77 124 157.5t112.5 156t95.5 148t73 140.5h289q-41 -98 -100 -202t-131.5 -209.5t-155 -210t-170.5 -194.5h265
v-173h-265v-102h265v-173h-265v-202h-285z" />
    <glyph glyph-name="brokenbar" unicode="&#xa6;" horiz-adv-x="491" 
d="M133 -407v772h245v-772h-245zM133 691v775h245v-775h-245z" />
    <glyph glyph-name="section" unicode="&#xa7;" horiz-adv-x="1188" 
d="M558 -427q-87 0 -163 9t-136 20v240q81 -21 151.5 -33t147.5 -12q75 0 110.5 23.5t35.5 74.5q0 32 -26.5 60.5t-69.5 56t-98 56t-112 62t-112 74t-98 92t-69.5 115t-26.5 143.5q0 64 19.5 116.5t53.5 93t80.5 70t100.5 47.5q-35 25 -64 54t-50.5 64t-33.5 76t-12 91
q0 78 30 138.5t84 101t129.5 61.5t167.5 21q87 0 163 -9t136 -20v-240q-81 21 -151.5 33t-147.5 12q-75 0 -110.5 -23.5t-35.5 -74.5q0 -32 26.5 -60.5t69.5 -56t98 -56t112 -62t112 -74t98 -92t69.5 -115t26.5 -143.5q0 -65 -19.5 -117t-53.5 -93t-80.5 -70.5t-100.5 -47.5
q34 -25 63.5 -54t51 -63.5t33.5 -76t12 -90.5q0 -78 -30 -138.5t-84 -101t-129.5 -61.5t-167.5 -21zM798 507q0 36 -15.5 68.5t-42.5 61t-63 53.5t-76 48q-48 -1 -92 -11.5t-77.5 -33t-54 -57t-20.5 -82.5q0 -36 15.5 -68.5t42.5 -61.5t62.5 -54.5t75.5 -47.5q48 1 92.5 12
t78 33.5t54 57t20.5 82.5z" />
    <glyph glyph-name="dieresis" unicode="&#xa8;" horiz-adv-x="833" 
d="M84 1189v277h274v-277h-274zM472 1189v277h274v-277h-274z" />
    <glyph glyph-name="copyright" unicode="&#xa9;" horiz-adv-x="1610" 
d="M793 -22q-171 0 -312.5 56t-242.5 156.5t-156.5 238.5t-55.5 302q0 165 55.5 303.5t156.5 239.5t242.5 157.5t312.5 56.5t311.5 -56.5t241 -157.5t155.5 -239.5t55 -303.5q0 -164 -55 -302t-155.5 -238.5t-241 -156.5t-311.5 -56zM628 724q0 -71 10.5 -118t33 -75
t57.5 -40t84 -12q38 0 98.5 7t143.5 30v-211q-51 -11 -109.5 -19t-132.5 -8q-107 0 -184.5 31.5t-128.5 91t-75.5 143.5t-24.5 189q0 96 24 176.5t74 138t127.5 90t184.5 32.5q69 0 133 -7.5t112 -15.5v-217q-71 19 -128 29t-117 10q-49 0 -83.5 -13t-56.5 -42t-32 -76
t-10 -114zM793 104q142 0 259 47t200.5 130.5t129.5 198.5t46 251q0 137 -46 252.5t-129.5 199.5t-200.5 131t-259 47q-143 0 -260.5 -47t-201.5 -131t-130.5 -199.5t-46.5 -252.5q0 -136 46.5 -251t130.5 -198.5t201.5 -130.5t260.5 -47z" />
    <glyph glyph-name="ordfeminine" unicode="&#xaa;" horiz-adv-x="780" 
d="M518 778q-42 -34 -92 -46t-92 -12q-68 0 -123 15t-93 45.5t-58.5 73.5t-20.5 97q0 61 25 108.5t68.5 79.5t102 48.5t126.5 16.5h145v29q0 46 -34.5 70.5t-110.5 24.5q-26 0 -51 -1.5t-50.5 -5.5t-53.5 -11t-61 -17v169q57 12 107 19t109 7q177 0 260.5 -65t83.5 -187
v-501h-187v43zM506 1040h-145q-63 0 -90.5 -22.5t-27.5 -55.5q0 -24 8.5 -39t23.5 -23.5t35.5 -12t44.5 -3.5q46 0 85 13t66 41v102z" />
    <glyph glyph-name="guillemotleft" unicode="&#xab;" horiz-adv-x="1058" 
d="M310.018 528q28.998 51 62.4961 111.5t67.9961 122.5t66.9961 121t59.4961 108h-277.983l-285.982 -463l285.982 -463h277.983zM773.018 528q28.998 51 62.4961 111.5t67.9961 122.5t66.9961 121t59.4961 108h-277.983l-285.982 -463l285.982 -463h277.983z" />
    <glyph glyph-name="logicalnot" unicode="&#xac;" horiz-adv-x="1109" 
d="M57 1062h987v-450h-237v230h-750v220z" />
    <glyph glyph-name="uni00AD" unicode="&#xad;" horiz-adv-x="633" 
d="M92 399v263h555v-263h-555z" />
    <glyph glyph-name="registered" unicode="&#xae;" horiz-adv-x="1651" 
d="M779 -21q-170 0 -309.5 55.5t-239.5 154.5t-155 236t-55 299q0 163 55 300t155 237t239.5 156t309.5 56q169 0 308 -56t238 -156t153.5 -237t54.5 -300q0 -162 -54.5 -299t-153.5 -236t-238 -154.5t-308 -55.5zM779 140q132 0 241 44t186.5 122t120.5 185t43 233
q0 127 -43 235t-120.5 186t-186.5 122t-241 44q-133 0 -243 -44t-188.5 -122t-121.5 -186t-43 -235q0 -126 43 -233t121.5 -185t188.5 -122t243 -44zM704 830q17 -8 39 -13t42 -5q56 0 90.5 21.5t34.5 69.5q0 13 -6 28t-21 28t-40 22t-62 9t-71.5 -2.5t-60.5 -4.5v-668h-196
v843q106 0 186 6t133 6q89 0 153.5 -23.5t106 -61t61.5 -84.5t20 -95t-13 -87t-36 -68.5t-54.5 -49.5t-67.5 -30q37 -37 70 -80.5t60 -90t47 -93.5t33 -92h-211q-12 39 -36 91t-56.5 101.5t-70 89t-74.5 52.5v181z" />
    <glyph glyph-name="macron" unicode="&#xaf;" horiz-adv-x="1068" 
d="M-17 1407v216h1096v-216h-1096z" />
    <glyph glyph-name="degree" unicode="&#xb0;" horiz-adv-x="629" 
d="M234 1158q0 -19 7 -36t19 -29.5t27.5 -19.5t33.5 -7t34 7t28 19.5t19 29.5t7 36q0 39 -25.5 66.5t-62.5 27.5q-18 0 -33.5 -7.5t-27.5 -20t-19 -30t-7 -36.5zM45 1158q0 57 21.5 106t59 86t88 58t107.5 21q58 0 108 -21t87.5 -58t59 -86t21.5 -106q0 -56 -21.5 -105.5
t-59 -86t-87.5 -57.5t-108 -21q-57 0 -107.5 21t-88 57.5t-59 86t-21.5 105.5z" />
    <glyph glyph-name="plusminus" unicode="&#xb1;" horiz-adv-x="1231" 
d="M480 365v199h-348v250h348v213h257v-213h348v-250h-348v-199h-257zM132 34v251h953v-251h-953z" />
    <glyph glyph-name="twosuperior" unicode="&#xb2;" horiz-adv-x="633" 
d="M284 1488q69 0 125.5 -17.5t97 -51t63 -81t22.5 -107.5q0 -50 -18.5 -94t-49.5 -82t-71.5 -70t-83.5 -57q-3 -2 -11 -6t-17.5 -9t-19.5 -10t-18 -8h278v-160h-529v140q74 60 136 104.5t107 83.5t70.5 76.5t25.5 82.5q0 52 -30 77.5t-96 25.5q-82 0 -179 -36v171
q42 11 91.5 19.5t106.5 8.5z" />
    <glyph glyph-name="threesuperior" unicode="&#xb3;" horiz-adv-x="634" 
d="M269 886q25 0 46.5 2t37.5 10.5t25.5 24.5t9.5 43t-9 42t-22.5 22t-30 8.5t-31.5 1.5h-86v164h85q29 0 49.5 11.5t20.5 47.5q0 35 -26 48t-65 13q-40 0 -91.5 -8.5t-102.5 -25.5v170q52 13 103 20.5t103 7.5q57 0 107.5 -14t88 -42t59.5 -69.5t22 -95.5q0 -48 -28 -82.5
t-66 -50.5q61 -23 89.5 -67t28.5 -110q0 -71 -26.5 -116.5t-70.5 -72t-101.5 -36.5t-118.5 -10q-21 0 -48 1.5t-55.5 5.5t-56.5 9.5t-51 13.5v176q21 -10 50.5 -17.5t59.5 -13t57 -8.5t44 -3z" />
    <glyph glyph-name="acute" unicode="&#xb4;" horiz-adv-x="442" 
d="M212 1546h332l-265 -398h-295z" />
    <glyph glyph-name="mu1" unicode="&#xb5;" horiz-adv-x="1136" 
d="M744 0v62q-53 -44 -114.5 -64t-130.5 -20q-39 0 -74.5 8.5t-64.5 31.5q0 -124 -16 -209t-48 -137.5t-81.5 -75.5t-116.5 -23q-27 0 -63 1.5t-83 12.5v199q29 -6 49.5 -9.5t43.5 -3.5q27 0 44.5 13.5t27.5 42.5t14 73.5t4 107.5v1052h265v-687q0 -41 6.5 -73t23 -54.5
t45 -34t72.5 -11.5q68 0 114 22.5t67 48.5v789h265v-1062h-249z" />
    <glyph glyph-name="paragraph" unicode="&#xb6;" horiz-adv-x="1247" 
d="M1173 1466v-246h-131v-1627h-254v1627h-112v-1627h-250v1099q-74 7 -140.5 34t-116.5 75t-79.5 117t-29.5 161q0 94 35 166.5t94 121.5t136.5 74t163.5 25h684z" />
    <glyph glyph-name="periodcentered" unicode="&#xb7;" horiz-adv-x="507" 
d="M176 496v284h288v-284h-288z" />
    <glyph glyph-name="cedilla" unicode="&#xb8;" horiz-adv-x="487" 
d="M137 58h194l-41 -137q47 -9 81.5 -25.5t57 -38t33.5 -47t11 -52.5q0 -90 -75 -137.5t-218 -47.5h-185v141h150q47 0 66.5 16.5t19.5 35.5q0 13 -5 23.5t-22.5 18.5t-50 12.5t-86.5 6.5z" />
    <glyph glyph-name="onesuperior" unicode="&#xb9;" horiz-adv-x="419" 
d="M351 735h-195v567h-97v164h292v-731z" />
    <glyph glyph-name="ordmasculine" unicode="&#xba;" horiz-adv-x="848" 
d="M81 1104q0 76 16.5 145.5t55 122.5t102 84.5t157.5 31.5t155 -31.5t97 -84t50.5 -122.5t14.5 -146q0 -77 -14.5 -146t-50.5 -122t-97 -84t-155 -31t-157.5 31.5t-102 84t-55 122t-16.5 145.5zM280 1104q0 -64 9.5 -106t27 -67.5t42 -36t53.5 -10.5t52.5 10.5t40 36
t25.5 67.5t9 106t-9 106t-25.5 67.5t-40 36t-52.5 10.5t-53 -10.5t-41.5 -36t-27.5 -67.5t-10 -106z" />
    <glyph glyph-name="guillemotright" unicode="&#xbb;" horiz-adv-x="1058" 
d="M286 528q-29 51 -62.5 111.5t-68 122.5t-67 121t-59.5 108h278l286 -463l-286 -463h-278zM748 528q-29 51 -62.5 111.5t-68 122.5t-67 121t-59.5 108h278l286 -463l-286 -463h-278z" />
    <glyph glyph-name="onequarter" unicode="&#xbc;" horiz-adv-x="1817" 
d="M191 -22l1073 1510h211l-1073 -1510h-211zM438 735h-185v567h-97v164h282v-731zM1326 0v162h-318v133q33 63 70 119.5t80 110t91 105.5t104 105h163v-409h71v-164h-71v-162h-190zM1326 326v149q-34 -33 -65.5 -73.5t-51.5 -75.5h117z" />
    <glyph glyph-name="onehalf" unicode="&#xbd;" horiz-adv-x="1817" 
d="M191 -22l1073 1510h211l-1073 -1510h-211zM1306 756q69 0 123 -17.5t92 -51t58 -81t20 -107.5q0 -50 -18.5 -94.5t-48.5 -82.5t-67 -70.5t-74 -58.5q-3 -2 -11 -6.5t-17.5 -9.5t-19.5 -9.5t-18 -7.5h262v-160h-513v140q74 60 136 105t107 85t70.5 77.5t25.5 82.5
q0 52 -30 77.5t-96 25.5q-82 0 -179 -36v171q42 11 91.5 19.5t106.5 8.5zM438 735h-185v567h-97v164h282v-731z" />
    <glyph glyph-name="threequarters" unicode="&#xbe;" horiz-adv-x="1817" 
d="M348 887q25 0 46.5 2.5t37.5 10.5t25.5 23.5t9.5 42.5t-9 42t-22.5 22t-30 8.5t-31.5 1.5h-86v164h85q29 0 49.5 11.5t20.5 47.5q0 35 -26 48t-65 13q-40 0 -91.5 -8.5t-102.5 -25.5v170q52 13 103 20.5t103 7.5q57 0 106.5 -14t86.5 -42t58 -69.5t21 -95.5
q0 -48 -25.5 -82.5t-63.5 -50.5q61 -23 89.5 -66.5t28.5 -109.5q0 -71 -26.5 -116.5t-70.5 -71.5t-101.5 -36t-118.5 -10q-21 0 -48 1.5t-55.5 5.5t-56.5 9.5t-51 13.5v175q21 -10 50.5 -17.5t59.5 -13t57 -8.5t44 -3zM1326 0v162h-318v133q33 63 70 119.5t79.5 110.5
t91 105.5t104.5 104.5h163v-409h71v-164h-71v-162h-190zM1326 326v149q-34 -33 -65.5 -73.5t-51.5 -75.5h117zM191 -22l1073 1510h211l-1073 -1510h-211z" />
    <glyph glyph-name="questiondown" unicode="&#xbf;" horiz-adv-x="969" 
d="M550 -189q94 0 178 15.5t167 42.5v-259q-69 -14 -160 -25.5t-195 -11.5q-127 0 -219.5 28.5t-152.5 79.5t-88.5 122t-28.5 156q0 66 15 117.5t39.5 93.5t56 78t64.5 70t64.5 68.5t57 75t41.5 89t17 109.5h269q0 -90 -26 -162.5t-65.5 -132.5t-85.5 -110.5t-85.5 -97
t-65.5 -92t-26 -95.5q0 -52 20.5 -83t53 -48t73.5 -22.5t82 -5.5zM686 1062v-284h-288v284h288z" />
    <glyph glyph-name="Agrave" unicode="&#xc0;" horiz-adv-x="1473" 
d="M1185 0q-13 59 -32 132t-43 154t-53 169t-62 183h-434q2 6 9.5 24.5t17.5 46.5t21.5 59.5t21.5 59t17.5 47t9.5 22.5h239q-32 80 -64.5 157t-66.5 151h-60q-45 -100 -89.5 -208t-86 -217.5t-79 -218t-69 -209t-55.5 -190.5t-39 -162h-288q22 104 56 228t77 256.5
t92.5 268t101.5 264t104.5 243.5t101.5 206h407q49 -91 102 -206.5t105 -243.5t101.5 -264t92 -268.5t76.5 -256.5t56 -227h-288zM982 1532h-274l-233 361h311z" />
    <glyph glyph-name="Aacute" unicode="&#xc1;" horiz-adv-x="1473" 
d="M1185 0q-13 59 -32 132t-43 154t-53 169t-62 183h-434q2 6 9.5 24.5t17.5 46.5t21.5 59.5t21.5 59t17.5 47t9.5 22.5h239q-32 80 -64.5 157t-66.5 151h-60q-45 -100 -89.5 -208t-86 -217.5t-79 -218t-69 -209t-55.5 -190.5t-39 -162h-288q22 104 56 228t77 256.5
t92.5 268t101.5 264t104.5 243.5t101.5 206h407q49 -91 102 -206.5t105 -243.5t101.5 -264t92 -268.5t76.5 -256.5t56 -227h-288zM683 1950h332l-265 -398h-295z" />
    <glyph glyph-name="Acircumflex" unicode="&#xc2;" horiz-adv-x="1473" 
d="M1185 0q-13 59 -32 132t-43 154t-53 169t-62 183h-434q2 6 9.5 24.5t17.5 46.5t21.5 59.5t21.5 59t17.5 47t9.5 22.5h239q-32 80 -64.5 157t-66.5 151h-60q-45 -100 -89.5 -208t-86 -217.5t-79 -218t-69 -209t-55.5 -190.5t-39 -162h-288q22 104 56 228t77 256.5
t92.5 268t101.5 264t104.5 243.5t101.5 206h407q49 -91 102 -206.5t105 -243.5t101.5 -264t92 -268.5t76.5 -256.5t56 -227h-288zM625 1926h227l254 -345h-291l-76 117q-19 -29 -40 -61t-37 -56h-291z" />
    <glyph glyph-name="Atilde" unicode="&#xc3;" horiz-adv-x="1473" 
d="M1185 0q-13 59 -32 132t-43 154t-53 169t-62 183h-434q2 6 9.5 24.5t17.5 46.5t21.5 59.5t21.5 59t17.5 47t9.5 22.5h239q-32 80 -64.5 157t-66.5 151h-60q-45 -100 -89.5 -208t-86 -217.5t-79 -218t-69 -209t-55.5 -190.5t-39 -162h-288q22 104 56 228t77 256.5
t92.5 268t101.5 264t104.5 243.5t101.5 206h407q49 -91 102 -206.5t105 -243.5t101.5 -264t92 -268.5t76.5 -256.5t56 -227h-288zM369 1780q38 51 98 82t130 31q42 0 81 -14.5t77 -31.5t74 -31.5t72 -14.5q75 0 125.5 31t90.5 85v-204q-51 -56 -105 -81.5t-121 -25.5
q-44 0 -83.5 14.5t-78 32t-77 32t-79.5 14.5q-23 0 -48 -5t-50.5 -17.5t-52 -34.5t-53.5 -56v194z" />
    <glyph glyph-name="Adieresis" unicode="&#xc4;" horiz-adv-x="1473" 
d="M1185 0q-13 59 -32 132t-43 154t-53 169t-62 183h-434q2 6 9.5 24.5t17.5 46.5t21.5 59.5t21.5 59t17.5 47t9.5 22.5h239q-32 80 -64.5 157t-66.5 151h-60q-45 -100 -89.5 -208t-86 -217.5t-79 -218t-69 -209t-55.5 -190.5t-39 -162h-288q22 104 56 228t77 256.5
t92.5 268t101.5 264t104.5 243.5t101.5 206h407q49 -91 102 -206.5t105 -243.5t101.5 -264t92 -268.5t76.5 -256.5t56 -227h-288zM410 1603v277h274v-277h-274zM798 1603v277h274v-277h-274z" />
    <glyph glyph-name="Aring" unicode="&#xc5;" horiz-adv-x="1473" 
d="M1185 0q-13 59 -32 132t-43 154t-53 169t-62 183h-434q2 6 9.5 24.5t17.5 46.5t21.5 59.5t21.5 59t17.5 47t9.5 22.5h239q-32 80 -64.5 157t-66.5 151h-60q-45 -100 -89.5 -208t-86 -217.5t-79 -218t-69 -209t-55.5 -190.5t-39 -162h-288q22 104 56 228t77 256.5
t92.5 268t101.5 264t104.5 243.5t101.5 206h407q49 -91 102 -206.5t105 -243.5t101.5 -264t92 -268.5t76.5 -256.5t56 -227h-288zM492 1599q0 44 15 86.5t44.5 74.5t74.5 51.5t106 19.5q60 0 105.5 -19t75 -51.5t44.5 -75.5t15 -90t-15 -90t-44.5 -75.5t-75 -52
t-104.5 -19.5t-104.5 19.5t-75.5 52t-45.5 76.5t-15.5 93zM616 1597q0 -48 29 -82t87 -34q59 0 87 34t28 80t-28 80t-87 34q-30 0 -51.5 -9t-35.5 -25t-21.5 -36.5t-7.5 -41.5z" />
    <glyph glyph-name="AE" unicode="&#xc6;" horiz-adv-x="2202" 
d="M1057 0v634h-321q12 23 31.5 57t42 71.5t45 73t39.5 61.5h163v308h-63q-69 -100 -137.5 -208t-134.5 -217.5t-127.5 -218t-116 -209t-100.5 -190.5t-80 -162h-298q50 104 113.5 228t136.5 256.5t152 268t160 264t160.5 243.5t153.5 206h1205v-261h-739v-308h652v-263
h-652v-369h760v-265h-1045z" />
    <glyph glyph-name="Ccedilla" unicode="&#xc7;" horiz-adv-x="1261" 
d="M365 733q0 -134 26 -228t76.5 -153t125.5 -86.5t174 -27.5q85 0 180 11.5t214 43.5v-273q-77 -19 -171.5 -30.5t-222.5 -11.5q-180 0 -311.5 49.5t-217 145.5t-127 236.5t-41.5 323.5q0 165 40.5 304t125 239t215 156t311.5 56q120 0 221 -11t178 -28v-280
q-52 15 -100.5 26t-97 18.5t-98 11t-103.5 3.5q-197 0 -297 -119.5t-100 -375.5zM680 58h194l-41 -137q47 -9 81.5 -25.5t57 -38t33.5 -47t11 -52.5q0 -90 -75 -137.5t-218 -47.5h-185v141h150q47 0 66.5 16.5t19.5 35.5q0 13 -5 23.5t-22.5 18.5t-50 12.5t-86.5 6.5z" />
    <glyph glyph-name="Egrave" unicode="&#xc8;" horiz-adv-x="1295" 
d="M150 0v1466h1024v-261h-739v-308h652v-259h-652v-373h760v-265h-1045zM867 1564h-274l-233 361h311z" />
    <glyph glyph-name="Eacute" unicode="&#xc9;" horiz-adv-x="1295" 
d="M150 0v1466h1024v-261h-739v-308h652v-259h-652v-373h760v-265h-1045zM660 1950h332l-265 -398h-295z" />
    <glyph glyph-name="Ecircumflex" unicode="&#xca;" horiz-adv-x="1295" 
d="M150 0v1466h1024v-261h-739v-308h652v-259h-652v-373h760v-265h-1045zM573 1921h227l254 -345h-291l-76 117q-19 -29 -40 -61t-37 -56h-291z" />
    <glyph glyph-name="Edieresis" unicode="&#xcb;" horiz-adv-x="1295" 
d="M150 0v1466h1024v-261h-739v-308h652v-259h-652v-373h760v-265h-1045zM372 1603v277h274v-277h-274zM760 1603v277h274v-277h-274z" />
    <glyph glyph-name="Igrave" unicode="&#xcc;" horiz-adv-x="585" 
d="M150 0v1466h285v-1466h-285zM518 1566h-274l-233 361h311z" />
    <glyph glyph-name="Iacute" unicode="&#xcd;" horiz-adv-x="585" 
d="M150 0v1466h285v-1466h-285zM255 1944h332l-265 -398h-295z" />
    <glyph glyph-name="Icircumflex" unicode="&#xce;" horiz-adv-x="585" 
d="M150 0v1466h285v-1466h-285zM188 1911h227l254 -345h-291l-76 117q-19 -29 -40 -61t-37 -56h-291z" />
    <glyph glyph-name="Idieresis" unicode="&#xcf;" horiz-adv-x="585" 
d="M150 0v1466h285v-1466h-285zM-35 1603v277h274v-277h-274zM353 1603v277h274v-277h-274z" />
    <glyph glyph-name="Eth" unicode="&#xd0;" horiz-adv-x="1493" 
d="M40 897h147v568q55 0 120 3.5t135 8t143 8t144 3.5q181 0 311 -56.5t212.5 -158t121.5 -241.5t39 -307q0 -175 -37 -310t-119 -227.5t-213.5 -140t-320.5 -47.5h-536v634h-147v263zM729 1228q-35 0 -76 -2t-78 -4.5t-65.5 -4.5t-37.5 -2v-318h238v-263h-238v-369h251
q104 0 178.5 23.5t122.5 77t71 138.5t23 208q0 260 -93.5 388t-295.5 128z" />
    <glyph glyph-name="Ntilde" unicode="&#xd1;" horiz-adv-x="1470" 
d="M191 0v1466h253q48 -33 115.5 -102t144 -162t155.5 -203t150 -226q16 -26 33 -64t28 -81v838h285v-1466h-269q-37 111 -84 218t-100 207t-109 192t-111.5 172.5t-108 148.5t-97.5 120v-1058h-285zM402 1780q38 51 98 82t130 31q42 0 81 -14.5t77 -31.5t74 -31.5t72 -14.5
q75 0 125.5 31t90.5 85v-204q-51 -56 -105 -81.5t-121 -25.5q-44 0 -83.5 14.5t-78 32t-77 32t-79.5 14.5q-23 0 -48 -5t-50.5 -17.5t-52 -34.5t-53.5 -56v194z" />
    <glyph glyph-name="Ograve" unicode="&#xd2;" horiz-adv-x="1473" 
d="M80 733q0 104 15 200.5t47.5 180.5t84 153t124.5 118t168.5 76t216.5 27t216.5 -27t168.5 -76t125 -118t84.5 -153t47.5 -180.5t15 -200.5t-15 -200.5t-47.5 -180.5t-84.5 -153t-125 -118t-168.5 -76t-216.5 -27t-216.5 27t-168.5 76t-124.5 118t-84 153t-47.5 180.5
t-15 200.5zM370 733q0 -123 21 -217.5t65 -158.5t113.5 -97t166.5 -33t166.5 33t114 97t65 158.5t20.5 217.5t-20.5 217.5t-65 158.5t-114 97t-166.5 33t-166.5 -33t-113.5 -97t-65 -158.5t-21 -217.5zM962 1577h-274l-233 361h311z" />
    <glyph glyph-name="Oacute" unicode="&#xd3;" horiz-adv-x="1473" 
d="M80 733q0 104 15 200.5t47.5 180.5t84 153t124.5 118t168.5 76t216.5 27t216.5 -27t168.5 -76t125 -118t84.5 -153t47.5 -180.5t15 -200.5t-15 -200.5t-47.5 -180.5t-84.5 -153t-125 -118t-168.5 -76t-216.5 -27t-216.5 27t-168.5 76t-124.5 118t-84 153t-47.5 180.5
t-15 200.5zM370 733q0 -123 21 -217.5t65 -158.5t113.5 -97t166.5 -33t166.5 33t114 97t65 158.5t20.5 217.5t-20.5 217.5t-65 158.5t-114 97t-166.5 33t-166.5 -33t-113.5 -97t-65 -158.5t-21 -217.5zM703 1950h332l-265 -398h-295z" />
    <glyph glyph-name="Ocircumflex" unicode="&#xd4;" horiz-adv-x="1473" 
d="M80 733q0 104 15 200.5t47.5 180.5t84 153t124.5 118t168.5 76t216.5 27t216.5 -27t168.5 -76t125 -118t84.5 -153t47.5 -180.5t15 -200.5t-15 -200.5t-47.5 -180.5t-84.5 -153t-125 -118t-168.5 -76t-216.5 -27t-216.5 27t-168.5 76t-124.5 118t-84 153t-47.5 180.5
t-15 200.5zM370 733q0 -123 21 -217.5t65 -158.5t113.5 -97t166.5 -33t166.5 33t114 97t65 158.5t20.5 217.5t-20.5 217.5t-65 158.5t-114 97t-166.5 33t-166.5 -33t-113.5 -97t-65 -158.5t-21 -217.5zM605 1926h227l254 -345h-291l-76 117q-19 -29 -40 -61t-37 -56h-291z
" />
    <glyph glyph-name="Otilde" unicode="&#xd5;" horiz-adv-x="1473" 
d="M80 733q0 104 15 200.5t47.5 180.5t84 153t124.5 118t168.5 76t216.5 27t216.5 -27t168.5 -76t125 -118t84.5 -153t47.5 -180.5t15 -200.5t-15 -200.5t-47.5 -180.5t-84.5 -153t-125 -118t-168.5 -76t-216.5 -27t-216.5 27t-168.5 76t-124.5 118t-84 153t-47.5 180.5
t-15 200.5zM370 733q0 -123 21 -217.5t65 -158.5t113.5 -97t166.5 -33t166.5 33t114 97t65 158.5t20.5 217.5t-20.5 217.5t-65 158.5t-114 97t-166.5 33t-166.5 -33t-113.5 -97t-65 -158.5t-21 -217.5zM358 1780q38 51 98 82t130 31q42 0 81 -14.5t77 -31.5t74 -31.5
t72 -14.5q75 0 125.5 31t90.5 85v-204q-51 -56 -105 -81.5t-121 -25.5q-44 0 -83.5 14.5t-78 32t-77 32t-79.5 14.5q-23 0 -48 -5t-50.5 -17.5t-52 -34.5t-53.5 -56v194z" />
    <glyph glyph-name="Odieresis" unicode="&#xd6;" horiz-adv-x="1473" 
d="M80 733q0 104 15 200.5t47.5 180.5t84 153t124.5 118t168.5 76t216.5 27t216.5 -27t168.5 -76t125 -118t84.5 -153t47.5 -180.5t15 -200.5t-15 -200.5t-47.5 -180.5t-84.5 -153t-125 -118t-168.5 -76t-216.5 -27t-216.5 27t-168.5 76t-124.5 118t-84 153t-47.5 180.5
t-15 200.5zM370 733q0 -123 21 -217.5t65 -158.5t113.5 -97t166.5 -33t166.5 33t114 97t65 158.5t20.5 217.5t-20.5 217.5t-65 158.5t-114 97t-166.5 33t-166.5 -33t-113.5 -97t-65 -158.5t-21 -217.5zM403 1603v277h274v-277h-274zM791 1603v277h274v-277h-274z" />
    <glyph glyph-name="multiply" unicode="&#xd7;" horiz-adv-x="1086" 
d="M800 268l-257 258l-246 -246l-181 180l246 246l-256 256l178 178l256 -256l246 246l181 -181l-246 -246l257 -257z" />
    <glyph glyph-name="Oslash" unicode="&#xd8;" horiz-adv-x="1491" 
d="M108 181l75 84q-52 94 -77.5 213.5t-25.5 254.5q0 157 34.5 294.5t112.5 240t203 161.5t306 59q138 0 242.5 -34t179.5 -97l178 199v-266l-60 -67q63 -102 90 -225t27 -265q0 -104 -15 -200.5t-47.5 -180.5t-84.5 -153t-125 -118t-168.5 -76t-216.5 -27q-147 0 -258 39
t-184 108l-186 -208v264zM736 227q97 0 166.5 33t114 97t65 158.5t20.5 217.5q0 76 -8 139.5t-24 120.5l-593 -664q51 -56 119 -79t140 -23zM370 733q0 -124 24 -232l583 653q-45 43 -104 64t-137 21q-97 0 -166.5 -33t-113.5 -97t-65 -158.5t-21 -217.5z" />
    <glyph glyph-name="Ugrave" unicode="&#xd9;" horiz-adv-x="1440" 
d="M1290 522q0 -129 -44 -230.5t-120.5 -171t-180.5 -106t-225 -36.5t-225 36.5t-180.5 106t-120.5 171t-44 230.5v944h285v-954q0 -69 21 -122t59 -89t90.5 -55t114.5 -19t114.5 19t90.5 55t59 89t21 122v954h285v-944zM931 1566h-274l-233 361h311z" />
    <glyph glyph-name="Uacute" unicode="&#xda;" horiz-adv-x="1440" 
d="M1290 522q0 -129 -44 -230.5t-120.5 -171t-180.5 -106t-225 -36.5t-225 36.5t-180.5 106t-120.5 171t-44 230.5v944h285v-954q0 -69 21 -122t59 -89t90.5 -55t114.5 -19t114.5 19t90.5 55t59 89t21 122v954h285v-944zM700 1944h332l-265 -398h-295z" />
    <glyph glyph-name="Ucircumflex" unicode="&#xdb;" horiz-adv-x="1440" 
d="M1290 522q0 -129 -44 -230.5t-120.5 -171t-180.5 -106t-225 -36.5t-225 36.5t-180.5 106t-120.5 171t-44 230.5v944h285v-954q0 -69 21 -122t59 -89t90.5 -55t114.5 -19t114.5 19t90.5 55t59 89t21 122v954h285v-944zM602 1911h227l254 -345h-291l-76 117
q-19 -29 -40 -61t-37 -56h-291z" />
    <glyph glyph-name="Udieresis" unicode="&#xdc;" horiz-adv-x="1440" 
d="M1290 522q0 -129 -44 -230.5t-120.5 -171t-180.5 -106t-225 -36.5t-225 36.5t-180.5 106t-120.5 171t-44 230.5v944h285v-954q0 -69 21 -122t59 -89t90.5 -55t114.5 -19t114.5 19t90.5 55t59 89t21 122v954h285v-944zM400 1603v277h274v-277h-274zM788 1603v277h274v-277
h-274z" />
    <glyph glyph-name="Yacute" unicode="&#xdd;" horiz-adv-x="1388" 
d="M546 0v643q-86 102 -167.5 207t-152 209.5t-128.5 207t-98 199.5h290q30 -68 72.5 -140.5t95 -148t112.5 -152.5t124 -154q64 77 124 154t112.5 152.5t95.5 148t73 140.5h289q-41 -98 -100 -202t-131.5 -210t-155 -213t-170.5 -210v-631h-285zM681 1950h332l-265 -398
h-295z" />
    <glyph glyph-name="Thorn" unicode="&#xde;" horiz-adv-x="1294" 
d="M423 150v-150h-285v1466h285v-129h53q166 0 291.5 -40t210 -117.5t127 -189.5t42.5 -256q0 -291 -169 -437.5t-502 -146.5h-53zM423 1092v-697h53q114 0 188 24t117 68t60 106.5t17 140.5t-17 144t-60 113.5t-117 74t-188 26.5h-53z" />
    <glyph glyph-name="germandbls" unicode="&#xdf;" horiz-adv-x="1294" 
d="M555 1489q82 0 144 -19.5t106.5 -50.5t74 -71.5t47 -81.5t24.5 -80.5t7 -69.5q0 -47 -11.5 -85.5t-28.5 -70.5t-37.5 -58.5t-37.5 -49t-28.5 -42.5t-11.5 -38q0 -21 26.5 -45.5t66 -54t85.5 -66.5t85.5 -81.5t66 -99t26.5 -120.5q0 -78 -27.5 -138.5t-77.5 -102
t-119.5 -63.5t-152.5 -22q-34 0 -72 2.5t-75.5 7t-73 11t-65.5 13.5v226q48 -10 87.5 -17t73 -11t63 -6t59.5 -2q21 0 40 5.5t33.5 17.5t23 31.5t8.5 47.5q0 40 -26 74.5t-65 67t-84 65t-84 69t-65 78.5t-26 95q0 41 11.5 74.5t28.5 62t37 54.5t37 52t28.5 54t11.5 61
q0 21 -6 47.5t-21.5 50t-42 39.5t-67.5 16q-45 0 -73.5 -11.5t-45 -36t-22.5 -63t-6 -92.5v-1062h-266v1059q0 102 19 181.5t66.5 135t128 84.5t203.5 29z" />
    <glyph glyph-name="agrave" unicode="&#xe0;" horiz-adv-x="1111" 
d="M727 62q-57 -48 -120.5 -66t-137.5 -18q-96 0 -170 23.5t-125 67t-77.5 105t-26.5 138.5q0 86 32.5 151t91 109t138.5 66t175 22h204v53q0 31 -11.5 58t-36.5 47t-63.5 31t-92.5 11q-37 0 -71.5 -2.5t-70.5 -8t-75 -15t-85 -23.5v236q39 8 76 15t73.5 12t74 7.5t78.5 2.5
q124 0 213 -25.5t146 -73t83.5 -115.5t26.5 -153v-717h-249v62zM711 431h-204q-43 0 -74.5 -8.5t-51.5 -23.5t-30 -35.5t-10 -43.5q0 -33 12 -54.5t33.5 -34.5t50.5 -18t62 -5q65 0 119.5 19.5t92.5 58.5v145zM741 1177h-274l-233 361h311z" />
    <glyph glyph-name="aacute" unicode="&#xe1;" horiz-adv-x="1111" 
d="M727 62q-57 -48 -120.5 -66t-137.5 -18q-96 0 -170 23.5t-125 67t-77.5 105t-26.5 138.5q0 86 32.5 151t91 109t138.5 66t175 22h204v53q0 31 -11.5 58t-36.5 47t-63.5 31t-92.5 11q-37 0 -71.5 -2.5t-70.5 -8t-75 -15t-85 -23.5v236q39 8 76 15t73.5 12t74 7.5t78.5 2.5
q124 0 213 -25.5t146 -73t83.5 -115.5t26.5 -153v-717h-249v62zM711 431h-204q-43 0 -74.5 -8.5t-51.5 -23.5t-30 -35.5t-10 -43.5q0 -33 12 -54.5t33.5 -34.5t50.5 -18t62 -5q65 0 119.5 19.5t92.5 58.5v145zM572 1555h332l-265 -398h-295z" />
    <glyph glyph-name="acircumflex" unicode="&#xe2;" horiz-adv-x="1111" 
d="M727 62q-57 -48 -120.5 -66t-137.5 -18q-96 0 -170 23.5t-125 67t-77.5 105t-26.5 138.5q0 86 32.5 151t91 109t138.5 66t175 22h204v53q0 31 -11.5 58t-36.5 47t-63.5 31t-92.5 11q-37 0 -71.5 -2.5t-70.5 -8t-75 -15t-85 -23.5v236q39 8 76 15t73.5 12t74 7.5t78.5 2.5
q124 0 213 -25.5t146 -73t83.5 -115.5t26.5 -153v-717h-249v62zM711 431h-204q-43 0 -74.5 -8.5t-51.5 -23.5t-30 -35.5t-10 -43.5q0 -33 12 -54.5t33.5 -34.5t50.5 -18t62 -5q65 0 119.5 19.5t92.5 58.5v145zM460 1522h227l254 -345h-291l-76 117q-19 -29 -40 -61t-37 -56
h-291z" />
    <glyph glyph-name="atilde" unicode="&#xe3;" horiz-adv-x="1111" 
d="M727 62q-57 -48 -120.5 -66t-137.5 -18q-96 0 -170 23.5t-125 67t-77.5 105t-26.5 138.5q0 86 32.5 151t91 109t138.5 66t175 22h204v53q0 31 -11.5 58t-36.5 47t-63.5 31t-92.5 11q-37 0 -71.5 -2.5t-70.5 -8t-75 -15t-85 -23.5v236q39 8 76 15t73.5 12t74 7.5t78.5 2.5
q124 0 213 -25.5t146 -73t83.5 -115.5t26.5 -153v-717h-249v62zM711 431h-204q-43 0 -74.5 -8.5t-51.5 -23.5t-30 -35.5t-10 -43.5q0 -33 12 -54.5t33.5 -34.5t50.5 -18t62 -5q65 0 119.5 19.5t92.5 58.5v145zM206 1365q38 51 98 82t130 31q42 0 81 -14.5t77 -31.5t74 -31.5
t72 -14.5q75 0 125.5 31t90.5 85v-204q-51 -56 -105 -81.5t-121 -25.5q-44 0 -83.5 14.5t-78 32t-77 32t-79.5 14.5q-23 0 -48 -5t-50.5 -17.5t-52 -34.5t-53.5 -56v194z" />
    <glyph glyph-name="adieresis" unicode="&#xe4;" horiz-adv-x="1111" 
d="M727 62q-57 -48 -120.5 -66t-137.5 -18q-96 0 -170 23.5t-125 67t-77.5 105t-26.5 138.5q0 86 32.5 151t91 109t138.5 66t175 22h204v53q0 31 -11.5 58t-36.5 47t-63.5 31t-92.5 11q-37 0 -71.5 -2.5t-70.5 -8t-75 -15t-85 -23.5v236q39 8 76 15t73.5 12t74 7.5t78.5 2.5
q124 0 213 -25.5t146 -73t83.5 -115.5t26.5 -153v-717h-249v62zM711 431h-204q-43 0 -74.5 -8.5t-51.5 -23.5t-30 -35.5t-10 -43.5q0 -33 12 -54.5t33.5 -34.5t50.5 -18t62 -5q65 0 119.5 19.5t92.5 58.5v145zM211 1189v277h274v-277h-274zM599 1189v277h274v-277h-274z" />
    <glyph glyph-name="aring" unicode="&#xe5;" horiz-adv-x="1111" 
d="M727 62q-57 -48 -120.5 -66t-137.5 -18q-96 0 -170 23.5t-125 67t-77.5 105t-26.5 138.5q0 86 32.5 151t91 109t138.5 66t175 22h204v53q0 31 -11.5 58t-36.5 47t-63.5 31t-92.5 11q-37 0 -71.5 -2.5t-70.5 -8t-75 -15t-85 -23.5v236q39 8 76 15t73.5 12t74 7.5t78.5 2.5
q124 0 213 -25.5t146 -73t83.5 -115.5t26.5 -153v-717h-249v62zM711 431h-204q-43 0 -74.5 -8.5t-51.5 -23.5t-30 -35.5t-10 -43.5q0 -33 12 -54.5t33.5 -34.5t50.5 -18t62 -5q65 0 119.5 19.5t92.5 58.5v145zM312 1396q0 44 15 86.5t44.5 74.5t74.5 51.5t106 19.5
q60 0 105.5 -19t75 -51.5t44.5 -75.5t15 -90t-15 -90t-44.5 -75.5t-75 -52t-104.5 -19.5t-104.5 19.5t-75.5 52t-45.5 76.5t-15.5 93zM436 1394q0 -48 29 -82t87 -34q59 0 87 34t28 80t-28 80t-87 34q-30 0 -51.5 -9t-35.5 -25t-21.5 -36.5t-7.5 -41.5z" />
    <glyph glyph-name="ae" unicode="&#xe6;" horiz-adv-x="1760" 
d="M1625 44q-97 -33 -192.5 -49.5t-205.5 -16.5q-38 0 -87.5 4t-102.5 18t-106 42.5t-98 78.5q-28 -24 -65 -49.5t-83 -46t-100 -34t-116 -13.5q-96 0 -170 23.5t-125 67t-77.5 105t-26.5 138.5q0 86 32.5 151t91 109t138.5 66t175 22h204v53q0 31 -11.5 58t-36.5 47
t-63.5 31t-92.5 11q-37 0 -71.5 -2.5t-70.5 -8t-75 -15t-85 -23.5v236q39 8 76 15t73.5 12t74 7.5t78.5 2.5q76 0 133 -10t99.5 -27.5t74.5 -40t59 -47.5q26 27 57 49.5t69.5 39.5t86 26.5t105.5 9.5q121 0 212.5 -38.5t153 -110.5t92.5 -174t31 -228v-102h-704
q3 -62 20 -105.5t48.5 -71t77.5 -40t105 -12.5q52 0 97.5 3.5t92 11.5t97 22.5t111.5 36.5v-232zM507 431q-87 0 -126.5 -29t-39.5 -76q0 -33 12 -55.5t33.5 -36.5t50.5 -20t62 -6q65 0 122.5 20.5t105.5 72.5q-8 30 -14.5 63.5t-8.5 66.5h-197zM1394 660q0 94 -50 147
t-153 53q-51 0 -88.5 -14t-62 -40t-37.5 -63t-16 -83h407z" />
    <glyph glyph-name="ccedilla" unicode="&#xe7;" horiz-adv-x="978" 
d="M351 531q0 -95 17.5 -158t50 -101t79.5 -54t107 -16q66 0 139.5 16t143.5 42v-229q-30 -12 -65.5 -22t-72 -17t-74 -10.5t-71.5 -3.5q-268 0 -396.5 135.5t-128.5 417.5q0 128 30 230.5t93 174t160.5 110t232.5 38.5q75 0 145.5 -12.5t146.5 -38.5v-231q-77 28 -151.5 43
t-140.5 15q-119 0 -182 -78.5t-63 -250.5zM474 58h194l-41 -137q47 -9 81.5 -25.5t57 -38t33.5 -47t11 -52.5q0 -90 -75 -137.5t-218 -47.5h-185v141h150q47 0 66.5 16.5t19.5 35.5q0 13 -5 23.5t-22.5 18.5t-50 12.5t-86.5 6.5z" />
    <glyph glyph-name="egrave" unicode="&#xe8;" horiz-adv-x="1140" 
d="M1005 44q-97 -33 -192.5 -49.5t-205.5 -16.5q-142 0 -242 37.5t-163.5 107.5t-92.5 171t-29 229q0 131 30 235t91 176.5t153.5 111t216.5 38.5q121 0 212.5 -38.5t153 -110.5t92.5 -174t31 -228v-97h-704q3 -72 20 -115.5t48.5 -71t77.5 -40t105 -12.5q52 0 97.5 3.5
t92 11.5t97 22.5t111.5 36.5v-227zM774 655q0 104 -50 157t-153 53q-51 0 -88.5 -14t-62 -40t-37.5 -63t-16 -93h407zM736 1177h-274l-233 361h311z" />
    <glyph glyph-name="eacute" unicode="&#xe9;" horiz-adv-x="1140" 
d="M1005 44q-97 -33 -192.5 -49.5t-205.5 -16.5q-142 0 -242 37.5t-163.5 107.5t-92.5 171t-29 229q0 131 30 235t91 176.5t153.5 111t216.5 38.5q121 0 212.5 -38.5t153 -110.5t92.5 -174t31 -228v-97h-704q3 -72 20 -115.5t48.5 -71t77.5 -40t105 -12.5q52 0 97.5 3.5
t92 11.5t97 22.5t111.5 36.5v-227zM774 655q0 104 -50 157t-153 53q-51 0 -88.5 -14t-62 -40t-37.5 -63t-16 -93h407zM554 1555h332l-265 -398h-295z" />
    <glyph glyph-name="ecircumflex" unicode="&#xea;" horiz-adv-x="1140" 
d="M1005 44q-97 -33 -192.5 -49.5t-205.5 -16.5q-142 0 -242 37.5t-163.5 107.5t-92.5 171t-29 229q0 131 30 235t91 176.5t153.5 111t216.5 38.5q121 0 212.5 -38.5t153 -110.5t92.5 -174t31 -228v-97h-704q3 -72 20 -115.5t48.5 -71t77.5 -40t105 -12.5q52 0 97.5 3.5
t92 11.5t97 22.5t111.5 36.5v-227zM774 655q0 104 -50 157t-153 53q-51 0 -88.5 -14t-62 -40t-37.5 -63t-16 -93h407zM462 1522h227l254 -345h-291l-76 117q-19 -29 -40 -61t-37 -56h-291z" />
    <glyph glyph-name="edieresis" unicode="&#xeb;" horiz-adv-x="1140" 
d="M1005 44q-97 -33 -192.5 -49.5t-205.5 -16.5q-142 0 -242 37.5t-163.5 107.5t-92.5 171t-29 229q0 131 30 235t91 176.5t153.5 111t216.5 38.5q121 0 212.5 -38.5t153 -110.5t92.5 -174t31 -228v-97h-704q3 -72 20 -115.5t48.5 -71t77.5 -40t105 -12.5q52 0 97.5 3.5
t92 11.5t97 22.5t111.5 36.5v-227zM774 655q0 104 -50 157t-153 53q-51 0 -88.5 -14t-62 -40t-37.5 -63t-16 -93h407zM237 1189v277h274v-277h-274zM625 1189v277h274v-277h-274z" />
    <glyph glyph-name="igrave" unicode="&#xec;" horiz-adv-x="535" 
d="M135 0v1062h265v-1062h-265zM508 1177h-274l-233 361h311z" />
    <glyph glyph-name="iacute" unicode="&#xed;" horiz-adv-x="535" 
d="M135 0v1062h265v-1062h-265zM271 1555h332l-265 -398h-295z" />
    <glyph glyph-name="icircumflex" unicode="&#xee;" horiz-adv-x="535" 
d="M135 0v1062h265v-1062h-265zM152 1522h227l254 -345h-291l-76 117q-19 -29 -40 -61t-37 -56h-291z" />
    <glyph glyph-name="idieresis" unicode="&#xef;" horiz-adv-x="535" 
d="M135 0v1062h265v-1062h-265zM-58 1189v277h274v-277h-274zM330 1189v277h274v-277h-274z" />
    <glyph glyph-name="eth" unicode="&#xf0;" horiz-adv-x="1116" 
d="M268 1096v156l144 55q-52 50 -103 90t-99 69h368q23 -16 44.5 -31.5t41.5 -32.5l226 86v-146l-113 -45q92 -98 148.5 -203t87.5 -207t41.5 -195.5t10.5 -169.5q0 -137 -34.5 -239t-98.5 -169.5t-153.5 -101.5t-198.5 -34q-110 0 -200 33.5t-154.5 101t-100 169
t-35.5 236.5q0 157 39 265t105 175t151.5 96.5t178.5 29.5h20t20 -1q-20 29 -41.5 57t-44.5 55zM579 850q-58 0 -99 -21.5t-67.5 -62.5t-39 -100t-12.5 -135t12.5 -135t39 -100t67.5 -62.5t99 -21.5q116 0 167 83.5t51 235.5q0 75 -14 146.5t-40 140.5q-36 16 -81 24t-83 8z
" />
    <glyph glyph-name="ntilde" unicode="&#xf1;" 
d="M384 1062v-62q53 44 114.5 64t130.5 20q88 0 156 -25t114.5 -72t70 -115.5t23.5 -156.5v-715h-265v687q0 41 -6.5 73t-23 54.5t-45 34t-72.5 11.5q-68 0 -114 -22.5t-67 -48.5v-789h-265v1062h249zM189 1376q38 51 98 82t130 31q42 0 81 -14.5t77 -31.5t74 -31.5
t72 -14.5q75 0 125.5 31t90.5 85v-204q-51 -56 -105 -81.5t-121 -25.5q-44 0 -83.5 14.5t-78 32t-77 32t-79.5 14.5q-23 0 -48 -5t-50.5 -17.5t-52 -34.5t-53.5 -56v194z" />
    <glyph glyph-name="ograve" unicode="&#xf2;" horiz-adv-x="1137" 
d="M80 531q0 114 26 215t84.5 176t151.5 118.5t227 43.5q133 0 226 -43.5t151 -118.5t84.5 -176t26.5 -215t-26.5 -215t-84.5 -176t-151 -118.5t-226 -43.5q-134 0 -227 43.5t-151.5 118.5t-84.5 176t-26 215zM351 531q0 -76 12.5 -135.5t38.5 -100t67.5 -62t99.5 -21.5
t99.5 21.5t67.5 62t38.5 100t12.5 135.5t-12.5 135t-38.5 100t-67.5 62.5t-99.5 21.5t-99.5 -21.5t-67.5 -62.5t-38.5 -100t-12.5 -135zM814 1177h-274l-233 361h311z" />
    <glyph glyph-name="oacute" unicode="&#xf3;" horiz-adv-x="1137" 
d="M80 531q0 114 26 215t84.5 176t151.5 118.5t227 43.5q133 0 226 -43.5t151 -118.5t84.5 -176t26.5 -215t-26.5 -215t-84.5 -176t-151 -118.5t-226 -43.5q-134 0 -227 43.5t-151.5 118.5t-84.5 176t-26 215zM351 531q0 -76 12.5 -135.5t38.5 -100t67.5 -62t99.5 -21.5
t99.5 21.5t67.5 62t38.5 100t12.5 135.5t-12.5 135t-38.5 100t-67.5 62.5t-99.5 21.5t-99.5 -21.5t-67.5 -62.5t-38.5 -100t-12.5 -135zM518 1555h332l-265 -398h-295z" />
    <glyph glyph-name="ocircumflex" unicode="&#xf4;" horiz-adv-x="1137" 
d="M80 531q0 114 26 215t84.5 176t151.5 118.5t227 43.5q133 0 226 -43.5t151 -118.5t84.5 -176t26.5 -215t-26.5 -215t-84.5 -176t-151 -118.5t-226 -43.5q-134 0 -227 43.5t-151.5 118.5t-84.5 176t-26 215zM351 531q0 -76 12.5 -135.5t38.5 -100t67.5 -62t99.5 -21.5
t99.5 21.5t67.5 62t38.5 100t12.5 135.5t-12.5 135t-38.5 100t-67.5 62.5t-99.5 21.5t-99.5 -21.5t-67.5 -62.5t-38.5 -100t-12.5 -135zM453 1522h227l254 -345h-291l-76 117q-19 -29 -40 -61t-37 -56h-291z" />
    <glyph glyph-name="otilde" unicode="&#xf5;" horiz-adv-x="1137" 
d="M80 531q0 114 26 215t84.5 176t151.5 118.5t227 43.5q133 0 226 -43.5t151 -118.5t84.5 -176t26.5 -215t-26.5 -215t-84.5 -176t-151 -118.5t-226 -43.5q-134 0 -227 43.5t-151.5 118.5t-84.5 176t-26 215zM351 531q0 -76 12.5 -135.5t38.5 -100t67.5 -62t99.5 -21.5
t99.5 21.5t67.5 62t38.5 100t12.5 135.5t-12.5 135t-38.5 100t-67.5 62.5t-99.5 21.5t-99.5 -21.5t-67.5 -62.5t-38.5 -100t-12.5 -135zM196 1376q38 51 98 82t130 31q42 0 81 -14.5t77 -31.5t74 -31.5t72 -14.5q75 0 125.5 31t90.5 85v-204q-51 -56 -105 -81.5t-121 -25.5
q-44 0 -83.5 14.5t-78 32t-77 32t-79.5 14.5q-23 0 -48 -5t-50.5 -17.5t-52 -34.5t-53.5 -56v194z" />
    <glyph glyph-name="odieresis" unicode="&#xf6;" horiz-adv-x="1137" 
d="M80 531q0 114 26 215t84.5 176t151.5 118.5t227 43.5q133 0 226 -43.5t151 -118.5t84.5 -176t26.5 -215t-26.5 -215t-84.5 -176t-151 -118.5t-226 -43.5q-134 0 -227 43.5t-151.5 118.5t-84.5 176t-26 215zM351 531q0 -76 12.5 -135.5t38.5 -100t67.5 -62t99.5 -21.5
t99.5 21.5t67.5 62t38.5 100t12.5 135.5t-12.5 135t-38.5 100t-67.5 62.5t-99.5 21.5t-99.5 -21.5t-67.5 -62.5t-38.5 -100t-12.5 -135zM242 1189v277h274v-277h-274zM630 1189v277h274v-277h-274z" />
    <glyph glyph-name="divide" unicode="&#xf7;" horiz-adv-x="1165" 
d="M430 951v285h295v-285h-295zM430 176v284h295v-284h-295zM112 580v251h953v-251h-953z" />
    <glyph glyph-name="oslash" unicode="&#xf8;" horiz-adv-x="1139" 
d="M92 156l53 58q-34 72 -49.5 151.5t-15.5 160.5q0 114 26 215.5t84.5 177.5t152 120.5t228.5 44.5q82 0 158 -19.5t139 -66.5l139 151v-224l-35 -38q25 -41 42 -85t27 -89.5t14 -91.5t4 -90q0 -114 -26.5 -215t-84.5 -176t-151 -118.5t-226 -43.5q-94 0 -180 26t-153 87
l-146 -158v223zM571 212q58 0 99.5 21.5t67.5 62t38.5 100t12.5 135.5q0 41 -3.5 75.5t-10.5 66.5l-362 -392q52 -69 158 -69zM353 531q0 -23 1 -45t3 -42l339 368q-30 20 -60.5 29t-64.5 9q-58 0 -99.5 -21.5t-67.5 -62.5t-38.5 -100t-12.5 -135z" />
    <glyph glyph-name="ugrave" unicode="&#xf9;" 
d="M757 1177h-274l-233 361h311zM744 0v62q-53 -44 -114.5 -64t-130.5 -20q-177 0 -270.5 96.5t-93.5 272.5v715h265v-687q0 -41 6.5 -73t23 -54.5t45 -34t72.5 -11.5q68 0 114 22.5t67 48.5v789h265v-1062h-249z" />
    <glyph glyph-name="uacute" unicode="&#xfa;" 
d="M524 1595h332l-265 -398h-295zM744 0v62q-53 -44 -114.5 -64t-130.5 -20q-177 0 -270.5 96.5t-93.5 272.5v715h265v-687q0 -41 6.5 -73t23 -54.5t45 -34t72.5 -11.5q68 0 114 22.5t67 48.5v789h265v-1062h-249z" />
    <glyph glyph-name="ucircumflex" unicode="&#xfb;" 
d="M450 1525h227l254 -345h-291l-76 117q-19 -29 -40 -61t-37 -56h-291zM744 0v62q-53 -44 -114.5 -64t-130.5 -20q-177 0 -270.5 96.5t-93.5 272.5v715h265v-687q0 -41 6.5 -73t23 -54.5t45 -34t72.5 -11.5q68 0 114 22.5t67 48.5v789h265v-1062h-249z" />
    <glyph glyph-name="udieresis" unicode="&#xfc;" 
d="M228 1189v277h274v-277h-274zM616 1189v277h274v-277h-274zM744 0v62q-53 -44 -114.5 -64t-130.5 -20q-177 0 -270.5 96.5t-93.5 272.5v715h265v-687q0 -41 6.5 -73t23 -54.5t45 -34t72.5 -11.5q68 0 114 22.5t67 48.5v789h265v-1062h-249z" />
    <glyph glyph-name="yacute" unicode="&#xfd;" horiz-adv-x="1055" 
d="M315 1062q10 -68 33 -151.5t56 -175t73 -187t83 -188.5q36 94 68.5 189.5t59 186.5t46 174t29.5 152h262q-11 -84 -37.5 -188.5t-61.5 -214t-73.5 -216.5t-73.5 -197t-63 -155.5t-40 -90.5q-45 -92 -93 -170t-102.5 -135t-117.5 -89.5t-139 -32.5q-29 0 -68.5 4.5
t-80.5 15.5v237q29 -12 62.5 -17t61.5 -5q36 0 64.5 12.5t54.5 41t52.5 73.5t57.5 111q-40 76 -81 164t-80 180.5t-74.5 186t-64.5 181t-49.5 165.5t-28.5 139h265zM513 1546h332l-265 -398h-295z" />
    <glyph glyph-name="thorn" unicode="&#xfe;" horiz-adv-x="1143" 
d="M400 1466v-458q47 37 108 56.5t121 19.5q89 0 169.5 -29.5t141.5 -94t97 -166.5t36 -247q0 -119 -24.5 -207t-66.5 -151.5t-97 -104t-116 -64.5t-123.5 -33t-118.5 -9q-37 0 -68 3.5t-59 8.5v-397h-265v1873h265zM400 221q25 -8 58 -13.5t72 -5.5q44 0 92.5 12t88.5 48
t66 103t26 178q0 90 -16.5 151t-46.5 98t-70.5 52.5t-88.5 15.5q-60 0 -107.5 -20t-73.5 -51v-568z" />
    <glyph glyph-name="ydieresis" unicode="&#xff;" horiz-adv-x="1055" 
d="M315 1062q10 -68 33 -151.5t56 -175t73 -187t83 -188.5q36 94 68.5 189.5t59 186.5t46 174t29.5 152h262q-11 -84 -37.5 -188.5t-61.5 -214t-73.5 -216.5t-73.5 -197t-63 -155.5t-40 -90.5q-45 -92 -93 -170t-102.5 -135t-117.5 -89.5t-139 -32.5q-29 0 -68.5 4.5
t-80.5 15.5v237q29 -12 62.5 -17t61.5 -5q36 0 64.5 12.5t54.5 41t52.5 73.5t57.5 111q-40 76 -81 164t-80 180.5t-74.5 186t-64.5 181t-49.5 165.5t-28.5 139h265zM221 1217v277h274v-277h-274zM609 1217v277h274v-277h-274z" />
    <glyph glyph-name="Amacron" unicode="&#x100;" horiz-adv-x="1473" 
d="M1185 0q-13 59 -32 132t-43 154t-53 169t-62 183h-434q2 6 9.5 24.5t17.5 46.5t21.5 59.5t21.5 59t17.5 47t9.5 22.5h239q-32 80 -64.5 157t-66.5 151h-60q-45 -100 -89.5 -208t-86 -217.5t-79 -218t-69 -209t-55.5 -190.5t-39 -162h-288q22 104 56 228t77 256.5
t92.5 268t101.5 264t104.5 243.5t101.5 206h407q49 -91 102 -206.5t105 -243.5t101.5 -264t92 -268.5t76.5 -256.5t56 -227h-288zM401 1654v192h675v-192h-675z" />
    <glyph glyph-name="amacron" unicode="&#x101;" horiz-adv-x="1111" 
d="M727 62q-57 -48 -120.5 -66t-137.5 -18q-96 0 -170 23.5t-125 67t-77.5 105t-26.5 138.5q0 86 32.5 151t91 109t138.5 66t175 22h204v53q0 31 -11.5 58t-36.5 47t-63.5 31t-92.5 11q-37 0 -71.5 -2.5t-70.5 -8t-75 -15t-85 -23.5v236q39 8 76 15t73.5 12t74 7.5t78.5 2.5
q124 0 213 -25.5t146 -73t83.5 -115.5t26.5 -153v-717h-249v62zM711 431h-204q-43 0 -74.5 -8.5t-51.5 -23.5t-30 -35.5t-10 -43.5q0 -33 12 -54.5t33.5 -34.5t50.5 -18t62 -5q65 0 119.5 19.5t92.5 58.5v145zM209 1274v192h675v-192h-675z" />
    <glyph glyph-name="Abreve" unicode="&#x102;" horiz-adv-x="1473" 
d="M1185 0q-13 59 -32 132t-43 154t-53 169t-62 183h-434q2 6 9.5 24.5t17.5 46.5t21.5 59.5t21.5 59t17.5 47t9.5 22.5h239q-32 80 -64.5 157t-66.5 151h-60q-45 -100 -89.5 -208t-86 -217.5t-79 -218t-69 -209t-55.5 -190.5t-39 -162h-288q22 104 56 228t77 256.5
t92.5 268t101.5 264t104.5 243.5t101.5 206h407q49 -91 102 -206.5t105 -243.5t101.5 -264t92 -268.5t76.5 -256.5t56 -227h-288zM740 1753q26 0 49.5 6t43 23.5t33.5 48t22 79.5h206q-9 -75 -38 -136t-75 -103.5t-107.5 -66t-135.5 -23.5q-72 0 -132.5 23.5t-106 66
t-75 103.5t-38.5 136h206q8 -49 22.5 -79.5t34 -48t42.5 -23.5t49 -6z" />
    <glyph glyph-name="abreve" unicode="&#x103;" horiz-adv-x="1111" 
d="M727 62q-57 -48 -120.5 -66t-137.5 -18q-96 0 -170 23.5t-125 67t-77.5 105t-26.5 138.5q0 86 32.5 151t91 109t138.5 66t175 22h204v53q0 31 -11.5 58t-36.5 47t-63.5 31t-92.5 11q-37 0 -71.5 -2.5t-70.5 -8t-75 -15t-85 -23.5v236q39 8 76 15t73.5 12t74 7.5t78.5 2.5
q124 0 213 -25.5t146 -73t83.5 -115.5t26.5 -153v-717h-249v62zM711 431h-204q-43 0 -74.5 -8.5t-51.5 -23.5t-30 -35.5t-10 -43.5q0 -33 12 -54.5t33.5 -34.5t50.5 -18t62 -5q65 0 119.5 19.5t92.5 58.5v145zM532 1349q26 0 49.5 6t43 23.5t33.5 48t22 79.5h206
q-9 -75 -38 -136t-75 -103.5t-107.5 -66t-135.5 -23.5q-72 0 -132.5 23.5t-106 66t-75 103.5t-38.5 136h206q8 -49 22.5 -79.5t34 -48t42.5 -23.5t49 -6z" />
    <glyph glyph-name="Aogonek" unicode="&#x104;" horiz-adv-x="1473" 
d="M1185 0q-13 59 -32 132t-43 154t-53 169t-62 183h-434q2 6 9.5 24.5t17.5 46.5t21.5 59.5t21.5 59t17.5 47t9.5 22.5h239q-32 80 -64.5 157t-66.5 151h-60q-45 -100 -89.5 -208t-86 -217.5t-79 -218t-69 -209t-55.5 -190.5t-39 -162h-288q22 104 56 228t77 256.5
t92.5 268t101.5 264t104.5 243.5t101.5 206h407q49 -91 102 -206.5t105 -243.5t101.5 -264t92 -268.5t76.5 -256.5t56 -227h-288zM1441 118q-46 -138 -46 -198q0 -44 19.5 -66.5t51.5 -22.5q15 0 33 2.5t42.5 9.5t57 20t74.5 35v-219q-69 -36 -137.5 -51.5t-115.5 -15.5
q-57 0 -104 17.5t-80 50t-51 78.5t-18 103q0 42 9.5 105.5t35.5 151.5h229z" />
    <glyph glyph-name="aogonek" unicode="&#x105;" horiz-adv-x="1111" 
d="M727 62q-57 -48 -120.5 -66t-137.5 -18q-96 0 -170 23.5t-125 67t-77.5 105t-26.5 138.5q0 86 32.5 151t91 109t138.5 66t175 22h204v53q0 31 -11.5 58t-36.5 47t-63.5 31t-92.5 11q-37 0 -71.5 -2.5t-70.5 -8t-75 -15t-85 -23.5v236q39 8 76 15t73.5 12t74 7.5t78.5 2.5
q124 0 213 -25.5t146 -73t83.5 -115.5t26.5 -153v-717h-249v62zM711 431h-204q-43 0 -74.5 -8.5t-51.5 -23.5t-30 -35.5t-10 -43.5q0 -33 12 -54.5t33.5 -34.5t50.5 -18t62 -5q65 0 119.5 19.5t92.5 58.5v145zM976 118q-46 -138 -46 -198q0 -44 19.5 -66.5t51.5 -22.5
q15 0 33 2.5t42.5 9.5t57 20t74.5 35v-219q-69 -36 -137.5 -51.5t-115.5 -15.5q-57 0 -104 17.5t-80 50t-51 78.5t-18 103q0 42 9.5 105.5t35.5 151.5h229z" />
    <glyph glyph-name="Cacute" unicode="&#x106;" horiz-adv-x="1261" 
d="M365 733q0 -134 26 -228t76.5 -153t125.5 -86.5t174 -27.5q85 0 180 11.5t214 43.5v-273q-77 -19 -171.5 -30.5t-222.5 -11.5q-180 0 -311.5 49.5t-217 145.5t-127 236.5t-41.5 323.5q0 165 40.5 304t125 239t215 156t311.5 56q120 0 221 -11t178 -28v-280
q-52 15 -100.5 26t-97 18.5t-98 11t-103.5 3.5q-197 0 -297 -119.5t-100 -375.5zM746 1950h332l-265 -398h-295z" />
    <glyph glyph-name="cacute" unicode="&#x107;" horiz-adv-x="994" 
d="M351 531q0 -95 17.5 -158t50 -101t79.5 -54t107 -16q66 0 139.5 16t143.5 42v-229q-30 -12 -65.5 -22t-72 -17t-74 -10.5t-71.5 -3.5q-268 0 -396.5 135.5t-128.5 417.5q0 128 30 230.5t93 174t160.5 110t232.5 38.5q75 0 145.5 -12.5t146.5 -38.5v-231q-77 28 -151.5 43
t-140.5 15q-119 0 -182 -78.5t-63 -250.5zM572 1560h332l-265 -398h-295z" />
    <glyph glyph-name="Ccaron" unicode="&#x10c;" horiz-adv-x="1261" 
d="M365 733q0 -134 26 -228t76.5 -153t125.5 -86.5t174 -27.5q85 0 180 11.5t214 43.5v-273q-77 -19 -171.5 -30.5t-222.5 -11.5q-180 0 -311.5 49.5t-217 145.5t-127 236.5t-41.5 323.5q0 165 40.5 304t125 239t215 156t311.5 56q120 0 221 -11t178 -28v-280
q-52 15 -100.5 26t-97 18.5t-98 11t-103.5 3.5q-197 0 -297 -119.5t-100 -375.5zM775 1708l110 151h284l-286 -295h-229l-274 295h283z" />
    <glyph glyph-name="ccaron" unicode="&#x10d;" horiz-adv-x="1079" 
d="M351 531q0 -95 17.5 -158t50 -101t79.5 -54t107 -16q66 0 139.5 16t143.5 42v-229q-30 -12 -65.5 -22t-72 -17t-74 -10.5t-71.5 -3.5q-268 0 -396.5 135.5t-128.5 417.5q0 128 30 230.5t93 174t160.5 110t232.5 38.5q75 0 145.5 -12.5t146.5 -38.5v-231q-77 28 -151.5 43
t-140.5 15q-119 0 -182 -78.5t-63 -250.5zM565 1322l110 151h284l-286 -295h-229l-274 295h283z" />
    <glyph glyph-name="Dcaron" unicode="&#x10e;" horiz-adv-x="1456" 
d="M150 1465q55 0 120 3.5t135 8t143 8t144 3.5q181 0 311 -56.5t212.5 -158t121.5 -241.5t39 -307q0 -175 -37 -310t-119 -227.5t-213.5 -140t-320.5 -47.5h-536v1465zM692 1228q-35 0 -76 -2t-78 -4.5t-65.5 -4.5t-37.5 -2v-954h251q104 0 178.5 23.5t122.5 77t71 139
t23 211.5q0 260 -93.5 388t-295.5 128zM707 1714l110 151h284l-286 -295h-229l-274 295h283z" />
    <glyph glyph-name="dcaron" unicode="&#x10f;" horiz-adv-x="1578" 
d="M766 841q-25 8 -58 13.5t-72 5.5q-44 0 -92.5 -12t-88.5 -48t-66 -103t-26 -178q0 -90 16.5 -151t46.5 -98t70.5 -52.5t88.5 -15.5q60 0 107.5 20t73.5 51v568zM782 0v61q-47 -43 -113 -63t-132 -20q-89 0 -169.5 29.5t-141.5 94t-97 166.5t-36 247q0 119 25 207
t66.5 151.5t96.5 104t116 64.5t123 33t119 9q37 0 68 -3.5t59 -8.5v394h265v-1466h-249zM1190 1261v284h288v-235q0 -127 -52 -218.5t-161 -141.5l-88 139q54 24 77 71.5t23 100.5h-87z" />
    <glyph glyph-name="Dcroat" unicode="&#x110;" horiz-adv-x="1493" 
d="M40 897h147v568q55 0 120 3.5t135 8t143 8t144 3.5q181 0 311 -56.5t212.5 -158t121.5 -241.5t39 -307q0 -175 -37 -310t-119 -227.5t-213.5 -140t-320.5 -47.5h-536v634h-147v263zM729 1228q-35 0 -76 -2t-78 -4.5t-65.5 -4.5t-37.5 -2v-318h238v-263h-238v-369h251
q104 0 178.5 23.5t122.5 77t71 138.5t23 208q0 260 -93.5 388t-295.5 128z" />
    <glyph glyph-name="dcroat" unicode="&#x111;" horiz-adv-x="1179" 
d="M782 0v61q-47 -43 -113 -63t-132 -20q-89 0 -169.5 29.5t-141.5 94t-97 166.5t-36 247q0 119 25 207t66.5 151.5t96.5 104t116 64.5t123 33t119 9q37 0 68 -3.5t59 -8.5v124h-204v158h204v112h265v-112h112v-158h-112v-1196h-249zM766 841q-25 8 -58 13.5t-72 5.5
q-44 0 -92.5 -12t-88.5 -48t-66 -103t-26 -178q0 -90 16.5 -151t46.5 -98t70.5 -52.5t88.5 -15.5q60 0 107.5 20t73.5 51v568z" />
    <glyph glyph-name="Emacron" unicode="&#x112;" horiz-adv-x="1295" 
d="M150 0v1466h1024v-261h-739v-308h652v-259h-652v-373h760v-265h-1045zM322 1659v192h675v-192h-675z" />
    <glyph glyph-name="emacron" unicode="&#x113;" horiz-adv-x="1140" 
d="M1005 44q-97 -33 -192.5 -49.5t-205.5 -16.5q-142 0 -242 37.5t-163.5 107.5t-92.5 171t-29 229q0 131 30 235t91 176.5t153.5 111t216.5 38.5q121 0 212.5 -38.5t153 -110.5t92.5 -174t31 -228v-97h-704q3 -72 20 -115.5t48.5 -71t77.5 -40t105 -12.5q52 0 97.5 3.5
t92 11.5t97 22.5t111.5 36.5v-227zM774 655q0 104 -50 157t-153 53q-51 0 -88.5 -14t-62 -40t-37.5 -63t-16 -93h407zM234 1270v192h675v-192h-675z" />
    <glyph glyph-name="Edotaccent" unicode="&#x116;" horiz-adv-x="1295" 
d="M150 0v1466h1024v-261h-739v-308h652v-259h-652v-373h760v-265h-1045zM525 1581v301h311v-301h-311z" />
    <glyph glyph-name="edotaccent" unicode="&#x117;" horiz-adv-x="1140" 
d="M1005 44q-97 -33 -192.5 -49.5t-205.5 -16.5q-142 0 -242 37.5t-163.5 107.5t-92.5 171t-29 229q0 131 30 235t91 176.5t153.5 111t216.5 38.5q121 0 212.5 -38.5t153 -110.5t92.5 -174t31 -228v-97h-704q3 -72 20 -115.5t48.5 -71t77.5 -40t105 -12.5q52 0 97.5 3.5
t92 11.5t97 22.5t111.5 36.5v-227zM774 655q0 104 -50 157t-153 53q-51 0 -88.5 -14t-62 -40t-37.5 -63t-16 -93h407zM425 1177v301h311v-301h-311z" />
    <glyph glyph-name="Eogonek" unicode="&#x118;" horiz-adv-x="1295" 
d="M150 0v1466h1024v-261h-739v-308h652v-259h-652v-373h760v-265h-1045zM734 118q-46 -138 -46 -198q0 -44 19.5 -66.5t51.5 -22.5q15 0 33 2.5t42.5 9.5t57 20t74.5 35v-219q-69 -36 -137.5 -51.5t-115.5 -15.5q-57 0 -104 17.5t-80 50t-51 78.5t-18 103q0 42 9.5 105.5
t35.5 151.5h229z" />
    <glyph glyph-name="eogonek" unicode="&#x119;" horiz-adv-x="1140" 
d="M1005 44q-97 -33 -192.5 -49.5t-205.5 -16.5q-142 0 -242 37.5t-163.5 107.5t-92.5 171t-29 229q0 131 30 235t91 176.5t153.5 111t216.5 38.5q121 0 212.5 -38.5t153 -110.5t92.5 -174t31 -228v-97h-704q3 -72 20 -115.5t48.5 -71t77.5 -40t105 -12.5q52 0 97.5 3.5
t92 11.5t97 22.5t111.5 36.5v-227zM774 655q0 104 -50 157t-153 53q-51 0 -88.5 -14t-62 -40t-37.5 -63t-16 -93h407zM588 118q-46 -138 -46 -198q0 -44 19.5 -66.5t51.5 -22.5q15 0 33 2.5t42.5 9.5t57 20t74.5 35v-219q-69 -36 -137.5 -51.5t-115.5 -15.5q-57 0 -104 17.5
t-80 50t-51 78.5t-18 103q0 42 9.5 105.5t35.5 151.5h229z" />
    <glyph glyph-name="Ecaron" unicode="&#x11a;" horiz-adv-x="1295" 
d="M150 0v1466h1024v-261h-739v-308h652v-259h-652v-373h760v-265h-1045zM674 1727l110 151h284l-286 -295h-229l-274 295h283z" />
    <glyph glyph-name="ecaron" unicode="&#x11b;" horiz-adv-x="1140" 
d="M1005 44q-97 -33 -192.5 -49.5t-205.5 -16.5q-142 0 -242 37.5t-163.5 107.5t-92.5 171t-29 229q0 131 30 235t91 176.5t153.5 111t216.5 38.5q121 0 212.5 -38.5t153 -110.5t92.5 -174t31 -228v-97h-704q3 -72 20 -115.5t48.5 -71t77.5 -40t105 -12.5q52 0 97.5 3.5
t92 11.5t97 22.5t111.5 36.5v-227zM774 655q0 104 -50 157t-153 53q-51 0 -88.5 -14t-62 -40t-37.5 -63t-16 -93h407zM578 1322l110 151h284l-286 -295h-229l-274 295h283z" />
    <glyph glyph-name="Gbreve" unicode="&#x11e;" horiz-adv-x="1484" 
d="M761 238q81 0 156.5 5.5t131.5 10.5v384h-334v259h619v-897q-70 0 -140 -3.5t-140.5 -7.5t-143.5 -7.5t-149 -3.5q-180 0 -309 49.5t-211.5 145.5t-121.5 236.5t-39 323.5q0 165 41 304t127 239t219 156t317 56q73 0 136 -5t119 -13.5t105.5 -20.5t95.5 -26v-276
q-51 18 -108 32.5t-116.5 25.5t-118.5 17t-113 6q-204 0 -306.5 -119.5t-102.5 -375.5q0 -134 23.5 -228t71.5 -153t120.5 -86.5t170.5 -27.5zM767 1753q26 0 49.5 6t43 23.5t33.5 48t22 79.5h206q-9 -75 -38 -136t-75 -103.5t-107.5 -66t-135.5 -23.5q-72 0 -132.5 23.5
t-106 66t-75 103.5t-38.5 136h206q8 -49 22.5 -79.5t34 -48t42.5 -23.5t49 -6z" />
    <glyph glyph-name="gbreve" unicode="&#x11f;" horiz-adv-x="1143" 
d="M743 70q-43 -31 -103 -50.5t-126 -19.5q-89 0 -169 26t-141.5 86.5t-97.5 159t-36 243.5q0 157 45 265.5t121 176t174.5 97.5t205.5 30q40 0 88 -3.5t99 -12.5t103 -24.5t102 -40.5v-931q0 -129 -36.5 -220.5t-103.5 -149.5t-161 -87.5t-208 -29.5q-51 0 -121.5 10
t-140.5 29v236q34 -11 69 -20t68 -15t62 -9t52 -3q126 0 190.5 63t64.5 194zM743 841q-27 8 -59 13.5t-71 5.5q-135 0 -204 -83t-69 -258q0 -85 15 -141.5t43.5 -90.5t69.5 -48.5t94 -14.5q37 0 66.5 7t52.5 18t38.5 23t23.5 23v546zM581 1349q26 0 49.5 6t43 23.5t33.5 48
t22 79.5h206q-9 -75 -38 -136t-75 -103.5t-107.5 -66t-135.5 -23.5q-72 0 -132.5 23.5t-106 66t-75 103.5t-38.5 136h206q8 -49 22.5 -79.5t34 -48t42.5 -23.5t49 -6z" />
    <glyph glyph-name="Gcommaaccent" unicode="&#x122;" horiz-adv-x="1484" 
d="M761 238q81 0 156.5 5.5t131.5 10.5v384h-334v259h619v-897q-70 0 -140 -3.5t-140.5 -7.5t-143.5 -7.5t-149 -3.5q-180 0 -309 49.5t-211.5 145.5t-121.5 236.5t-39 323.5q0 165 41 304t127 239t219 156t317 56q73 0 136 -5t119 -13.5t105.5 -20.5t95.5 -26v-276
q-51 18 -108 32.5t-116.5 25.5t-118.5 17t-113 6q-204 0 -306.5 -119.5t-102.5 -375.5q0 -134 23.5 -228t71.5 -153t120.5 -86.5t170.5 -27.5zM669 -413v284h287v-235q0 -54 -9.5 -101t-34.5 -87.5t-68 -75t-110 -64.5l-91 132q55 24 86 64.5t36 82.5h-96z" />
    <glyph glyph-name="gcommaaccent" unicode="&#x123;" horiz-adv-x="1143" 
d="M743 70q-43 -31 -103 -50.5t-126 -19.5q-89 0 -169 26t-141.5 86.5t-97.5 159t-36 243.5q0 157 45 265.5t121 176t174.5 97.5t205.5 30q40 0 88 -3.5t99 -12.5t103 -24.5t102 -40.5v-931q0 -129 -36.5 -220.5t-103.5 -149.5t-161 -87.5t-208 -29.5q-51 0 -121.5 10
t-140.5 29v236q34 -11 69 -20t68 -15t62 -9t52 -3q126 0 190.5 63t64.5 194zM743 841q-27 8 -59 13.5t-71 5.5q-135 0 -204 -83t-69 -258q0 -85 15 -141.5t43.5 -90.5t69.5 -48.5t94 -14.5q37 0 66.5 7t52.5 18t38.5 23t23.5 23v546zM723.008 1461v-283.982h-287.982
v234.985q0 126.992 51.9971 218.486q51.9971 91.4951 160.99 141.492l87.9951 -138.992q-53.9971 -23.998 -76.9961 -71.4951q-22.998 -47.4971 -22.998 -100.494h86.9941z" />
    <glyph glyph-name="Imacron" unicode="&#x12a;" horiz-adv-x="585" 
d="M150 0v1466h285v-1466h-285zM-37 1654v192h675v-192h-675z" />
    <glyph glyph-name="imacron" unicode="&#x12b;" horiz-adv-x="535" 
d="M135 0v1062h265v-1062h-265zM-59 1274v192h675v-192h-675z" />
    <glyph glyph-name="ibreve" unicode="&#x12d;" horiz-adv-x="535" 
d="M135 0v1062h265v-1062h-265zM268 1349q26 0 49.5 6t43 23.5t33.5 48t22 79.5h206q-9 -75 -38 -136t-75 -103.5t-107.5 -66t-135.5 -23.5q-72 0 -132.5 23.5t-106 66t-75 103.5t-38.5 136h206q8 -49 22.5 -79.5t34 -48t42.5 -23.5t49 -6z" />
    <glyph glyph-name="Iogonek" unicode="&#x12e;" horiz-adv-x="585" 
d="M150 0v1466h285v-1466h-285zM432 118q-46 -138 -46 -198q0 -44 19.5 -66.5t51.5 -22.5q15 0 33 2.5t42.5 9.5t57 20t74.5 35v-219q-69 -36 -137.5 -51.5t-115.5 -15.5q-57 0 -104 17.5t-80 50t-51 78.5t-18 103q0 42 9.5 105.5t35.5 151.5h229z" />
    <glyph glyph-name="iogonek" unicode="&#x12f;" horiz-adv-x="535" 
d="M135 1177v289h265v-289h-265zM135 0v1062h265v-1062h-265zM399 118q-46 -138 -46 -198q0 -44 19.5 -66.5t51.5 -22.5q15 0 33 2.5t42.5 9.5t57 20t74.5 35v-219q-69 -36 -137.5 -51.5t-115.5 -15.5q-57 0 -104 17.5t-80 50t-51 78.5t-18 103q0 42 9.5 105.5t35.5 151.5
h229z" />
    <glyph glyph-name="Idotaccent" unicode="&#x130;" horiz-adv-x="585" 
d="M150 0v1466h285v-1466h-285zM138 1566v301h311v-301h-311z" />
    <glyph glyph-name="dotlessi" unicode="&#x131;" horiz-adv-x="535" 
d="M135 0v1062h265v-1062h-265z" />
    <glyph glyph-name="Kcommaaccent" unicode="&#x136;" horiz-adv-x="1328" 
d="M150 0v1466h285v-565q54 10 125.5 46.5t144.5 105t139 170.5t110 243h297q-35 -117 -84.5 -216.5t-108.5 -183t-125 -150t-134 -117.5q57 -60 113 -125.5t107.5 -134.5t97.5 -139.5t82.5 -139.5t62 -134.5t36.5 -125.5h-296q-18 66 -60 147t-102 168t-134.5 176
t-158.5 171q-30 -11 -58 -17t-54 -9v-636h-285zM506 -413v284h287v-235q0 -54 -9.5 -101t-34.5 -87.5t-68 -75t-110 -64.5l-91 132q55 24 86 64.5t36 82.5h-96z" />
    <glyph glyph-name="kcommaaccent" unicode="&#x137;" horiz-adv-x="1084" 
d="M400 0h-265v1466h265v-779q54 12 104.5 46.5t93.5 85t78 113t58 130.5h271q-16 -63 -44.5 -127.5t-67.5 -126.5t-87.5 -119t-104.5 -103q57 -64 105.5 -129t89 -136t73 -150.5t55.5 -170.5h-272q-50 152 -120 263.5t-155 200.5q-37 -10 -77 -15v-449zM404 -413v284h287
v-235q0 -54 -9.5 -101t-34.5 -87.5t-68 -75t-110 -64.5l-91 132q55 24 86 64.5t36 82.5h-96z" />
    <glyph glyph-name="Lacute" unicode="&#x139;" horiz-adv-x="1080" 
d="M150 0v1466h285v-1205h645v-261h-930zM341 1950h332l-265 -398h-295z" />
    <glyph glyph-name="lacute" unicode="&#x13a;" horiz-adv-x="535" 
d="M135 0v1466h265v-1466h-265zM240 1950h332l-265 -398h-295z" />
    <glyph glyph-name="Lcommaaccent" unicode="&#x13b;" horiz-adv-x="1080" 
d="M150 0v1466h285v-1205h645v-261h-930zM364 -413v284h287v-235q0 -54 -9.5 -101t-34.5 -87.5t-68 -75t-110 -64.5l-91 132q55 24 86 64.5t36 82.5h-96z" />
    <glyph glyph-name="lcommaaccent" unicode="&#x13c;" horiz-adv-x="535" 
d="M135 0v1466h265v-1466h-265zM129 -413v284h287v-235q0 -54 -9.5 -101t-34.5 -87.5t-68 -75t-110 -64.5l-91 132q55 24 86 64.5t36 82.5h-96z" />
    <glyph glyph-name="Lcaron" unicode="&#x13d;" horiz-adv-x="1080" 
d="M150 0v1466h285v-1205h645v-261h-930zM303 1727l110 151h284l-286 -295h-229l-274 295h283z" />
    <glyph glyph-name="lcaron" unicode="&#x13e;" horiz-adv-x="910" 
d="M135 0v1466h265v-1466h-265zM568 1261v284h288v-235q0 -127 -52 -218.5t-161 -141.5l-88 139q54 24 77 71.5t23 100.5h-87z" />
    <glyph glyph-name="Lslash" unicode="&#x141;" horiz-adv-x="1118" 
d="M188 0v474l-148 -117v283l148 118v708h285v-481l137 110v-288l-137 -108v-434h645v-265h-930z" />
    <glyph glyph-name="lslash" unicode="&#x142;" horiz-adv-x="642" 
d="M135 0v455l-138 -108v277l138 109v734h265v-524l107 85v-282l-107 -84v-662h-265z" />
    <glyph glyph-name="Nacute" unicode="&#x143;" horiz-adv-x="1464" 
d="M150 0v1466h253q48 -33 115.5 -102t144 -162t155.5 -203t150 -226q16 -26 33 -64t28 -81v838h285v-1466h-269q-37 111 -84 218t-100 207t-109 192t-111.5 172.5t-108 148.5t-97.5 120v-1058h-285zM693 1950h332l-265 -398h-295z" />
    <glyph glyph-name="nacute" unicode="&#x144;" 
d="M384 1062v-62q53 44 114.5 64t130.5 20q88 0 156 -25t114.5 -72t70 -115.5t23.5 -156.5v-715h-265v687q0 41 -6.5 73t-23 54.5t-45 34t-72.5 11.5q-68 0 -114 -22.5t-67 -48.5v-789h-265v1062h249zM575 1546h332l-265 -398h-295z" />
    <glyph glyph-name="Ncommaaccent" unicode="&#x145;" horiz-adv-x="1464" 
d="M150 0v1466h253q48 -33 115.5 -102t144 -162t155.5 -203t150 -226q16 -26 33 -64t28 -81v838h285v-1466h-269q-37 111 -84 218t-100 207t-109 192t-111.5 172.5t-108 148.5t-97.5 120v-1058h-285zM572 -413v284h287v-235q0 -54 -9.5 -101t-34.5 -87.5t-68 -75t-110 -64.5
l-91 132q55 24 86 64.5t36 82.5h-96z" />
    <glyph glyph-name="ncommaaccent" unicode="&#x146;" 
d="M384 1062v-62q53 44 114.5 64t130.5 20q88 0 156 -25t114.5 -72t70 -115.5t23.5 -156.5v-715h-265v687q0 41 -6.5 73t-23 54.5t-45 34t-72.5 11.5q-68 0 -114 -22.5t-67 -48.5v-789h-265v1062h249zM431 -413v284h287v-235q0 -54 -9.5 -101t-34.5 -87.5t-68 -75
t-110 -64.5l-91 132q55 24 86 64.5t36 82.5h-96z" />
    <glyph glyph-name="Ncaron" unicode="&#x147;" horiz-adv-x="1464" 
d="M150 0v1466h253q48 -33 115.5 -102t144 -162t155.5 -203t150 -226q16 -26 33 -64t28 -81v838h285v-1466h-269q-37 111 -84 218t-100 207t-109 192t-111.5 172.5t-108 148.5t-97.5 120v-1058h-285zM708 1727l110 151h284l-286 -295h-229l-274 295h283z" />
    <glyph glyph-name="ncaron" unicode="&#x148;" 
d="M384 1062v-62q53 44 114.5 64t130.5 20q88 0 156 -25t114.5 -72t70 -115.5t23.5 -156.5v-715h-265v687q0 41 -6.5 73t-23 54.5t-45 34t-72.5 11.5q-68 0 -114 -22.5t-67 -48.5v-789h-265v1062h249zM562 1323l110 151h284l-286 -295h-229l-274 295h283z" />
    <glyph glyph-name="Omacron" unicode="&#x14c;" horiz-adv-x="1473" 
d="M80 733q0 104 15 200.5t47.5 180.5t84 153t124.5 118t168.5 76t216.5 27t216.5 -27t168.5 -76t125 -118t84.5 -153t47.5 -180.5t15 -200.5t-15 -200.5t-47.5 -180.5t-84.5 -153t-125 -118t-168.5 -76t-216.5 -27t-216.5 27t-168.5 76t-124.5 118t-84 153t-47.5 180.5
t-15 200.5zM370 733q0 -123 21 -217.5t65 -158.5t113.5 -97t166.5 -33t166.5 33t114 97t65 158.5t20.5 217.5t-20.5 217.5t-65 158.5t-114 97t-166.5 33t-166.5 -33t-113.5 -97t-65 -158.5t-21 -217.5zM400 1654v192h675v-192h-675z" />
    <glyph glyph-name="omacron" unicode="&#x14d;" horiz-adv-x="1137" 
d="M80 531q0 114 26 215t84.5 176t151.5 118.5t227 43.5q133 0 226 -43.5t151 -118.5t84.5 -176t26.5 -215t-26.5 -215t-84.5 -176t-151 -118.5t-226 -43.5q-134 0 -227 43.5t-151.5 118.5t-84.5 176t-26 215zM351 531q0 -76 12.5 -135.5t38.5 -100t67.5 -62t99.5 -21.5
t99.5 21.5t67.5 62t38.5 100t12.5 135.5t-12.5 135t-38.5 100t-67.5 62.5t-99.5 21.5t-99.5 -21.5t-67.5 -62.5t-38.5 -100t-12.5 -135zM236 1274v192h675v-192h-675z" />
    <glyph glyph-name="Ohungarumlaut" unicode="&#x150;" horiz-adv-x="1473" 
d="M80 733q0 104 15 200.5t47.5 180.5t84 153t124.5 118t168.5 76t216.5 27t216.5 -27t168.5 -76t125 -118t84.5 -153t47.5 -180.5t15 -200.5t-15 -200.5t-47.5 -180.5t-84.5 -153t-125 -118t-168.5 -76t-216.5 -27t-216.5 27t-168.5 76t-124.5 118t-84 153t-47.5 180.5
t-15 200.5zM370 733q0 -123 21 -217.5t65 -158.5t113.5 -97t166.5 -33t166.5 33t114 97t65 158.5t20.5 217.5t-20.5 217.5t-65 158.5t-114 97t-166.5 33t-166.5 -33t-113.5 -97t-65 -158.5t-21 -217.5zM482 1942h331l-233 -361h-295zM990 1942h331l-233 -361h-295z" />
    <glyph glyph-name="ohungarumlaut" unicode="&#x151;" horiz-adv-x="1137" 
d="M80 531q0 114 26 215t84.5 176t151.5 118.5t227 43.5q133 0 226 -43.5t151 -118.5t84.5 -176t26.5 -215t-26.5 -215t-84.5 -176t-151 -118.5t-226 -43.5q-134 0 -227 43.5t-151.5 118.5t-84.5 176t-26 215zM351 531q0 -76 12.5 -135.5t38.5 -100t67.5 -62t99.5 -21.5
t99.5 21.5t67.5 62t38.5 100t12.5 135.5t-12.5 135t-38.5 100t-67.5 62.5t-99.5 21.5t-99.5 -21.5t-67.5 -62.5t-38.5 -100t-12.5 -135zM307 1538h331l-233 -361h-295zM815 1538h331l-233 -361h-295z" />
    <glyph glyph-name="uni0152" unicode="&#x152;" horiz-adv-x="2248" 
d="M1103 0v90q-61 -54 -156.5 -83t-210.5 -29q-121 0 -216.5 27t-168.5 76t-124.5 118t-84 153t-47.5 180.5t-15 200.5t15 200.5t47.5 180.5t84 153t124.5 118t168.5 76t216.5 27q115 0 211.5 -29t155.5 -83v90h1024v-261h-739v-308h652v-263h-652v-369h760v-265h-1045z
M370 733q0 -123 21 -217.5t65 -158.5t113.5 -97t166.5 -33t166.5 33t114 97t65 158.5t20.5 217.5t-20.5 217.5t-65 158.5t-114 97t-166.5 33t-166.5 -33t-113.5 -97t-65 -158.5t-21 -217.5z" />
    <glyph glyph-name="uni0153" unicode="&#x153;" horiz-adv-x="1847" 
d="M1712 44q-97 -33 -192.5 -49.5t-205.5 -16.5q-137 0 -234 39t-159 124q-60 -84 -146 -123.5t-206 -39.5q-134 0 -227 43.5t-151.5 118.5t-84.5 176t-26 215t26 215t84.5 176t151.5 118.5t227 43.5q121 0 207.5 -38t145.5 -117q62 81 150 118t206 37q121 0 212.5 -38.5
t153 -110.5t92.5 -174t31 -228v-102h-704q3 -62 20 -105.5t48.5 -71t77.5 -40t105 -12.5q52 0 97.5 3.5t92 11.5t97 22.5t111.5 36.5v-232zM351 531q0 -152 51 -235.5t167 -83.5t167 83.5t51 235.5q0 76 -12.5 135t-38.5 100t-67.5 62.5t-99.5 21.5t-99.5 -21.5t-67.5 -62.5
t-38.5 -100t-12.5 -135zM1481 660q0 94 -50 147t-153 53q-51 0 -88.5 -14t-62 -40t-37.5 -63t-16 -83h407z" />
    <glyph glyph-name="Racute" unicode="&#x154;" horiz-adv-x="1347" 
d="M515 878q20 -9 46.5 -16.5t54 -13t52.5 -8.5t43 -3q116 0 179 47t63 149q0 30 -9.5 64t-36.5 63.5t-75.5 48.5t-127.5 19q-43 0 -83 -2t-75 -5t-63.5 -5t-47.5 -2v-1214h-285v1466q90 0 167.5 3.5t144 7.5t123 7.5t105.5 3.5q151 0 257 -39.5t173.5 -103t98.5 -144
t31 -162.5q0 -89 -24.5 -159.5t-68 -122.5t-104 -83t-132.5 -40q74 -67 136.5 -144.5t114 -159.5t92.5 -166t73 -164h-305q-21 45 -50.5 101.5t-67 117.5t-81.5 122.5t-94.5 115.5t-106.5 97.5t-117 68.5v255zM693 1950h332l-265 -398h-295z" />
    <glyph glyph-name="racute" unicode="&#x155;" horiz-adv-x="774" 
d="M331 1546h332l-265 -398h-295zM135 0v1062h249v-62q41 34 100.5 59t141.5 25q11 0 27 -1t35 -3.5t38.5 -7t37.5 -11.5v-265q-33 22 -61 34.5t-50.5 19t-40.5 8.5t-31 2q-68 0 -112.5 -22t-68.5 -48v-790h-265z" />
    <glyph glyph-name="Rcommaaccent" unicode="&#x156;" horiz-adv-x="1347" 
d="M515 878q20 -9 46.5 -16.5t54 -13t52.5 -8.5t43 -3q116 0 179 47t63 149q0 30 -9.5 64t-36.5 63.5t-75.5 48.5t-127.5 19q-43 0 -83 -2t-75 -5t-63.5 -5t-47.5 -2v-1214h-285v1466q90 0 167.5 3.5t144 7.5t123 7.5t105.5 3.5q151 0 257 -39.5t173.5 -103t98.5 -144
t31 -162.5q0 -89 -24.5 -159.5t-68 -122.5t-104 -83t-132.5 -40q74 -67 136.5 -144.5t114 -159.5t92.5 -166t73 -164h-305q-21 45 -50.5 101.5t-67 117.5t-81.5 122.5t-94.5 115.5t-106.5 97.5t-117 68.5v255zM549 -413v284h287v-235q0 -54 -9.5 -101t-34.5 -87.5t-68 -75
t-110 -64.5l-91 132q55 24 86 64.5t36 82.5h-96z" />
    <glyph glyph-name="rcommaaccent" unicode="&#x157;" horiz-adv-x="774" 
d="M127 -413v284h287v-235q0 -54 -9.5 -101t-34.5 -87.5t-68 -75t-110 -64.5l-91 132q55 24 86 64.5t36 82.5h-96zM135 0v1062h249v-62q41 34 100.5 59t141.5 25q11 0 27 -1t35 -3.5t38.5 -7t37.5 -11.5v-265q-33 22 -61 34.5t-50.5 19t-40.5 8.5t-31 2q-68 0 -112.5 -22
t-68.5 -48v-790h-265z" />
    <glyph glyph-name="Rcaron" unicode="&#x158;" horiz-adv-x="1347" 
d="M515 878q20 -9 46.5 -16.5t54 -13t52.5 -8.5t43 -3q116 0 179 47t63 149q0 30 -9.5 64t-36.5 63.5t-75.5 48.5t-127.5 19q-43 0 -83 -2t-75 -5t-63.5 -5t-47.5 -2v-1214h-285v1466q90 0 167.5 3.5t144 7.5t123 7.5t105.5 3.5q151 0 257 -39.5t173.5 -103t98.5 -144
t31 -162.5q0 -89 -24.5 -159.5t-68 -122.5t-104 -83t-132.5 -40q74 -67 136.5 -144.5t114 -159.5t92.5 -166t73 -164h-305q-21 45 -50.5 101.5t-67 117.5t-81.5 122.5t-94.5 115.5t-106.5 97.5t-117 68.5v255zM645 1727l110 151h284l-286 -295h-229l-274 295h283z" />
    <glyph glyph-name="rcaron" unicode="&#x159;" horiz-adv-x="774" 
d="M420 1340l110 151h284l-286 -295h-229l-274 295h283zM135 0v1062h249v-62q41 34 100.5 59t141.5 25q11 0 27 -1t35 -3.5t38.5 -7t37.5 -11.5v-265q-33 22 -61 34.5t-50.5 19t-40.5 8.5t-31 2q-68 0 -112.5 -22t-68.5 -48v-790h-265z" />
    <glyph glyph-name="Sacute" unicode="&#x15a;" horiz-adv-x="1225" 
d="M100 1053q0 117 47 199.5t126.5 135t184 76.5t219.5 24q114 0 209 -12t168 -27v-280q-53 13 -101.5 24t-96.5 19t-97.5 12t-103.5 4q-56 0 -102 -10.5t-79 -31t-51 -50t-18 -68.5q0 -52 32 -84t85 -54.5t120.5 -39.5t137.5 -39t137.5 -53t120.5 -81t85 -123.5t32 -180.5
q0 -106 -40.5 -187t-113.5 -135.5t-175 -82.5t-226 -28q-61 0 -128.5 6t-132 16.5t-121 24t-95.5 27.5v281q50 -19 106.5 -36.5t117.5 -31t124.5 -21.5t128.5 -8q118 0 183.5 43.5t65.5 131.5q0 60 -32 98t-85 63t-120 43t-137.5 38.5t-137.5 48t-120 72t-85 111.5t-32 166z
M685 1951h332l-265 -398h-295z" />
    <glyph glyph-name="sacute" unicode="&#x15b;" horiz-adv-x="971" 
d="M520 1084q95 0 167.5 -10.5t132.5 -30.5v-230q-86 29 -160.5 38t-139.5 9q-70 0 -107.5 -22.5t-37.5 -70.5q0 -20 12 -36t33 -28.5t49 -22t61 -18.5q62 -16 126 -39.5t116.5 -63.5t85.5 -102t33 -155q0 -78 -30 -138.5t-84 -102t-129.5 -62.5t-167.5 -21q-44 0 -93 5
t-96 13t-90 19.5t-76 25.5v235q81 -29 172.5 -52.5t182.5 -23.5q76 0 111 25.5t35 76.5q0 33 -16 56t-43 39t-61 27t-70 21q-48 13 -104.5 32t-106 53.5t-82.5 89.5t-33 140q0 78 29.5 138.5t83.5 102t129.5 62.5t167.5 21zM537 1546h332l-265 -398h-295z" />
    <glyph glyph-name="Scedilla" unicode="&#x15e;" horiz-adv-x="1225" 
d="M100 1053q0 117 47 199.5t126.5 135t184 76.5t219.5 24q114 0 209 -12t168 -27v-280q-53 13 -101.5 24t-96.5 19t-97.5 12t-103.5 4q-56 0 -102 -10.5t-79 -31t-51 -50t-18 -68.5q0 -52 32 -84t85 -54.5t120.5 -39.5t137.5 -39t137.5 -53t120.5 -81t85 -123.5t32 -180.5
q0 -106 -40.5 -187t-113.5 -135.5t-175 -82.5t-226 -28q-61 0 -128.5 6t-132 16.5t-121 24t-95.5 27.5v281q50 -19 106.5 -36.5t117.5 -31t124.5 -21.5t128.5 -8q118 0 183.5 43.5t65.5 131.5q0 60 -32 98t-85 63t-120 43t-137.5 38.5t-137.5 48t-120 72t-85 111.5t-32 166z
M517 58h194l-41 -137q47 -9 81.5 -25.5t57 -38t33.5 -47t11 -52.5q0 -90 -75 -137.5t-218 -47.5h-185v141h150q47 0 66.5 16.5t19.5 35.5q0 13 -5 23.5t-22.5 18.5t-50 12.5t-86.5 6.5z" />
    <glyph glyph-name="scedilla" unicode="&#x15f;" horiz-adv-x="971" 
d="M520 1084q95 0 167.5 -10.5t132.5 -30.5v-230q-86 29 -160.5 38t-139.5 9q-70 0 -107.5 -22.5t-37.5 -70.5q0 -20 12 -36t33 -28.5t49 -22t61 -18.5q62 -16 126 -39.5t116.5 -63.5t85.5 -102t33 -155q0 -78 -30 -138.5t-84 -102t-129.5 -62.5t-167.5 -21q-44 0 -93 5
t-96 13t-90 19.5t-76 25.5v235q81 -29 172.5 -52.5t182.5 -23.5q76 0 111 25.5t35 76.5q0 33 -16 56t-43 39t-61 27t-70 21q-48 13 -104.5 32t-106 53.5t-82.5 89.5t-33 140q0 78 29.5 138.5t83.5 102t129.5 62.5t167.5 21zM394 58h194l-41 -137q47 -9 81.5 -25.5t57 -38
t33.5 -47t11 -52.5q0 -90 -75 -137.5t-218 -47.5h-185v141h150q47 0 66.5 16.5t19.5 35.5q0 13 -5 23.5t-22.5 18.5t-50 12.5t-86.5 6.5z" />
    <glyph glyph-name="Scaron" unicode="&#x160;" horiz-adv-x="1225" 
d="M100 1053q0 117 47 199.5t126.5 135t184 76.5t219.5 24q114 0 209 -12t168 -27v-280q-53 13 -101.5 24t-96.5 19t-97.5 12t-103.5 4q-56 0 -102 -10.5t-79 -31t-51 -50t-18 -68.5q0 -52 32 -84t85 -54.5t120.5 -39.5t137.5 -39t137.5 -53t120.5 -81t85 -123.5t32 -180.5
q0 -106 -40.5 -187t-113.5 -135.5t-175 -82.5t-226 -28q-61 0 -128.5 6t-132 16.5t-121 24t-95.5 27.5v281q50 -19 106.5 -36.5t117.5 -31t124.5 -21.5t128.5 -8q118 0 183.5 43.5t65.5 131.5q0 60 -32 98t-85 63t-120 43t-137.5 38.5t-137.5 48t-120 72t-85 111.5t-32 166z
M629 1727l110 151h284l-286 -295h-229l-274 295h283z" />
    <glyph glyph-name="scaron" unicode="&#x161;" horiz-adv-x="971" 
d="M520 1084q95 0 167.5 -10.5t132.5 -30.5v-230q-86 29 -160.5 38t-139.5 9q-70 0 -107.5 -22.5t-37.5 -70.5q0 -20 12 -36t33 -28.5t49 -22t61 -18.5q62 -16 126 -39.5t116.5 -63.5t85.5 -102t33 -155q0 -78 -30 -138.5t-84 -102t-129.5 -62.5t-167.5 -21q-44 0 -93 5
t-96 13t-90 19.5t-76 25.5v235q81 -29 172.5 -52.5t182.5 -23.5q76 0 111 25.5t35 76.5q0 33 -16 56t-43 39t-61 27t-70 21q-48 13 -104.5 32t-106 53.5t-82.5 89.5t-33 140q0 78 29.5 138.5t83.5 102t129.5 62.5t167.5 21zM507 1323l110 151h284l-286 -295h-229l-274 295
h283z" />
    <glyph glyph-name="Tcommaaccent" unicode="&#x162;" horiz-adv-x="1172" 
d="M443 0v1205h-433v261h1152v-261h-434v-1205h-285zM444 -413v284h287v-235q0 -54 -9.5 -101t-34.5 -87.5t-68 -75t-110 -64.5l-91 132q55 24 86 64.5t36 82.5h-96z" />
    <glyph glyph-name="tcommaaccent" unicode="&#x163;" horiz-adv-x="794" 
d="M734 -12q-48 -8 -88.5 -9t-67.5 -1q-77 0 -145 17t-118.5 61.5t-79.5 122t-29 198.5v451h-136v234h136v202l266 121v-323h213v-234h-213v-451q0 -53 8.5 -87t25 -54t40.5 -27.5t55 -7.5q12 0 28 0.5t34 2.5t36.5 5t34.5 8v-229zM241 -413v284h287v-235q0 -54 -9.5 -101
t-34.5 -87.5t-68 -75t-110 -64.5l-91 132q55 24 86 64.5t36 82.5h-96z" />
    <glyph glyph-name="Tcaron" unicode="&#x164;" horiz-adv-x="1172" 
d="M443 0v1205h-433v261h1152v-261h-434v-1205h-285zM585 1727l110 151h284l-286 -295h-229l-274 295h283z" />
    <glyph glyph-name="tcaron" unicode="&#x165;" horiz-adv-x="1181" 
d="M734 -12q-48 -8 -88.5 -9t-67.5 -1q-77 0 -145 17t-118.5 61.5t-79.5 122t-29 198.5v451h-136v234h136v202l266 121v-323h213v-234h-213v-451q0 -53 8.5 -87t25 -54t40.5 -27.5t55 -7.5q12 0 28 0.5t34 2.5t36.5 5t34.5 8v-229zM827 1261v284h288v-235q0 -127 -52 -218.5
t-161 -141.5l-88 139q54 24 77 71.5t23 100.5h-87z" />
    <glyph glyph-name="Umacron" unicode="&#x16a;" horiz-adv-x="1440" 
d="M1290 522q0 -129 -44 -230.5t-120.5 -171t-180.5 -106t-225 -36.5t-225 36.5t-180.5 106t-120.5 171t-44 230.5v944h285v-954q0 -69 21 -122t59 -89t90.5 -55t114.5 -19t114.5 19t90.5 55t59 89t21 122v954h285v-944zM384 1654v192h675v-192h-675z" />
    <glyph glyph-name="umacron" unicode="&#x16b;" 
d="M236 1272v192h675v-192h-675zM744 0v62q-53 -44 -114.5 -64t-130.5 -20q-177 0 -270.5 96.5t-93.5 272.5v715h265v-687q0 -41 6.5 -73t23 -54.5t45 -34t72.5 -11.5q68 0 114 22.5t67 48.5v789h265v-1062h-249z" />
    <glyph glyph-name="Uring" unicode="&#x16e;" horiz-adv-x="1440" 
d="M1290 522q0 -129 -44 -230.5t-120.5 -171t-180.5 -106t-225 -36.5t-225 36.5t-180.5 106t-120.5 171t-44 230.5v944h285v-954q0 -69 21 -122t59 -89t90.5 -55t114.5 -19t114.5 19t90.5 55t59 89t21 122v954h285v-944zM482 1693q0 44 15 86.5t44.5 74.5t74.5 51.5
t106 19.5q60 0 105.5 -19t75 -51.5t44.5 -75.5t15 -90t-15 -90t-44.5 -75.5t-75 -52t-104.5 -19.5t-104.5 19.5t-75.5 52t-45.5 76.5t-15.5 93zM606 1691q0 -48 29 -82t87 -34q59 0 87 34t28 80t-28 80t-87 34q-30 0 -51.5 -9t-35.5 -25t-21.5 -36.5t-7.5 -41.5z" />
    <glyph glyph-name="uring" unicode="&#x16f;" 
d="M331 1445q0 44 15 86.5t44.5 74.5t74.5 51.5t106 19.5q60 0 105.5 -19t75 -51.5t44.5 -75.5t15 -90t-15 -90t-44.5 -75.5t-75 -52t-104.5 -19.5t-104.5 19.5t-75.5 52t-45.5 76.5t-15.5 93zM455 1443q0 -48 29 -82t87 -34q59 0 87 34t28 80t-28 80t-87 34q-30 0 -51.5 -9
t-35.5 -25t-21.5 -36.5t-7.5 -41.5zM744 0v62q-53 -44 -114.5 -64t-130.5 -20q-177 0 -270.5 96.5t-93.5 272.5v715h265v-687q0 -41 6.5 -73t23 -54.5t45 -34t72.5 -11.5q68 0 114 22.5t67 48.5v789h265v-1062h-249z" />
    <glyph glyph-name="Uhungarumlaut" unicode="&#x170;" horiz-adv-x="1444" 
d="M1290 522q0 -129 -44 -230.5t-120.5 -171t-180.5 -106t-225 -36.5t-225 36.5t-180.5 106t-120.5 171t-44 230.5v944h285v-954q0 -69 21 -122t59 -89t90.5 -55t114.5 -19t114.5 19t90.5 55t59 89t21 122v954h285v-944zM455 1927h331l-233 -361h-295zM963 1927h331
l-233 -361h-295z" />
    <glyph glyph-name="uhungarumlaut" unicode="&#x171;" 
d="M273 1547h331l-233 -361h-295zM781 1547h331l-233 -361h-295zM744 0v62q-53 -44 -114.5 -64t-130.5 -20q-177 0 -270.5 96.5t-93.5 272.5v715h265v-687q0 -41 6.5 -73t23 -54.5t45 -34t72.5 -11.5q68 0 114 22.5t67 48.5v789h265v-1062h-249z" />
    <glyph glyph-name="Uogonek" unicode="&#x172;" horiz-adv-x="1440" 
d="M1290 522q0 -129 -44 -230.5t-120.5 -171t-180.5 -106t-225 -36.5t-225 36.5t-180.5 106t-120.5 171t-44 230.5v944h285v-954q0 -69 21 -122t59 -89t90.5 -55t114.5 -19t114.5 19t90.5 55t59 89t21 122v954h285v-944zM779 118q-46 -138 -46 -198q0 -44 19.5 -66.5
t51.5 -22.5q15 0 33 2.5t42.5 9.5t57 20t74.5 35v-219q-69 -36 -137.5 -51.5t-115.5 -15.5q-57 0 -104 17.5t-80 50t-51 78.5t-18 103q0 42 9.5 105.5t35.5 151.5h229z" />
    <glyph glyph-name="uogonek" unicode="&#x173;" 
d="M584 167q-46 -138 -46 -198q0 -44 19.5 -66.5t51.5 -22.5q15 0 33 2.5t42.5 9.5t57 20t74.5 35v-219q-69 -36 -137.5 -51.5t-115.5 -15.5q-57 0 -104 17.5t-80 50t-51 78.5t-18 103q0 42 9.5 105.5t35.5 151.5h229zM744 0v62q-53 -44 -114.5 -64t-130.5 -20
q-177 0 -270.5 96.5t-93.5 272.5v715h265v-687q0 -41 6.5 -73t23 -54.5t45 -34t72.5 -11.5q68 0 114 22.5t67 48.5v789h265v-1062h-249z" />
    <glyph glyph-name="Ydieresis" unicode="&#x178;" horiz-adv-x="1388" 
d="M546 0v643q-86 102 -167.5 207t-152 209.5t-128.5 207t-98 199.5h290q30 -68 72.5 -140.5t95 -148t112.5 -152.5t124 -154q64 77 124 154t112.5 152.5t95.5 148t73 140.5h289q-41 -98 -100 -202t-131.5 -210t-155 -213t-170.5 -210v-631h-285zM359 1593v277h274v-277
h-274zM747 1593v277h274v-277h-274z" />
    <glyph glyph-name="Zacute" unicode="&#x179;" horiz-adv-x="1280" 
d="M80 0v223q18 51 58.5 122t96.5 154.5t124 175t141 184t153 181t161 165.5h-724v261h1098v-232q-71 -68 -149 -151.5t-157 -173.5t-154.5 -182t-140 -177t-115 -158.5t-79.5 -130.5h807v-261h-1120zM637 1944h332l-265 -398h-295z" />
    <glyph glyph-name="zacute" unicode="&#x17a;" horiz-adv-x="1070" 
d="M943 1062v-193q-41 -34 -89 -81.5t-99 -103t-102.5 -115.5t-98 -119t-86 -114.5t-67.5 -101.5h559v-234h-870v190q30 72 85.5 159t121.5 174t133.5 166.5t120.5 137.5h-437v235h829zM517 1546h332l-265 -398h-295z" />
    <glyph glyph-name="Zdotaccent" unicode="&#x17b;" horiz-adv-x="1280" 
d="M80 0v223q18 51 58.5 122t96.5 154.5t124 175t141 184t153 181t161 165.5h-724v261h1098v-232q-71 -68 -149 -151.5t-157 -173.5t-154.5 -182t-140 -177t-115 -158.5t-79.5 -130.5h807v-261h-1120zM495 1566v301h311v-301h-311z" />
    <glyph glyph-name="zdotaccent" unicode="&#x17c;" horiz-adv-x="1070" 
d="M943 1062v-193q-41 -34 -89 -81.5t-99 -103t-102.5 -115.5t-98 -119t-86 -114.5t-67.5 -101.5h559v-234h-870v190q30 72 85.5 159t121.5 174t133.5 166.5t120.5 137.5h-437v235h829zM392 1177v301h311v-301h-311z" />
    <glyph glyph-name="Zcaron" unicode="&#x17d;" horiz-adv-x="1280" 
d="M80 0v223q18 51 58.5 122t96.5 154.5t124 175t141 184t153 181t161 165.5h-724v261h1098v-232q-71 -68 -149 -151.5t-157 -173.5t-154.5 -182t-140 -177t-115 -158.5t-79.5 -130.5h807v-261h-1120zM652 1710l110 151h284l-286 -295h-229l-274 295h283z" />
    <glyph glyph-name="zcaron" unicode="&#x17e;" horiz-adv-x="1070" 
d="M943 1062v-193q-41 -34 -89 -81.5t-99 -103t-102.5 -115.5t-98 -119t-86 -114.5t-67.5 -101.5h559v-234h-870v190q30 72 85.5 159t121.5 174t133.5 166.5t120.5 137.5h-437v235h829zM496 1323l110 151h284l-286 -295h-229l-274 295h283z" />
    <glyph glyph-name="florin" unicode="&#x192;" horiz-adv-x="909" 
d="M397 1186q15 69 47.5 125t81 95t112 60.5t140.5 21.5q13 0 31.5 -1t39.5 -2.5t43 -4t42 -6.5v-233q-17 7 -37 11t-41 6t-41 3t-35 1q-37 0 -71.5 -24t-44.5 -72l-22 -104h178l-51 -239h-178l-200 -948q-15 -69 -47 -125t-80.5 -95t-112 -60.5t-139.5 -21.5q-14 0 -32.5 1
t-39.5 2.5t-43.5 4t-42.5 6.5v233q16 -7 36.5 -11t41.5 -6.5t41 -3t35 -0.5q18 0 37 6t34.5 18t27 30t16.5 42l197 928h-133l51 239h132z" />
    <glyph glyph-name="Ohorn" unicode="&#x1a0;" horiz-adv-x="1730" 
d="M80 733q0 104 15 200.5t47.5 180.5t84 153t124.5 118t168.5 76t216.5 27t216.5 -27t168.5 -76t125 -118t84.5 -153t47.5 -180.5t15 -200.5t-15 -200.5t-47.5 -180.5t-84.5 -153t-125 -118t-168.5 -76t-216.5 -27t-216.5 27t-168.5 76t-124.5 118t-84 153t-47.5 180.5
t-15 200.5zM370 733q0 -123 21 -217.5t65 -158.5t113.5 -97t166.5 -33t166.5 33t114 97t65 158.5t20.5 217.5t-20.5 217.5t-65 158.5t-114 97t-166.5 33t-166.5 -33t-113.5 -97t-65 -158.5t-21 -217.5zM1457 1182v284h288v-235q0 -127 -52 -218.5t-161 -141.5l-88 139
q54 24 77 71.5t23 100.5h-87z" />
    <glyph glyph-name="ohorn" unicode="&#x1a1;" horiz-adv-x="1230" 
d="M80 531q0 114 26 215t84.5 176t151.5 118.5t227 43.5q133 0 226 -43.5t151 -118.5t84.5 -176t26.5 -215t-26.5 -215t-84.5 -176t-151 -118.5t-226 -43.5q-134 0 -227 43.5t-151.5 118.5t-84.5 176t-26 215zM351 531q0 -76 12.5 -135.5t38.5 -100t67.5 -62t99.5 -21.5
t99.5 21.5t67.5 62t38.5 100t12.5 135.5t-12.5 135t-38.5 100t-67.5 62.5t-99.5 21.5t-99.5 -21.5t-67.5 -62.5t-38.5 -100t-12.5 -135zM962 1062v284h288v-235q0 -127 -52 -218.5t-161 -141.5l-88 139q54 24 77 71.5t23 100.5h-87z" />
    <glyph glyph-name="Uhorn" unicode="&#x1af;" horiz-adv-x="1717" 
d="M1290 522q0 -129 -44 -230.5t-120.5 -171t-180.5 -106t-225 -36.5t-225 36.5t-180.5 106t-120.5 171t-44 230.5v944h285v-954q0 -69 21 -122t59 -89t90.5 -55t114.5 -19t114.5 19t90.5 55t59 89t21 122v954h285v-944zM1429 1182v284h288v-235q0 -127 -52 -218.5
t-161 -141.5l-88 139q54 24 77 71.5t23 100.5h-87z" />
    <glyph glyph-name="uhorn" unicode="&#x1b0;" horiz-adv-x="1320" 
d="M744 0v62q-53 -44 -114.5 -64t-130.5 -20q-177 0 -270.5 96.5t-93.5 272.5v715h265v-687q0 -41 6.5 -73t23 -54.5t45 -34t72.5 -11.5q68 0 114 22.5t67 48.5v789h265v-1062h-249zM1052 1062v284h288v-235q0 -127 -52 -218.5t-161 -141.5l-88 139q54 24 77 71.5t23 100.5
h-87z" />
    <glyph glyph-name="uni01D0" unicode="&#x1d0;" horiz-adv-x="535" 
d="M135 0v1062h265v-1062h-265zM249 1323l110 151h284l-286 -295h-229l-274 295h283z" />
    <glyph glyph-name="Scommaaccent" unicode="&#x218;" horiz-adv-x="1225" 
d="M100 1053q0 117 47 199.5t126.5 135t184 76.5t219.5 24q114 0 209 -12t168 -27v-280q-53 13 -101.5 24t-96.5 19t-97.5 12t-103.5 4q-56 0 -102 -10.5t-79 -31t-51 -50t-18 -68.5q0 -52 32 -84t85 -54.5t120.5 -39.5t137.5 -39t137.5 -53t120.5 -81t85 -123.5t32 -180.5
q0 -106 -40.5 -187t-113.5 -135.5t-175 -82.5t-226 -28q-61 0 -128.5 6t-132 16.5t-121 24t-95.5 27.5v281q50 -19 106.5 -36.5t117.5 -31t124.5 -21.5t128.5 -8q118 0 183.5 43.5t65.5 131.5q0 60 -32 98t-85 63t-120 43t-137.5 38.5t-137.5 48t-120 72t-85 111.5t-32 166z
M481 -413v284h287v-235q0 -54 -9.5 -101t-34.5 -87.5t-68 -75t-110 -64.5l-91 132q55 24 86 64.5t36 82.5h-96z" />
    <glyph glyph-name="scommaaccent" unicode="&#x219;" horiz-adv-x="971" 
d="M520 1084q95 0 167.5 -10.5t132.5 -30.5v-230q-86 29 -160.5 38t-139.5 9q-70 0 -107.5 -22.5t-37.5 -70.5q0 -20 12 -36t33 -28.5t49 -22t61 -18.5q62 -16 126 -39.5t116.5 -63.5t85.5 -102t33 -155q0 -78 -30 -138.5t-84 -102t-129.5 -62.5t-167.5 -21q-44 0 -93 5
t-96 13t-90 19.5t-76 25.5v235q81 -29 172.5 -52.5t182.5 -23.5q76 0 111 25.5t35 76.5q0 33 -16 56t-43 39t-61 27t-70 21q-48 13 -104.5 32t-106 53.5t-82.5 89.5t-33 140q0 78 29.5 138.5t83.5 102t129.5 62.5t167.5 21zM350 -413v284h287v-235q0 -54 -9.5 -101
t-34.5 -87.5t-68 -75t-110 -64.5l-91 132q55 24 86 64.5t36 82.5h-96z" />
    <glyph glyph-name="circumflex" unicode="&#x2c6;" horiz-adv-x="648" 
d="M217 1522h227l254 -345h-291l-76 117q-19 -29 -40 -61t-37 -56h-291z" />
    <glyph glyph-name="caron" unicode="&#x2c7;" horiz-adv-x="723" 
d="M383 1323l110 151h284l-286 -295h-229l-274 295h283z" />
    <glyph glyph-name="overscore.001" unicode="&#x2c9;" horiz-adv-x="723" 
d="M29 1274v192h675v-192h-675z" />
    <glyph glyph-name="breve" unicode="&#x2d8;" horiz-adv-x="723" 
d="M365 1349q26 0 49.5 6t43 23.5t33.5 48t22 79.5h206q-9 -75 -38 -136t-75 -103.5t-107.5 -66t-135.5 -23.5q-72 0 -132.5 23.5t-106 66t-75 103.5t-38.5 136h206q8 -49 22.5 -79.5t34 -48t42.5 -23.5t49 -6z" />
    <glyph glyph-name="dotaccent" unicode="&#x2d9;" horiz-adv-x="700" 
d="M205 1177v301h311v-301h-311z" />
    <glyph glyph-name="ring" unicode="&#x2da;" horiz-adv-x="723" 
d="M127 1396q0 44 15 86.5t44.5 74.5t74.5 51.5t106 19.5q60 0 105.5 -19t75 -51.5t44.5 -75.5t15 -90t-15 -90t-44.5 -75.5t-75 -52t-104.5 -19.5t-104.5 19.5t-75.5 52t-45.5 76.5t-15.5 93zM251 1394q0 -48 29 -82t87 -34q59 0 87 34t28 80t-28 80t-87 34q-30 0 -51.5 -9
t-35.5 -25t-21.5 -36.5t-7.5 -41.5z" />
    <glyph glyph-name="ogonek" unicode="&#x2db;" horiz-adv-x="526" 
d="M293 118q-46 -138 -46 -198q0 -44 19.5 -66.5t51.5 -22.5q15 0 33 2.5t42.5 9.5t57 20t74.5 35v-219q-69 -36 -137.5 -51.5t-115.5 -15.5q-57 0 -104 17.5t-80 50t-51 78.5t-18 103q0 42 9.5 105.5t35.5 151.5h229z" />
    <glyph glyph-name="tilde" unicode="&#x2dc;" horiz-adv-x="754" 
d="M4 1376q38 51 98 82t130 31q42 0 81 -14.5t77 -31.5t74 -31.5t72 -14.5q75 0 125.5 31t90.5 85v-204q-51 -56 -105 -81.5t-121 -25.5q-44 0 -83.5 14.5t-78 32t-77 32t-79.5 14.5q-23 0 -48 -5t-50.5 -17.5t-52 -34.5t-53.5 -56v194z" />
    <glyph glyph-name="hungarumlaut" unicode="&#x2dd;" horiz-adv-x="877" 
d="M185 1538h331l-233 -361h-295zM693 1538h331l-233 -361h-295z" />
    <glyph glyph-name="combininggraveaccent" unicode="&#x300;" horiz-adv-x="0" 
d="M-185 1321h-274l-246 398h311z" />
    <glyph glyph-name="combiningacuteaccent" unicode="&#x301;" horiz-adv-x="0" 
d="M-378 1721h332l-265 -398h-295z" />
    <glyph glyph-name="combiningtildeaccent" unicode="&#x303;" horiz-adv-x="0" 
d="M4 1376q38 51 98 82t130 31q42 0 81 -14.5t77 -31.5t74 -31.5t72 -14.5q75 0 125.5 31t90.5 85v-204q-51 -56 -105 -81.5t-121 -25.5q-44 0 -83.5 14.5t-78 32t-77 32t-79.5 14.5q-23 0 -48 -5t-50.5 -17.5t-52 -34.5t-53.5 -56v194z" />
    <glyph glyph-name="uni0308" unicode="&#x308;" horiz-adv-x="0" 
d="M-900 1189v277h274v-277h-274zM-512 1189v277h274v-277h-274z" />
    <glyph glyph-name="hookabovecomb" unicode="&#x309;" horiz-adv-x="518" 
d="M110 1308q54 0 86 5.5t49 13.5t22 19t5 23q0 30 -35.5 48.5t-120.5 18.5h-106v114h215q74 0 127.5 -14.5t88.5 -39t52 -55.5t17 -64q0 -47 -40 -84.5t-126 -46.5l34 -98h-216z" />
    <glyph glyph-name="dotbelowcomb" unicode="&#x323;" horiz-adv-x="659" 
d="M173 -407v284h288v-284h-288z" />
    <glyph glyph-name="tonos" unicode="&#x384;" horiz-adv-x="0" 
d="M-378 1721h332l-265 -398h-295z" />
    <glyph glyph-name="uni0385" unicode="&#x385;" horiz-adv-x="839" 
d="M415 1950h331l-233 -360h-295zM84 1177v277h274v-277h-274zM472 1177v277h274v-277h-274z" />
    <glyph glyph-name="Alphatonos" unicode="&#x386;" horiz-adv-x="1587" 
d="M1299 0q-13 59 -32 132t-43 154t-53 169t-62 183h-434q2 6 9.5 24.5t17.5 46.5t21.5 59.5t21.5 59t17.5 47t9.5 22.5h239q-32 80 -64.5 157t-66.5 151h-60q-45 -100 -89.5 -208t-86 -217.5t-79 -218t-69 -209t-55.5 -190.5t-39 -162h-288q22 104 56 228t77 256.5
t92.5 268t101.5 264t104.5 243.5t101.5 206h407q49 -91 102 -206.5t105 -243.5t101.5 -264t92 -268.5t76.5 -256.5t56 -227h-288zM203 1445h332l-265 -398h-295z" />
    <glyph glyph-name="Epsilontonos" unicode="&#x388;" horiz-adv-x="1523" 
d="M401 0v1466h1024v-261h-739v-308h652v-259h-652v-373h760v-265h-1045zM24 1447h332l-265 -398h-295z" />
    <glyph glyph-name="Etatonos" unicode="&#x389;" horiz-adv-x="1444" 
d="M1045 1466h285v-1466h-285v638h-569v-638h-285v1466h285v-569h569v569zM-166 1447h332l-265 -398h-295z" />
    <glyph glyph-name="Iotatonos" unicode="&#x38a;" horiz-adv-x="721" 
d="M286 0v1466h285v-1466h-285zM-58 1447h332l-265 -398h-295z" />
    <glyph glyph-name="Omicrontonos" unicode="&#x38c;" horiz-adv-x="1798" 
d="M405 733q0 104 15 200.5t47.5 180.5t84 153t124.5 118t168.5 76t216.5 27t216.5 -27t168.5 -76t125 -118t84.5 -153t47.5 -180.5t15 -200.5t-15 -200.5t-47.5 -180.5t-84.5 -153t-125 -118t-168.5 -76t-216.5 -27t-216.5 27t-168.5 76t-124.5 118t-84 153t-47.5 180.5
t-15 200.5zM695 733q0 -123 21 -217.5t65 -158.5t113.5 -97t166.5 -33t166.5 33t114 97t65 158.5t20.5 217.5t-20.5 217.5t-65 158.5t-114 97t-166.5 33t-166.5 -33t-113.5 -97t-65 -158.5t-21 -217.5zM182 1447h332l-265 -398h-295z" />
    <glyph glyph-name="Upsilontonos" unicode="&#x38e;" horiz-adv-x="1320" 
d="M517 0v643q-86 102 -167.5 207t-152 209.5t-128.5 207t-98 199.5h290q30 -68 72.5 -140.5t95 -148t112.5 -152.5t124 -154q64 77 124 154t112.5 152.5t95.5 148t73 140.5h289q-41 -98 -100 -202t-131.5 -210t-155 -213t-170.5 -210v-631h-285zM-367 1447h332l-265 -398
h-295z" />
    <glyph glyph-name="Omegatonos" unicode="&#x38f;" horiz-adv-x="1760" 
d="M268 733q0 104 15.5 200.5t49 180.5t86 153t126.5 118t170 76t217 27t217 -27t170 -76t126.5 -118t86 -153t49 -180.5t15.5 -200.5q0 -59 -7.5 -123t-25 -126t-45.5 -119.5t-69 -102.5h160v-262h-538v243q69 28 113 76.5t69.5 112t35 140t9.5 161.5q0 123 -20.5 216
t-65 155.5t-114 94t-166.5 31.5t-166.5 -31.5t-113.5 -94t-65 -155.5t-21 -216q0 -84 10.5 -161t36 -140.5t68.5 -112t108 -76.5v-243h-538v262h159q-41 47 -68 102.5t-43.5 116.5t-23.5 124.5t-7 127.5zM29 1447h332l-265 -398h-295z" />
    <glyph glyph-name="iotadieresistonos" unicode="&#x390;" horiz-adv-x="535" 
d="M273 1950h331l-233 -360h-295zM-58 1177v277h274v-277h-274zM330 1177v277h274v-277h-274zM135 0v1062h265v-1062h-265z" />
    <glyph glyph-name="Alpha" unicode="&#x391;" horiz-adv-x="1473" 
d="M1185 0q-13 59 -32 132t-43 154t-53 169t-62 183h-434q2 6 9.5 24.5t17.5 46.5t21.5 59.5t21.5 59t17.5 47t9.5 22.5h239q-32 80 -64.5 157t-66.5 151h-60q-45 -100 -89.5 -208t-86 -217.5t-79 -218t-69 -209t-55.5 -190.5t-39 -162h-288q22 104 56 228t77 256.5
t92.5 268t101.5 264t104.5 243.5t101.5 206h407q49 -91 102 -206.5t105 -243.5t101.5 -264t92 -268.5t76.5 -256.5t56 -227h-288z" />
    <glyph glyph-name="Beta" unicode="&#x392;" horiz-adv-x="1359" 
d="M150 1466q142 0 285.5 11t285.5 11q126 0 221.5 -29t160 -83t97.5 -131t33 -173q0 -43 -9.5 -86t-29 -81.5t-50.5 -70t-73 -50.5q51 -16 91.5 -48.5t68.5 -77.5t43 -100.5t15 -116.5q0 -112 -42.5 -195t-118 -137.5t-178.5 -81.5t-224 -27h-576v1466zM515 897h211
q101 0 158.5 39.5t57.5 114.5q0 49 -15.5 85t-44.5 57t-69.5 30t-90.5 9q-107 0 -176.5 -7t-110.5 -5v-959h291q130 0 201 43.5t71 136.5q0 56 -18 95t-52.5 61.5t-85.5 31.5t-116 9h-211v259z" />
    <glyph glyph-name="uni0393" unicode="&#x393;" horiz-adv-x="1110" 
d="M150 1466h950v-261h-665v-1205h-285v1466z" />
    <glyph glyph-name="uni0394" unicode="&#x394;" horiz-adv-x="1403" 
d="M0 0q43 192 106 383t137 377t156 363.5t165 342.5h273q90 -177 171 -354t152.5 -357.5t132 -368t110.5 -386.5h-1403zM1040 248q-69 223 -154.5 437t-184.5 426q-101 -214 -186 -428t-154 -435h679z" />
    <glyph glyph-name="Epsilon" unicode="&#x395;" horiz-adv-x="1336" 
d="M191 0v1466h1024v-261h-739v-308h652v-259h-652v-373h760v-265h-1045z" />
    <glyph glyph-name="Zeta" unicode="&#x396;" horiz-adv-x="1280" 
d="M80 0v223q18 51 58.5 122t96.5 154.5t124 175t141 184t153 181t161 165.5h-724v261h1098v-232q-71 -68 -149 -151.5t-157 -173.5t-154.5 -182t-140 -177t-115 -158.5t-79.5 -130.5h807v-261h-1120z" />
    <glyph glyph-name="Eta" unicode="&#x397;" horiz-adv-x="1439" 
d="M1004 1466h285v-1466h-285v638h-569v-638h-285v1466h285v-569h569v569z" />
    <glyph glyph-name="uni0398" unicode="&#x398;" horiz-adv-x="1473" 
d="M436 897h591v-263h-591v263zM80 733q0 104 15 200.5t47.5 180.5t84 153t124.5 118t168.5 76t216.5 27t216.5 -27t168.5 -76t125 -118t84.5 -153t47.5 -180.5t15 -200.5t-15 -200.5t-47.5 -180.5t-84.5 -153t-125 -118t-168.5 -76t-216.5 -27t-216.5 27t-168.5 76
t-124.5 118t-84 153t-47.5 180.5t-15 200.5zM370 733q0 -123 21 -217.5t65 -158.5t113.5 -97t166.5 -33t166.5 33t114 97t65 158.5t20.5 217.5t-20.5 217.5t-65 158.5t-114 97t-166.5 33t-166.5 -33t-113.5 -97t-65 -158.5t-21 -217.5z" />
    <glyph glyph-name="Iota" unicode="&#x399;" horiz-adv-x="585" 
d="M150 0v1466h285v-1466h-285z" />
    <glyph glyph-name="Kappa" unicode="&#x39a;" horiz-adv-x="1328" 
d="M150 0v1466h285v-565q54 10 125.5 46.5t144.5 105t139 170.5t110 243h297q-35 -117 -84.5 -216.5t-108.5 -183t-125 -150t-134 -117.5q57 -60 113 -125.5t107.5 -134.5t97.5 -139.5t82.5 -139.5t62 -134.5t36.5 -125.5h-296q-18 66 -60 147t-102 168t-134.5 176
t-158.5 171q-30 -11 -58 -17t-54 -9v-636h-285z" />
    <glyph glyph-name="uni039B" unicode="&#x39b;" horiz-adv-x="1298" 
d="M1050 0q-5 49 -22 121t-43.5 159t-60 186t-71.5 202.5t-79.5 208.5t-83.5 204q-42 -99 -83.5 -204t-79.5 -209t-71.5 -202.5t-60 -185.5t-43.5 -159t-22 -121h-289q11 87 41.5 204t73.5 250.5t95 274.5t106 275t107 253.5t97 208.5h258q44 -89 97 -208.5t107 -253.5
t106 -275t95 -274.5t73.5 -250.5t41.5 -204h-289z" />
    <glyph glyph-name="Mu" unicode="&#x39c;" horiz-adv-x="1759" 
d="M1324 0v1058q-50 -65 -93 -134t-83 -147.5t-78.5 -170t-80.5 -202.5h-219q-42 109 -81 200t-79 169.5t-83 148t-92 134.5v-1056h-285v1466h253q50 -38 110 -104.5t123 -154.5t125.5 -194.5t118.5 -224.5q55 118 117.5 224.5t125.5 194.5t123 154.5t110 104.5h253v-1466
h-285z" />
    <glyph glyph-name="Nu" unicode="&#x39d;" horiz-adv-x="1464" 
d="M150 0v1466h253q48 -33 115.5 -102t144 -162t155.5 -203t150 -226q16 -26 33 -64t28 -81v838h285v-1466h-269q-37 111 -84 218t-100 207t-109 192t-111.5 172.5t-108 148.5t-97.5 120v-1058h-285z" />
    <glyph glyph-name="uni039E" unicode="&#x39e;" horiz-adv-x="1358" 
d="M101 1205v261h1121v-261h-1121zM269 897h857v-263h-857v263zM101 265h1152v-265h-1152v265z" />
    <glyph glyph-name="Omicron" unicode="&#x39f;" horiz-adv-x="1473" 
d="M80 733q0 104 15 200.5t47.5 180.5t84 153t124.5 118t168.5 76t216.5 27t216.5 -27t168.5 -76t125 -118t84.5 -153t47.5 -180.5t15 -200.5t-15 -200.5t-47.5 -180.5t-84.5 -153t-125 -118t-168.5 -76t-216.5 -27t-216.5 27t-168.5 76t-124.5 118t-84 153t-47.5 180.5
t-15 200.5zM370 733q0 -123 21 -217.5t65 -158.5t113.5 -97t166.5 -33t166.5 33t114 97t65 158.5t20.5 217.5t-20.5 217.5t-65 158.5t-114 97t-166.5 33t-166.5 -33t-113.5 -97t-65 -158.5t-21 -217.5z" />
    <glyph glyph-name="uni03A0" unicode="&#x3a0;" horiz-adv-x="1444" 
d="M148 0v1466h1112v-1466h-286v1205h-541v-1205h-285z" />
    <glyph glyph-name="Rho" unicode="&#x3a1;" horiz-adv-x="1315" 
d="M515 862q27 -11 55 -17.5t54 -11t49 -6t41 -1.5q58 0 105 11t80 35.5t51 64t18 95.5q0 43 -11.5 79t-41.5 62t-81 40.5t-130 14.5q-43 0 -83 -2t-75 -5t-63.5 -5t-47.5 -2v-1214h-285v1466q90 0 167.5 3.5t144 7.5t123 7.5t105.5 3.5q151 0 259.5 -31t178.5 -89.5
t103.5 -141.5t33.5 -188q0 -118 -41.5 -206.5t-114 -147t-171.5 -88t-213 -29.5q-20 0 -46 1.5t-54.5 5t-56.5 9.5t-53 14v265z" />
    <glyph glyph-name="Sigma" unicode="&#x3a3;" horiz-adv-x="1270" 
d="M893 658q-64 -43 -126.5 -92t-120 -100t-109.5 -102t-94 -99h745v-265h-1107v231q34 53 90 121t124.5 140t144.5 141.5t151 126.5q-74 54 -146.5 115.5t-138 124.5t-119 125t-88.5 116v225h1070v-261h-699q85 -85 191 -173.5t232 -173.5v-200z" />
    <glyph glyph-name="Tau" unicode="&#x3a4;" horiz-adv-x="1172" 
d="M443 0v1205h-433v261h1152v-261h-434v-1205h-285z" />
    <glyph glyph-name="Upsilon" unicode="&#x3a5;" horiz-adv-x="1388" 
d="M546 0v643q-86 102 -167.5 207t-152 209.5t-128.5 207t-98 199.5h290q30 -68 72.5 -140.5t95 -148t112.5 -152.5t124 -154q64 77 124 154t112.5 152.5t95.5 148t73 140.5h289q-41 -98 -100 -202t-131.5 -210t-155 -213t-170.5 -210v-631h-285z" />
    <glyph glyph-name="uni03A6" unicode="&#x3a6;" horiz-adv-x="1848" 
d="M773 150q-316 7 -480.5 154t-164.5 430q0 141 41 251t122 187t201.5 118.5t280.5 45.5v130h285v-130q159 -3 279 -45t200.5 -119t121 -187t40.5 -251q0 -284 -161.5 -430.5t-479.5 -153.5v-150h-285v150zM1409 734q0 76 -16 138.5t-55.5 107.5t-107.5 71.5t-172 29.5
v-676q104 3 172 26.5t107.5 66t55.5 102t16 134.5zM422 734q0 -75 15.5 -134.5t55.5 -102t107.5 -66t172.5 -26.5v676q-105 -3 -172.5 -29.5t-107.5 -72t-55.5 -108t-15.5 -137.5z" />
    <glyph glyph-name="Chi" unicode="&#x3a7;" horiz-adv-x="1309" 
d="M1285 1466q-46 -110 -99.5 -207t-111.5 -185t-119 -169t-123 -158q67 -82 133 -167.5t127.5 -177.5t116.5 -191.5t100 -210.5h-310q-63 144 -153 273t-192 265q-102 -136 -191.5 -265t-153.5 -273h-309q44 111 98.5 210.5t116 191.5t127.5 177.5t133 167.5
q-62 77 -123 158t-119 169t-111 185t-99 207h311q57 -135 140 -257.5t180 -253.5q97 131 180 253.5t141 257.5h310z" />
    <glyph glyph-name="uni03A8" unicode="&#x3a8;" horiz-adv-x="1721" 
d="M1571 1466v-574q0 -117 -43 -216t-119.5 -172.5t-180.5 -118.5t-225 -54v-331h-285v331q-117 8 -220.5 52.5t-180.5 118t-122 173t-45 217.5v574h285v-574q0 -62 22.5 -114t61 -91t90 -64t109.5 -33v876h285v-877q59 7 110.5 31t90 63t60.5 91.5t22 117.5v574h285z" />
    <glyph glyph-name="uni03A9" unicode="&#x3a9;" horiz-adv-x="1639" 
d="M151 733q0 104 15.5 200.5t49 180.5t86 153t126.5 118t170 76t217 27t217 -27t170 -76t126.5 -118t86 -153t49 -180.5t15.5 -200.5q0 -59 -7.5 -123t-25 -126t-45.5 -119.5t-69 -102.5h160v-262h-538v243q69 28 113 76.5t69.5 112t35 140t9.5 161.5q0 123 -20.5 216
t-65 155.5t-114 94t-166.5 31.5t-166.5 -31.5t-113.5 -94t-65 -155.5t-21 -216q0 -84 10.5 -161t36 -140.5t68.5 -112t108 -76.5v-243h-538v262h159q-41 47 -68 102.5t-43.5 116.5t-23.5 124.5t-7 127.5z" />
    <glyph glyph-name="Iotadieresis" unicode="&#x3aa;" horiz-adv-x="585" 
d="M150 0v1466h285v-1466h-285zM-36 1603v277h274v-277h-274zM352 1603v277h274v-277h-274z" />
    <glyph glyph-name="Upsilondieresis" unicode="&#x3ab;" horiz-adv-x="1320" 
d="M517 0v643q-86 102 -167.5 207t-152 209.5t-128.5 207t-98 199.5h290q30 -68 72.5 -140.5t95 -148t112.5 -152.5t124 -154q64 77 124 154t112.5 152.5t95.5 148t73 140.5h289q-41 -98 -100 -202t-131.5 -210t-155 -213t-170.5 -210v-631h-285zM329 1603v277h274v-277
h-274zM717 1603v277h274v-277h-274z" />
    <glyph glyph-name="alphatonos" unicode="&#x3ac;" horiz-adv-x="1269" 
d="M894 1062h271q-37 -154 -64 -286.5t-54 -247.5q32 -121 73 -255.5t109 -272.5h-284q-9 13 -17.5 32.5t-16 42t-12.5 46.5t-6 47q-19 -43 -49 -78t-72 -60t-97.5 -38.5t-125.5 -13.5q-109 0 -196 38.5t-147.5 110.5t-93 174t-32.5 230q0 130 33.5 233t95 174t147.5 108.5
t191 37.5q118 0 200 -41.5t119 -132.5zM570 861q-110 0 -164.5 -87t-54.5 -241q0 -166 57 -249.5t162 -83.5q34 0 62.5 14.5t54 52t48 102t44.5 165.5q-16 67 -34.5 127t-43 104t-56.5 70t-75 26zM629 1546h332l-265 -398h-295z" />
    <glyph glyph-name="epsilontonos" unicode="&#x3ad;" horiz-adv-x="949" 
d="M543 1084q74 0 142.5 -10.5t121.5 -20.5v-240q-75 23 -141 35t-132 12q-28 0 -52 -6t-42 -18t-28 -30.5t-10 -43.5q0 -21 7 -40t23.5 -32.5t42.5 -21.5t64 -8h136v-229h-176q-77 0 -112 -30t-35 -72q0 -60 45.5 -93.5t126.5 -33.5q91 0 182.5 20t172.5 58v-244
q-30 -12 -72.5 -22.5t-90.5 -18.5t-98 -12.5t-94 -4.5q-110 0 -193.5 26.5t-139 73t-83.5 108t-28 132.5q0 33 9 69t30 70t55.5 63.5t86.5 48.5q-61 30 -93.5 86t-32.5 123t22.5 123t71 96.5t126 63.5t188.5 23zM470 1546h332l-265 -398h-295z" />
    <glyph glyph-name="etatonos" unicode="&#x3ae;" 
d="M384 1062v-62q53 44 114.5 64t130.5 20q88 0 156 -25t114.5 -72t70 -115.5t23.5 -156.5v-1122h-265v1094q0 41 -6.5 73t-23 54.5t-45 34t-72.5 11.5q-68 0 -114 -22.5t-67 -48.5v-789h-265v1062h249zM541 1546h332l-265 -398h-295z" />
    <glyph glyph-name="iotatonos" unicode="&#x3af;" horiz-adv-x="535" 
d="M135 0v1062h265v-1062h-265zM277 1555h332l-265 -398h-295z" />
    <glyph glyph-name="upsilondieresistonos" unicode="&#x3b0;" horiz-adv-x="1092" 
d="M563 -22q-97 0 -176 27t-135 78.5t-86.5 126t-30.5 169.5v683h265v-691q0 -79 41.5 -124t121.5 -45q49 0 84.5 18t58.5 57.5t34 102t11 151.5q0 37 -5.5 98t-17.5 133.5t-30 150.5t-42 149h281q24 -73 40.5 -148.5t26 -146t14 -131.5t4.5 -105q0 -156 -36 -262
t-98.5 -170.5t-146 -92.5t-178.5 -28zM535 1950h331l-233 -360h-295zM204 1177v277h274v-277h-274zM592 1177v277h274v-277h-274z" />
    <glyph glyph-name="alpha" unicode="&#x3b1;" horiz-adv-x="1269" 
d="M894 1062h271q-37 -154 -64 -286.5t-54 -247.5q32 -121 73 -255.5t109 -272.5h-284q-9 13 -17.5 32.5t-16 42t-12.5 46.5t-6 47q-19 -43 -49 -78t-72 -60t-97.5 -38.5t-125.5 -13.5q-109 0 -196 38.5t-147.5 110.5t-93 174t-32.5 230q0 130 33.5 233t95 174t147.5 108.5
t191 37.5q118 0 200 -41.5t119 -132.5zM570 861q-110 0 -164.5 -87t-54.5 -241q0 -166 57 -249.5t162 -83.5q34 0 62.5 14.5t54 52t48 102t44.5 165.5q-16 67 -34.5 127t-43 104t-56.5 70t-75 26z" />
    <glyph glyph-name="beta" unicode="&#x3b2;" horiz-adv-x="1153" 
d="M400 273q34 -29 79 -45.5t94 -16.5t91 16t73 51.5t48.5 91t17.5 134.5q0 64 -14.5 115t-50 87t-94 55t-145.5 19v238q36 0 60.5 10t39.5 27t21.5 41t6.5 51q0 51 -31 83.5t-81 32.5q-21 0 -42 -6.5t-37 -21.5t-26 -40t-10 -62v-860zM135 1094q0 108 27.5 183t78 122
t122 68t160.5 21q94 0 163 -28.5t115 -73.5t68.5 -100.5t22.5 -110.5q0 -36 -6.5 -70.5t-20 -64.5t-33.5 -54.5t-46 -39.5q57 -18 108.5 -51.5t91.5 -86.5t63.5 -128t23.5 -176q0 -129 -36.5 -227t-101 -164.5t-153 -100.5t-193.5 -34q-43 0 -89.5 8.5t-99.5 31.5v-425h-265
v1501z" />
    <glyph glyph-name="gamma" unicode="&#x3b3;" horiz-adv-x="995" 
d="M365 -30q0 72 -16.5 160t-44 184t-64.5 196.5t-77.5 198t-82.5 187.5t-80 166h285q27 -52 56.5 -119.5t58 -142.5t54 -153.5t43.5 -150.5q19 70 44.5 148t54 153.5t58 144t56.5 120.5h285q-38 -76 -80 -166t-82.5 -187.5t-77.5 -198t-64.5 -196.5t-44 -184t-16.5 -160
v-377h-265v377z" />
    <glyph glyph-name="delta" unicode="&#x3b4;" horiz-adv-x="1147" 
d="M273 1047q-60 39 -94 100t-34 127q0 53 24 103t78 89h787v-228h-574q-3 -3 -3 -6q0 -8 12.5 -17.5t26.5 -18.5l282 -193q59 -41 111.5 -91.5t92 -112.5t62.5 -137t23 -163q0 -109 -28.5 -204t-88 -165.5t-152 -111t-220.5 -40.5q-134 0 -226.5 43.5t-151 118.5t-84.5 176
t-26 215q0 73 11.5 143.5t39 133.5t73.5 115t115 88zM797 492q0 58 -13.5 105t-41 89t-70.5 81.5t-102 82.5q-60 -5 -100.5 -30.5t-65 -68t-34.5 -99t-10 -121.5q0 -76 12.5 -137t39 -103.5t67.5 -65.5t99 -23q55 0 96 20.5t68.5 58t41 91.5t13.5 120z" />
    <glyph glyph-name="epsilon" unicode="&#x3b5;" horiz-adv-x="949" 
d="M543 1084q74 0 142.5 -10.5t121.5 -20.5v-240q-75 23 -141 35t-132 12q-28 0 -52 -6t-42 -18t-28 -30.5t-10 -43.5q0 -21 7 -40t23.5 -32.5t42.5 -21.5t64 -8h136v-229h-176q-77 0 -112 -30t-35 -72q0 -60 45.5 -93.5t126.5 -33.5q91 0 182.5 20t172.5 58v-244
q-30 -12 -72.5 -22.5t-90.5 -18.5t-98 -12.5t-94 -4.5q-110 0 -193.5 26.5t-139 73t-83.5 108t-28 132.5q0 33 9 69t30 70t55.5 63.5t86.5 48.5q-61 30 -93.5 86t-32.5 123t22.5 123t71 96.5t126 63.5t188.5 23z" />
    <glyph glyph-name="zeta" unicode="&#x3b6;" horiz-adv-x="877" 
d="M97 1237v229h737q31 0 54 -10.5t39 -27.5t24 -39.5t8 -46.5q0 -28 -12 -55.5t-38 -47.5q-57 -47 -122 -109.5t-129 -135t-123 -152t-104 -161t-72 -162t-27 -154.5q0 -68 36.5 -102t118.5 -34q89 0 159 -14.5t118 -46.5t73.5 -83.5t25.5 -125.5q0 -91 -38.5 -188
t-110.5 -178h-297q36 31 69.5 72t59 85t41 87t15.5 79q0 22 -5.5 37.5t-20 26t-39.5 15.5t-64 5q-110 0 -188 21.5t-127 65t-71.5 108.5t-22.5 151q0 78 21.5 158.5t58.5 161t86 159t104.5 151.5t113.5 139t113 122h-464z" />
    <glyph glyph-name="eta" unicode="&#x3b7;" 
d="M384 1062v-62q53 44 114.5 64t130.5 20q88 0 156 -25t114.5 -72t70 -115.5t23.5 -156.5v-1122h-265v1094q0 41 -6.5 73t-23 54.5t-45 34t-72.5 11.5q-68 0 -114 -22.5t-67 -48.5v-789h-265v1062h249z" />
    <glyph glyph-name="theta" unicode="&#x3b8;" horiz-adv-x="1147" 
d="M100 721q0 92 6.5 185t24.5 178.5t51 159t85.5 128t127.5 85.5t178 31t178.5 -31.5t128 -86t85.5 -128t51 -159t24.5 -178t6.5 -184.5t-6.5 -183t-24.5 -173.5t-51 -153t-85.5 -122.5t-128 -81.5t-178.5 -29.5t-178 29.5t-127.5 81t-85.5 122t-51 153t-24.5 173.5
t-6.5 184zM572 1263q-62 0 -99.5 -32t-58.5 -89t-28.5 -135t-8.5 -169h393q-2 91 -10 169t-29.5 135t-59.5 89t-99 32zM573 202q61 0 99 29.5t59 83t29 128.5t10 166h-393q2 -91 9.5 -166t28.5 -128.5t58.5 -83t99.5 -29.5z" />
    <glyph glyph-name="iota" unicode="&#x3b9;" horiz-adv-x="535" 
d="M135 0v1062h265v-1062h-265z" />
    <glyph glyph-name="kappa" unicode="&#x3ba;" horiz-adv-x="1066" 
d="M400 0h-265v1062h265v-375q53 13 96.5 48.5t79 85.5t64 112t50.5 129h283q-18 -63 -46.5 -128t-65.5 -126.5t-82 -117t-97 -101.5q115 -113 204 -259.5t140 -329.5h-275q-56 155 -128.5 267t-166.5 196q-14 -4 -28 -6.5t-28 -4.5v-452z" />
    <glyph glyph-name="lambda" unicode="&#x3bb;" horiz-adv-x="1024" 
d="M469 1466q65 -147 108 -268.5t77 -231t66 -214t75 -218.5t104.5 -244t154.5 -290h-290q-50 80 -91 169t-75 178.5t-59.5 175t-43.5 157.5q-28 -81 -56 -171.5t-51 -180.5t-39.5 -174.5t-21.5 -153.5h-267q3 60 17.5 135.5t37.5 161t53 176.5t64 180.5t70.5 175
t72.5 159.5q-39 118 -86 236t-112 242h292z" />
    <glyph glyph-name="uni03BC" unicode="&#x3bc;" 
d="M744 0v62q-53 -44 -114.5 -64t-130.5 -20q-32 0 -63.5 5t-54.5 15v-405h-246v1469h265v-687q0 -41 6.5 -73t23 -54.5t45 -34t72.5 -11.5q68 0 114 22.5t67 48.5v789h265v-1062h-249z" />
    <glyph glyph-name="nu" unicode="&#x3bd;" horiz-adv-x="1034" 
d="M280 1062q23 -36 49 -83.5t52 -102t51.5 -115t47.5 -122.5t40.5 -124.5t30.5 -120.5q30 77 58 167t50.5 180t38 173t19.5 148h267q-3 -65 -20 -149t-43.5 -178t-61 -193.5t-72.5 -195.5t-78 -185t-77 -161h-247q-4 70 -23.5 157t-49.5 182t-69 194t-81.5 193.5
t-86.5 180.5t-85 155h290z" />
    <glyph glyph-name="xi" unicode="&#x3be;" horiz-adv-x="791" 
d="M472 229q89 0 159 -14.5t118 -46.5t73.5 -83.5t25.5 -125.5q0 -91 -38.5 -188t-110.5 -178h-297q36 31 69.5 72t59 85t41 87t15.5 79q0 22 -5.5 37.5t-20 26t-39.5 15.5t-64 5q-92 0 -158 14.5t-111 39.5t-72 60t-41.5 75t-19 84.5t-4.5 89.5q0 61 16 127.5t49.5 131
t84 122t119.5 101.5q-60 19 -101 51t-66 70.5t-35.5 79t-10.5 78.5q0 83 32 146.5t84 107t116.5 66t129.5 22.5h237v-221h-213q-26 0 -48 -9.5t-38 -26t-25 -38.5t-9 -47q0 -51 35 -81t88 -30h210v-229q-43 0 -88.5 -14.5t-89 -41.5t-82 -65t-67.5 -84.5t-46 -100.5
t-17 -113q0 -28 6.5 -52.5t24 -43t47.5 -29.5t77 -11z" />
    <glyph glyph-name="omicron" unicode="&#x3bf;" horiz-adv-x="1137" 
d="M80 531q0 114 26 215t84.5 176t151.5 118.5t227 43.5q133 0 226 -43.5t151 -118.5t84.5 -176t26.5 -215t-26.5 -215t-84.5 -176t-151 -118.5t-226 -43.5q-134 0 -227 43.5t-151.5 118.5t-84.5 176t-26 215zM351 531q0 -76 12.5 -135.5t38.5 -100t67.5 -62t99.5 -21.5
t99.5 21.5t67.5 62t38.5 100t12.5 135.5t-12.5 135t-38.5 100t-67.5 62.5t-99.5 21.5t-99.5 -21.5t-67.5 -62.5t-38.5 -100t-12.5 -135z" />
    <glyph glyph-name="pi" unicode="&#x3c0;" horiz-adv-x="1206" 
d="M1166 0h-135q-67 0 -123.5 17t-98 56.5t-65 106t-23.5 165.5v488h-283v-833h-265v833h-163v229h1126v-229h-150v-476q0 -39 2.5 -65.5t11.5 -42t26 -22.5t46 -7h94v-220z" />
    <glyph glyph-name="rho" unicode="&#x3c1;" horiz-adv-x="1143" 
d="M135 -407v1023q0 99 29 184.5t87 148.5t143.5 99t198.5 36q57 0 115 -11.5t111.5 -37.5t99.5 -68t80.5 -103.5t54 -144t19.5 -188.5q0 -105 -19.5 -187t-54 -143t-80.5 -104t-98.5 -69t-110 -38t-113.5 -12q-55 0 -104 10t-93 27v-422h-265zM400 269q37 -30 79 -43.5
t101 -13.5q46 0 86.5 14.5t71 51t48 98t17.5 155.5q0 89 -16.5 150t-45.5 98.5t-68 54t-83 16.5q-38 0 -72.5 -14t-60.5 -44t-41.5 -77.5t-15.5 -113.5v-332z" />
    <glyph glyph-name="sigma1" unicode="&#x3c2;" horiz-adv-x="975" 
d="M573 229q89 0 159 -14.5t118 -46.5t73.5 -83.5t25.5 -125.5q0 -91 -38.5 -188t-110.5 -178h-297q36 31 69.5 72t59 85t41 87t15.5 79q0 22 -5.5 37.5t-20 26t-39.5 15.5t-64 5q-108 0 -196.5 30t-151 94t-97 165t-34.5 242q0 128 31 230.5t94.5 174t160.5 110t230 38.5
q36 0 71 -2t70 -6t72.5 -9.5t78.5 -12.5v-239q-78 20 -152 32.5t-140 12.5q-119 0 -182.5 -78.5t-63.5 -250.5q0 -94 19 -153t50.5 -92t71.5 -45t82 -12z" />
    <glyph glyph-name="sigma" unicode="&#x3c3;" horiz-adv-x="1136" 
d="M785 525q0 115 -24 191t-79 117h-129q-47 0 -84.5 -17.5t-64 -54.5t-41 -94.5t-14.5 -136.5q0 -161 55.5 -244.5t164.5 -83.5t162.5 82.5t53.5 240.5zM982 833q33 -60 54 -137.5t21 -165.5q0 -140 -35 -244t-99.5 -172.5t-154.5 -102t-199 -33.5q-110 0 -200 33.5
t-154 102t-99.5 172.5t-35.5 245q0 100 19 178t52 137t77.5 100.5t95.5 67t106.5 37t109.5 11.5h517v-229h-75z" />
    <glyph glyph-name="tau" unicode="&#x3c4;" horiz-adv-x="833" 
d="M276 833h-272v229h810v-229h-273v-498q0 -69 21 -93.5t65 -24.5h129v-217h-175q-67 0 -123 13.5t-96.5 49t-63 98.5t-22.5 162v510z" />
    <glyph glyph-name="upsilon" unicode="&#x3c5;" horiz-adv-x="1102" 
d="M563 -22q-97 0 -176 27t-135 78.5t-86.5 126t-30.5 169.5v683h265v-691q0 -79 41.5 -124t121.5 -45q49 0 84.5 18t58.5 57.5t34 102t11 151.5q0 37 -5.5 98t-17.5 133.5t-30 150.5t-42 149h281q24 -73 40.5 -148.5t26 -146t14 -131.5t4.5 -105q0 -156 -36 -262
t-98.5 -170.5t-146 -92.5t-178.5 -28z" />
    <glyph glyph-name="phi" unicode="&#x3c6;" horiz-adv-x="1469" 
d="M861 1084q114 0 210.5 -38t167 -109.5t110.5 -173t40 -228.5t-36 -221t-103.5 -159.5t-164.5 -104t-218 -54.5v-403h-265v403q-266 38 -394 171t-128 368q0 123 35 218t98 163t150.5 109.5t191.5 58.5v-233q-53 -15 -91 -46.5t-63.5 -74.5t-37.5 -93t-12 -102
q0 -60 14 -113t44.5 -94t78 -68t114.5 -35v583q0 69 14 120.5t45 86t80.5 52t119.5 17.5zM867 224q57 7 103.5 31.5t79.5 64t51 93.5t18 122q0 60 -14.5 113t-42 94t-67 68.5t-90.5 37.5h-5q-10 0 -22 -9.5t-11 -31.5v-583z" />
    <glyph glyph-name="chi" unicode="&#x3c7;" horiz-adv-x="1127" 
d="M324 1062q74 -115 134 -230t108 -238q38 58 74 118.5t65.5 120.5t51 118t31.5 111h272q-14 -86 -52 -178t-90 -184.5t-113 -181.5t-119 -168q36 -80 78 -167t95 -181.5t119 -196.5t149 -212h-315q-44 58 -85 123.5t-79 134t-72 138.5t-63 136q-40 -63 -79.5 -133
t-72.5 -140t-57 -136.5t-33 -122.5h-271q8 56 30 122t52.5 135.5t68.5 140.5t78.5 139t81.5 130t78 113l-21 46q-35 77 -71 154t-77.5 156t-90 161.5t-109.5 171.5h304z" />
    <glyph glyph-name="psi" unicode="&#x3c8;" horiz-adv-x="1562" 
d="M922 -407h-265v401q-129 16 -226.5 66.5t-163.5 123t-99 162t-33 183.5v533h265v-533q0 -44 14 -93t45 -92.5t80 -76t118 -44.5v839h265v-839q59 6 110 31t88.5 65t59 94t21.5 118q0 70 -7 136t-20.5 131t-33.5 130t-45 134h282q51 -147 73 -278.5t22 -252.5
q0 -127 -47.5 -221.5t-125.5 -160t-176.5 -103.5t-200.5 -52v-401z" />
    <glyph glyph-name="omega" unicode="&#x3c9;" horiz-adv-x="1544" 
d="M905 438q0 -128 36 -182.5t108 -54.5q73 0 116 74.5t43 206.5q0 51 -7 110.5t-25 130.5t-50.5 155t-83.5 184h263q88 -159 129.5 -299.5t41.5 -276.5q0 -120 -29.5 -214t-84 -159.5t-133 -100t-177.5 -34.5q-57 0 -99.5 12t-75 32t-57.5 46.5t-48 56.5q-23 -30 -48 -56.5
t-57.5 -46.5t-75 -32t-99.5 -12q-99 0 -177.5 34.5t-133 100t-83 159.5t-28.5 214q0 136 41.5 276.5t129.5 299.5h263q-51 -100 -83.5 -184t-50.5 -155t-25 -130t-7 -110q0 -132 42 -207t115 -75t109 54.5t36 182.5v196h265v-196z" />
    <glyph glyph-name="iotadieresis" unicode="&#x3ca;" horiz-adv-x="535" 
d="M-67 1189v277h274v-277h-274zM321 1189v277h274v-277h-274zM135 0v1062h265v-1062h-265z" />
    <glyph glyph-name="upsilondieresis" unicode="&#x3cb;" horiz-adv-x="1112" 
d="M563 -22q-97 0 -176 27t-135 78.5t-86.5 126t-30.5 169.5v683h265v-691q0 -79 41.5 -124t121.5 -45q49 0 84.5 18t58.5 57.5t34 102t11 151.5q0 37 -5.5 98t-17.5 133.5t-30 150.5t-42 149h281q24 -73 40.5 -148.5t26 -146t14 -131.5t4.5 -105q0 -156 -36 -262
t-98.5 -170.5t-146 -92.5t-178.5 -28zM202 1216v277h274v-277h-274zM590 1216v277h274v-277h-274z" />
    <glyph glyph-name="omicrontonos" unicode="&#x3cc;" horiz-adv-x="1137" 
d="M80 531q0 114 26 215t84.5 176t151.5 118.5t227 43.5q133 0 226 -43.5t151 -118.5t84.5 -176t26.5 -215t-26.5 -215t-84.5 -176t-151 -118.5t-226 -43.5q-134 0 -227 43.5t-151.5 118.5t-84.5 176t-26 215zM351 531q0 -76 12.5 -135.5t38.5 -100t67.5 -62t99.5 -21.5
t99.5 21.5t67.5 62t38.5 100t12.5 135.5t-12.5 135t-38.5 100t-67.5 62.5t-99.5 21.5t-99.5 -21.5t-67.5 -62.5t-38.5 -100t-12.5 -135zM531 1555h332l-265 -398h-295z" />
    <glyph glyph-name="upsilontonos" unicode="&#x3cd;" horiz-adv-x="1112" 
d="M563 -22q-97 0 -176 27t-135 78.5t-86.5 126t-30.5 169.5v683h265v-691q0 -79 41.5 -124t121.5 -45q49 0 84.5 18t58.5 57.5t34 102t11 151.5q0 37 -5.5 98t-17.5 133.5t-30 150.5t-42 149h281q24 -73 40.5 -148.5t26 -146t14 -131.5t4.5 -105q0 -156 -36 -262
t-98.5 -170.5t-146 -92.5t-178.5 -28zM564 1560h332l-265 -398h-295z" />
    <glyph glyph-name="omegatonos" unicode="&#x3ce;" horiz-adv-x="1544" 
d="M905 438q0 -128 36 -182.5t108 -54.5q73 0 116 74.5t43 206.5q0 51 -7 110.5t-25 130.5t-50.5 155t-83.5 184h263q88 -159 129.5 -299.5t41.5 -276.5q0 -120 -29.5 -214t-84 -159.5t-133 -100t-177.5 -34.5q-57 0 -99.5 12t-75 32t-57.5 46.5t-48 56.5q-23 -30 -48 -56.5
t-57.5 -46.5t-75 -32t-99.5 -12q-99 0 -177.5 34.5t-133 100t-83 159.5t-28.5 214q0 136 41.5 276.5t129.5 299.5h263q-51 -100 -83.5 -184t-50.5 -155t-25 -130t-7 -110q0 -132 42 -207t115 -75t109 54.5t36 182.5v196h265v-196zM808 1566h332l-265 -398h-295z" />
    <glyph glyph-name="theta1" unicode="&#x3d1;" horiz-adv-x="1138" 
d="M534 1265q-63 0 -100 -31t-56.5 -81t-25.5 -112.5t-6 -126.5q0 -71 19.5 -119t49.5 -77.5t66 -42t70 -12.5h184v51q0 136 -7.5 239t-29.5 172.5t-61.5 104.5t-102.5 35zM722 439h-171q-123 0 -212 38.5t-146.5 103t-85 149.5t-27.5 178q0 115 23 220t76.5 185t140 127.5
t214.5 47.5q127 0 217 -50.5t147.5 -149t84 -242.5t26.5 -331v-26.5t-1 -25.5h110v-224h-126q-16 -110 -51 -195.5t-91.5 -144.5t-135 -90t-180.5 -31q-82 0 -138.5 14t-96 35.5t-65.5 46.5t-46 47t-38 37.5t-41 17.5v278q56 -17 93 -42.5t64 -53.5t49 -56.5t49 -51
t63 -36.5t91 -14q58 0 94.5 16t58 46.5t32.5 75t19 101.5z" />
    <glyph glyph-name="Upsilon1" unicode="&#x3d2;" horiz-adv-x="1338" 
d="M525 634q0 56 -20.5 122t-56.5 137.5t-85.5 146t-108 148.5t-123 144.5t-131.5 133.5h354q39 -41 83.5 -94t88 -113t81.5 -125t62 -130q24 65 62 130t81 125t88 113t84 94h354q-67 -63 -131.5 -133.5t-123 -144.5t-108 -148.5t-85.5 -146t-56.5 -137.5t-20.5 -122v-634
h-288v634z" />
    <glyph glyph-name="uni03F0" unicode="&#x3f0;" horiz-adv-x="1232" 
d="M1013 -22q-65 0 -116.5 17.5t-87.5 58.5t-55.5 109t-19.5 169v221q-87 -72 -172.5 -150t-162.5 -157t-143.5 -160.5t-115.5 -151.5v351q19 25 42 52t49 56v337q0 69 -11.5 101.5t-46.5 32.5q-18 0 -44.5 -4t-68.5 -23v223q39 14 83 19t76 5q65 0 116.5 -17.5t87.5 -58.5
t55.5 -109t19.5 -169v-78q71 63 147.5 125.5t154.5 122.5t156 115.5t152 102.5v-289l-107 -71v-426q0 -69 11.5 -101.5t46.5 -32.5q18 0 44.5 5t68.5 22v-223q-39 -14 -83 -19t-76 -5z" />
    <glyph glyph-name="rotailed" unicode="&#x3f1;" horiz-adv-x="1154" 
d="M135 616q0 99 29 184.5t87 148.5t143.5 99t198.5 36q57 0 115 -10.5t111.5 -35.5t99.5 -66t80.5 -101.5t54 -142t19.5 -187.5q0 -105 -19.5 -187.5t-54 -145t-80.5 -106.5t-98.5 -71.5t-110 -40t-113.5 -12.5q-54 0 -107 13t-90 36q0 -69 20.5 -112.5t55 -69t81 -35
t98.5 -9.5q22 0 51 2t61.5 7t67.5 14t70 23v-236q-70 -19 -140 -28.5t-121 -9.5q-114 0 -208 33.5t-161 97t-103.5 156.5t-36.5 212v544zM400 273q30 -33 75.5 -52t104.5 -19q46 0 86.5 18t71 58t48 104.5t17.5 158.5q0 91 -17.5 152.5t-48 98.5t-71 52.5t-86.5 15.5
q-36 0 -69 -16.5t-57.5 -49t-39 -81t-14.5 -112.5v-328z" />
    <glyph glyph-name="afii10023" unicode="&#x401;" horiz-adv-x="1295" 
d="M150 0v1466h1024v-261h-739v-308h652v-259h-652v-373h760v-265h-1045zM362 1615v277h274v-277h-274zM750 1615v277h274v-277h-274z" />
    <glyph glyph-name="afii10051" unicode="&#x402;" horiz-adv-x="1565" 
d="M443 0v1205h-433v261h1152v-261h-434v-301q35 9 73 16q86 16 174 16q111 0 209 -31t171.5 -90.5t116.5 -146t43 -198.5q0 -104 -39.5 -190t-118.5 -148.5t-197.5 -97t-275.5 -34.5v265q91 0 154.5 14.5t103.5 42t57.5 66.5t17.5 88q0 51 -19.5 89t-53 62.5t-80 37
t-100.5 12.5q-70 0 -151 -20q-42 -10 -85 -26v-631h-285z" />
    <glyph glyph-name="afii10052" unicode="&#x403;" horiz-adv-x="1091" 
d="M146 1466h950v-261h-665v-1205h-285v1466zM598 1950h332l-265 -398h-295z" />
    <glyph glyph-name="afii10053" unicode="&#x404;" horiz-adv-x="1193" 
d="M1035 634h-631q9 -106 38.5 -181.5t79.5 -123.5t119.5 -70.5t158.5 -22.5q72 0 172.5 12.5t221.5 44.5v-273q-77 -18 -172 -30t-222 -12q-180 0 -312 49.5t-217.5 145t-127 236.5t-41.5 324q0 169 42 308t129 238.5t222 154t321 54.5q113 0 200 -13t159 -29v-277
q-52 15 -98 26.5t-91 19t-91.5 11.5t-100.5 4q-163 0 -257.5 -80.5t-123.5 -252.5h622v-263z" />
    <glyph glyph-name="afii10054" unicode="&#x405;" horiz-adv-x="1225" 
d="M100 1053q0 117 47 199.5t126.5 135t184 76.5t219.5 24q114 0 209 -12t168 -27v-280q-53 13 -101.5 24t-96.5 19t-97.5 12t-103.5 4q-56 0 -102 -10.5t-79 -31t-51 -50t-18 -68.5q0 -52 32 -84t85 -54.5t120.5 -39.5t137.5 -39t137.5 -53t120.5 -81t85 -123.5t32 -180.5
q0 -106 -40.5 -187t-113.5 -135.5t-175 -82.5t-226 -28q-61 0 -128.5 6t-132 16.5t-121 24t-95.5 27.5v281q50 -19 106.5 -36.5t117.5 -31t124.5 -21.5t128.5 -8q118 0 183.5 43.5t65.5 131.5q0 60 -32 98t-85 63t-120 43t-137.5 38.5t-137.5 48t-120 72t-85 111.5t-32 166z
" />
    <glyph glyph-name="afii10055" unicode="&#x406;" horiz-adv-x="527" 
d="M191 0v1466h285v-1466h-285z" />
    <glyph glyph-name="afii10056" unicode="&#x407;" horiz-adv-x="585" 
d="M150 0v1466h285v-1466h-285zM-31 1603v277h274v-277h-274zM357 1603v277h274v-277h-274z" />
    <glyph glyph-name="afii10057" unicode="&#x408;" horiz-adv-x="527" 
d="M-150 -84q30 -3 57 -3q63 0 115.5 18t90 59t58 109t20.5 168v1199h285v-1216q0 -142 -40 -254t-112.5 -190t-173.5 -119.5t-223 -41.5q-19 0 -38 1t-39 3v267z" />
    <glyph glyph-name="afii10058" unicode="&#x409;" horiz-adv-x="2238" 
d="M1575 677q-86 0 -199 -32v266q54 12 108 18.5t102 6.5q111 0 209 -31t171.5 -90.5t116.5 -146t43 -198.5q0 -104 -36 -190t-108 -148.5t-180 -97t-251 -34.5h-540v1205h-348q-7 -246 -31.5 -432t-64 -322.5t-92.5 -227t-117 -144.5t-138 -76.5t-154 -22.5v270q44 2 84 26
t75 79t64 145t49.5 224.5t31.5 317.5t11 424h915v-1201h269q71 0 121 14.5t81.5 42t46 66.5t14.5 88q0 51 -19.5 89t-53 62.5t-80 37t-100.5 12.5z" />
    <glyph glyph-name="afii10059" unicode="&#x40a;" horiz-adv-x="2248" 
d="M1609 677q-86 0 -199 -32v266q54 12 108 18.5t102 6.5q111 0 209 -31t171.5 -90.5t116.5 -146t43 -198.5q0 -104 -36 -190t-108 -148.5t-180 -97t-251 -34.5h-540v634h-569v-634h-285v1466h285v-569h569v569h285v-1201h269q71 0 121 14.5t81.5 42t46 66.5t14.5 88
q0 51 -19.5 89t-53 62.5t-80 37t-100.5 12.5z" />
    <glyph glyph-name="afii10060" unicode="&#x40b;" horiz-adv-x="1704" 
d="M1203 1466v-261h-434v-263q43 15 79.5 27t71 20t70 12t76.5 4q137 0 230.5 -34t150.5 -98t82 -156.5t25 -208.5v-508h-285v494q0 64 -10.5 111t-36 77.5t-67.5 45.5t-105 15q-40 0 -73 -3.5t-65 -10.5t-66.5 -19t-76.5 -28v-682h-285v1205h-433v261h1152z" />
    <glyph glyph-name="afii10061" unicode="&#x40c;" horiz-adv-x="1328" 
d="M150 0v1466h285v-565q54 10 125.5 46.5t144.5 105t139 170.5t110 243h297q-35 -117 -84.5 -216.5t-108.5 -183t-125 -150t-134 -117.5q57 -60 113 -125.5t107.5 -134.5t97.5 -139.5t82.5 -139.5t62 -134.5t36.5 -125.5h-296q-18 66 -60 147t-102 168t-134.5 176
t-158.5 171q-30 -11 -58 -17t-54 -9v-636h-285zM664 1950h332l-265 -398h-295z" />
    <glyph glyph-name="afii10062" unicode="&#x40e;" horiz-adv-x="1295" 
d="M1266 1466q-14 -90 -55.5 -209t-100.5 -252.5t-130.5 -274t-145.5 -273t-144.5 -251t-127.5 -206.5h-323q62 94 136 215t152 256q-83 126 -163 258t-145.5 261t-111.5 250t-61 226h284q10 -69 41.5 -153.5t77.5 -178.5t104.5 -194.5t122.5 -201.5q58 108 110 213.5
t93.5 200.5t69 175t36.5 139h281zM675 1753q26 0 49.5 6t43 23.5t33.5 48t22 79.5h206q-9 -75 -38 -136t-75 -103.5t-107.5 -66t-135.5 -23.5q-72 0 -132.5 23.5t-106 66t-75 103.5t-38.5 136h206q8 -49 22.5 -79.5t34 -48t42.5 -23.5t49 -6z" />
    <glyph glyph-name="afii10145" unicode="&#x40f;" horiz-adv-x="1444" 
d="M457 1466v-1205h541v1205h286v-1466h-418v-216h-285v216h-409v1466h285z" />
    <glyph glyph-name="afii10017" unicode="&#x410;" horiz-adv-x="1473" 
d="M1185 0q-13 59 -32 132t-43 154t-53 169t-62 183h-434q2 6 9.5 24.5t17.5 46.5t21.5 59.5t21.5 59t17.5 47t9.5 22.5h239q-32 80 -64.5 157t-66.5 151h-60q-45 -100 -89.5 -208t-86 -217.5t-79 -218t-69 -209t-55.5 -190.5t-39 -162h-288q22 104 56 228t77 256.5
t92.5 268t101.5 264t104.5 243.5t101.5 206h407q49 -91 102 -206.5t105 -243.5t101.5 -264t92 -268.5t76.5 -256.5t56 -227h-288z" />
    <glyph glyph-name="afii10018" unicode="&#x411;" horiz-adv-x="1348" 
d="M733 677q-86 0 -199 -32v266q54 12 108 18.5t102 6.5q111 0 209 -31t171.5 -90.5t116.5 -146t43 -198.5q0 -104 -36 -190t-108 -148.5t-180 -97t-251 -34.5h-540v1466h1084v-262h-799v-939h269q71 0 121 14.5t81.5 42t46 66.5t14.5 88q0 51 -19.5 89t-53 62.5t-80 37
t-100.5 12.5z" />
    <glyph glyph-name="afii10019" unicode="&#x412;" horiz-adv-x="1359" 
d="M150 1466q142 0 285.5 11t285.5 11q126 0 221.5 -29t160 -83t97.5 -131t33 -173q0 -43 -9.5 -86t-29 -81.5t-50.5 -70t-73 -50.5q51 -16 91.5 -48.5t68.5 -77.5t43 -100.5t15 -116.5q0 -112 -42.5 -195t-118 -137.5t-178.5 -81.5t-224 -27h-576v1466zM515 897h211
q101 0 158.5 39.5t57.5 114.5q0 49 -15.5 85t-44.5 57t-69.5 30t-90.5 9q-107 0 -176.5 -7t-110.5 -5v-959h291q130 0 201 43.5t71 136.5q0 56 -18 95t-52.5 61.5t-85.5 31.5t-116 9h-211v259z" />
    <glyph glyph-name="afii10020" unicode="&#x413;" horiz-adv-x="1110" 
d="M150 1466h950v-261h-665v-1205h-285v1466z" />
    <glyph glyph-name="afii10021" unicode="&#x414;" horiz-adv-x="1496" 
d="M1298 1466v-1201h160v-481h-285v216h-859v-216h-285v481h155q46 52 83 149t63 244.5t39.5 348t13.5 459.5h915zM1013 1205h-349q-10 -324 -47.5 -556.5t-108.5 -383.5h505v940z" />
    <glyph glyph-name="afii10022" unicode="&#x415;" horiz-adv-x="1295" 
d="M150 0v1466h1024v-261h-739v-308h652v-259h-652v-373h760v-265h-1045z" />
    <glyph glyph-name="afii10024" unicode="&#x416;" horiz-adv-x="2001" 
d="M845 0v642q-8 1 -23.5 4t-24.5 5q-86 -74 -156.5 -159.5t-125 -172.5t-92.5 -169.5t-58 -149.5h-291q15 84 57.5 184.5t105.5 205t143.5 206t170.5 185.5q-61 49 -120.5 116t-114 152.5t-103 189.5t-88.5 227h288q55 -141 111 -241.5t111 -167.5t108 -104t102 -50v563
h285v-563q49 13 102 50t108 104t111 167.5t111 241.5h288q-40 -123 -88.5 -227t-103 -189.5t-114 -152.5t-120.5 -116q90 -84 170.5 -185.5t143.5 -206t105.5 -205t57.5 -184.5h-291q-20 67 -58 149.5t-92.5 169.5t-125.5 172.5t-156 159.5q-9 -2 -24.5 -5t-23.5 -4v-642
h-285z" />
    <glyph glyph-name="afii10025" unicode="&#x417;" horiz-adv-x="1203" 
d="M528 1230q-108 0 -210.5 -26.5t-206.5 -66.5v282q37 13 84.5 25.5t101.5 22.5t113 15.5t118 5.5q124 0 224.5 -27t171 -81t108.5 -133.5t38 -184.5q0 -88 -38 -160.5t-124 -117.5q62 -23 103.5 -61t67 -85t36.5 -100t11 -106q0 -112 -47 -197t-127 -142t-187 -86
t-228 -29q-66 0 -136 9.5t-135.5 24.5t-121 35t-93.5 41v286q52 -26 110.5 -50t121 -42t127 -29t127.5 -11q66 0 120.5 11.5t94 34.5t61.5 58t22 83q0 55 -20.5 94t-59 64t-93.5 36t-125 11h-260v263h260q119 0 182 36.5t63 123.5q0 49 -20.5 82t-55 53t-80.5 29t-98 9z" />
    <glyph glyph-name="afii10026" unicode="&#x418;" horiz-adv-x="1470" 
d="M1035 0v1058q-45 -52 -97.5 -120t-108 -148.5t-111.5 -172.5t-109 -192t-100 -207t-84 -218h-269v1466h285v-838q11 43 28 81t33 64q71 116 150 226t155.5 203t144 162t115.5 102h253v-1466h-285z" />
    <glyph glyph-name="afii10027" unicode="&#x419;" horiz-adv-x="1470" 
d="M740.332 1695.48q20.8955 0 39.7812 4.81543q18.8857 4.81445 34.5566 18.8564q15.6709 14.043 26.9219 38.5166q11.251 24.4746 17.6807 63.793h165.552q-7.23242 -60.1816 -30.5391 -109.13q-23.3057 -48.9482 -60.2734 -83.0518q-36.9678 -34.1025 -86.3926 -52.96
q-49.4238 -18.8574 -108.895 -18.8574q-57.8623 0 -106.483 18.8574t-85.1865 52.96q-36.5664 34.1035 -60.2744 83.0518q-23.707 48.9482 -30.9404 109.13h165.552q6.42969 -39.3184 18.083 -63.793q11.6523 -24.4736 27.3232 -38.5166q15.6719 -14.042 34.1553 -18.8564
q18.4844 -4.81543 39.3789 -4.81543zM1035 0v1058q-45 -52 -97.5 -120t-108 -148.5t-111.5 -172.5t-109 -192t-100 -207t-84 -218h-269v1466h285v-838q11 43 28 81t33 64q71 116 150 226t155.5 203t144 162t115.5 102h253v-1466h-285z" />
    <glyph glyph-name="afii10028" unicode="&#x41a;" horiz-adv-x="1328" 
d="M150 0v1466h285v-565q54 10 125.5 46.5t144.5 105t139 170.5t110 243h297q-35 -117 -84.5 -216.5t-108.5 -183t-125 -150t-134 -117.5q57 -60 113 -125.5t107.5 -134.5t97.5 -139.5t82.5 -139.5t62 -134.5t36.5 -125.5h-296q-18 66 -60 147t-102 168t-134.5 176
t-158.5 171q-30 -11 -58 -17t-54 -9v-636h-285z" />
    <glyph glyph-name="afii10029" unicode="&#x41b;" horiz-adv-x="1392" 
d="M1236 1466v-1466h-285v1205h-348q-7 -246 -31.5 -432t-64 -322.5t-92.5 -227t-117 -144.5t-138 -76.5t-154 -22.5v270q44 2 84 26t75 79t64 145t49.5 224.5t31.5 317.5t11 424h915z" />
    <glyph glyph-name="afii10030" unicode="&#x41c;" horiz-adv-x="1759" 
d="M1324 0v1058q-50 -65 -93 -134t-83 -147.5t-78.5 -170t-80.5 -202.5h-219q-42 109 -81 200t-79 169.5t-83 148t-92 134.5v-1056h-285v1466h253q50 -38 110 -104.5t123 -154.5t125.5 -194.5t118.5 -224.5q55 118 117.5 224.5t125.5 194.5t123 154.5t110 104.5h253v-1466
h-285z" />
    <glyph glyph-name="afii10031" unicode="&#x41d;" horiz-adv-x="1439" 
d="M1004 1466h285v-1466h-285v638h-569v-638h-285v1466h285v-569h569v569z" />
    <glyph glyph-name="afii10032" unicode="&#x41e;" horiz-adv-x="1473" 
d="M80 733q0 104 15 200.5t47.5 180.5t84 153t124.5 118t168.5 76t216.5 27t216.5 -27t168.5 -76t125 -118t84.5 -153t47.5 -180.5t15 -200.5t-15 -200.5t-47.5 -180.5t-84.5 -153t-125 -118t-168.5 -76t-216.5 -27t-216.5 27t-168.5 76t-124.5 118t-84 153t-47.5 180.5
t-15 200.5zM370 733q0 -123 21 -217.5t65 -158.5t113.5 -97t166.5 -33t166.5 33t114 97t65 158.5t20.5 217.5t-20.5 217.5t-65 158.5t-114 97t-166.5 33t-166.5 -33t-113.5 -97t-65 -158.5t-21 -217.5z" />
    <glyph glyph-name="afii10033" unicode="&#x41f;" horiz-adv-x="1414" 
d="M148 0v1466h1112v-1466h-286v1205h-541v-1205h-285z" />
    <glyph glyph-name="afii10034" unicode="&#x420;" horiz-adv-x="1315" 
d="M515 862q27 -11 55 -17.5t54 -11t49 -6t41 -1.5q58 0 105 11t80 35.5t51 64t18 95.5q0 43 -11.5 79t-41.5 62t-81 40.5t-130 14.5q-43 0 -83 -2t-75 -5t-63.5 -5t-47.5 -2v-1214h-285v1466q90 0 167.5 3.5t144 7.5t123 7.5t105.5 3.5q151 0 259.5 -31t178.5 -89.5
t103.5 -141.5t33.5 -188q0 -118 -41.5 -206.5t-114 -147t-171.5 -88t-213 -29.5q-20 0 -46 1.5t-54.5 5t-56.5 9.5t-53 14v265z" />
    <glyph glyph-name="afii10035" unicode="&#x421;" horiz-adv-x="1261" 
d="M365 733q0 -134 26 -228t76.5 -153t125.5 -86.5t174 -27.5q85 0 180 11.5t214 43.5v-273q-77 -19 -171.5 -30.5t-222.5 -11.5q-180 0 -311.5 49.5t-217 145.5t-127 236.5t-41.5 323.5q0 165 40.5 304t125 239t215 156t311.5 56q120 0 221 -11t178 -28v-280
q-52 15 -100.5 26t-97 18.5t-98 11t-103.5 3.5q-197 0 -297 -119.5t-100 -375.5z" />
    <glyph glyph-name="afii10036" unicode="&#x422;" horiz-adv-x="1172" 
d="M443 0v1205h-433v261h1152v-261h-434v-1205h-285z" />
    <glyph glyph-name="afii10037" unicode="&#x423;" horiz-adv-x="1295" 
d="M1266 1466q-14 -90 -55.5 -209t-100.5 -252.5t-130.5 -274t-145.5 -273t-144.5 -251t-127.5 -206.5h-323q62 94 136 215t152 256q-83 126 -163 258t-145.5 261t-111.5 250t-61 226h284q10 -69 41.5 -153.5t77.5 -178.5t104.5 -194.5t122.5 -201.5q58 108 110 213.5
t93.5 200.5t69 175t36.5 139h281z" />
    <glyph glyph-name="afii10038" unicode="&#x424;" horiz-adv-x="1848" 
d="M773 150q-316 7 -480.5 154t-164.5 430q0 141 41 251t122 187t201.5 118.5t280.5 45.5v130h285v-130q159 -3 279 -45t200.5 -119t121 -187t40.5 -251q0 -284 -161.5 -430.5t-479.5 -153.5v-150h-285v150zM1409 734q0 76 -16 138.5t-55.5 107.5t-107.5 71.5t-172 29.5
v-676q104 3 172 26.5t107.5 66t55.5 102t16 134.5zM422 734q0 -75 15.5 -134.5t55.5 -102t107.5 -66t172.5 -26.5v676q-105 -3 -172.5 -29.5t-107.5 -72t-55.5 -108t-15.5 -137.5z" />
    <glyph glyph-name="afii10039" unicode="&#x425;" horiz-adv-x="1309" 
d="M1285 1466q-46 -110 -99.5 -207t-111.5 -185t-119 -169t-123 -158q67 -82 133 -167.5t127.5 -177.5t116.5 -191.5t100 -210.5h-310q-63 144 -153 273t-192 265q-102 -136 -191.5 -265t-153.5 -273h-309q44 111 98.5 210.5t116 191.5t127.5 177.5t133 167.5
q-62 77 -123 158t-119 169t-111 185t-99 207h311q57 -135 140 -257.5t180 -253.5q97 131 180 253.5t141 257.5h310z" />
    <glyph glyph-name="afii10040" unicode="&#x426;" horiz-adv-x="1454" 
d="M152 0v1466h285v-1201h541v1201h285v-1201h177v-481h-286v216h-1002z" />
    <glyph glyph-name="afii10041" unicode="&#x427;" horiz-adv-x="1340" 
d="M904 0l-1 524q-43 -15 -79 -27t-70.5 -20t-70 -12t-76.5 -4q-137 0 -230.5 34t-150.5 98t-82 156.5t-25 208.5v508h285v-494q0 -64 10.5 -111t36 -77.5t67.5 -45.5t105 -15q40 0 73 3.5t65 10.5t66.5 18.5t76.5 28.5v682h285v-1466h-285z" />
    <glyph glyph-name="afii10042" unicode="&#x428;" horiz-adv-x="1943" 
d="M157 0v1466h285v-1201h375v1201h285v-1201h374v1201h285v-1466h-1604z" />
    <glyph glyph-name="afii10043" unicode="&#x429;" horiz-adv-x="1983" 
d="M161 0v1466h285v-1201h374v1201h285v-1201h375v1201h285v-1201h186v-481h-286v216h-1504z" />
    <glyph glyph-name="afii10044" unicode="&#x42a;" horiz-adv-x="1491" 
d="M865 677q-86 0 -199 -32v266q54 12 108 18.5t102 6.5q111 0 209 -31t171.5 -90.5t116.5 -146t43 -198.5q0 -104 -36 -190t-108 -148.5t-180 -97t-251 -34.5h-540v1205h-293v261h578v-1201h269q71 0 121 14.5t81.5 42t46 66.5t14.5 88q0 51 -19.5 89t-53 62.5t-80 37
t-100.5 12.5z" />
    <glyph glyph-name="afii10045" unicode="&#x42b;" horiz-adv-x="1750" 
d="M692 677q-21 0 -41.5 -1.5t-41.5 -5.5t-44.5 -10t-51.5 -15v266q54 14 98 19.5t92 5.5q111 0 206 -31t165 -90.5t109.5 -146t39.5 -198.5q0 -104 -33 -190t-101.5 -148.5t-173 -97t-247.5 -34.5h-520v1466h285v-1201h249q71 0 118 14.5t74.5 42t39 66.5t11.5 88
q0 102 -62.5 151.5t-170.5 49.5zM1384 0v1466h285v-1466h-285z" />
    <glyph glyph-name="afii10046" unicode="&#x42c;" horiz-adv-x="1348" 
d="M712 677q-86 0 -199 -32v266q54 12 108 18.5t102 6.5q111 0 209 -31t171.5 -90.5t116.5 -146t43 -198.5q0 -104 -36 -190t-108 -148.5t-180 -97t-251 -34.5h-540v1466h285v-1201h269q71 0 121 14.5t81.5 42t46 66.5t14.5 88q0 51 -19.5 89t-53 62.5t-80 37t-100.5 12.5z
" />
    <glyph glyph-name="afii10047" unicode="&#x42d;" horiz-adv-x="1293" 
d="M249 897h622q-29 171 -124 252t-257 81q-54 0 -100.5 -4t-91.5 -11.5t-91 -19t-98 -26.5v277q72 16 159 29t200 13q186 0 321 -54.5t222 -154t129 -238.5t42 -308q0 -183 -41.5 -323.5t-127 -236t-217.5 -145.5t-312 -50q-127 0 -222 12t-172 30v273q120 -34 221.5 -45.5
t172.5 -11.5q89 0 158.5 22t119.5 71t79.5 124t38.5 181h-631v263z" />
    <glyph glyph-name="afii10048" unicode="&#x42e;" horiz-adv-x="2022" 
d="M159 0v1466h285v-578h246q13 128 53.5 237.5t115.5 189.5t187.5 125.5t271.5 45.5q121 0 215.5 -27t165 -75.5t119.5 -117.5t79 -152.5t43.5 -180t13.5 -200.5t-13.5 -200.5t-43.5 -180t-79 -152.5t-119.5 -117.5t-165 -75.5t-215.5 -27q-166 0 -282 49.5t-191 136
t-112.5 204.5t-47.5 255h-241v-625h-285zM980 733q0 -123 16.5 -215.5t56 -154.5t104.5 -93.5t161 -31.5t161 31.5t104.5 93.5t56 154.5t16.5 215.5t-16.5 215.5t-56 154.5t-104.5 93.5t-161 31.5t-161 -31.5t-104.5 -93.5t-56 -154.5t-16.5 -215.5z" />
    <glyph glyph-name="afii10049" unicode="&#x42f;" horiz-adv-x="1360" 
d="M921 0v609q-67 -24 -131 -65.5t-123.5 -94t-112 -111.5t-96.5 -119t-78.5 -116.5t-55.5 -102.5h-306q64 157 169.5 314.5t265.5 299.5q-76 7 -140 38.5t-110 82t-72 118.5t-26 149q0 103 30 188.5t97 146.5t174.5 95t262.5 34h537v-1466h-285zM644 819q18 0 48.5 5t68 14
t79 21.5t81.5 26.5v319h-275q-72 0 -119 -16.5t-74.5 -44t-38.5 -64.5t-11 -78t17.5 -74.5t49.5 -57.5t76.5 -37.5t97.5 -13.5z" />
    <glyph glyph-name="afii10065" unicode="&#x430;" horiz-adv-x="1111" 
d="M727 62q-57 -48 -120.5 -66t-137.5 -18q-96 0 -170 23.5t-125 67t-77.5 105t-26.5 138.5q0 86 32.5 151t91 109t138.5 66t175 22h204v53q0 31 -11.5 58t-36.5 47t-63.5 31t-92.5 11q-37 0 -71.5 -2.5t-70.5 -8t-75 -15t-85 -23.5v236q39 8 76 15t73.5 12t74 7.5t78.5 2.5
q124 0 213 -25.5t146 -73t83.5 -115.5t26.5 -153v-717h-249v62zM711 431h-204q-43 0 -74.5 -8.5t-51.5 -23.5t-30 -35.5t-10 -43.5q0 -33 12 -54.5t33.5 -34.5t50.5 -18t62 -5q65 0 119.5 19.5t92.5 58.5v145z" />
    <glyph glyph-name="afii10066" unicode="&#x431;" horiz-adv-x="1122" 
d="M711 1230q-66 -2 -119.5 -12.5t-93.5 -32.5t-66 -57.5t-36 -89.5q-2 -8 -3 -18t-1 -16q36 23 94.5 40.5t127.5 17.5q50 0 102.5 -11t101.5 -36t92.5 -65.5t76 -100.5t51.5 -141t19 -186q0 -114 -26.5 -213.5t-85 -173t-151.5 -115.5t-226 -42q-134 0 -226.5 43.5
t-151 118.5t-84.5 176t-26 215q0 146 5 277.5t30.5 241.5t80.5 196t154 141q48 26 90.5 40.5t84.5 22t87 10.5t97 6.5t114.5 10t140.5 21.5v-231q-67 -21 -128.5 -28t-124.5 -9zM561 828q-35 0 -66.5 -9.5t-58 -25.5t-48 -38t-35.5 -46q-2 -35 -2 -84v-103
q0 -151 50.5 -230.5t166.5 -79.5q117 0 167.5 79.5t50.5 230.5t-54 228.5t-171 77.5z" />
    <glyph glyph-name="afii10067" unicode="&#x432;" horiz-adv-x="1115" 
d="M135 0v1062h492q96 0 166.5 -26.5t117 -70t69.5 -99.5t23 -115q0 -27 -4 -55t-14.5 -54.5t-28 -50.5t-44.5 -43q34 -17 57.5 -41t38 -51t21 -55.5t6.5 -55.5q0 -84 -26 -148t-74.5 -108t-118 -66.5t-156.5 -22.5h-525zM660 224q42 0 73 26t31 83q0 47 -24 75t-72 28h-268
v-212h260zM659 655q38 0 58 26.5t20 60.5q0 19 -5.5 36.5t-18.5 30.5t-34 21t-52 8h-227v-183h259z" />
    <glyph glyph-name="afii10068" unicode="&#x433;" horiz-adv-x="810" 
d="M135 1062h675v-229h-410v-833h-265v1062z" />
    <glyph glyph-name="afii10069" unicode="&#x434;" horiz-adv-x="1136" 
d="M1000 1062v-833h106v-440h-265v211h-546v-211h-265v440h106q32 47 55.5 118t39 172.5t23 235.5t7.5 307h739zM735 833h-215q-6 -210 -31 -357t-67 -247h313v604z" />
    <glyph glyph-name="afii10070" unicode="&#x435;" horiz-adv-x="1140" 
d="M1005 44q-97 -33 -192.5 -49.5t-205.5 -16.5q-142 0 -242 37.5t-163.5 107.5t-92.5 171t-29 229q0 131 30 235t91 176.5t153.5 111t216.5 38.5q121 0 212.5 -38.5t153 -110.5t92.5 -174t31 -228v-97h-704q3 -72 20 -115.5t48.5 -71t77.5 -40t105 -12.5q52 0 97.5 3.5
t92 11.5t97 22.5t111.5 36.5v-227zM774 655q0 104 -50 157t-153 53q-51 0 -88.5 -14t-62 -40t-37.5 -63t-16 -93h407z" />
    <glyph glyph-name="afii10072" unicode="&#x436;" horiz-adv-x="1458" 
d="M596 466q-12 2 -23.5 4.5t-22.5 5.5q-46 -45 -80.5 -95.5t-63 -108.5t-54.5 -125.5t-54 -146.5h-269q51 182 121.5 328.5t176.5 263.5q-50 46 -90.5 103t-71 118.5t-52.5 125t-35 123.5h274q12 -62 33 -124t51.5 -115t70 -92t89.5 -54v385h265v-385q49 15 89 54t70.5 92
t51.5 115t33 124h274q-13 -60 -35 -123.5t-52.5 -125t-71 -118.5t-90.5 -103q106 -117 176.5 -263.5t121.5 -328.5h-269q-28 79 -54 146.5t-54.5 125.5t-63 108.5t-80.5 95.5q-11 -3 -22.5 -5.5t-23.5 -4.5v-466h-265v466z" />
    <glyph glyph-name="afii10073" unicode="&#x437;" horiz-adv-x="994" 
d="M453 202q99 0 144.5 35t45.5 92q0 54 -48 78t-142 24h-214v229h214q28 0 55 5t48 16.5t34 30.5t13 46q0 55 -40.5 78.5t-109.5 23.5q-78 0 -156.5 -13t-159.5 -34v240q60 11 144.5 21t171.5 10q95 0 172.5 -20.5t132.5 -60.5t85 -99t30 -136q0 -31 -8.5 -61t-24 -55.5
t-37 -45.5t-47.5 -32q77 -32 117.5 -94.5t40.5 -141.5q0 -83 -31.5 -149.5t-90.5 -113.5t-144.5 -72t-194.5 -25q-44 0 -96.5 4.5t-103.5 12.5t-97 18t-76 21v244q41 -15 87.5 -29t95 -24.5t97 -16.5t93.5 -6z" />
    <glyph glyph-name="afii10074" unicode="&#x438;" horiz-adv-x="1135" 
d="M400 1062v-557q15 35 38 78t52 91t62 98.5t67 101t69 98.5t67 90h245v-1062h-267v634q-45 -67 -91 -143.5t-91 -158.5t-87.5 -166t-80.5 -166h-248v1062h265z" />
    <glyph glyph-name="afii10075" unicode="&#x439;" horiz-adv-x="1135" 
d="M400 1062v-557q15 35 38 78t52 91t62 98.5t67 101t69 98.5t67 90h245v-1062h-267v634q-45 -67 -91 -143.5t-91 -158.5t-87.5 -166t-80.5 -166h-248v1062h265zM572.47 1330.87q23.54 0 44.8164 5.43359q21.2773 5.43555 38.9326 21.2861t30.3301 43.4766
q12.6758 27.626 19.9189 72.0078h186.512q-8.14844 -67.9326 -34.4053 -123.184q-26.2559 -55.251 -67.9043 -93.7461t-97.3301 -59.7803t-122.682 -21.2852q-65.1885 0 -119.965 21.2852t-95.9717 59.7803t-67.9043 93.7461q-26.71 55.251 -34.8584 123.184h186.512
q7.24316 -44.3818 20.3711 -72.0078q13.1289 -27.626 30.7842 -43.4766t38.4795 -21.2861q20.8232 -5.43359 44.3643 -5.43359z" />
    <glyph glyph-name="afii10076" unicode="&#x43a;" horiz-adv-x="1086" 
d="M400 0h-265v1062h265v-375q53 13 96.5 48.5t79 85.5t64 112t50.5 129h283q-18 -63 -46.5 -128t-65.5 -126.5t-82 -117t-97 -101.5q115 -113 204 -259.5t140 -329.5h-275q-56 155 -128.5 267t-166.5 196q-14 -4 -28 -6.5t-28 -4.5v-452z" />
    <glyph glyph-name="afii10077" unicode="&#x43b;" horiz-adv-x="1117" 
d="M982 1062v-1062h-265v833h-205q-6 -188 -25.5 -324t-51 -230.5t-73.5 -153t-91.5 -91t-105 -43.5t-115.5 -11v231q31 1 58.5 14t50 46.5t40 93t29.5 153.5t18.5 228t6.5 316h729z" />
    <glyph glyph-name="afii10078" unicode="&#x43c;" horiz-adv-x="1389" 
d="M989 668q-32 -42 -62 -100.5t-55 -123t-44.5 -129t-29.5 -117.5h-212q-10 52 -29.5 116.5t-44.5 129.5t-54 124t-58 100v-668h-265v1062h234q22 -22 51 -55t60 -74.5t62.5 -88.5t60 -96.5t52 -99.5t38.5 -96q23 69 64 145.5t88 147t94 128.5t81 89h234v-1062h-265v668z
" />
    <glyph glyph-name="afii10079" unicode="&#x43d;" horiz-adv-x="1153" 
d="M135 0v1062h265v-402h353v402h265v-1062h-265v431h-353v-431h-265z" />
    <glyph glyph-name="afii10080" unicode="&#x43e;" horiz-adv-x="1137" 
d="M80 531q0 114 26 215t84.5 176t151.5 118.5t227 43.5q133 0 226 -43.5t151 -118.5t84.5 -176t26.5 -215t-26.5 -215t-84.5 -176t-151 -118.5t-226 -43.5q-134 0 -227 43.5t-151.5 118.5t-84.5 176t-26 215zM351 531q0 -76 12.5 -135.5t38.5 -100t67.5 -62t99.5 -21.5
t99.5 21.5t67.5 62t38.5 100t12.5 135.5t-12.5 135t-38.5 100t-67.5 62.5t-99.5 21.5t-99.5 -21.5t-67.5 -62.5t-38.5 -100t-12.5 -135z" />
    <glyph glyph-name="afii10081" unicode="&#x43f;" horiz-adv-x="1153" 
d="M135 0v1062h883v-1062h-265v833h-353v-833h-265z" />
    <glyph glyph-name="afii10082" unicode="&#x440;" horiz-adv-x="1143" 
d="M400 221q25 -8 58 -13.5t72 -5.5q44 0 92.5 12t88.5 48t66 103t26 178q0 90 -16.5 151t-46.5 98t-70.5 52.5t-88.5 15.5q-60 0 -107.5 -20t-73.5 -51v-568zM384 1062v-61q47 43 113 63t132 20q89 0 169.5 -29.5t141.5 -94t97 -166.5t36 -247q0 -119 -24.5 -207
t-66.5 -151.5t-97 -104t-116 -64.5t-123.5 -33t-118.5 -9q-37 0 -68 3.5t-59 8.5v-397h-265v1469h249z" />
    <glyph glyph-name="afii10083" unicode="&#x441;" horiz-adv-x="968" 
d="M351 531q0 -95 17.5 -158t50 -101t79.5 -54t107 -16q66 0 139.5 16t143.5 42v-229q-30 -12 -65.5 -22t-72 -17t-74 -10.5t-71.5 -3.5q-268 0 -396.5 135.5t-128.5 417.5q0 128 30 230.5t93 174t160.5 110t232.5 38.5q75 0 145.5 -12.5t146.5 -38.5v-231q-77 28 -151.5 43
t-140.5 15q-119 0 -182 -78.5t-63 -250.5z" />
    <glyph glyph-name="afii10084" unicode="&#x442;" horiz-adv-x="894" 
d="M314 0v833h-299v229h864v-229h-300v-833h-265z" />
    <glyph glyph-name="afii10085" unicode="&#x443;" horiz-adv-x="1055" 
d="M315 1062q10 -68 33 -151.5t56 -175t73 -187t83 -188.5q36 94 68.5 189.5t59 186.5t46 174t29.5 152h262q-11 -84 -37.5 -188.5t-61.5 -214t-73.5 -216.5t-73.5 -197t-63 -155.5t-40 -90.5q-45 -92 -93 -170t-102.5 -135t-117.5 -89.5t-139 -32.5q-29 0 -68.5 4.5
t-80.5 15.5v237q29 -12 62.5 -17t61.5 -5q36 0 64.5 12.5t54.5 41t52.5 73.5t57.5 111q-40 76 -81 164t-80 180.5t-74.5 186t-64.5 181t-49.5 165.5t-28.5 139h265z" />
    <glyph glyph-name="afii10086" unicode="&#x444;" horiz-adv-x="1512" 
d="M889 1466v-396q58 14 120 14q87 0 167 -26.5t141.5 -90.5t98 -170.5t36.5 -265.5q0 -158 -36.5 -264t-97.5 -170t-140.5 -91.5t-164.5 -27.5q-35 0 -65.5 3.5t-58.5 8.5v-397h-265v397q-29 -5 -59.5 -8.5t-65.5 -3.5q-85 0 -164.5 27.5t-140.5 91.5t-97.5 170t-36.5 264
q0 106 17 188.5t47 144t71 103.5t90.5 68t105 37.5t113.5 11.5q32 0 61.5 -3.5t58.5 -10.5v396h265zM517 865q-44 0 -78.5 -18t-58.5 -58t-36.5 -103.5t-12.5 -154.5q0 -94 12.5 -158t36.5 -103t58.5 -56t78.5 -17q32 0 57.5 4t49.5 15v624q-20 11 -47 18t-60 7zM996 197
q44 0 78.5 17t58.5 56t36.5 103t12.5 158q0 91 -12.5 154.5t-36.5 103.5t-58.5 58t-78.5 18q-33 0 -60 -7t-47 -18v-625q23 -11 49 -14.5t58 -3.5z" />
    <glyph glyph-name="afii10087" unicode="&#x445;" horiz-adv-x="1077" 
d="M1021 1062q-36 -85 -74.5 -157.5t-79.5 -136t-83.5 -119t-84.5 -107.5q45 -54 89.5 -112.5t87.5 -124.5t84 -141.5t77 -163.5h-280q-45 101 -100.5 185t-118.5 163q-63 -79 -118 -163t-100 -185h-280q36 88 76.5 163.5t83.5 141.5t88 124.5t90 112.5q-43 52 -85 107.5
t-83 119t-79.5 136t-74.5 157.5h284q38 -94 88.5 -173t109.5 -154q59 75 110 154.5t89 172.5h284z" />
    <glyph glyph-name="afii10088" unicode="&#x446;" horiz-adv-x="1163" 
d="M400 229h353v833h265v-833h135v-439h-265v210h-753v1062h265v-833z" />
    <glyph glyph-name="afii10089" unicode="&#x447;" horiz-adv-x="1113" 
d="M978 0h-265v345q-45 -21 -98.5 -32.5t-119.5 -11.5q-89 0 -158.5 23.5t-117.5 70t-73.5 115t-25.5 158.5v394h265v-376q0 -41 7 -71t23.5 -49.5t45 -29.5t71.5 -10q57 0 105 18t76 51v467h265v-1062z" />
    <glyph glyph-name="afii10090" unicode="&#x448;" horiz-adv-x="1594" 
d="M400 229h264v833h265v-833h265v833h265v-1062h-1324v1062h265v-833z" />
    <glyph glyph-name="afii10091" unicode="&#x449;" horiz-adv-x="1603" 
d="M400 229h264v833h265v-833h264v833h265v-833h135v-440h-265v211h-1193v1062h265v-833z" />
    <glyph glyph-name="afii10092" unicode="&#x44a;" horiz-adv-x="1108" 
d="M475 674q42 5 83 8t81 3q198 0 298 -87t100 -253q0 -80 -23.5 -143.5t-72.5 -108.5t-123 -69t-174 -24h-434v833h-210v229h475v-388zM635 457q-37 0 -77.5 -4t-82.5 -11v-213h169q53 0 87 25.5t34 84.5q0 61 -34.5 89.5t-95.5 28.5z" />
    <glyph glyph-name="afii10093" unicode="&#x44b;" horiz-adv-x="1468" 
d="M551 457q-37 0 -73 -4t-78 -11v-213h160q53 0 87 25.5t34 84.5q0 61 -34.5 89.5t-95.5 28.5zM400 674q42 5 78.5 8t76.5 3q198 0 298 -87t100 -253q0 -80 -23.5 -143.5t-72.5 -108.5t-123 -69t-174 -24h-425v1062h265v-388zM1098 0v1062h265v-1062h-265z" />
    <glyph glyph-name="afii10094" unicode="&#x44c;" horiz-adv-x="1033" 
d="M561 457q-37 0 -78 -4t-83 -11v-213h190q53 0 87 25.5t34 84.5q0 30 -12 52.5t-32.5 37t-48 21.5t-57.5 7zM400 674q42 5 83.5 8t81.5 3q99 0 176.5 -22t131 -65.5t82 -107t28.5 -145.5q0 -80 -23.5 -143.5t-72.5 -108.5t-123 -69t-174 -24h-455v1062h265v-388z" />
    <glyph glyph-name="afii10095" unicode="&#x44d;" horiz-adv-x="948" 
d="M172 660h413q-22 104 -80.5 152t-152.5 48q-66 0 -140.5 -15t-151.5 -43v231q76 26 146.5 38.5t145.5 12.5q135 0 232.5 -38.5t160.5 -110t93 -174t30 -230.5q0 -282 -128.5 -417.5t-396.5 -135.5q-35 0 -72 3.5t-73.5 10.5t-72 17t-65.5 22v229q70 -26 143.5 -42
t139.5 -16q51 0 92.5 11.5t73.5 38t52.5 70.5t29.5 109h-419v229z" />
    <glyph glyph-name="afii10096" unicode="&#x44e;" horiz-adv-x="1575" 
d="M135 1v1061h267v-402h160q11 91 41.5 168t86 133.5t138 88.5t197.5 32q133 0 223.5 -43t145 -118t78 -175.5t23.5 -214.5t-23.5 -214.5t-78 -175.5t-145 -118t-223.5 -43q-120 0 -204 34.5t-139.5 95t-84.5 143t-38 178.5h-157v-430h-267zM825 531q0 -76 10 -136.5
t33 -103t61.5 -65t95.5 -22.5t95 22.5t61.5 65t33 103t9.5 136.5t-9.5 136.5t-33 103t-61.5 65t-95 22.5t-95.5 -22.5t-61.5 -65t-33 -103t-10 -136.5z" />
    <glyph glyph-name="afii10097" unicode="&#x44f;" horiz-adv-x="1102" 
d="M20 0q58 145 134.5 249t184.5 178q-57 12 -101.5 39t-75 65t-46.5 84t-16 96q0 98 37 165t99.5 108.5t144 59.5t171.5 18h415v-1062h-265v378q-55 -20 -109.5 -50t-106.5 -75t-100.5 -107.5t-90.5 -145.5h-275zM702 832h-171q-42 0 -72.5 -9.5t-50 -26.5t-29 -40
t-9.5 -49q0 -28 12 -51t34 -39.5t51.5 -25.5t64.5 -9q40 0 85.5 5t84.5 19v226z" />
    <glyph glyph-name="afii10071" unicode="&#x451;" horiz-adv-x="1140" 
d="M1005 44q-97 -33 -192.5 -49.5t-205.5 -16.5q-142 0 -242 37.5t-163.5 107.5t-92.5 171t-29 229q0 131 30 235t91 176.5t153.5 111t216.5 38.5q121 0 212.5 -38.5t153 -110.5t92.5 -174t31 -228v-97h-704q3 -72 20 -115.5t48.5 -71t77.5 -40t105 -12.5q52 0 97.5 3.5
t92 11.5t97 22.5t111.5 36.5v-227zM774 655q0 104 -50 157t-153 53q-51 0 -88.5 -14t-62 -40t-37.5 -63t-16 -93h407zM255 1189v277h274v-277h-274zM643 1189v277h274v-277h-274z" />
    <glyph glyph-name="afii10099" unicode="&#x452;" horiz-adv-x="1136" 
d="M591 1354v-158h-163v-158q42 20 92.5 32t113.5 12q91 0 169.5 -30t136.5 -96t91 -171t33 -254q0 -84 -12 -179t-30.5 -189.5t-42 -182.5t-46.5 -156h-281q22 66 47 154t46 184t35 192t14 177q0 89 -12 150t-36 98t-59 53t-81 16q-38 0 -67 -7t-51 -17.5t-36.5 -22.5
t-23.5 -23v-778h-265v1196h-153v158h153v112h265v-112h163z" />
    <glyph glyph-name="afii10100" unicode="&#x453;" horiz-adv-x="800" 
d="M131 1062h675v-229h-410v-833h-265v1062zM408 1599h332l-265 -398h-295z" />
    <glyph glyph-name="afii10101" unicode="&#x454;" horiz-adv-x="941" 
d="M778 431h-419q9 -65 29.5 -109t52.5 -70.5t73.5 -38t92.5 -11.5q66 0 139.5 16t143.5 42v-229q-30 -12 -65.5 -22t-72 -17t-73.5 -10.5t-72 -3.5q-268 0 -396.5 135.5t-128.5 417.5q0 128 30 230.5t93 174t160.5 110t232.5 38.5q75 0 145.5 -12.5t146.5 -38.5v-231
q-77 28 -151.5 43t-140.5 15q-94 0 -152.5 -48t-80.5 -152h413v-229z" />
    <glyph glyph-name="afii10102" unicode="&#x455;" horiz-adv-x="971" 
d="M520 1084q95 0 167.5 -10.5t132.5 -30.5v-230q-86 29 -160.5 38t-139.5 9q-70 0 -107.5 -22.5t-37.5 -70.5q0 -20 12 -36t33 -28.5t49 -22t61 -18.5q62 -16 126 -39.5t116.5 -63.5t85.5 -102t33 -155q0 -78 -30 -138.5t-84 -102t-129.5 -62.5t-167.5 -21q-44 0 -93 5
t-96 13t-90 19.5t-76 25.5v235q81 -29 172.5 -52.5t182.5 -23.5q76 0 111 25.5t35 76.5q0 33 -16 56t-43 39t-61 27t-70 21q-48 13 -104.5 32t-106 53.5t-82.5 89.5t-33 140q0 78 29.5 138.5t83.5 102t129.5 62.5t167.5 21z" />
    <glyph glyph-name="afii10103" unicode="&#x456;" horiz-adv-x="535" 
d="M135 1177v289h265v-289h-265zM135 0v1062h265v-1062h-265z" />
    <glyph glyph-name="afii10104" unicode="&#x457;" horiz-adv-x="535" 
d="M135 0v1062h265v-1062h-265zM-63 1189v277h274v-277h-274zM325 1189v277h274v-277h-274z" />
    <glyph glyph-name="afii10105" unicode="&#x458;" horiz-adv-x="535" 
d="M135 1178v288h265v-288h-265zM-128 -194q29 -6 54.5 -9.5t48.5 -3.5q37 0 67 10.5t50.5 35.5t31.5 66.5t11 104.5v1052h265v-1052q0 -120 -29 -203.5t-79.5 -135.5t-118.5 -75t-145 -23q-27 0 -68 1.5t-88 12.5v219z" />
    <glyph glyph-name="afii10106" unicode="&#x459;" horiz-adv-x="1696" 
d="M996 674q42 5 83.5 8t81.5 3q99 0 176.5 -22t131 -65.5t82 -107t28.5 -145.5q0 -80 -23.5 -143.5t-72.5 -108.5t-123 -69t-174 -24h-455v833h-205q-6 -188 -26 -324t-51.5 -230.5t-73 -153t-91 -91t-105 -43.5t-115.5 -11v231q31 1 58.5 14t50 46.5t40 93t29.5 153.5
t18.5 228t6.5 316h729v-388zM1157 457q-37 0 -78 -4t-83 -11v-213h190q53 0 87 25.5t34 84.5q0 30 -12 52.5t-32.5 37t-48 21.5t-57.5 7z" />
    <glyph glyph-name="afii10107" unicode="&#x45a;" horiz-adv-x="1718" 
d="M1017 674q42 5 83.5 8t81.5 3q99 0 176.5 -22t131 -65.5t82 -107t28.5 -145.5q0 -80 -23.5 -143.5t-72.5 -108.5t-123 -69t-174 -24h-455v431h-353v-431h-265v1062h265v-402h353v402h265v-388zM1178 457q-37 0 -78 -4t-83 -11v-213h190q53 0 87 25.5t34 84.5
q0 61 -40.5 89.5t-109.5 28.5z" />
    <glyph glyph-name="afii10108" unicode="&#x45b;" 
d="M595 1354v-158h-195v-163q45 24 98.5 36.5t119.5 12.5q89 0 158.5 -25t117.5 -72.5t73.5 -116.5t25.5 -157v-711h-265v687q0 40 -6.5 70t-23 50.5t-44.5 30.5t-70 10q-38 0 -71.5 -10t-58.5 -29.5t-39.5 -48.5t-14.5 -66v-694h-265v1196h-121v158h121v112h265v-112h195z
" />
    <glyph glyph-name="afii10109" unicode="&#x45c;" horiz-adv-x="1086" 
d="M400 0h-265v1062h265v-375q53 13 96.5 48.5t79 85.5t64 112t50.5 129h283q-18 -63 -46.5 -128t-65.5 -126.5t-82 -117t-97 -101.5q115 -113 204 -259.5t140 -329.5h-275q-56 155 -128.5 267t-166.5 196q-14 -4 -28 -6.5t-28 -4.5v-452zM532 1546h332l-265 -398h-295z" />
    <glyph glyph-name="afii10110" unicode="&#x45e;" horiz-adv-x="1055" 
d="M315 1062q10 -68 33 -151.5t56 -175t73 -187t83 -188.5q36 94 68.5 189.5t59 186.5t46 174t29.5 152h262q-11 -84 -37.5 -188.5t-61.5 -214t-73.5 -216.5t-73.5 -197t-63 -155.5t-40 -90.5q-45 -92 -93 -170t-102.5 -135t-117.5 -89.5t-139 -32.5q-29 0 -68.5 4.5
t-80.5 15.5v237q29 -12 62.5 -17t61.5 -5q36 0 64.5 12.5t54.5 41t52.5 73.5t57.5 111q-40 76 -81 164t-80 180.5t-74.5 186t-64.5 181t-49.5 165.5t-28.5 139h265zM559 1349q26 0 49.5 6t43 23.5t33.5 48t22 79.5h206q-9 -75 -38 -136t-75 -103.5t-107.5 -66t-135.5 -23.5
q-72 0 -132.5 23.5t-106 66t-75 103.5t-38.5 136h206q8 -49 22.5 -79.5t34 -48t42.5 -23.5t49 -6z" />
    <glyph glyph-name="afii10193" unicode="&#x45f;" horiz-adv-x="1136" 
d="M424 1062v-833h353v833h265v-1062h-308v-196h-266v196h-309v1062h265z" />
    <glyph glyph-name="afii10050" unicode="&#x490;" horiz-adv-x="1091" 
d="M166 1466h678v201h272v-462h-665v-1205h-285v1466z" />
    <glyph glyph-name="afii10098" unicode="&#x491;" horiz-adv-x="800" 
d="M151 1062h410v176h265v-405h-410v-833h-265v1062z" />
    <glyph glyph-name="armenianAYB" unicode="&#x531;" horiz-adv-x="1507" 
d="M1365 -53q-90 22 -157 59.5t-122 81.5q-74 -54 -167 -82t-199 -28q-121 0 -225 36.5t-180.5 106t-120.5 171t-44 230.5v944h285v-954q0 -69 21 -122t59 -89t90.5 -55t114.5 -19q89 0 153 32q-38 25 -81.5 44t-95.5 32l75 225q70 -17 125.5 -44t104.5 -60q2 14 3 27.5
t1 28.5v954h285v-944q0 -69 -13 -129.5t-36 -113.5q46 -30 98.5 -54.5t118.5 -41.5z" />
    <glyph glyph-name="armenianBEN" unicode="&#x532;" horiz-adv-x="1440" 
d="M1290 827h-285v127q0 69 -21 122t-59 89t-90.5 55t-114.5 19t-114.5 -19t-90.5 -55t-59 -89t-21 -122v-287h868v-263h-868v-404h-285v944q0 129 44 230.5t120.5 171t180.5 106t225 36.5t225 -36.5t180.5 -106t120.5 -171t44 -230.5v-117z" />
    <glyph glyph-name="armenianGIM" unicode="&#x533;" horiz-adv-x="1510" 
d="M382 947q0 -77 22 -130.5t60.5 -86.5t91.5 -48t115 -15h285v305q0 68 -21 118t-59 82.5t-90.5 48.5t-114.5 16t-115 -16.5t-91.5 -51.5t-60.5 -90t-22 -132zM956 0v404h-285q-120 0 -226 35.5t-185 104.5t-124.5 170t-45.5 233t45.5 232.5t124 168.5t184.5 103t227 35
t225.5 -33t181 -98.5t120 -163.5t43.5 -228v-296h229v-263h-229v-404h-285z" />
    <glyph glyph-name="armenianDA" unicode="&#x534;" horiz-adv-x="1490" 
d="M80 944q0 129 44 230.5t120.5 171t180.5 106t225 36.5t225 -36.5t180.5 -106t120.5 -171t44 -230.5v-277h230v-263h-230v-404h-285v954q0 69 -21 122t-59 89t-90.5 55t-114.5 19t-114.5 -19t-90.5 -55t-59 -89t-21 -122v-127h-285v117z" />
    <glyph glyph-name="armenianECH" unicode="&#x535;" horiz-adv-x="1440" 
d="M1290 522q0 -129 -44 -230.5t-120.5 -171t-180.5 -106t-225 -36.5t-225 36.5t-180.5 106t-120.5 171t-44 230.5v944h285v-405h868v-263h-868v-286q0 -69 21 -122t59 -89t90.5 -55t114.5 -19t114.5 19t90.5 55t59 89t21 122v155h285v-145z" />
    <glyph glyph-name="armenianZA" unicode="&#x536;" horiz-adv-x="1493" 
d="M736 1239q-87 0 -146 -26t-96 -70t-53 -102t-16 -123v-68h-285v54q0 120 35.5 226.5t109 186t186 125.5t265.5 46t266.5 -46.5t189.5 -126t113.5 -186t37.5 -226.5q0 -87 -22.5 -178.5t-67 -177t-110.5 -159t-153 -123.5h346v-265h-1196v411h285v-146h82q64 17 129 46.5
t125 71t112.5 95t91.5 119t61.5 142t22.5 164.5q0 161 -81 248.5t-232 87.5z" />
    <glyph glyph-name="armenianEH" unicode="&#x537;" horiz-adv-x="1310" 
d="M150 0v1466h285v-404h795v-263h-795v-534h698v-265h-983z" />
    <glyph glyph-name="armenianET" unicode="&#x538;" horiz-adv-x="1440" 
d="M1290 827h-285v127q0 69 -21 122t-59 89t-90.5 55t-114.5 19t-114.5 -19t-90.5 -55t-59 -89t-21 -122v-691h868v-263h-1153v944q0 129 44 230.5t120.5 171t180.5 106t225 36.5t225 -36.5t180.5 -106t120.5 -171t44 -230.5v-117z" />
    <glyph glyph-name="armenianTO" unicode="&#x539;" horiz-adv-x="1743" 
d="M1673 634h-209v-202q0 -107 -32 -191t-91.5 -142.5t-142.5 -89.5t-185 -31t-185 31t-142 89.5t-91 142.5t-32 191q0 106 32 192t90.5 147t140.5 93.5t182 32.5h172v24q0 66 -18 124t-61.5 101t-115 68t-178.5 25q-114 0 -186.5 -30t-114 -81.5t-57 -120t-15.5 -145.5
v-862h-284v884q0 134 40 245.5t121.5 191t205.5 123.5t292 44t291.5 -43.5t204.5 -120.5t120 -182.5t39 -229.5v-15h209v-263zM1179 634h-166q-85 0 -125 -53t-40 -149t40 -150.5t125 -54.5q86 0 126 54.5t40 150.5v202z" />
    <glyph glyph-name="armenianZHE" unicode="&#x53a;" horiz-adv-x="1510" 
d="M383 529q0 -78 22 -134.5t60.5 -94t91 -55.5t114.5 -18t114.5 15.5t90.5 47.5t59 82t21 118v309h-285q-62 0 -114.5 -11.5t-91 -47t-60.5 -87.5t-22 -124zM1241 799v-300q0 -130 -43.5 -227.5t-120 -163t-181 -98t-225.5 -32.5q-120 0 -226 35.5t-185 105.5t-124.5 173
t-45.5 237q0 129 45.5 229t124.5 168t185 102t226 34h285v404h285v-404h229v-263h-229z" />
    <glyph glyph-name="armenianINI" unicode="&#x53b;" horiz-adv-x="1347" 
d="M1287 378h-285v173q0 70 -21.5 123t-60.5 89t-92.5 54t-117.5 18q-35 0 -71.5 -6t-72.5 -17.5t-69.5 -29.5t-61.5 -42v-740h-285v1466h285v-450q68 35 142 51.5t152 16.5q118 0 220 -36.5t177 -106.5t118 -170.5t43 -228.5v-164z" />
    <glyph glyph-name="armenianLIWN" unicode="&#x53c;" horiz-adv-x="1080" 
d="M150 0v1466h285v-1205h645v-261h-930z" />
    <glyph glyph-name="armenianXEH" unicode="&#x53d;" horiz-adv-x="1794" 
d="M1644 503q0 -262 -124 -393.5t-371 -131.5q-246 0 -371 132.5t-125 392.5v296h-218v-799h-285v1466h285v-404h503v-568q0 -137 49.5 -202t161.5 -65t161 65t49 202v568h285v-559z" />
    <glyph glyph-name="armenianCA" unicode="&#x53e;" horiz-adv-x="1576" 
d="M429 1252q127 114 292 175t353 61q41 0 90.5 -2.5t102 -8t104 -15t95.5 -24.5v-282q-54 24 -111.5 40.5t-113 27t-107 15t-94.5 4.5q-29 0 -62.5 -2.5t-66 -7.5t-61.5 -11.5t-49 -15.5q124 -10 218.5 -42t163.5 -80t115 -108t73.5 -125.5t39 -132.5t11.5 -128
q0 -75 -16 -150t-49.5 -143t-85 -126.5t-122 -101t-162 -67t-203.5 -24.5t-203.5 24.5t-162.5 67t-122.5 101t-85.5 126.5t-50 142.5t-16 150.5q0 112 22.5 211.5t64.5 187.5h-121v477h285v-214h34zM546 989q-54 -85 -81 -187t-27 -212q0 -90 24.5 -158t70 -113.5
t109.5 -68.5t142 -23t141.5 23t108.5 68.5t69.5 113.5t24.5 158q0 91 -25.5 165t-80 126t-138.5 80t-201 28h-137z" />
    <glyph glyph-name="armenianKEN" unicode="&#x53f;" horiz-adv-x="1400" 
d="M110 1466h285v-577q0 -70 22 -123t61 -89t93 -54t118 -18q34 0 71 6t73 18t70 30.5t62 43.5v359h285v-1062h-285v425q-69 -35 -143.5 -52t-153.5 -17q-119 0 -221 36.5t-177 106.5t-117.5 170.5t-42.5 228.5v568z" />
    <glyph glyph-name="armenianHO" unicode="&#x540;" horiz-adv-x="1247" 
d="M1097 0h-285v428q0 40 -14.5 77.5t-45.5 66t-79.5 45.5t-115.5 17h-497v263h497q60 0 102 11.5t69 32t39 50t12 65.5q0 71 -51 109t-171 38h-352v263h352q122 0 218 -29.5t162 -83.5t101 -129.5t35 -167.5q0 -200 -167 -283q54 -28 90.5 -66t59 -81.5t32 -89t9.5 -88.5
v-448z" />
    <glyph glyph-name="armenianJA" unicode="&#x541;" horiz-adv-x="1438" 
d="M1019 899q0 171 -80.5 255.5t-232.5 84.5q-87 0 -146 -26t-96 -70t-53 -102.5t-16 -122.5v-91h-285v77q0 120 35.5 226.5t109 186t186 125.5t265.5 46q156 0 269.5 -48t187.5 -130t109.5 -191t35.5 -232q0 -137 -39.5 -265t-117.5 -240q32 -24 67.5 -49.5t66.5 -52.5
v-348q-61 63 -137.5 126.5t-161.5 120.5q-106 -94 -232.5 -147.5t-270.5 -53.5q-71 0 -138 21t-119 62t-83.5 103t-31.5 143q0 86 34 148t90 102.5t129 59.5t151 19q100 0 204.5 -30.5t212.5 -84.5q42 84 64.5 179.5t22.5 198.5zM396 307q0 -27 12 -42.5t30.5 -24t40.5 -11
t41 -2.5q69 0 132 25t123 60q-78 40 -147 57t-123 17q-46 0 -77.5 -19.5t-31.5 -59.5z" />
    <glyph glyph-name="armenianLAD" unicode="&#x542;" horiz-adv-x="1490" 
d="M80 944q0 129 44 230.5t120.5 171t180.5 106t225 36.5t225 -36.5t180.5 -106t120.5 -171t44 -230.5v-681h230v-263h-515v954q0 69 -21 122t-59 89t-90.5 55t-114.5 19t-114.5 -19t-90.5 -55t-59 -89t-21 -122v-127h-285v117z" />
    <glyph glyph-name="armenianCHEH" unicode="&#x543;" horiz-adv-x="1487" 
d="M654 1466h507v-251h-526q-33 0 -60 -11t-47.5 -31t-32.5 -48.5t-13 -62.5h317q130 0 230.5 -40.5t169 -107.5t103.5 -154.5t35 -180.5v-579h-626q-111 0 -205.5 31t-163 92.5t-107 154.5t-38.5 217v314h-167v253h167q4 92 42.5 166.5t101 127.5t143.5 81.5t170 28.5z
M730 265h322v298q0 60 -20.5 106t-55 77t-79.5 47t-94 16h-321v-293q0 -128 59 -189.5t189 -61.5z" />
    <glyph glyph-name="armenianMEN" unicode="&#x544;" horiz-adv-x="1560" 
d="M1290 522q0 -129 -44 -230.5t-120.5 -171t-180.5 -106t-225 -36.5t-225 36.5t-180.5 106t-120.5 171t-44 230.5v944h285v-954q0 -69 21 -122t59 -89t90.5 -55t114.5 -19t114.5 19t90.5 55t59 89t21 122v954h515v-261h-230v-683z" />
    <glyph glyph-name="armenianYI" unicode="&#x545;" horiz-adv-x="1421" 
d="M121 892h591q56 0 102.5 7.5t80 27t52 52t18.5 82.5q0 49 -18.5 83.5t-52.5 56.5t-80.5 31.5t-101.5 9.5q-56 0 -102 -9.5t-79.5 -29.5t-52 -50t-18.5 -72v-20h-292v12q0 94 38 170.5t109 131t171.5 84t225.5 29.5q126 0 226.5 -28.5t171.5 -84t109 -136.5t38 -186
q0 -47 -12.5 -89t-34.5 -77.5t-51.5 -62t-63.5 -41.5q64 -25 105.5 -62.5t66 -84t34.5 -99.5t10 -109q0 -112 -47 -196.5t-128 -140.5t-190.5 -84.5t-233.5 -28.5t-233.5 28.5t-191.5 84.5t-129.5 140.5t-47.5 196.5v37h288v-37q0 -51 22 -89.5t63 -64t99 -38t130 -12.5
q71 0 128 11.5t96.5 36.5t61 63.5t21.5 92.5t-15 93.5t-50.5 66t-94.5 39t-147 12.5h-591v253z" />
    <glyph glyph-name="armenianNOW" unicode="&#x546;" horiz-adv-x="1490" 
d="M1410 522q0 -129 -44 -230.5t-120.5 -171t-180.5 -106t-225 -36.5t-225 36.5t-180.5 106t-120.5 171t-44 230.5v681h-230v263h515v-954q0 -69 21 -122t59 -89t90.5 -55t114.5 -19t114.5 19t90.5 55t59 89t21 122v122h285v-112z" />
    <glyph glyph-name="armenianSHA" unicode="&#x547;" horiz-adv-x="1417" 
d="M185 1205v261h108q104 0 206 -16.5t210 -54.5q76 -27 142 -53.5t128.5 -54.5t125.5 -59t133 -65v-300q-97 47 -191 90.5t-175 79.5q-90 0 -174.5 -27t-150 -83t-105 -141.5t-39.5 -201.5q0 -67 16 -130.5t53 -113t97 -79.5t148 -30q87 0 146 26t96 70t53 102t16 123v86
h290v-72q0 -120 -36.5 -226.5t-111 -186t-187.5 -125.5t-266 -46t-267 46t-189.5 126.5t-113 190t-37.5 237.5q0 112 32 207.5t87.5 170t130.5 127.5t161 82q-68 19 -126 29.5t-102 10.5h-108z" />
    <glyph glyph-name="armenianVO" unicode="&#x548;" horiz-adv-x="1440" 
d="M1290 944.032q0 128.992 -44 230.485q-44 101.494 -120.5 170.99q-76.5 69.4951 -180.5 105.993t-225 36.498t-225 -36.498t-180.5 -105.993q-76.5 -69.4961 -120.5 -170.99q-44 -101.493 -44 -230.485v-943.942h285v953.941q0 68.9961 21 121.992q21 52.9971 59 88.9951
t90.5 54.9961q52.5 18.999 114.5 18.999t114.5 -18.999q52.5 -18.998 90.5 -54.9961t59 -88.9951q21 -52.9961 21 -121.992v-953.941h285v943.942z" />
    <glyph glyph-name="armenianCHA" unicode="&#x549;" horiz-adv-x="1418" 
d="M1064 -90q-93 49 -203 100.5t-220.5 98t-215 86.5t-186.5 67v300q81 -28 155 -54.5t143 -52.5q45 0 98 5.5t106 22t102.5 46.5t87.5 78t61 117t23 164q0 69 -15 132.5t-51 112t-96.5 77.5t-151.5 29q-87 0 -146 -26t-96 -70t-53 -102t-16 -123v-91h-290v77
q0 120 36.5 226.5t111 186t187.5 125.5t266 46q155 0 269.5 -48t189.5 -129.5t111.5 -190.5t36.5 -232q0 -118 -31.5 -215t-87 -171t-132 -123.5t-166.5 -71.5q19 -9 41.5 -20t45.5 -23l45 -22q22 -11 41 -21v-311z" />
    <glyph glyph-name="armenianPEH" unicode="&#x54a;" horiz-adv-x="1629" 
d="M350 940v-113h-290v133q0 95 27.5 171t77 134.5t116.5 100.5t146.5 69t167 40t177.5 13q145 0 273.5 -29t225 -92.5t152.5 -164t56 -242.5v-960h-285v940q0 126 -74.5 197t-204.5 94v-597h-286v597q-130 -23 -204.5 -94t-74.5 -197z" />
    <glyph glyph-name="armenianJHEH" unicode="&#x54b;" horiz-adv-x="1469" 
d="M734 491q-84 26 -161 52t-143 56t-120 67.5t-92 88t-58.5 115.5t-20.5 151q0 50 1 94t4 91t9.5 101t17.5 125q70 17 130.5 28t116 17t107.5 8.5t105 2.5q189 0 322 -48t217 -132.5t122.5 -201t38.5 -253.5q0 -84 -23 -168.5t-65 -162t-101 -144t-131 -113.5h309v-265
h-1169v411h285v-146h88q117 25 212 79t162.5 127.5t104.5 164t37 189.5q0 94 -22 169t-71 127t-126.5 79.5t-189.5 27.5q-38 0 -88 -2.5t-110 -10.5q-4 -49 -6 -92t-2 -87q0 -70 23 -115.5t77.5 -80.5t145.5 -66t228 -72l33 -10q-8 -23 -21 -51t-31.5 -57t-42.5 -57t-54 -51
z" />
    <glyph glyph-name="armenianRA" unicode="&#x54c;" horiz-adv-x="1560" 
d="M1290 0h-285v954q0 69 -21 122t-59 89t-90.5 55t-114.5 19t-114.5 -19t-90.5 -55t-59 -89t-21 -122v-954h-285v944q0 129 44 230.5t120.5 171t180.5 106t225 36.5t225 -36.5t180.5 -106t120.5 -171t44 -230.5v-277h230v-263h-230v-404z" />
    <glyph glyph-name="armenianSEH" unicode="&#x54d;" horiz-adv-x="1440" 
d="M1290 522q0 -129 -44 -230.5t-120.5 -171t-180.5 -106t-225 -36.5t-225 36.5t-180.5 106t-120.5 171t-44 230.5v944h285v-954q0 -69 21 -122t59 -89t90.5 -55t114.5 -19t114.5 19t90.5 55t59 89t21 122v954h285v-944z" />
    <glyph glyph-name="armenianVEW" unicode="&#x54e;" horiz-adv-x="1489" 
d="M80 1062h285v-173q0 -70 22 -123t61 -89t93 -54t118 -18q34 0 71 6t73 18t70 30.5t62 43.5v763h285v-1203h229v-263h-514v425q-69 -35 -143.5 -52t-153.5 -17q-119 0 -221 36.5t-177 106.5t-117.5 170.5t-42.5 228.5v164z" />
    <glyph glyph-name="armenianTIWN" unicode="&#x54f;" horiz-adv-x="1381" 
d="M90 505h288v-77q0 -53 25.5 -91.5t68.5 -64t100 -38t120 -12.5q151 0 223 49.5t72 134.5q0 49 -26 83.5t-72.5 59.5t-110 44t-138.5 37q-63 15 -124 31.5t-115.5 39.5t-100.5 54t-79.5 75t-52 103.5t-18.5 138.5q0 94 38.5 171t108 131.5t167 84t216.5 29.5
q129 0 231.5 -28t174 -83t110 -136.5t38.5 -187.5v-64h-291v64q0 94 -65.5 142.5t-197.5 48.5q-62 0 -106 -14t-72 -37.5t-41.5 -54.5t-13.5 -66q0 -47 22.5 -78t63.5 -53t100 -38t133 -33q107 -25 202.5 -58.5t167 -86t113.5 -127.5t42 -182q0 -99 -38.5 -179.5
t-114.5 -138t-187.5 -89t-258.5 -31.5q-130 0 -240.5 29.5t-190.5 86.5t-125.5 141t-45.5 193v77z" />
    <glyph glyph-name="armenianREH" unicode="&#x550;" horiz-adv-x="1370" 
d="M1290 827h-285v127q0 69 -21 122t-59 89t-90.5 55t-114.5 19t-114.5 -19t-90.5 -55t-59 -89t-21 -122v-954h-285v944q0 129 44 230.5t120.5 171t180.5 106t225 36.5t225 -36.5t180.5 -106t120.5 -171t44 -230.5v-117z" />
    <glyph glyph-name="armenianCO" unicode="&#x551;" horiz-adv-x="1428" 
d="M167 1066q0 103 40 182t112.5 132t173 80.5t221.5 27.5q125 0 225.5 -28.5t171 -84t108 -136.5t37.5 -186q0 -39 -11 -80t-31.5 -77.5t-50.5 -66t-69 -46.5q57 -21 98 -56t67.5 -80.5t39 -101t12.5 -117.5q0 -112 -46.5 -196t-127 -140t-189.5 -84t-233 -28
q-125 0 -235 28t-192.5 84t-130.5 140t-48 196v37h289v-37q0 -97 77 -150.5t240 -53.5q81 0 138.5 14t94 40t53.5 64t17 86q0 59 -17 99.5t-53.5 65t-94 35.5t-138.5 11h-595v253h107q-29 35 -44.5 83t-15.5 91zM459 1061q0 -47 18.5 -79t52.5 -52t80.5 -29t103.5 -9t103 9
t78.5 29t50.5 52t18 79q0 49 -18 83.5t-50.5 56.5t-78.5 31.5t-103 9.5t-103.5 -9.5t-80.5 -31.5t-52.5 -56.5t-18.5 -83.5z" />
    <glyph glyph-name="armenianYIWN" unicode="&#x552;" horiz-adv-x="1033" 
d="M993 799h-558v-799h-285v1466h285v-404h558v-263z" />
    <glyph glyph-name="armenianPIWR" unicode="&#x553;" horiz-adv-x="1848" 
d="M773 150q-316 7 -480.5 154t-164.5 430q0 141 41 251t122 187t201.5 118.5t280.5 45.5v130h285v-130q159 -3 279 -45t200.5 -119t121 -187t40.5 -251q0 -284 -161.5 -430.5t-479.5 -153.5v-150h-285v150zM1409 734q0 76 -16 138.5t-55.5 107.5t-107.5 71.5t-172 29.5
v-676q104 3 172 26.5t107.5 66t55.5 102t16 134.5zM422 734q0 -75 15.5 -134.5t55.5 -102t107.5 -66t172.5 -26.5v676q-105 -3 -172.5 -29.5t-107.5 -72t-55.5 -108t-15.5 -137.5z" />
    <glyph glyph-name="armenianKEH" unicode="&#x554;" horiz-adv-x="1491" 
d="M1328 104h-836v-104h-285v104h-152v249h152v634q0 130 44 224.5t120.5 155.5t180.5 90t225 29q120 0 225.5 -29t184 -90t124 -155.5t45.5 -224.5q0 -127 -46 -217.5t-123 -148.5t-177.5 -85.5t-209.5 -27.5q-78 0 -155.5 13t-152.5 47v-215h836v-249zM1062 987
q0 71 -21 119.5t-59 78.5t-90.5 43.5t-114.5 13.5t-114.5 -13.5t-90.5 -43.5t-59 -78.5t-21 -119.5v-145q58 -50 125.5 -72t159.5 -22q62 0 114.5 11t90.5 38t59 73t21 117z" />
    <glyph glyph-name="armenianOH" unicode="&#x555;" horiz-adv-x="1513" 
d="M100 733q0 104 15 200.5t47.5 180.5t84 153t124.5 118t168.5 76t216.5 27t216.5 -27t168.5 -76t125 -118t84.5 -153t47.5 -180.5t15 -200.5t-15 -200.5t-47.5 -180.5t-84.5 -153t-125 -118t-168.5 -76t-216.5 -27t-216.5 27t-168.5 76t-124.5 118t-84 153t-47.5 180.5
t-15 200.5zM390 733q0 -123 21 -217.5t65 -158.5t113.5 -97t166.5 -33t166.5 33t114 97t65 158.5t20.5 217.5t-20.5 217.5t-65 158.5t-114 97t-166.5 33t-166.5 -33t-113.5 -97t-65 -158.5t-21 -217.5z" />
    <glyph glyph-name="armenianFEH" unicode="&#x556;" horiz-adv-x="1729" 
d="M886 -22q-198 0 -338 33t-228.5 101.5t-129 173.5t-40.5 249v132h299v-132q0 -73 14 -128t48 -93.5t91.5 -59.5t144.5 -26v600h-54q-101 0 -182.5 18t-140 56.5t-90 99t-31.5 146.5t31.5 146.5t90 98.5t140 55.5t182.5 17.5h339v-405q141 -3 251 -34t186 -94.5
t115.5 -162.5t39.5 -238q0 -144 -41 -249t-129.5 -172.5t-229 -100t-338.5 -32.5zM1330 532q0 72 -14 126t-48.5 90.5t-92 56t-143.5 22.5v-599q86 5 143.5 26t92 59t48.5 92.5t14 126.5zM533 1148q0 -18 7.5 -33.5t25.5 -27t49 -18.5t78 -7h54v184h-54q-50 0 -81 -8
t-48.5 -21.5t-24 -31.5t-6.5 -37z" />
    <glyph glyph-name="uni0559" unicode="&#x559;" horiz-adv-x="576" 
d="M457 1176v-284h-288v235q0 127 52 218.5t161 141.5l88 -139q-54 -24 -77 -71.5t-23 -100.5h87z" />
    <glyph glyph-name="uni055A" unicode="&#x55a;" horiz-adv-x="527" 
d="M216 1261v284h288v-235q0 -127 -52 -218.5t-161 -141.5l-88 139q54 24 77 71.5t23 100.5h-87z" />
    <glyph glyph-name="uni055B" unicode="&#x55b;" horiz-adv-x="510" 
d="M266 1628h271l-354 -451h-166z" />
    <glyph glyph-name="armexclam" unicode="&#x55c;" horiz-adv-x="540" 
d="M24 1177q-11 38 -14 63.5t-3 45.5q0 65 24 109t60 74t80 50t83 37.5t69 37.5t39 50q3 10 4 19t1 18q0 18 -3.5 33.5t-7.5 26.5h177q6 -14 10.5 -29.5t7.5 -31t4.5 -29.5t1.5 -24q0 -52 -24 -89.5t-60.5 -66t-80.5 -49.5t-84 -39q-35 -16 -58 -32.5t-36.5 -33.5t-18.5 -35
t-5 -36q0 -20 3.5 -35.5t8.5 -33.5h-178z" />
    <glyph glyph-name="armsep" unicode="&#x55d;" horiz-adv-x="513" 
d="M517 1177h-236l-303 482h270z" />
    <glyph glyph-name="armquestion" unicode="&#x55e;" horiz-adv-x="620" 
d="M570 1486q0 -56 -22.5 -98.5t-63 -71t-95.5 -43t-119 -14.5v160q20 0 39 3.5t33.5 11t23.5 20.5t9 32q0 29 -20 48.5t-62 19.5q-47 0 -78.5 -14t-50.5 -37t-27 -51.5t-8 -57.5q0 -21 1 -44t5.5 -49t12 -56.5t21.5 -67.5h-183q-23 63 -31.5 112.5t-8.5 104.5
q0 78 28.5 140t76 105.5t110.5 67t132 23.5q58 0 109 -17t88 -48.5t58.5 -77t21.5 -101.5z" />
    <glyph glyph-name="uni055F" unicode="&#x55f;" horiz-adv-x="0" 
d="M-242 1566h-987v375h237v-155h750v-220z" />
    <glyph glyph-name="armenianAyb" unicode="&#x561;" horiz-adv-x="1671" 
d="M704 1062h265v-687q0 -32 3.5 -63t17.5 -55.5t42.5 -39.5t78.5 -15q22 0 45.5 5.5t45.5 15.5t40 22.5t30 27.5v789h265v-1062h-249v62q-45 -36 -104 -60t-131 -24q-88 0 -150 28t-104 74q-60 -46 -131 -74t-163 -28q-96 0 -165.5 27t-115 77t-67 120.5t-21.5 157.5v702
h265v-687q0 -39 6 -70.5t20.5 -54.5t39 -35.5t62.5 -12.5q64 0 110 21.5t73 49.5q-4 23 -6 45t-2 44v700z" />
    <glyph glyph-name="armenianBen" unicode="&#x562;" 
d="M384 1062v-62q54 45 115 64.5t130 19.5q88 0 156 -25t114.5 -72t70 -115.5t23.5 -156.5v-322h-265v294q0 41 -6.5 73t-23 54.5t-45 34t-72.5 11.5q-69 0 -114.5 -22.5t-66.5 -48.5v-560h621v-229h-621v-407h-265v1469h249z" />
    <glyph glyph-name="armenianGim" unicode="&#x563;" horiz-adv-x="1238" 
d="M743 -407v455q-43 -31 -103 -50.5t-126 -19.5q-89 0 -169 29.5t-141.5 94t-97.5 166.5t-36 247q0 157 45 265.5t121 176t174.5 97.5t205.5 30q40 0 88 -3.5t99 -12.5t103 -24.5t102 -40.5v-774h230v-229h-230v-407h-265zM743 841q-27 8 -59 13.5t-71 5.5q-135 0 -204 -83
t-69 -258q0 -85 15 -145t43.5 -98.5t69.5 -56t94 -17.5q37 0 66.5 7t52.5 18t38.5 23t23.5 23v568z" />
    <glyph glyph-name="armenianDa" unicode="&#x564;" horiz-adv-x="1223" 
d="M384 1062v-62q53 44 114.5 64t130.5 20q88 0 156 -25t114.5 -72t70 -115.5t23.5 -156.5v-486h230v-229h-230v-407h-265v1097q0 39 -7 70q-6 32 -22.5 54.5t-45 34t-72.5 11.5q-68 0 -114 -22.5t-67 -48.5v-789h-265v1062h249z" />
    <glyph glyph-name="armenianEch" unicode="&#x565;" 
d="M744 0v62q-53 -44 -114.5 -64t-130.5 -20q-177 0 -270.5 96.5t-93.5 272.5v1119h265v-404h613v-232h-613v-455q0 -41 6.5 -73t23 -54.5t45 -34t72.5 -11.5q68 0 114 22.5t67 48.5v377h265v-650h-249z" />
    <glyph glyph-name="armenianZa" unicode="&#x566;" horiz-adv-x="1143" 
d="M743 -407v455q-43 -31 -103 -50.5t-126 -19.5q-89 0 -169 29.5t-141.5 94t-97.5 166.5t-36 247q0 157 45 265.5t121 176t174.5 97.5t205.5 30q40 0 88 -3.5t99 -12.5t103 -24.5t102 -40.5v-1181h230v-229h-495zM743 841q-27 8 -59 13.5t-71 5.5q-135 0 -204 -83t-69 -258
q0 -85 15 -145t43.5 -98.5t69.5 -56t94 -17.5q37 0 66.5 7t52.5 18t38.5 23t23.5 23v568z" />
    <glyph glyph-name="armenianEh" unicode="&#x567;" horiz-adv-x="977" 
d="M978 833h-578v-604h496v-229h-761v1466h265v-404h578v-229z" />
    <glyph glyph-name="armenianEt" unicode="&#x568;" 
d="M384 1062v-62q53 44 114.5 64t130.5 20q88 0 156 -25t114.5 -72t70 -115.5t23.5 -156.5v-715h-265v687q0 41 -6.5 73t-23 54.5t-45 34t-72.5 11.5q-68 0 -114 -22.5t-67 -48.5v-967h621v-229h-886v1469h249z" />
    <glyph glyph-name="armenianTo" unicode="&#x569;" horiz-adv-x="1431" 
d="M878 441q-52 0 -84.5 -30t-32.5 -88q0 -60 33.5 -90.5t81.5 -30.5q28 0 55 11.5t47 39.5t32.5 74t12.5 114h-145zM698 862q-52 0 -101 -7t-89.5 -17.5t-69 -23.5t-38.5 -25v-1196h-265v1469h249v-62q33 22 76.5 38t91.5 26.5t97.5 15t94.5 4.5q103 0 197.5 -25.5t168 -77
t120 -129t55.5 -181.5h126v-230h-123q0 -123 -35 -211t-92.5 -144t-133 -82t-156.5 -26q-76 0 -143 21.5t-116.5 65t-78.5 107.5t-29 150q0 88 28.5 154t78 109t117.5 64.5t148 21.5h142q-11 57 -42 93.5t-75 58.5t-96.5 30.5t-106.5 8.5z" />
    <glyph glyph-name="armenianZhe" unicode="&#x56a;" horiz-adv-x="1237" 
d="M1237 833h-230v-313q0 -123 -28.5 -223t-86 -170.5t-145.5 -108.5t-206 -38t-206.5 38.5t-147 109.5t-88 171t-29.5 223t29.5 222.5t88 170t147 109t206.5 38.5h201v404h265v-404h230v-229zM742 833h-201q-54 0 -92 -21t-62.5 -61.5t-35.5 -98.5t-11 -131
q0 -74 10.5 -133t34.5 -100.5t62.5 -64t93.5 -22.5t93.5 22.5t62.5 64t34.5 101.5t10.5 135v309z" />
    <glyph glyph-name="armenianIni" unicode="&#x56b;" 
d="M400 1466v-460q40 34 100 56t129 22q88 0 156 -25t114.5 -72t70 -115.5t23.5 -156.5v-715h-265v687q0 41 -6.5 73t-23 54.5t-45 34t-72.5 11.5q-68 0 -114 -22.5t-67 -48.5v-1196h-265v1873h265z" />
    <glyph glyph-name="armenianLiwn" unicode="&#x56c;" horiz-adv-x="535" 
d="M650 -407h-515v1469h265v-1241h250v-228z" />
    <glyph glyph-name="armenianXeh" unicode="&#x56d;" horiz-adv-x="1665" 
d="M704 687q0 32 -3.5 63t-17.5 55.5t-42.5 39.5t-78.5 15q-22 0 -45.5 -5.5t-45.5 -15.5t-40 -22.5t-30 -27.5v-1196h-265v1873h265v-455q42 34 97.5 53.5t121.5 19.5q67 0 130 -19.5t112 -64.5t78 -118.5t29 -181.5v-325q0 -32 2.5 -63t16 -55.5t41.5 -39.5t78 -15
q22 0 46 5.5t46.5 15.5t41.5 22.5t31 27.5v789h265v-1062h-249v62q-45 -36 -106 -60t-133 -24q-68 0 -130 21.5t-110 67.5t-76.5 119t-28.5 176v325z" />
    <glyph glyph-name="armenianCa" unicode="&#x56e;" horiz-adv-x="1137" 
d="M80 531q0 90 18 169.5t54.5 144t91.5 112t130 74.5l-156 106l224 329h305l-186 -262l207 -142h284v-224h-68q24 -44 38 -87t22 -83t10.5 -75t2.5 -62q0 -114 -26.5 -215t-85 -176t-151.5 -118.5t-226 -43.5q-134 0 -226.5 43t-151 118t-84.5 175.5t-26 216.5zM786 531
q0 102 -35.5 180.5t-93.5 126.5h-82q-60 0 -102.5 -23t-69.5 -64t-39.5 -97.5t-12.5 -122.5q0 -76 12 -137t38.5 -103.5t67.5 -65.5t99 -23t99.5 23t68 65.5t38.5 103.5t12 137z" />
    <glyph glyph-name="armenianKen" unicode="&#x56f;" 
d="M728 -407v463q-40 -34 -100 -56t-129 -22q-177 0 -270.5 96.5t-93.5 272.5v1119h265v-1091q0 -41 6.5 -73t23 -54.5t45 -34t72.5 -11.5q68 0 114 22.5t67 48.5v789h265v-1469h-265z" />
    <glyph glyph-name="armenianHo" unicode="&#x570;" 
d="M400 1466v-460q54 45 112.5 61.5t116.5 16.5q88 0 156 -25t114.5 -72t70 -115.5t23.5 -156.5v-715h-265v687q0 41 -6.5 73t-23 54.5t-45 34t-72.5 11.5q-69 0 -114.5 -22.5t-66.5 -48.5v-789h-265v1466h265z" />
    <glyph glyph-name="armenianJa" unicode="&#x571;" horiz-adv-x="1104" 
d="M966 596v-596h-249v62q-54 -45 -115 -64.5t-130 -19.5q-89 0 -162.5 26.5t-127 80.5t-83 135.5t-29.5 191.5q0 101 29.5 196t84.5 179.5t132 157.5t172 130q-72 25 -130.5 58t-100.5 79.5t-65.5 108.5t-24.5 145h265q3 -42 19.5 -70.5t49.5 -50t83 -40t119 -40.5
q62 -20 91.5 -60.5t29.5 -83.5q0 -34 -7.5 -59.5t-20.5 -44.5t-31.5 -32.5t-40.5 -23.5l-9 -5q121 -46 186 -138.5t65 -221.5zM520 202q69 0 114.5 22.5t66.5 48.5v302q0 80 -44.5 143t-146.5 95q-33 -30 -63.5 -70t-54 -87.5t-38 -100t-14.5 -107.5q0 -49 9 -93.5t30 -78.5
t55.5 -54t85.5 -20z" />
    <glyph glyph-name="armenianLad" unicode="&#x572;" 
d="M384 1062v-62q53 44 114.5 64t130.5 20q88 0 156 -25t114.5 -72t70 -115.5t23.5 -156.5v-893h230v-229h-495v1097q0 39 -7 70q-6 32 -22.5 54.5t-45 34t-72.5 11.5q-68 0 -114 -22.5t-67 -48.5v-789h-265v1062h249z" />
    <glyph glyph-name="armenianCheh" unicode="&#x573;" horiz-adv-x="1122" 
d="M100 833v229h167q48 87 109 161t134.5 128t160 84.5t184.5 30.5h132v-229h-160q-84 0 -154.5 -49.5t-125.5 -129.5q97 -10 177.5 -44.5t139 -92t91 -137t32.5 -179.5v-605h-249v62q-53 -44 -114.5 -64t-130.5 -20q-89 0 -162.5 22t-126 69t-82 120.5t-29.5 176.5
q0 113 18.5 232t56.5 235h-68zM362 418q0 -106 45.5 -161t133.5 -55q68 0 114 22.5t67 48.5v311q0 115 -65 182t-195 67h-26q-36 -103 -55 -210.5t-19 -204.5z" />
    <glyph glyph-name="armenianMen" unicode="&#x574;" 
d="M744 0v62q-53 -44 -114.5 -64t-130.5 -20q-177 0 -270.5 96.5t-93.5 272.5v715h265v-687q0 -41 6.5 -73t23 -54.5t45 -34t72.5 -11.5q68 0 114 22.5t67 48.5v1193h495v-229h-230v-1237h-249z" />
    <glyph glyph-name="armenianYi" unicode="&#x575;" horiz-adv-x="535" 
d="M-128 -194q29 -6 54.5 -9.5t48.5 -3.5q37 0 67 10.5t50.5 35.5t31.5 66.5t11 104.5v1052h265v-1052q0 -120 -29 -203.5t-79.5 -135.5t-118.5 -75t-145 -23q-27 0 -68 1.5t-88 12.5v219z" />
    <glyph glyph-name="armenianNow" unicode="&#x576;" 
d="M744 0v62q-53 -44 -114.5 -64t-130.5 -20q-177 0 -270.5 96.5t-93.5 272.5v890h-230v229h495v-1091q0 -41 6.5 -73t23 -54.5t45 -34t72.5 -11.5q68 0 114 22.5t67 48.5v789h265v-1062h-249z" />
    <glyph glyph-name="armenianSha" unicode="&#x577;" horiz-adv-x="857" 
d="M787 650q0 -94 -38 -179.5t-95.5 -163t-124.5 -145t-124.5 -125t-95.5 -104.5t-38 -81q0 -15 10.5 -22.5t26.5 -7.5h432v-229h-496q-63 0 -108.5 18t-75 48t-43.5 69.5t-14 82.5q0 56 22 109t58 104t82.5 101t94.5 100.5t94.5 101t82.5 103t58 107.5t22 113
q0 73 -25.5 114.5t-61.5 62t-75 25.5t-67 5q-57 0 -115.5 -9t-112.5 -26v240q18 3 43.5 7t56.5 7.5t65.5 5.5t69.5 2q109 0 199.5 -22.5t155.5 -73.5t101 -134t36 -204z" />
    <glyph glyph-name="armenianVo" unicode="&#x578;" 
d="M384 1062v-62q53 44 114.5 64t130.5 20q88 0 156 -25t114.5 -72t70 -115.5t23.5 -156.5v-715h-265v687q0 41 -6.5 73t-23 54.5t-45 34t-72.5 11.5q-68 0 -114 -22.5t-67 -48.5v-789h-265v1062h249z" />
    <glyph glyph-name="armenianCha" unicode="&#x579;" horiz-adv-x="803" 
d="M119 1062h266q-8 -69 -16 -135.5t-8 -133.5q0 -63 37 -109t96 -82t132 -66.5t145 -63.5q-29 -70 -75.5 -135.5t-100 -125t-107.5 -112.5t-97.5 -98.5t-71 -83t-27.5 -65.5q0 -19 13 -24.5t24 -5.5h432v-229h-496q-34 0 -76 9.5t-78.5 33.5t-61.5 66.5t-25 108.5
q0 52 20.5 103t53 100t74.5 96t85 91.5t83.5 86t71.5 80.5q-72 33 -130 69t-99 83t-63.5 110t-22.5 150q0 37 2 71.5t5 68.5t7 69t8 73z" />
    <glyph glyph-name="armenianPeh" unicode="&#x57a;" horiz-adv-x="1667" 
d="M704 1062h265v-687q0 -32 3 -63t16.5 -55.5t42 -39.5t78.5 -15q22 0 46 5.5t46 15.5t40.5 22.5t30.5 27.5v789h265v-1489h-265v481q-42 -32 -98.5 -54t-122.5 -22q-88 0 -149 28t-103 74q-60 -46 -131.5 -74t-164.5 -28q-96 0 -165 27t-114 77t-66.5 120.5t-21.5 157.5
v702h265v-687q0 -39 5.5 -70.5t19.5 -54.5t38.5 -35.5t62.5 -12.5q64 0 111 21.5t74 49.5q-4 23 -6 45t-2 44v700z" />
    <glyph glyph-name="armenianJheh" unicode="&#x57b;" horiz-adv-x="1094" 
d="M116 631q0 42 2 92.5t5.5 104t8 107.5t9.5 105q37 10 82.5 18t94 14t97 9t92.5 3q111 0 204 -24.5t160 -77t104 -134.5t37 -198q0 -63 -21 -123.5t-56.5 -118t-82.5 -111.5t-98.5 -104t-104.5 -95t-101 -85q-29 -24 -59 -47.5t-54.5 -45t-40 -39t-15.5 -29.5
q0 -15 10.5 -22.5t26.5 -7.5h565v-229h-629q-63 0 -108.5 18t-75 48t-43.5 69.5t-14 82.5q0 52 24 102.5t63.5 99t91 96t106.5 94.5l-54 26q-60 28 -102.5 65t-70 86t-40.5 111t-13 140zM741 650q0 59 -16.5 99.5t-46.5 65t-71 35.5t-90 11q-24 0 -58.5 -2.5t-65.5 -7.5
q-3 -26 -5 -55t-3.5 -58t-2.5 -57t-1 -52q0 -42 4 -73.5t15.5 -56t33 -43.5t56.5 -35l98 -47q33 33 61 66.5t48.5 68t32 69.5t11.5 72z" />
    <glyph glyph-name="armenianRa" unicode="&#x57c;" horiz-adv-x="1145" 
d="M581 860q-68 0 -114 -22.5t-67 -48.5v-789h-265v1062h249v-62q53 44 114.5 64t130.5 20q96 0 169 -32.5t122 -88t75.5 -129.5t29.5 -156q0 -60 -9 -122.5t-28 -121t-50 -111t-74 -94.5h221v-229h-552v183q52 44 93 93t69 106.5t43 124t15 144.5q0 42 -9.5 80t-30.5 66.5
t-53.5 45.5t-78.5 17z" />
    <glyph glyph-name="armenianSeh" unicode="&#x57d;" 
d="M744 0v62q-53 -44 -114.5 -64t-130.5 -20q-177 0 -270.5 96.5t-93.5 272.5v715h265v-687q0 -41 6.5 -73t23 -54.5t45 -34t72.5 -11.5q68 0 114 22.5t67 48.5v789h265v-1062h-249z" />
    <glyph glyph-name="armenianVew" unicode="&#x57e;" 
d="M728 -407v463q-40 -34 -100 -56t-129 -22q-177 0 -270.5 96.5t-93.5 272.5v715h265v-687q0 -41 6.5 -73t23 -54.5t45 -34t72.5 -11.5q68 0 114 22.5t67 48.5v1193h265v-1645h230v-228h-495z" />
    <glyph glyph-name="armenianTiwn" unicode="&#x57f;" horiz-adv-x="1667" 
d="M1537 0h-265v687q0 32 -3.5 63t-17.5 55.5t-42.5 39.5t-78.5 15q-22 0 -45.5 -5.5t-45.5 -15.5t-40 -22.5t-30 -27.5v-789h-249v62q-45 -36 -105 -60t-132 -24q-68 0 -130.5 19.5t-110.5 64.5t-77 118.5t-29 181.5v700h265v-687q0 -32 3 -63t16.5 -55.5t42 -39.5
t78.5 -15q22 0 46 5.5t46 15.5t40.5 22.5t30.5 27.5v789h249v-62q45 36 104 60t131 24q67 0 130 -19.5t112 -64.5t78 -118.5t29 -181.5v-700z" />
    <glyph glyph-name="armenianReh" unicode="&#x580;" 
d="M384 1062v-62q53 44 114.5 64t130.5 20q88 0 156 -25t114.5 -72t70 -115.5t23.5 -156.5v-715h-265v687q0 41 -6.5 73t-23 54.5t-45 34t-72.5 11.5q-68 0 -114 -22.5t-67 -48.5v-1196h-265v1469h249z" />
    <glyph glyph-name="armenianCo" unicode="&#x581;" horiz-adv-x="1143" 
d="M743 70q-43 -31 -103 -50.5t-126 -19.5q-89 0 -169 26t-141.5 86.5t-97.5 159t-36 243.5q0 157 45 265.5t121 176t174.5 97.5t205.5 30q40 0 88 -3.5t99 -12.5t103 -24.5t102 -40.5v-931q0 -129 -36.5 -220.5t-103.5 -149.5t-161 -87.5t-208 -29.5q-51 0 -121.5 10
t-140.5 29v236q34 -11 69 -20t68 -15t62 -9t52 -3q126 0 190.5 63t64.5 194zM743 841q-27 8 -59 13.5t-71 5.5q-135 0 -204 -83t-69 -258q0 -85 15 -141.5t43.5 -90.5t69.5 -48.5t94 -14.5q37 0 66.5 7t52.5 18t38.5 23t23.5 23v546z" />
    <glyph glyph-name="armenianYiwn" unicode="&#x582;" horiz-adv-x="805" 
d="M805 0h-670v1062h265v-833h405v-229z" />
    </font>
</defs>
</svg>
