<svg xmlns="http://www.w3.org/2000/svg" viewBox="0 0 218 92"><defs><style>.cls-1{fill:none;}.cls-2{fill:#010101;}.cls-2,.cls-6{opacity:0.2;}.cls-3{fill:#fff;}.cls-4{fill:#c9a546;}.cls-5{fill:#c3322d;}.cls-7{fill:#f0f1f1;}</style></defs><g id="Layer_2" data-name="Layer 2"><g id="Layer_1-2" data-name="Layer 1"><rect class="cls-1" width="218" height="92"/><path class="cls-2" d="M39.65,6.74c-4,1.16-5.21,6.81-5.34,10.42-.9,1.94-2.16,8.45-2.42,13C30,33,28.79,40.6,28.53,42.67a7.7,7.7,0,0,0-1,1L25.1,29.84A64.27,64.27,0,0,0,22.1,16c-.25-.9-1.85-7.64-2.09-8.24A3.22,3.22,0,0,0,18.15,6c-1.56-.25-5,.44-6.55,2.25S9,13.72,12,20.44c-.26,2.07.64,4.78,3,11.63a53,53,0,0,0,1.68,12.41c-3.75-2.07-6.08-1.42-7.37-.52-2.71,1.68-2.45,5.17-2.45,7.76a4.44,4.44,0,0,0-3.49.51C-2.23,55.72.48,66.06,2.16,69.68c1.42,8.79,5,12.8,8.27,14.48V92H36.8V81.57c6.08-7.75,6-29.85,3.23-37.22.31-1.53,1.83-8.76,3.21-16.16C44.77,20,45.93,12.05,46,11,46.67,7,41.84,6.09,39.65,6.74Z"/><path class="cls-3" d="M10.05,71c3.23.52,4.65-3.36,1.42-4.26-1.16-.35-2.43.87-3,1.59l-.75-.39a8.38,8.38,0,0,1,1.63-2.1C7.46,64.64,5.91,63.09,6.17,60A4.89,4.89,0,0,1,8.5,56.37c-.82-1.29-1.44-3.63-3.47-2.9H5a3.1,3.1,0,0,0-.67.32A4.26,4.26,0,0,0,3.15,55,7.2,7.2,0,0,0,2,58.18C2,61,4.36,65.29,6.56,68.26,7.72,69.81,8.88,70.85,10.05,71Z"/><path class="cls-3" d="M44.1,10.83c-.11-1.19-.72-2.32-2.76-2.32a5.07,5.07,0,0,0-.66,0c-.11,0-.2.06-.31.08a2.46,2.46,0,0,0-.53.15h0a2.42,2.42,0,0,0-.4.25,3.73,3.73,0,0,0-.37.23,3.31,3.31,0,0,0-.47.45l-.08.07,0,0a6.46,6.46,0,0,0-.9,1.33h0l0,.1h0a10,10,0,0,0-.64,1.61c0,.06,0,.11-.05.16l-.06.25c-.05.2-.11.4-.15.6v0c-.06.29-.11.58-.15.88,0,.07,0,.14,0,.2s0,.16,0,.23,0,.44,0,.66a7,7,0,0,1,1.33-.29l.25,0h0a8.92,8.92,0,0,1,1.35-.07h0c.25,0,.5,0,.72,0v.64l-.44.12c-.18,0-.33.09-.5.14l-.55.15-.06,0a7.2,7.2,0,0,0-.85.35l-.18.1a5,5,0,0,0-.59.34l-.06,0a7.2,7.2,0,0,0-.8.62h0a28.34,28.34,0,0,0-1.16,4.56c-.1.52-.2,1.05-.29,1.6-.22,1.37-.41,2.82-.52,4.19q0,.41-.06.81a4.81,4.81,0,0,1,1.26-.51l.08,0h0l.53-.14c.25,0,.5-.09.76-.12h0c.31,0,.61-.07.91-.08l.21,0h0l.38,0v.78a3.26,3.26,0,0,0-.52,0l-.12,0-.27.06-.2.05-.09,0-.28.09-.24.09-.09,0-.27.12-.28.13-.32.17-.3.16-.28.17-.31.21-.16.12-.07,0-.31.25-.16.13a3.23,3.23,0,0,0-.37.37h0c-1.26,1.79-2.26,6.82-2.73,10,0,.24-.07.48-.1.7-.06.45-.11.84-.14,1.17a51,51,0,0,0-5.39,5.52c-.09.11-.15.16-.17.16l-.77-.38a9.2,9.2,0,0,1,1-1.88c.23-.34.48-.71.77-1.1L23.16,30.1a50,50,0,0,0-.89-5.73c-.24-1.12-.49-2.2-.74-3.19-.16-.65-.32-1.26-.46-1.81-.44-1.64-.78-2.74-.78-2.84s-1.5-6.09-2.14-8.42a4.59,4.59,0,0,0-1.55,0,8.09,8.09,0,0,0-1.27.18,5.43,5.43,0,0,0-.61.18,3.86,3.86,0,0,0-.54.26l-.12.09a4.08,4.08,0,0,0-.78.65,4.37,4.37,0,0,0-.44.62c-.05.08-.11.14-.15.22a5.36,5.36,0,0,0-.6,2.14s0,0,0,0v.11a8.5,8.5,0,0,0,0,1c0,.07,0,.14,0,.21s0,.24,0,.36c0,.37.07.73.15,1.12,0,.24.12.5.18.75s.11.5.19.76l0,.11c.16.53.35,1.09.57,1.65,0,0,0,.07,0,.11h0a6.3,6.3,0,0,1,.68-.5h0A7.16,7.16,0,0,1,17.41,17v.77a3.29,3.29,0,0,0-.64.12l-.14.05-.35.13-.13.05-.15.08-.26.15-.13.09-.12.09a2.11,2.11,0,0,0-.23.19.69.69,0,0,0-.13.11l-.29.3-.13.14-.21.26,0,0-.12.17-.15.23,0,0-.12.22a1.74,1.74,0,0,0-.11.18c-.06.13-.12.25-.16.36-.13,1.55.77,4.39,2.71,10a5.73,5.73,0,0,1,.7-.34h0l.34-.14L18,30h0l.58-.19h0l.68-.18.32-.09h0c.31-.06.61-.13.92-.18l.25.9a4.32,4.32,0,0,0-.8.25h0a6,6,0,0,0-.81.39l-.25.15-.54.34-.24.17c-.22.16-.43.32-.62.48l-.08.06a6.65,6.65,0,0,0-.53.49c0,.42,0,.87,0,1.33,0,.12,0,.23,0,.35,0,.45.07.9.12,1.37v.06c.05.49.11,1,.18,1.49,0,.13,0,.26.05.39L17.53,39s0,.07,0,.11c.08.49.16,1,.25,1.46l.06.36c.08.43.16.85.24,1.25v.08c.09.45.18.87.26,1.27,0,.08,0,.15,0,.22.08.37.15.72.22,1,.11.51.19.9.25,1.16l0,.13c0,.15.06.26.06.27l.64,2.45-2.07-1.42c-.29-.2-.57-.37-.85-.54s-.29-.19-.42-.26l-.22-.13c-.35-.19-.69-.37-1-.52l-.14-.07a8.24,8.24,0,0,0-1-.4l-.05,0a8.71,8.71,0,0,0-1-.26h-.12l-.58-.06h-.07l-.29,0h-.29l-.2.05a2.73,2.73,0,0,0-.41.1,2.26,2.26,0,0,0-.56.28c-2,1.51-1.9,4.37-1.25,6.89.12.45.26.9.4,1.33.08.21.15.42.23.62.16.4.32.78.49,1.12l1.22-.27h0l.22,0h0L12.74,55h.08q.57-.06,1.14-.09h.32c.31,0,.62,0,.94,0h.34l1.2.12h0l.19,0h0c.47.08,1,.16,1.49.29-.26-.62-.53-1.27-.82-1.93-.42-1-.85-2-1.27-2.9s-.8-1.7-1.14-2.28h1.55a.45.45,0,0,1,.07.09,3.59,3.59,0,0,1,.29.41c.38.55,1,1.49,1.59,2.61a25.79,25.79,0,0,1,1.93,4.25l5.94.78c5.95.26,11.25,4.78,11.5,4.91l-.51.78h0a31.44,31.44,0,0,0-9.08-3.6,15.87,15.87,0,0,0-2-.28c-1.05,0-2-.13-3-.22h0c-1.2-.12-2.33-.26-3.37-.42l-.29,0h0l-1.35-.23c-1-.19-1.84-.32-2.59-.4a17.21,17.21,0,0,0-1.81-.11,13.67,13.67,0,0,0-2,.23c-2,.39-3.77,1.29-4,3.13a3.82,3.82,0,0,0,.52,2.71l3.74.26a5,5,0,0,1,0-1.23c0-.21.05-.42.09-.64a6.28,6.28,0,0,1,.44-1.33,7.38,7.38,0,0,1,.79-1.33,7.81,7.81,0,0,1,.53-.64h1c-1.56,1.56-1.33,4.33-.57,6a3.18,3.18,0,0,0,.18.37l-4.4.26a32.59,32.59,0,0,0,5.28,1.4,9.66,9.66,0,0,0,3.64-.1A28.94,28.94,0,0,1,22,67.19c1.32.78,2.65,1.66,3.85,2.5.8.55,1.55,1.08,2.2,1.55l.91.64-.52,1C27.17,72.33,26,71.75,25,71.15s-2.12-1.21-3.15-1.86A9.41,9.41,0,0,0,20.43,73a12.63,12.63,0,0,0-.17,1.36c-.13,5.56,5.56,7.63,6.46,8l-.39,4H25.17l-.26-2.71c-1.68-.77-6.72-3.62-6.59-9.43a12.28,12.28,0,0,1,1.81-5.82l-1-.52c-.9.39-2.84.13-4-.13a3.82,3.82,0,0,1-1.75,4.08,4.08,4.08,0,0,1-1.4.48,5.29,5.29,0,0,1-.8.06,6.6,6.6,0,0,1-1.72-.24,8.25,8.25,0,0,1-1.8-.74A10.34,10.34,0,0,1,5,69.29a8,8,0,0,1-.94-1.14,18.11,18.11,0,0,1-1.13-1.83l1,3c.11.66.24,1.26.38,1.86,0,.12,0,.25.07.36a.83.83,0,0,0,0,.15l.09.33c.15.58.31,1.15.49,1.69A22.26,22.26,0,0,0,6.18,76.4,16.6,16.6,0,0,0,9,80.5v0a14.06,14.06,0,0,0,2.57,2.06,2.13,2.13,0,0,0,.25.16h0c.31.19.61.35.91.5s.56.26.83.38l0,0h0a8.14,8.14,0,0,0,.81.3l0,0,.1,0a10.68,10.68,0,0,0,1.3.35H16c.2,0,.38.08.55.1h.14l.34,0h0l.35,0h.29l.13,1h0c-.29,0-.69,0-1.15,0l-1.5-.12-1.49-.17L13,85.16l-.52-.1L11.92,92H35.5L35,83.38h0a6.77,6.77,0,0,1-.56.49,5.51,5.51,0,0,1-3.05,1.18v-.9a5.43,5.43,0,0,0,.84-.41,1.83,1.83,0,0,0,.26-.16,6.18,6.18,0,0,0,.53-.36l.28-.22a6.14,6.14,0,0,0,.47-.42l0,0,.25-.24c.15-.17.31-.34.46-.52l.18-.22,0,0c.2-.26.39-.52.58-.8l0-.07c.2-.3.39-.63.57-1l.17-.31c.12-.24.25-.48.37-.74l.18-.39.32-.75.15-.38v0c.11-.26.2-.54.3-.81a1.07,1.07,0,0,1,.07-.19c0-.07,0-.14.07-.21q.18-.52.33-1.08l.06-.19c.12-.43.24-.87.35-1.31,0-.14.06-.28.1-.41l.21-1,.06-.31c0-.08,0-.15,0-.22.06-.29.11-.58.16-.87s.07-.39.11-.58.09-.58.13-.87l.09-.55v0c0-.32.09-.65.13-1l0-.29,0-.21c.06-.47.1-.94.15-1.41l.06-.65.06-.81,0-.39c0-.12,0-.24,0-.36s0-.48,0-.72,0-.52,0-.78,0-.44,0-.66l0-.82c0-.19,0-.38,0-.57v0c0-1.07,0-2.12,0-3.14v-.36c0-.13,0-.25,0-.37s0-.39,0-.59,0-.25,0-.37,0-.39,0-.58,0-.24,0-.36,0-.22,0-.33c0-.32,0-.64-.07-.95,0-.06,0-.12,0-.18,0-.51-.09-1-.14-1.47l0-.28c-.06-.48-.11-1-.18-1.39s-.09-.61-.14-.9-.06-.38-.09-.55c-.08-.46-.17-.9-.26-1.31l-.06-.24c0-.19-.09-.36-.14-.53s-.06-.23-.09-.33a2,2,0,0,0-.07-.26c-.1-.32-.2-.63-.31-.89.58-3.5,1.67-8.69,2.72-14l.45-2.29c.14-.75.29-1.49.42-2.23s.27-1.48.4-2.2c.27-1.46.51-2.88.74-4.24.47-2.71.87-5.13,1.18-7a6,6,0,0,0,.09-.63c0-.23,0-.46,0-.7S44.11,11,44.1,10.83Z"/><path id="BASE_COURONNE" data-name="BASE COURONNE" class="cls-4" d="M79.08,17.92s-2-.19-4.55-.19-4.58.19-4.58.19v-.84s2-.2,4.58-.2,4.55.2,4.55.2Z"/><path class="cls-4" d="M68.12,15.44c-.59-.65-.87-1.21-.76-1.56a.83.83,0,0,1,.59-.56,3.14,3.14,0,0,1-.27-.64,3.57,3.57,0,0,0-.57,0,1.84,1.84,0,0,0-.76.24,1.29,1.29,0,0,0-.59.77c-.34,1.39,2.16,2.57,3.23,3.09l.11,0a.12.12,0,0,0,.1-.06.13.13,0,0,0,0-.18S68.64,16,68.12,15.44Z"/><path class="cls-4" d="M72.52,11.61c0-.08-.06-.18-.07-.19a3.24,3.24,0,0,0-2.24-1.1H70.1a2,2,0,0,0-1.76,1.05c-.66,1.21.47,2.47,1.2,3.3a12,12,0,0,0,2.08,1.82.24.24,0,0,0,.12,0l.11,0a.13.13,0,0,0,0-.19c-.85-1-2.4-3-1.84-4.26.47-.86,1.79-.47,2.1-.39S72.42,11.74,72.52,11.61Z"/><path class="cls-4" d="M69.22,14.89l0-.05L69,14.59a1,1,0,0,0,.13,1,6.21,6.21,0,0,0,.59.92s.44-.05,1.22-.1A11.75,11.75,0,0,1,69.22,14.89Z"/><path class="cls-4" d="M79.81,14.89l0-.05.21-.25a1,1,0,0,1-.12,1,7.64,7.64,0,0,1-.59.92s-.44-.05-1.22-.1A11.63,11.63,0,0,0,79.81,14.89Z"/><path class="cls-4" d="M73.29,13.05a10.36,10.36,0,0,0-2.7.66,11.32,11.32,0,0,0,1.65,2.51.5.5,0,0,0,.1.11l1.59,0A11.17,11.17,0,0,1,73.29,13.05Z"/><path class="cls-4" d="M75.73,13.05a10.29,10.29,0,0,1,2.69.66,11.27,11.27,0,0,1-1.64,2.51l-.1.11-1.59,0A11.54,11.54,0,0,0,75.73,13.05Z"/><path class="cls-4" d="M80.92,15.44c.58-.65.86-1.21.75-1.56a.83.83,0,0,0-.59-.56,3.14,3.14,0,0,0,.27-.64,3.53,3.53,0,0,1,.57,0,1.84,1.84,0,0,1,.76.24,1.26,1.26,0,0,1,.59.77c.34,1.39-2.16,2.57-3.22,3.09l-.12,0a.12.12,0,0,1-.1-.06.15.15,0,0,1,0-.18S80.4,16,80.92,15.44Z"/><path class="cls-4" d="M76.52,11.61c0-.08,0-.18.07-.19a3.22,3.22,0,0,1,2.23-1.1h.11a2,2,0,0,1,1.77,1.05c.65,1.21-.48,2.47-1.2,3.3a12,12,0,0,1-2.09,1.82.22.22,0,0,1-.12,0l-.1,0a.12.12,0,0,1,0-.19c.85-1,2.39-3,1.83-4.26-.47-.86-1.78-.47-2.09-.39S76.61,11.74,76.52,11.61Z"/><path class="cls-4" d="M75.45,8.89V8.46h-.72V7.77h-.45v.69h-.72v.43h.72v.68a.78.78,0,0,0-.58.75.81.81,0,0,0,1.62,0,.78.78,0,0,0-.59-.75V8.89Z"/><path class="cls-4" d="M75.23,13.38c0-1.35-.31-2-.72-2h0c-.4,0-.74.66-.72,2a9.73,9.73,0,0,0,.63,3c0,.07.07.09.1.09s.06,0,.09-.08A9.8,9.8,0,0,0,75.23,13.38Z"/><path class="cls-4" d="M84.12,19.44c-.12-.05-3-1.1-9.6-1.1s-9.49,1.05-9.6,1.1a29.47,29.47,0,0,0-.62,6.2,18.28,18.28,0,0,0,2.77,10.17,38.5,38.5,0,0,0,7.45,7.54A38.78,38.78,0,0,0,82,35.81a18.35,18.35,0,0,0,2.76-10.17A30.62,30.62,0,0,0,84.12,19.44Z"/><path class="cls-3" d="M83.12,20.26c-.1-.05-2.78-.8-8.6-.8s-8.51.75-8.61.8a34.31,34.31,0,0,0-.47,5.8,16.5,16.5,0,0,0,2.46,9.09,35.9,35.9,0,0,0,6.62,6.73,36.53,36.53,0,0,0,6.62-6.73,16.49,16.49,0,0,0,2.45-9.09A34.31,34.31,0,0,0,83.12,20.26ZM80.71,34.5a35.38,35.38,0,0,1-6.19,6.39,35.69,35.69,0,0,1-6.2-6.39A15.11,15.11,0,0,1,66,26.11a32.5,32.5,0,0,1,.43-5.35,32.25,32.25,0,0,1,8.06-.7c5.45,0,8,.65,8,.7A31.32,31.32,0,0,1,83,26.11,15.11,15.11,0,0,1,80.71,34.5Z"/><path class="cls-3" d="M82.43,25H66.6c0,.36,0,.73,0,1.09,0,1.49.22,5.26,2.2,8.08a37.5,37.5,0,0,0,5.74,6,38.4,38.4,0,0,0,5.74-6c2-2.82,2.19-6.59,2.19-8.08C82.45,25.75,82.44,25.38,82.43,25Z"/><path class="cls-5" d="M67.68,25.48V31.6a10.94,10.94,0,0,0,1.26,2.48,24.54,24.54,0,0,0,1.77,2.17V25.48Z"/><path class="cls-5" d="M81.35,25.48V31.6a10.18,10.18,0,0,1-1.26,2.48,24.34,24.34,0,0,1-1.76,2.17V25.48Z"/><path class="cls-5" d="M82.1,21.2a36.85,36.85,0,0,0-7.58-.6,37.08,37.08,0,0,0-7.59.6A36.91,36.91,0,0,0,66.6,25H82.43A36.91,36.91,0,0,0,82.1,21.2Z"/><path class="cls-5" d="M74.52,25.48H72.77V38.37c.72.71,1.36,1.28,1.75,1.6.38-.32,1-.89,1.75-1.6V25.48Z"/><path class="cls-3" d="M68.79,22.69A.17.17,0,0,1,69,22.5a.35.35,0,0,1,.18.06l.09-.3a.66.66,0,0,0-.33-.09.51.51,0,0,0-.5.55.62.62,0,0,0,.35.56c.11.08.22.13.22.28a.2.2,0,0,1-.21.2.34.34,0,0,1-.18,0l-.11.3a.62.62,0,0,0,.32.09.53.53,0,0,0,.55-.58C69.36,23,68.79,23,68.79,22.69Z"/><path class="cls-3" d="M69.55,24.08h.54l.06-1.63h0v.05l.32,1.58h.29l.29-1.63h0l.1,1.63h.52a.52.52,0,0,1-.08-.23c0-.13-.19-1.92-.21-2.15l-.61,0-.17,1.42h0l-.21-1.39-.6.05c0,.32-.16,1.93-.18,2A.5.5,0,0,1,69.55,24.08Z"/><path class="cls-3" d="M73.49,24.08H74v-1.2l0-.25h0l.55,1.45H75V21.87a.5.5,0,0,1,.07-.25H74.5v1.14a1.42,1.42,0,0,0,0,.36h0L74,21.62h-.45v2.24A.35.35,0,0,1,73.49,24.08Z"/><path class="cls-3" d="M76.72,22.89a1.11,1.11,0,0,0,1,1.22.56.56,0,0,0,.31-.07l-.1-.41a.57.57,0,0,1-.18,0c-.4,0-.57-.43-.57-.78s.17-.73.58-.73l.17,0,.11-.39-.25-.08h-.11A1.1,1.1,0,0,0,76.72,22.89Z"/><polygon class="cls-3" points="80.77 22.55 80.88 22.2 79.98 22.2 79.98 24.08 80.36 24.08 80.36 23.3 80.67 23.3 80.67 22.95 80.36 22.95 80.36 22.55 80.77 22.55"/><path class="cls-3" d="M81.7,23.77c-.32,0-.49-.31-.5-.62s.17-.62.46-.62h.14l.07-.28a.47.47,0,0,0-.25-.05,1,1,0,0,0,.08,1.89A.44.44,0,0,0,82,24l-.1-.29A.31.31,0,0,1,81.7,23.77Z"/><path class="cls-3" d="M72.54,21.63c-.4,0-.79.33-.79,1.24s.39,1.23.79,1.23.8-.33.8-1.23S72.94,21.63,72.54,21.63Zm0,2c-.3,0-.32-.61-.32-.8s0-.8.32-.8.32.58.32.8S72.84,23.67,72.54,23.67Z"/><path class="cls-3" d="M67.9,22.23h-.38l-.43,1.85h.36l.07-.36h.37l.07.36h.42a.31.31,0,0,1-.07-.15Zm-.32,1.2.07-.5,0-.22h0l0,.22.09.5Z"/><path class="cls-3" d="M75.63,24.08l.08-.46h.45l.09.46h.5a.62.62,0,0,1-.1-.22c0-.12-.43-1.94-.49-2.22h-.48l-.52,2.45Zm.25-1.48.05-.31h0l0,.31.12.64h-.32Z"/><path class="cls-3" d="M78.89,21.8c-.4,0-.8.31-.8,1.16s.4,1.16.8,1.16.8-.32.8-1.16S79.29,21.8,78.89,21.8Zm0,1.91c-.3,0-.32-.57-.32-.75s0-.75.32-.75.32.55.32.75S79.19,23.71,78.89,23.71Z"/><g class="cls-6"><rect class="cls-7" x="95.75" y="8.34" width="0.5" height="35.84"/></g><path class="cls-3" d="M115.25,19.76a4.43,4.43,0,0,1-.28,1.61,3.61,3.61,0,0,1-.8,1.27,3.39,3.39,0,0,1-1.23.83,4.36,4.36,0,0,1-3.18,0,3.39,3.39,0,0,1-1.23-.83,3.76,3.76,0,0,1-.8-1.27,4.8,4.8,0,0,1,0-3.23,3.76,3.76,0,0,1,.8-1.27,3.39,3.39,0,0,1,1.23-.83,4.36,4.36,0,0,1,3.18,0,3.39,3.39,0,0,1,1.23.83,3.61,3.61,0,0,1,.8,1.27A4.45,4.45,0,0,1,115.25,19.76Zm-1.19,0a3.79,3.79,0,0,0-.19-1.26,2.61,2.61,0,0,0-.55-.95,2.35,2.35,0,0,0-.85-.6,3.09,3.09,0,0,0-2.24,0,2.47,2.47,0,0,0-.86.6,2.6,2.6,0,0,0-.54.95,4.07,4.07,0,0,0,0,2.52,2.63,2.63,0,0,0,.54.94,2.47,2.47,0,0,0,.86.6,3.24,3.24,0,0,0,2.24,0,2.35,2.35,0,0,0,.85-.6,2.65,2.65,0,0,0,.55-.94A3.79,3.79,0,0,0,114.06,19.76Z"/><path class="cls-3" d="M116.82,23.69V19l-.58-.07a.53.53,0,0,1-.2-.09.2.2,0,0,1-.08-.19v-.44h.86V17.8A2.48,2.48,0,0,1,117,17a1.81,1.81,0,0,1,.39-.64,1.72,1.72,0,0,1,.62-.39,2.3,2.3,0,0,1,.81-.13,2,2,0,0,1,.69.11l0,.54a.16.16,0,0,1,0,.1.23.23,0,0,1-.1.05l-.15,0H119a1.63,1.63,0,0,0-.45.06.75.75,0,0,0-.34.21.85.85,0,0,0-.22.37,1.93,1.93,0,0,0-.08.58v.38h2.44v-.27a2.61,2.61,0,0,1,.16-.94,2,2,0,0,1,1.3-1.22,3.24,3.24,0,0,1,1.13-.17,3.31,3.31,0,0,1,.44,0,1.87,1.87,0,0,1,.39.09l0,.55c0,.08-.06.11-.14.12h-.34a3.5,3.5,0,0,0-.86.1,1.54,1.54,0,0,0-.57.3,1.18,1.18,0,0,0-.33.49,2.1,2.1,0,0,0-.11.7v.23h3.39v5.48h-1.07V19h-2.28v4.7H120.3V19h-2.4v4.7Z"/><path class="cls-3" d="M130.16,19.16a.45.45,0,0,1-.09.1.26.26,0,0,1-.14,0,.41.41,0,0,1-.18-.07,1.25,1.25,0,0,0-.24-.15,3.05,3.05,0,0,0-.35-.15,1.85,1.85,0,0,0-.51-.07A1.52,1.52,0,0,0,128,19a1.31,1.31,0,0,0-.5.4,1.82,1.82,0,0,0-.31.64,3.2,3.2,0,0,0-.1.85,3.34,3.34,0,0,0,.11.87,2,2,0,0,0,.31.64,1.41,1.41,0,0,0,.49.39,1.69,1.69,0,0,0,1.22.05,2.57,2.57,0,0,0,.37-.18l.25-.19a.32.32,0,0,1,.2-.08.21.21,0,0,1,.2.1l.31.39a2,2,0,0,1-.43.4,2.49,2.49,0,0,1-.51.27,2.56,2.56,0,0,1-.56.15,2.88,2.88,0,0,1-.59.05,2.4,2.4,0,0,1-1-.19,2.2,2.2,0,0,1-.79-.56,2.63,2.63,0,0,1-.52-.9A3.49,3.49,0,0,1,126,20.9a3.78,3.78,0,0,1,.17-1.14,2.6,2.6,0,0,1,.51-.91,2.53,2.53,0,0,1,.83-.6,2.85,2.85,0,0,1,1.13-.21,2.62,2.62,0,0,1,1,.19,2.73,2.73,0,0,1,.81.54Z"/><path class="cls-3" d="M132.82,16.4a.58.58,0,0,1-.06.29.73.73,0,0,1-.16.23.63.63,0,0,1-.23.16.75.75,0,0,1-.29.06.67.67,0,0,1-.28-.06.79.79,0,0,1-.39-.39.72.72,0,0,1-.06-.29.67.67,0,0,1,.06-.28.78.78,0,0,1,.16-.24.73.73,0,0,1,.23-.16.66.66,0,0,1,.28-.05.74.74,0,0,1,.29.05.63.63,0,0,1,.23.16.78.78,0,0,1,.16.24A.55.55,0,0,1,132.82,16.4Zm-.2,1.72v5.57h-1.06V18.12Z"/><path class="cls-3" d="M134,18.9a3.2,3.2,0,0,1,1-.66,3.09,3.09,0,0,1,1.2-.22,2.06,2.06,0,0,1,.84.16,1.82,1.82,0,0,1,.62.43,2.09,2.09,0,0,1,.38.67,2.88,2.88,0,0,1,.13.86v3.55h-.48a.38.38,0,0,1-.24-.06.31.31,0,0,1-.13-.19l-.12-.49a4.32,4.32,0,0,1-.42.35,2.73,2.73,0,0,1-.43.26,2.81,2.81,0,0,1-.49.16,2.52,2.52,0,0,1-.57.05,2,2,0,0,1-.61-.09,1.34,1.34,0,0,1-.5-.27,1.24,1.24,0,0,1-.34-.47,1.6,1.6,0,0,1-.12-.65,1.19,1.19,0,0,1,.17-.63,1.62,1.62,0,0,1,.58-.55,3.73,3.73,0,0,1,1.05-.39,8.54,8.54,0,0,1,1.6-.18v-.4a1.39,1.39,0,0,0-.27-.94,1,1,0,0,0-.79-.32,1.61,1.61,0,0,0-.58.09,2.24,2.24,0,0,0-.41.2l-.31.19a.43.43,0,0,1-.26.09.31.31,0,0,1-.19-.06.57.57,0,0,1-.13-.14Zm3.13,2.32a7.83,7.83,0,0,0-1.1.1,2.75,2.75,0,0,0-.74.21,1,1,0,0,0-.41.31.64.64,0,0,0-.13.4.78.78,0,0,0,.07.35.67.67,0,0,0,.18.25.82.82,0,0,0,.28.14,1.29,1.29,0,0,0,.35,0,1.64,1.64,0,0,0,.45-.05,1.74,1.74,0,0,0,.38-.14,1.86,1.86,0,0,0,.35-.22,2.2,2.2,0,0,0,.32-.3Z"/><path class="cls-3" d="M140.74,15.61v8.08h-1.08V15.61Z"/><path class="cls-3" d="M147.8,15.82a4.66,4.66,0,0,1,1.27.15,2.34,2.34,0,0,1,.87.41,1.67,1.67,0,0,1,.5.65,2.13,2.13,0,0,1,.16.86,1.71,1.71,0,0,1-.09.55,1.59,1.59,0,0,1-.27.49,2,2,0,0,1-.45.4,2.61,2.61,0,0,1-.65.3c1.15.23,1.72.83,1.72,1.8a2.09,2.09,0,0,1-.19.91,1.9,1.9,0,0,1-.54.72,2.53,2.53,0,0,1-.88.46,3.86,3.86,0,0,1-1.18.17h-2.83V15.82Zm-1.39.92v2.57h1.34A1.94,1.94,0,0,0,149,19a1.14,1.14,0,0,0,.42-.93,1.17,1.17,0,0,0-.4-1,2,2,0,0,0-1.25-.31Zm1.64,6a2.46,2.46,0,0,0,.76-.1,1.39,1.39,0,0,0,.51-.29,1.08,1.08,0,0,0,.3-.43,1.57,1.57,0,0,0,.09-.54,1.13,1.13,0,0,0-.41-.92,1.89,1.89,0,0,0-1.25-.34h-1.64v2.62Z"/><path class="cls-3" d="M156.62,22.89a2,2,0,0,1-.46.4,2.73,2.73,0,0,1-.54.27,3.29,3.29,0,0,1-.6.15,3.2,3.2,0,0,1-.61.05,2.87,2.87,0,0,1-1.07-.19,2.36,2.36,0,0,1-.85-.57,2.69,2.69,0,0,1-.56-.93,3.86,3.86,0,0,1-.2-1.28,3.14,3.14,0,0,1,.18-1.08,2.69,2.69,0,0,1,.52-.87,2.37,2.37,0,0,1,.83-.59,2.72,2.72,0,0,1,1.09-.21,2.61,2.61,0,0,1,.94.16,2.08,2.08,0,0,1,.74.49,2.21,2.21,0,0,1,.49.78,2.91,2.91,0,0,1,.18,1.06.59.59,0,0,1-.06.33.2.2,0,0,1-.2.09H152.8a2.83,2.83,0,0,0,.14.87,1.66,1.66,0,0,0,.35.61,1.28,1.28,0,0,0,.52.37,1.92,1.92,0,0,0,.69.12,2.15,2.15,0,0,0,.61-.08,3.49,3.49,0,0,0,.45-.18,2.28,2.28,0,0,0,.32-.18.49.49,0,0,1,.23-.08.22.22,0,0,1,.2.1Zm-.88-2.6a1.87,1.87,0,0,0-.09-.59,1.24,1.24,0,0,0-.27-.46,1.1,1.1,0,0,0-.43-.31,1.5,1.5,0,0,0-.58-.11,1.43,1.43,0,0,0-1.06.39,1.94,1.94,0,0,0-.49,1.08Z"/><path class="cls-3" d="M166.54,23.69h-1.07V19h-2.68v3.26a.66.66,0,0,0,.16.49.57.57,0,0,0,.41.16,1,1,0,0,0,.26,0,.76.76,0,0,0,.18-.09l.13-.08a.16.16,0,0,1,.1,0,.11.11,0,0,1,.08,0,.19.19,0,0,1,.07.08l.31.51a1.83,1.83,0,0,1-.62.37,2.15,2.15,0,0,1-.75.13,1.38,1.38,0,0,1-1-.37,1.49,1.49,0,0,1-.37-1.08V19h-2.5v3.26a.7.7,0,0,0,.16.49.61.61,0,0,0,.42.16.87.87,0,0,0,.25,0,.76.76,0,0,0,.18-.09l.14-.08a.14.14,0,0,1,.09,0,.12.12,0,0,1,.09,0,.18.18,0,0,1,.06.08l.32.51a1.93,1.93,0,0,1-.62.37,2.19,2.19,0,0,1-.75.13,1.38,1.38,0,0,1-1-.37,1.54,1.54,0,0,1-.37-1.08V19h-.64a.23.23,0,0,1-.16-.06.22.22,0,0,1-.06-.17v-.43l.91-.13.23-1.66a.28.28,0,0,1,.09-.14.21.21,0,0,1,.16-.06h.54v1.87h2.54l.25-1.67a.22.22,0,0,1,.08-.14.21.21,0,0,1,.16-.06h.55v1.87h3.75Zm.22-7.32a.67.67,0,0,1-.06.28.74.74,0,0,1-.4.4.71.71,0,0,1-.28.06.64.64,0,0,1-.28-.06.78.78,0,0,1-.24-.16.75.75,0,0,1-.15-.24.67.67,0,0,1-.06-.28.72.72,0,0,1,.06-.29.75.75,0,0,1,.15-.24,1,1,0,0,1,.24-.16.82.82,0,0,1,.28,0,.92.92,0,0,1,.28,0,1,1,0,0,1,.24.16.78.78,0,0,1,.16.24A.72.72,0,0,1,166.76,16.37Z"/><path class="cls-3" d="M169.09,18.9a2.5,2.5,0,0,1,.38-.35,2.71,2.71,0,0,1,.41-.28,2.48,2.48,0,0,1,.48-.17,2.35,2.35,0,0,1,.54-.06,2,2,0,0,1,.81.15,1.7,1.7,0,0,1,.59.43,2,2,0,0,1,.35.66,2.93,2.93,0,0,1,.12.86v3.55H171.7V20.14a1.42,1.42,0,0,0-.27-.92,1.05,1.05,0,0,0-.84-.34,1.58,1.58,0,0,0-.77.2,2.52,2.52,0,0,0-.67.53v4.08h-1.06V18.12h.64a.27.27,0,0,1,.28.22Z"/><path class="cls-3" d="M179,18.33v.4c0,.13-.08.22-.24.25l-.6.09a2.06,2.06,0,0,1,.12.35,1.75,1.75,0,0,1,0,.4,1.64,1.64,0,0,1-.16.74,1.72,1.72,0,0,1-.43.57,1.88,1.88,0,0,1-.67.36,2.84,2.84,0,0,1-.84.13,2.65,2.65,0,0,1-.71-.09.92.92,0,0,0-.25.22.38.38,0,0,0-.08.23.31.31,0,0,0,.16.29,1.3,1.3,0,0,0,.42.13,3.45,3.45,0,0,0,.6.05l.68,0c.23,0,.46.05.68.09a2,2,0,0,1,.6.2,1.18,1.18,0,0,1,.42.38,1.15,1.15,0,0,1,.16.64,1.6,1.6,0,0,1-.17.7,2.08,2.08,0,0,1-.52.6,2.93,2.93,0,0,1-.83.42,3.4,3.4,0,0,1-1.1.16,4.29,4.29,0,0,1-1.08-.12,2.67,2.67,0,0,1-.76-.32,1.45,1.45,0,0,1-.45-.48,1,1,0,0,1,.1-1.24,1.55,1.55,0,0,1,.69-.44.88.88,0,0,1-.38-.3.78.78,0,0,1-.14-.5.77.77,0,0,1,0-.25,1.05,1.05,0,0,1,.13-.26,1.7,1.7,0,0,1,.23-.24,1.41,1.41,0,0,1,.31-.21,1.74,1.74,0,0,1-.65-.61,1.62,1.62,0,0,1-.23-.89,1.64,1.64,0,0,1,.16-.74,1.5,1.5,0,0,1,.44-.56,1.8,1.8,0,0,1,.67-.36,2.63,2.63,0,0,1,.86-.13,2.45,2.45,0,0,1,1.24.3ZM177.87,24a.46.46,0,0,0-.11-.32.64.64,0,0,0-.3-.18,1.78,1.78,0,0,0-.44-.1l-.53-.05-.56,0-.56-.05a1.54,1.54,0,0,0-.47.34.72.72,0,0,0-.18.48.63.63,0,0,0,.09.33.75.75,0,0,0,.27.26,1.5,1.5,0,0,0,.48.18,3.4,3.4,0,0,0,.69.06,2.87,2.87,0,0,0,.69-.07,1.7,1.7,0,0,0,.51-.19.87.87,0,0,0,.31-.29A.72.72,0,0,0,177.87,24Zm-1.7-3.07a1.31,1.31,0,0,0,.5-.08,1.07,1.07,0,0,0,.36-.21,1.11,1.11,0,0,0,.22-.34,1.18,1.18,0,0,0,.07-.43,1,1,0,0,0-.29-.77,1.19,1.19,0,0,0-.86-.29,1.18,1.18,0,0,0-.86.29,1,1,0,0,0-.29.77,1.18,1.18,0,0,0,.07.43.83.83,0,0,0,.22.33,1,1,0,0,0,.36.22A1.5,1.5,0,0,0,176.17,20.91Z"/><path class="cls-3" d="M185.29,15.82a4.34,4.34,0,0,1,1.32.18,2.6,2.6,0,0,1,.92.49,2,2,0,0,1,.55.78,2.93,2.93,0,0,1,.17,1,2.56,2.56,0,0,1-.19,1,2.15,2.15,0,0,1-.56.8,2.78,2.78,0,0,1-.93.52,4.17,4.17,0,0,1-1.28.18h-1.21v2.9h-1.17V15.82Zm0,4.05a2.57,2.57,0,0,0,.78-.11,1.68,1.68,0,0,0,.57-.33,1.43,1.43,0,0,0,.34-.5,2,2,0,0,0,.11-.65,1.48,1.48,0,0,0-.44-1.13,2,2,0,0,0-1.36-.41h-1.21v3.13Z"/><path class="cls-3" d="M189,18.9a3.2,3.2,0,0,1,1-.66A3.07,3.07,0,0,1,191.2,18a2.08,2.08,0,0,1,.85.16,1.82,1.82,0,0,1,.62.43,2.09,2.09,0,0,1,.38.67,2.88,2.88,0,0,1,.13.86v3.55h-.48a.38.38,0,0,1-.24-.06.31.31,0,0,1-.13-.19l-.12-.49a4.32,4.32,0,0,1-.42.35,2.43,2.43,0,0,1-.44.26,2.46,2.46,0,0,1-.48.16,2.52,2.52,0,0,1-.57.05,2,2,0,0,1-.61-.09,1.47,1.47,0,0,1-.51-.27,1.33,1.33,0,0,1-.33-.47,1.6,1.6,0,0,1-.13-.65,1.21,1.21,0,0,1,.18-.63,1.55,1.55,0,0,1,.58-.55,3.73,3.73,0,0,1,1.05-.39,8.54,8.54,0,0,1,1.6-.18v-.4a1.39,1.39,0,0,0-.27-.94,1,1,0,0,0-.79-.32,1.7,1.7,0,0,0-.59.09,3.13,3.13,0,0,0-.41.2l-.3.19a.43.43,0,0,1-.26.09.29.29,0,0,1-.19-.06.57.57,0,0,1-.13-.14Zm3.13,2.32a8.14,8.14,0,0,0-1.11.1,2.87,2.87,0,0,0-.74.21,1.05,1.05,0,0,0-.41.31.7.7,0,0,0-.12.4.78.78,0,0,0,.07.35.58.58,0,0,0,.18.25.82.82,0,0,0,.28.14,1.27,1.27,0,0,0,.34,0,1.66,1.66,0,0,0,.46-.05,1.74,1.74,0,0,0,.38-.14,1.86,1.86,0,0,0,.35-.22,2.2,2.2,0,0,0,.32-.3Z"/><path class="cls-3" d="M195.62,19.19a2.65,2.65,0,0,1,.64-.86,1.38,1.38,0,0,1,.91-.31,1.22,1.22,0,0,1,.34,0,1.1,1.1,0,0,1,.29.12l-.08.81a.17.17,0,0,1-.18.15l-.23,0a1.66,1.66,0,0,0-.32,0,1.27,1.27,0,0,0-.46.07,1,1,0,0,0-.35.22,1.28,1.28,0,0,0-.28.36,4.12,4.12,0,0,0-.22.47v3.49h-1.07V18.12h.61a.3.3,0,0,1,.24.07.41.41,0,0,1,.09.22Z"/><path class="cls-3" d="M200.36,23.77a1.35,1.35,0,0,1-1-.37,1.49,1.49,0,0,1-.37-1.08V19h-.64a.21.21,0,0,1-.16-.06.22.22,0,0,1-.06-.17v-.43l.9-.13.24-1.66a.23.23,0,0,1,.09-.14.21.21,0,0,1,.16-.06H200v1.87h1.58V19H200v3.26a.66.66,0,0,0,.16.49.6.6,0,0,0,.41.16,1,1,0,0,0,.26,0,.76.76,0,0,0,.18-.09.74.74,0,0,0,.13-.08.16.16,0,0,1,.1,0,.12.12,0,0,1,.09,0,.18.18,0,0,1,.06.08l.32.51a2,2,0,0,1-.63.37A2.11,2.11,0,0,1,200.36,23.77Z"/><path class="cls-3" d="M203.59,18.9a2.5,2.5,0,0,1,.38-.35,2.71,2.71,0,0,1,.41-.28,2.48,2.48,0,0,1,.48-.17,2.35,2.35,0,0,1,.54-.06,2,2,0,0,1,.81.15,1.7,1.7,0,0,1,.59.43,2,2,0,0,1,.35.66,2.93,2.93,0,0,1,.12.86v3.55H206.2V20.14a1.42,1.42,0,0,0-.27-.92,1.05,1.05,0,0,0-.84-.34,1.58,1.58,0,0,0-.77.2,2.52,2.52,0,0,0-.67.53v4.08h-1.06V18.12h.64a.27.27,0,0,1,.28.22Z"/><path class="cls-3" d="M213.28,22.89a2,2,0,0,1-.46.4,2.73,2.73,0,0,1-.54.27,3.29,3.29,0,0,1-.6.15,3.2,3.2,0,0,1-.61.05,2.87,2.87,0,0,1-1.07-.19,2.36,2.36,0,0,1-.85-.57,2.69,2.69,0,0,1-.56-.93,3.86,3.86,0,0,1-.2-1.28,3.14,3.14,0,0,1,.18-1.08,2.69,2.69,0,0,1,.52-.87,2.37,2.37,0,0,1,.83-.59A2.72,2.72,0,0,1,211,18a2.61,2.61,0,0,1,.94.16,2.08,2.08,0,0,1,.74.49,2.21,2.21,0,0,1,.49.78,2.91,2.91,0,0,1,.18,1.06.59.59,0,0,1-.06.33.2.2,0,0,1-.2.09h-3.64a2.83,2.83,0,0,0,.14.87,1.66,1.66,0,0,0,.35.61,1.28,1.28,0,0,0,.52.37,1.92,1.92,0,0,0,.69.12,2.15,2.15,0,0,0,.61-.08,3.49,3.49,0,0,0,.45-.18,1.82,1.82,0,0,0,.32-.18.49.49,0,0,1,.23-.08.22.22,0,0,1,.2.1Zm-.88-2.6a1.87,1.87,0,0,0-.09-.59,1.24,1.24,0,0,0-.27-.46,1.1,1.1,0,0,0-.43-.31,1.46,1.46,0,0,0-.58-.11,1.43,1.43,0,0,0-1.06.39,1.94,1.94,0,0,0-.49,1.08Z"/><path class="cls-3" d="M215.52,19.19a2.51,2.51,0,0,1,.64-.86,1.38,1.38,0,0,1,.91-.31,1.22,1.22,0,0,1,.34,0,1.26,1.26,0,0,1,.29.12l-.08.81a.17.17,0,0,1-.18.15l-.23,0a1.69,1.69,0,0,0-.33,0,1.25,1.25,0,0,0-.45.07,1,1,0,0,0-.35.22,1.28,1.28,0,0,0-.28.36,4.12,4.12,0,0,0-.22.47v3.49h-1.07V18.12h.61a.3.3,0,0,1,.24.07.41.41,0,0,1,.09.22Z"/><path class="cls-3" d="M110.08,31.18a3,3,0,0,1,1.11.19A2.38,2.38,0,0,1,112,32a2.52,2.52,0,0,1,.53.9,3.42,3.42,0,0,1,.19,1.19,3.46,3.46,0,0,1-.19,1.19,2.52,2.52,0,0,1-.53.9,2.24,2.24,0,0,1-.84.57,3.18,3.18,0,0,1-2.22,0,2.2,2.2,0,0,1-.85-.57,2.7,2.7,0,0,1-.54-.9,3.46,3.46,0,0,1-.19-1.19,3.42,3.42,0,0,1,.19-1.19,2.7,2.7,0,0,1,.54-.9,2.34,2.34,0,0,1,.85-.58A3,3,0,0,1,110.08,31.18Zm0,4.89a1.39,1.39,0,0,0,1.18-.53,2.5,2.5,0,0,0,.38-1.5,2.47,2.47,0,0,0-.38-1.49,1.57,1.57,0,0,0-2.37,0A2.47,2.47,0,0,0,108.5,34a2.5,2.5,0,0,0,.39,1.5A1.39,1.39,0,0,0,110.08,36.07Z"/><path class="cls-3" d="M114.18,36.82V32.14l-.58-.07a.67.67,0,0,1-.21-.09.24.24,0,0,1-.08-.19v-.44h.87v-.5a2.48,2.48,0,0,1,.14-.85,1.68,1.68,0,0,1,.39-.63,1.58,1.58,0,0,1,.61-.4,2.3,2.3,0,0,1,.81-.13,1.92,1.92,0,0,1,.69.11l0,.53a.16.16,0,0,1,0,.11.31.31,0,0,1-.1.05l-.16,0h-.19a1.58,1.58,0,0,0-.45.06.75.75,0,0,0-.34.21.85.85,0,0,0-.22.37,1.93,1.93,0,0,0-.08.58v.47h1.56v.78h-1.53v4.69Z"/><path class="cls-3" d="M126.57,36.82h-.9a.39.39,0,0,1-.25-.07.41.41,0,0,1-.14-.2l-.7-1.82h-3.46l-.7,1.82a.41.41,0,0,1-.14.19.36.36,0,0,1-.25.08h-.9L122.26,29h1.18Zm-2.31-2.92-1.16-3a5.32,5.32,0,0,1-.25-.79c0,.15-.09.3-.13.44s-.08.25-.12.36l-1.16,3Z"/><path class="cls-3" d="M131.62,30.24a.43.43,0,0,1-.12.14.24.24,0,0,1-.15,0,.42.42,0,0,1-.23-.09l-.31-.2a3.18,3.18,0,0,0-.45-.2,2,2,0,0,0-.63-.09,1.91,1.91,0,0,0-.61.09,1.14,1.14,0,0,0-.43.25,1,1,0,0,0-.27.36,1.18,1.18,0,0,0-.09.46.84.84,0,0,0,.16.53,1.53,1.53,0,0,0,.43.35,2.91,2.91,0,0,0,.59.26l.69.23a4.37,4.37,0,0,1,.68.27,2.65,2.65,0,0,1,.6.38,1.83,1.83,0,0,1,.42.57,1.89,1.89,0,0,1,.16.83,2.61,2.61,0,0,1-.17,1,2.22,2.22,0,0,1-.52.79,2.43,2.43,0,0,1-.84.54,3,3,0,0,1-1.12.19,3.48,3.48,0,0,1-.73-.07,3.59,3.59,0,0,1-.68-.21,3.7,3.7,0,0,1-.59-.32,3,3,0,0,1-.5-.43l.34-.56a.35.35,0,0,1,.11-.1.3.3,0,0,1,.16,0,.45.45,0,0,1,.27.12l.37.27a3.27,3.27,0,0,0,.53.26,2.11,2.11,0,0,0,.75.12,2.17,2.17,0,0,0,.65-.09,1.41,1.41,0,0,0,.48-.28,1.11,1.11,0,0,0,.3-.43,1.38,1.38,0,0,0,.1-.55.94.94,0,0,0-.16-.57,1.38,1.38,0,0,0-.42-.37,3.74,3.74,0,0,0-.6-.25l-.68-.21c-.24-.08-.46-.16-.69-.26a2.16,2.16,0,0,1-.59-.39,1.63,1.63,0,0,1-.42-.6,2.07,2.07,0,0,1-.16-.88,2.14,2.14,0,0,1,.16-.82,2,2,0,0,1,.48-.69,2.26,2.26,0,0,1,.77-.49,2.91,2.91,0,0,1,1.06-.18,3.38,3.38,0,0,1,1.21.21,2.83,2.83,0,0,1,1,.6Z"/><path class="cls-3" d="M144.54,29v7.86h-1V31.23a2.62,2.62,0,0,1,0-.27c0-.09,0-.19,0-.29l-2.61,4.8a.44.44,0,0,1-.42.27h-.17a.42.42,0,0,1-.41-.27l-2.67-4.82c0,.21,0,.4,0,.58v5.59h-1V29h.86a.7.7,0,0,1,.24,0,.33.33,0,0,1,.16.17l2.63,4.71a2.09,2.09,0,0,1,.14.3c0,.11.09.21.13.32a6,6,0,0,1,.27-.63l2.58-4.7a.32.32,0,0,1,.15-.17.78.78,0,0,1,.24,0Z"/><path class="cls-3" d="M153.8,32.89a4.45,4.45,0,0,1-.28,1.62,3.61,3.61,0,0,1-.8,1.27,3.52,3.52,0,0,1-1.23.83,4.36,4.36,0,0,1-3.18,0,3.52,3.52,0,0,1-1.23-.83,3.76,3.76,0,0,1-.8-1.27,4.8,4.8,0,0,1,0-3.23,3.76,3.76,0,0,1,.8-1.27,3.54,3.54,0,0,1,1.23-.84,4.5,4.5,0,0,1,3.18,0,3.54,3.54,0,0,1,1.23.84,3.61,3.61,0,0,1,.8,1.27A4.43,4.43,0,0,1,153.8,32.89Zm-1.19,0a3.87,3.87,0,0,0-.19-1.26,2.65,2.65,0,0,0-.55-.94,2.35,2.35,0,0,0-.85-.6,3.09,3.09,0,0,0-2.24,0,2.47,2.47,0,0,0-.86.6,2.63,2.63,0,0,0-.54.94,3.87,3.87,0,0,0-.19,1.26,3.81,3.81,0,0,0,.19,1.27,2.63,2.63,0,0,0,.54.94,2.32,2.32,0,0,0,.86.59,3.09,3.09,0,0,0,2.24,0,2.21,2.21,0,0,0,.85-.59,2.65,2.65,0,0,0,.55-.94A3.81,3.81,0,0,0,152.61,32.89Z"/><path class="cls-3" d="M161.7,29v7.86h-.59a.56.56,0,0,1-.23,0,.86.86,0,0,1-.18-.16l-4.44-5.75c0,.1,0,.2,0,.29a2.62,2.62,0,0,1,0,.27v5.39h-1V29h.6a.47.47,0,0,1,.23,0,.49.49,0,0,1,.17.16l4.45,5.75,0-.31c0-.1,0-.19,0-.28V29Z"/><path class="cls-3" d="M170.13,36.82h-.9a.39.39,0,0,1-.25-.07.41.41,0,0,1-.14-.2l-.7-1.82h-3.46l-.7,1.82a.49.49,0,0,1-.14.19.38.38,0,0,1-.25.08h-.9L165.82,29H167Zm-2.31-2.92-1.16-3a5.32,5.32,0,0,1-.25-.79c0,.15-.09.3-.13.44s-.08.25-.12.36l-1.16,3Z"/><path class="cls-3" d="M176.39,35.14a.21.21,0,0,1,.17.08l.46.5a3.42,3.42,0,0,1-1.18.88,4.44,4.44,0,0,1-3.21,0,3.59,3.59,0,0,1-1.19-.83,3.82,3.82,0,0,1-.75-1.27,4.68,4.68,0,0,1-.27-1.63,4.45,4.45,0,0,1,.28-1.62,3.74,3.74,0,0,1,.79-1.27,3.57,3.57,0,0,1,1.22-.83,4,4,0,0,1,1.57-.29,3.88,3.88,0,0,1,1.49.27,3.6,3.6,0,0,1,1.13.73l-.38.54a.47.47,0,0,1-.1.1.33.33,0,0,1-.15,0,.42.42,0,0,1-.24-.11l-.37-.23a2.7,2.7,0,0,0-.56-.23,2.78,2.78,0,0,0-.83-.11,2.74,2.74,0,0,0-1.08.21,2.46,2.46,0,0,0-.84.59,2.75,2.75,0,0,0-.54.95,3.78,3.78,0,0,0-.2,1.26,3.86,3.86,0,0,0,.2,1.28,3.06,3.06,0,0,0,.56.95,2.46,2.46,0,0,0,.84.59,2.75,2.75,0,0,0,1,.2,3.74,3.74,0,0,0,.61,0,3.33,3.33,0,0,0,.5-.12,3.42,3.42,0,0,0,.43-.21,3.6,3.6,0,0,0,.4-.31l.09-.07Z"/><path class="cls-3" d="M185.36,32.89a4.45,4.45,0,0,1-.28,1.62,3.74,3.74,0,0,1-.79,1.27,3.65,3.65,0,0,1-1.24.83,4.36,4.36,0,0,1-3.18,0,3.52,3.52,0,0,1-1.23-.83,3.76,3.76,0,0,1-.8-1.27,4.8,4.8,0,0,1,0-3.23,3.76,3.76,0,0,1,.8-1.27,3.54,3.54,0,0,1,1.23-.84,4.5,4.5,0,0,1,3.18,0,3.68,3.68,0,0,1,1.24.84,3.74,3.74,0,0,1,.79,1.27A4.43,4.43,0,0,1,185.36,32.89Zm-1.19,0a3.87,3.87,0,0,0-.19-1.26,2.65,2.65,0,0,0-.55-.94,2.35,2.35,0,0,0-.85-.6,3.09,3.09,0,0,0-2.24,0,2.47,2.47,0,0,0-.86.6,2.63,2.63,0,0,0-.54.94,3.87,3.87,0,0,0-.19,1.26,3.81,3.81,0,0,0,.19,1.27,2.63,2.63,0,0,0,.54.94,2.32,2.32,0,0,0,.86.59,3.09,3.09,0,0,0,2.24,0,2.21,2.21,0,0,0,.85-.59,2.65,2.65,0,0,0,.55-.94A3.81,3.81,0,0,0,184.17,32.89Z"/></g></g></svg>