<svg xmlns="http://www.w3.org/2000/svg" viewBox="0 0 218 92"><defs><style>.cls-1{fill:none;}.cls-2{fill:#c9a546;}.cls-3{fill:#fff;}.cls-4{fill:#c3322d;}.cls-5,.cls-7{opacity:0.2;}.cls-6{fill:#f0f1f1;}.cls-7{fill:#010101;}</style></defs><g id="Layer_2" data-name="Layer 2"><g id="Layer_1-2" data-name="Layer 1"><rect class="cls-1" width="218" height="92"/><path id="BASE_COURONNE" data-name="BASE COURONNE" class="cls-2" d="M78.82,17.94s-2-.2-4.56-.2-4.58.2-4.58.2V17.1s2-.2,4.58-.2,4.56.2,4.56.2Z"/><path class="cls-2" d="M67.85,15.46c-.58-.65-.87-1.21-.75-1.56a.82.82,0,0,1,.59-.56,3.39,3.39,0,0,1-.27-.64,2.77,2.77,0,0,0-.58,0,1.79,1.79,0,0,0-.76.24,1.22,1.22,0,0,0-.58.76c-.34,1.4,2.16,2.58,3.22,3.09l.11,0a.2.2,0,0,0,.11-.06.14.14,0,0,0,0-.18S68.37,16,67.85,15.46Z"/><path class="cls-2" d="M72.25,11.62c0-.07,0-.17-.07-.19a3.2,3.2,0,0,0-2.24-1.09h-.1a2,2,0,0,0-1.77,1.06c-.65,1.2.48,2.46,1.2,3.3a12,12,0,0,0,2.09,1.82.25.25,0,0,0,.12,0,.14.14,0,0,0,.1,0,.12.12,0,0,0,0-.18c-.85-1-2.4-3-1.84-4.26.47-.86,1.79-.48,2.1-.39S72.16,11.76,72.25,11.62Z"/><path class="cls-2" d="M69,14.9l0,0-.21-.25a1,1,0,0,0,.12,1,6.56,6.56,0,0,0,.59.92l1.22-.1A10.58,10.58,0,0,1,69,14.9Z"/><path class="cls-2" d="M79.55,14.9l0,0,.21-.25a1,1,0,0,1-.13,1,6.56,6.56,0,0,1-.59.92l-1.22-.1A10.68,10.68,0,0,0,79.55,14.9Z"/><path class="cls-2" d="M73,13.07a10.69,10.69,0,0,0-2.69.65A11.33,11.33,0,0,0,72,16.24l.1.11c.51,0,1,0,1.59,0A11.73,11.73,0,0,1,73,13.07Z"/><path class="cls-2" d="M75.46,13.07a10.88,10.88,0,0,1,2.7.65,11.75,11.75,0,0,1-1.65,2.52l-.1.11c-.51,0-1,0-1.59,0A11.35,11.35,0,0,0,75.46,13.07Z"/><path class="cls-2" d="M80.65,15.46c.59-.65.87-1.21.76-1.56a.85.85,0,0,0-.59-.56,2.78,2.78,0,0,0,.26-.64,2.77,2.77,0,0,1,.58,0,1.75,1.75,0,0,1,.76.24,1.27,1.27,0,0,1,.59.76c.34,1.4-2.16,2.58-3.23,3.09l-.11,0a.17.17,0,0,1-.1-.06.13.13,0,0,1,0-.18S80.13,16,80.65,15.46Z"/><path class="cls-2" d="M76.25,11.62c0-.07.06-.17.07-.19a3.22,3.22,0,0,1,2.24-1.09h.1a2,2,0,0,1,1.77,1.06c.66,1.2-.47,2.46-1.2,3.3a12,12,0,0,1-2.09,1.82.24.24,0,0,1-.11,0,.15.15,0,0,1-.11,0,.12.12,0,0,1,0-.18c.85-1,2.4-3,1.84-4.26-.47-.86-1.79-.48-2.1-.39S76.34,11.76,76.25,11.62Z"/><path class="cls-2" d="M75.19,8.9V8.48h-.72V7.79H74v.69H73.3V8.9H74v.68a.79.79,0,1,0,1,.75.8.8,0,0,0-.58-.75V8.9Z"/><path class="cls-2" d="M75,13.39c0-1.34-.32-2-.72-2h0c-.41,0-.74.66-.72,2a9.89,9.89,0,0,0,.62,3c0,.06.07.09.1.09s.06,0,.1-.09A10.11,10.11,0,0,0,75,13.39Z"/><path class="cls-2" d="M83.85,19.46c-.11-.06-3-1.11-9.6-1.11s-9.49,1-9.6,1.11a30.62,30.62,0,0,0-.61,6.2A18.37,18.37,0,0,0,66.8,35.83a39,39,0,0,0,7.45,7.53,38.66,38.66,0,0,0,7.45-7.53,18.37,18.37,0,0,0,2.76-10.17A29.82,29.82,0,0,0,83.85,19.46Z"/><path class="cls-3" d="M82.86,20.27c-.1,0-2.78-.79-8.61-.79s-8.51.75-8.6.79a34.57,34.57,0,0,0-.47,5.8,16.52,16.52,0,0,0,2.45,9.1,36.21,36.21,0,0,0,6.62,6.73,35.9,35.9,0,0,0,6.62-6.73,16.52,16.52,0,0,0,2.45-9.1A35.09,35.09,0,0,0,82.86,20.27ZM80.45,34.52a36,36,0,0,1-6.2,6.39,35.73,35.73,0,0,1-6.19-6.39,15,15,0,0,1-2.29-8.39,33.09,33.09,0,0,1,.42-5.36,33.39,33.39,0,0,1,8.06-.69,33.29,33.29,0,0,1,8.06.69,32.54,32.54,0,0,1,.43,5.36A15.13,15.13,0,0,1,80.45,34.52Z"/><path class="cls-3" d="M82.16,25H66.34c0,.37,0,.73,0,1.1,0,1.48.21,5.25,2.19,8.08a38.4,38.4,0,0,0,5.74,6,37.94,37.94,0,0,0,5.74-6,14.93,14.93,0,0,0,2.2-8.08C82.19,25.76,82.18,25.4,82.16,25Z"/><path class="cls-4" d="M67.42,25.5v6.11a9.83,9.83,0,0,0,1.26,2.48,23.06,23.06,0,0,0,1.76,2.18V25.5Z"/><path class="cls-4" d="M81.09,25.5v6.11a10.54,10.54,0,0,1-1.26,2.48,23.24,23.24,0,0,1-1.77,2.18V25.5Z"/><path class="cls-4" d="M81.84,21.21a38.3,38.3,0,0,0-7.59-.59,38.3,38.3,0,0,0-7.59.59c-.09.63-.26,2.19-.32,3.82H82.16A35.39,35.39,0,0,0,81.84,21.21Z"/><path class="cls-4" d="M74.25,25.5H72.5V38.39c.73.7,1.36,1.27,1.75,1.59.39-.32,1-.89,1.75-1.59V25.5Z"/><path class="cls-3" d="M68.52,22.7a.18.18,0,0,1,.19-.18.33.33,0,0,1,.19.06l.08-.3a.64.64,0,0,0-.33-.1.5.5,0,0,0-.49.56.63.63,0,0,0,.35.56c.1.07.22.13.22.28a.21.21,0,0,1-.22.2.58.58,0,0,1-.18,0l-.1.3a.57.57,0,0,0,.32.09.53.53,0,0,0,.54-.59C69.09,23,68.52,23,68.52,22.7Z"/><path class="cls-3" d="M69.28,24.1h.54l.07-1.63h0v0l.32,1.59h.29l.3-1.63h0l.11,1.63h.51a.51.51,0,0,1-.07-.23c0-.14-.19-1.93-.22-2.15l-.6,0-.18,1.41h0l-.21-1.38-.6.05c0,.31-.16,1.92-.17,2A.45.45,0,0,1,69.28,24.1Z"/><path class="cls-3" d="M73.22,24.1h.51V22.89l0-.24h0l.55,1.46h.43V21.89a.59.59,0,0,1,.06-.26h-.51v1.14a2.22,2.22,0,0,0,0,.37h0l-.54-1.51h-.45v2.24A.35.35,0,0,1,73.22,24.1Z"/><path class="cls-3" d="M76.46,22.9a1.1,1.1,0,0,0,1,1.22.62.62,0,0,0,.32-.06l-.11-.42a.53.53,0,0,1-.17,0c-.4,0-.58-.43-.58-.78s.18-.73.58-.73l.17,0,.12-.38a.66.66,0,0,0-.26-.08h-.1A1.1,1.1,0,0,0,76.46,22.9Z"/><polygon class="cls-3" points="80.5 22.56 80.61 22.21 79.72 22.21 79.72 24.1 80.09 24.1 80.09 23.32 80.41 23.32 80.41 22.97 80.09 22.97 80.09 22.56 80.5 22.56"/><path class="cls-3" d="M81.44,23.79c-.32,0-.5-.31-.51-.62s.17-.62.46-.62h.14l.08-.29a.49.49,0,0,0-.25,0,.85.85,0,0,0-.77.95.87.87,0,0,0,.84.93.37.37,0,0,0,.25-.07l-.1-.28A.29.29,0,0,1,81.44,23.79Z"/><path class="cls-3" d="M72.28,21.64c-.4,0-.8.34-.8,1.24s.4,1.24.8,1.24.79-.34.79-1.24S72.68,21.64,72.28,21.64Zm0,2c-.3,0-.32-.61-.32-.8s0-.8.32-.8.31.59.31.8S72.57,23.68,72.28,23.68Z"/><path class="cls-3" d="M67.64,22.25h-.39l-.43,1.85h.36l.07-.37h.37l.07.37h.43a.31.31,0,0,1-.07-.15C68,23.85,67.64,22.25,67.64,22.25Zm-.33,1.19.08-.49,0-.23h0l0,.23.09.49Z"/><path class="cls-3" d="M75.36,24.1l.08-.47h.46l.08.47h.51a.55.55,0,0,1-.11-.22l-.49-2.22-.47,0-.53,2.46Zm.25-1.49,0-.3h0l0,.3.11.65h-.31Z"/><path class="cls-3" d="M78.63,21.81c-.41,0-.81.32-.81,1.16s.4,1.17.81,1.17.8-.32.8-1.17S79,21.81,78.63,21.81Zm0,1.91c-.3,0-.32-.57-.32-.75s0-.75.32-.75.32.55.32.75S78.93,23.72,78.63,23.72Z"/><g class="cls-5"><rect class="cls-6" x="95.49" y="8.34" width="0.5" height="35.84"/></g><path class="cls-7" d="M39.65,6.74c-4,1.16-5.21,6.81-5.34,10.42-.9,1.94-2.16,8.45-2.42,13C30,33,28.79,40.6,28.53,42.67a7.7,7.7,0,0,0-1,1L25.1,29.84A64.27,64.27,0,0,0,22.1,16c-.25-.9-1.85-7.64-2.09-8.24A3.22,3.22,0,0,0,18.15,6c-1.56-.25-5,.44-6.55,2.25S9,13.72,12,20.44c-.26,2.07.64,4.78,3,11.63a53,53,0,0,0,1.68,12.41c-3.75-2.07-6.08-1.42-7.37-.52-2.71,1.68-2.45,5.17-2.45,7.76a4.44,4.44,0,0,0-3.49.51C-2.23,55.72.48,66.06,2.16,69.68c1.42,8.79,5,12.8,8.27,14.48V92H36.8V81.57c6.08-7.75,6-29.85,3.23-37.22.31-1.53,1.83-8.76,3.21-16.16C44.77,20,45.93,12.05,46,11,46.67,7,41.84,6.09,39.65,6.74Z"/><path class="cls-3" d="M10.05,71c3.23.52,4.65-3.36,1.42-4.26-1.16-.35-2.43.87-3,1.59l-.75-.39a8.38,8.38,0,0,1,1.63-2.1C7.46,64.64,5.91,63.09,6.17,60A4.89,4.89,0,0,1,8.5,56.37c-.82-1.29-1.44-3.63-3.47-2.9H5a3.1,3.1,0,0,0-.67.32A4.26,4.26,0,0,0,3.15,55,7.2,7.2,0,0,0,2,58.18C2,61,4.36,65.29,6.56,68.26,7.72,69.81,8.88,70.85,10.05,71Z"/><path class="cls-3" d="M44.1,10.83c-.11-1.19-.72-2.32-2.76-2.32a5.07,5.07,0,0,0-.66,0c-.11,0-.2.06-.31.08a2.46,2.46,0,0,0-.53.15h0a2.42,2.42,0,0,0-.4.25,3.73,3.73,0,0,0-.37.23,3.31,3.31,0,0,0-.47.45l-.08.07,0,0a6.46,6.46,0,0,0-.9,1.33h0l0,.1h0a10,10,0,0,0-.64,1.61c0,.06,0,.11-.05.16l-.06.25c-.05.2-.11.4-.15.6v0c-.06.29-.11.58-.15.88,0,.07,0,.14,0,.2s0,.16,0,.23,0,.44,0,.66a7,7,0,0,1,1.33-.29l.25,0h0a8.92,8.92,0,0,1,1.35-.07h0c.25,0,.5,0,.72,0v.64l-.44.12c-.18,0-.33.09-.5.14l-.55.15-.06,0a7.2,7.2,0,0,0-.85.35l-.18.1a5,5,0,0,0-.59.34l-.06,0a7.2,7.2,0,0,0-.8.62h0a28.34,28.34,0,0,0-1.16,4.56c-.1.52-.2,1.05-.29,1.6-.22,1.37-.41,2.82-.52,4.19q0,.41-.06.81a4.81,4.81,0,0,1,1.26-.51l.08,0h0l.53-.14c.25,0,.5-.09.76-.12h0c.31,0,.61-.07.91-.08l.21,0h0l.38,0v.78a3.26,3.26,0,0,0-.52,0l-.12,0-.27.06-.2.05-.09,0-.28.09-.24.09-.09,0-.27.12-.28.13-.32.17-.3.16-.28.17-.31.21-.16.12-.07,0-.31.25-.16.13a3.23,3.23,0,0,0-.37.37h0c-1.26,1.79-2.26,6.82-2.73,10,0,.24-.07.48-.1.7-.06.45-.11.84-.14,1.17a51,51,0,0,0-5.39,5.52c-.09.11-.15.16-.17.16l-.77-.38a9.2,9.2,0,0,1,1-1.88c.23-.34.48-.71.77-1.1L23.16,30.1a50,50,0,0,0-.89-5.73c-.24-1.12-.49-2.2-.74-3.19-.16-.65-.32-1.26-.46-1.81-.44-1.64-.78-2.74-.78-2.84s-1.5-6.09-2.14-8.42a4.59,4.59,0,0,0-1.55,0,8.09,8.09,0,0,0-1.27.18,5.43,5.43,0,0,0-.61.18,3.86,3.86,0,0,0-.54.26l-.12.09a4.08,4.08,0,0,0-.78.65,4.37,4.37,0,0,0-.44.62c-.05.08-.11.14-.15.22a5.36,5.36,0,0,0-.6,2.14s0,0,0,0v.11a8.5,8.5,0,0,0,0,1c0,.07,0,.14,0,.21s0,.24,0,.36c0,.37.07.73.15,1.12,0,.24.12.5.18.75s.11.5.19.76l0,.11c.16.53.35,1.09.57,1.65,0,0,0,.07,0,.11h0a6.3,6.3,0,0,1,.68-.5h0A7.16,7.16,0,0,1,17.41,17v.77a3.29,3.29,0,0,0-.64.12l-.14.05-.35.13-.13.05-.15.08-.26.15-.13.09-.12.09a2.11,2.11,0,0,0-.23.19.69.69,0,0,0-.13.11l-.29.3-.13.14-.21.26,0,0-.12.17-.15.23,0,0-.12.22a1.74,1.74,0,0,0-.11.18c-.06.13-.12.25-.16.36-.13,1.55.77,4.39,2.71,10a5.73,5.73,0,0,1,.7-.34h0l.34-.14L18,30h0l.58-.19h0l.68-.18.32-.09h0c.31-.06.61-.13.92-.18l.25.9a4.32,4.32,0,0,0-.8.25h0a6,6,0,0,0-.81.39l-.25.15-.54.34-.24.17c-.22.16-.43.32-.62.48l-.08.06a6.65,6.65,0,0,0-.53.49c0,.42,0,.87,0,1.33,0,.12,0,.23,0,.35,0,.45.07.9.12,1.37v.06c.05.49.11,1,.18,1.49,0,.13,0,.26.05.39L17.53,39s0,.07,0,.11c.08.49.16,1,.25,1.46l.06.36c.08.43.16.85.24,1.25v.08c.09.45.18.87.26,1.27,0,.08,0,.15,0,.22.08.37.15.72.22,1,.11.51.19.9.25,1.16l0,.13c0,.15.06.26.06.27l.64,2.45-2.07-1.42c-.29-.2-.57-.37-.85-.54s-.29-.19-.42-.26l-.22-.13c-.35-.19-.69-.37-1-.52l-.14-.07a8.24,8.24,0,0,0-1-.4l-.05,0a8.71,8.71,0,0,0-1-.26h-.12l-.58-.06h-.07l-.29,0h-.29l-.2.05a2.73,2.73,0,0,0-.41.1,2.26,2.26,0,0,0-.56.28c-2,1.51-1.9,4.37-1.25,6.89.12.45.26.9.4,1.33.08.21.15.42.23.62.16.4.32.78.49,1.12l1.22-.27h0l.22,0h0L12.74,55h.08q.57-.06,1.14-.09h.32c.31,0,.62,0,.94,0h.34l1.2.12h0l.19,0h0c.47.08,1,.16,1.49.29-.26-.62-.53-1.27-.82-1.93-.42-1-.85-2-1.27-2.9s-.8-1.7-1.14-2.28h1.55a.45.45,0,0,1,.07.09,3.59,3.59,0,0,1,.29.41c.38.55,1,1.49,1.59,2.61a25.79,25.79,0,0,1,1.93,4.25l5.94.78c5.95.26,11.25,4.78,11.5,4.91l-.51.78h0a31.44,31.44,0,0,0-9.08-3.6,15.87,15.87,0,0,0-2-.28c-1.05,0-2-.13-3-.22h0c-1.2-.12-2.33-.26-3.37-.42l-.29,0h0l-1.35-.23c-1-.19-1.84-.32-2.59-.4a17.21,17.21,0,0,0-1.81-.11,13.67,13.67,0,0,0-2,.23c-2,.39-3.77,1.29-4,3.13a3.82,3.82,0,0,0,.52,2.71l3.74.26a5,5,0,0,1,0-1.23c0-.21.05-.42.09-.64a6.28,6.28,0,0,1,.44-1.33,7.38,7.38,0,0,1,.79-1.33,7.81,7.81,0,0,1,.53-.64h1c-1.56,1.56-1.33,4.33-.57,6a3.18,3.18,0,0,0,.18.37l-4.4.26a32.59,32.59,0,0,0,5.28,1.4,9.66,9.66,0,0,0,3.64-.1A28.94,28.94,0,0,1,22,67.19c1.32.78,2.65,1.66,3.85,2.5.8.55,1.55,1.08,2.2,1.55l.91.64-.52,1C27.17,72.33,26,71.75,25,71.15s-2.12-1.21-3.15-1.86A9.41,9.41,0,0,0,20.43,73a12.63,12.63,0,0,0-.17,1.36c-.13,5.56,5.56,7.63,6.46,8l-.39,4H25.17l-.26-2.71c-1.68-.77-6.72-3.62-6.59-9.43a12.28,12.28,0,0,1,1.81-5.82l-1-.52c-.9.39-2.84.13-4-.13a3.82,3.82,0,0,1-1.75,4.08,4.08,4.08,0,0,1-1.4.48,5.29,5.29,0,0,1-.8.06,6.6,6.6,0,0,1-1.72-.24,8.25,8.25,0,0,1-1.8-.74A10.34,10.34,0,0,1,5,69.29a8,8,0,0,1-.94-1.14,18.11,18.11,0,0,1-1.13-1.83l1,3c.11.66.24,1.26.38,1.86,0,.12,0,.25.07.36a.83.83,0,0,0,0,.15l.09.33c.15.58.31,1.15.49,1.69A22.26,22.26,0,0,0,6.18,76.4,16.6,16.6,0,0,0,9,80.5v0a14.06,14.06,0,0,0,2.57,2.06,2.13,2.13,0,0,0,.25.16h0c.31.19.61.35.91.5s.56.26.83.38l0,0h0a8.14,8.14,0,0,0,.81.3l0,0,.1,0a10.68,10.68,0,0,0,1.3.35H16c.2,0,.38.08.55.1h.14l.34,0h0l.35,0h.29l.13,1h0c-.29,0-.69,0-1.15,0l-1.5-.12-1.49-.17L13,85.16l-.52-.1L11.92,92H35.5L35,83.38h0a6.77,6.77,0,0,1-.56.49,5.51,5.51,0,0,1-3.05,1.18v-.9a5.43,5.43,0,0,0,.84-.41,1.83,1.83,0,0,0,.26-.16,6.18,6.18,0,0,0,.53-.36l.28-.22a6.14,6.14,0,0,0,.47-.42l0,0,.25-.24c.15-.17.31-.34.46-.52l.18-.22,0,0c.2-.26.39-.52.58-.8l0-.07c.2-.3.39-.63.57-1l.17-.31c.12-.24.25-.48.37-.74l.18-.39.32-.75.15-.38v0c.11-.26.2-.54.3-.81a1.07,1.07,0,0,1,.07-.19c0-.07,0-.14.07-.21q.18-.52.33-1.08l.06-.19c.12-.43.24-.87.35-1.31,0-.14.06-.28.1-.41l.21-1,.06-.31c0-.08,0-.15,0-.22.06-.29.11-.58.16-.87s.07-.39.11-.58.09-.58.13-.87l.09-.55v0c0-.32.09-.65.13-1l0-.29,0-.21c.06-.47.1-.94.15-1.41l.06-.65.06-.81,0-.39c0-.12,0-.24,0-.36s0-.48,0-.72,0-.52,0-.78,0-.44,0-.66l0-.82c0-.19,0-.38,0-.57v0c0-1.07,0-2.12,0-3.14v-.36c0-.13,0-.25,0-.37s0-.39,0-.59,0-.25,0-.37,0-.39,0-.58,0-.24,0-.36,0-.22,0-.33c0-.32,0-.64-.07-.95,0-.06,0-.12,0-.18,0-.51-.09-1-.14-1.47l0-.28c-.06-.48-.11-1-.18-1.39s-.09-.61-.14-.9-.06-.38-.09-.55c-.08-.46-.17-.9-.26-1.31l-.06-.24c0-.19-.09-.36-.14-.53s-.06-.23-.09-.33a2,2,0,0,0-.07-.26c-.1-.32-.2-.63-.31-.89.58-3.5,1.67-8.69,2.72-14l.45-2.29c.14-.75.29-1.49.42-2.23s.27-1.48.4-2.2c.27-1.46.51-2.88.74-4.24.47-2.71.87-5.13,1.18-7a6,6,0,0,0,.09-.63c0-.23,0-.46,0-.7S44.11,11,44.1,10.83Z"/><path class="cls-3" d="M107.83,23.83a1.55,1.55,0,0,1-.43-.29,1.46,1.46,0,0,1-.29-.44,1.32,1.32,0,0,1-.11-.53V17.64h.75v5a.69.69,0,0,0,0,.24.64.64,0,0,0,.13.19.85.85,0,0,0,.19.14.67.67,0,0,0,.24,0h.74a.52.52,0,0,0,.24,0,.64.64,0,0,0,.19-.13.63.63,0,0,0,.13-.2.59.59,0,0,0,0-.23,1.21,1.21,0,0,0-.06-.38,2.53,2.53,0,0,0-.12-.36l-.12-.38a1.54,1.54,0,0,1,0-.43c0-.16,0-.3,0-.42s0-.21,0-.29,0-.17.06-.24h.75l-.06.31c0,.09,0,.19,0,.3s0,.22,0,.34a.81.81,0,0,0,.06.31,2.56,2.56,0,0,0,.12.32c0,.11.08.24.12.37a2.31,2.31,0,0,1,0,.49,1.17,1.17,0,0,1-.11.53,1.46,1.46,0,0,1-.29.44,1.3,1.3,0,0,1-.43.29,1.36,1.36,0,0,1-.53.11h-.74A1.4,1.4,0,0,1,107.83,23.83Z"/><path class="cls-3" d="M114.76,20.45a.43.43,0,0,1,.16.13.92.92,0,0,1,.17.24,2.22,2.22,0,0,1,.13.31,1.5,1.5,0,0,1,0,.37v1.07a1.32,1.32,0,0,1-.11.53,1.31,1.31,0,0,1-.73.73,1.32,1.32,0,0,1-.53.11h-.73a1.32,1.32,0,0,1-.53-.11,1.33,1.33,0,0,1-.72-.73,1.17,1.17,0,0,1-.11-.53v-.71h.75v.77a.52.52,0,0,0,0,.24.5.5,0,0,0,.13.19.51.51,0,0,0,.43.18h.73a.61.61,0,0,0,.24,0,.72.72,0,0,0,.2-.14.64.64,0,0,0,.13-.19.69.69,0,0,0,0-.24V21.44a.6.6,0,0,0,0-.24.57.57,0,0,0-.33-.33.6.6,0,0,0-.24-.05h-.59v-.69h.51a.59.59,0,0,0,.23,0,.72.72,0,0,0,.2-.14.64.64,0,0,0,.13-.19.69.69,0,0,0,.05-.24v-.65a.69.69,0,0,0-.05-.24.64.64,0,0,0-.13-.19.72.72,0,0,0-.2-.14.59.59,0,0,0-.23,0h-.28v-.7h.28a1.4,1.4,0,0,1,.53.11,1.28,1.28,0,0,1,.43.3,1.33,1.33,0,0,1,.3.43,1.35,1.35,0,0,1,.1.53v.53a1.29,1.29,0,0,1-.11.55A1.52,1.52,0,0,1,114.76,20.45Z"/><path class="cls-3" d="M122.28,17.56a1.37,1.37,0,0,1,1,.41,1.3,1.3,0,0,1,.29.43,1.36,1.36,0,0,1,.11.53v3.64a1.32,1.32,0,0,1-.11.53,1.31,1.31,0,0,1-.73.73,1.32,1.32,0,0,1-.53.11h-.73a1.36,1.36,0,0,1-.53-.11,1.3,1.3,0,0,1-.43-.29,1.37,1.37,0,0,1-.41-1V21.5a1.37,1.37,0,0,1,.41-1,1.3,1.3,0,0,1,.43-.29,1.36,1.36,0,0,1,.53-.11h.73l.18,0a.85.85,0,0,1,.17.06l.15.08a.29.29,0,0,1,.11.11V18.87a.66.66,0,0,0-.37-.57.61.61,0,0,0-.24,0h-.64a.61.61,0,0,0-.24,0,.72.72,0,0,0-.2.14.91.91,0,0,0-.13.19.69.69,0,0,0,0,.24v.42h-.75v-.36a1.36,1.36,0,0,1,.11-.53,1.3,1.3,0,0,1,.29-.43,1.28,1.28,0,0,1,.43-.3,1.41,1.41,0,0,1,.54-.11Zm.61,3.88a.61.61,0,0,0,0-.24.72.72,0,0,0-.14-.2.64.64,0,0,0-.19-.13.6.6,0,0,0-.24-.05h-.73a.69.69,0,0,0-.24.05.86.86,0,0,0-.2.13,1,1,0,0,0-.13.2.61.61,0,0,0,0,.24v1.19a.67.67,0,0,0,0,.24.66.66,0,0,0,.33.33.67.67,0,0,0,.24,0h.73a.61.61,0,0,0,.24,0,.58.58,0,0,0,.37-.57Z"/><path class="cls-3" d="M129.6,17.67a1.28,1.28,0,0,1,.43.3,1.3,1.3,0,0,1,.29.43,1.36,1.36,0,0,1,.11.53v4.93h-.75v-5a.69.69,0,0,0-.05-.24.91.91,0,0,0-.13-.19.72.72,0,0,0-.2-.14.61.61,0,0,0-.24,0h-.36a.61.61,0,0,0-.24,0,.72.72,0,0,0-.2.14.91.91,0,0,0-.13.19.69.69,0,0,0,0,.24v2.84h-.75V18.87a.69.69,0,0,0,0-.24.64.64,0,0,0-.13-.19.51.51,0,0,0-.43-.18h-.37a.51.51,0,0,0-.43.18.5.5,0,0,0-.13.19.52.52,0,0,0-.05.24v5H125V18.93a1.35,1.35,0,0,1,.1-.53,1.33,1.33,0,0,1,.3-.43,1.28,1.28,0,0,1,.43-.3,1.36,1.36,0,0,1,.53-.11h.37a1.25,1.25,0,0,1,.54.12,1.39,1.39,0,0,1,.45.31,1.39,1.39,0,0,1,1-.43h.36A1.41,1.41,0,0,1,129.6,17.67Z"/><path class="cls-3" d="M133.87,20.13a1.32,1.32,0,0,1,.53.11,1.31,1.31,0,0,1,.73.73,1.32,1.32,0,0,1,.11.53v1.07a1.32,1.32,0,0,1-.11.53,1.31,1.31,0,0,1-.73.73,1.32,1.32,0,0,1-.53.11h-.73a1.32,1.32,0,0,1-.53-.11,1.31,1.31,0,0,1-.73-.73,1.32,1.32,0,0,1-.11-.53V18.93a1.36,1.36,0,0,1,.11-.53,1.3,1.3,0,0,1,.29-.43,1.28,1.28,0,0,1,.43-.3,1.41,1.41,0,0,1,.54-.11,1.42,1.42,0,0,1,.33,0l.21,0,.2.05a1.06,1.06,0,0,0,.27,0,2,2,0,0,0,.35,0l.32,0,.33-.08v.7l-.32.07-.32,0a2.19,2.19,0,0,1-.36,0,1.42,1.42,0,0,1-.31,0l-.25,0-.22,0a.86.86,0,0,0-.23,0,.66.66,0,0,0-.57.37.69.69,0,0,0,0,.24v1.51a.7.7,0,0,1,.29-.19,1,1,0,0,1,.33-.06Zm.62,1.31a.6.6,0,0,0-.05-.24.69.69,0,0,0-.13-.2.86.86,0,0,0-.2-.13.64.64,0,0,0-.24-.05h-.73a.66.66,0,0,0-.44.18,1,1,0,0,0-.13.2.6.6,0,0,0,0,.24v1.19a.69.69,0,0,0,0,.24.91.91,0,0,0,.13.19.72.72,0,0,0,.2.14.67.67,0,0,0,.24,0h.73a.64.64,0,0,0,.24,0,.9.9,0,0,0,.2-.14.64.64,0,0,0,.13-.19.69.69,0,0,0,.05-.24Z"/><path class="cls-3" d="M139.84,19.7a.94.94,0,0,1,.12.22l.06.24a2.13,2.13,0,0,1,0,.27v2.14a1.31,1.31,0,0,1-.4,1,1.3,1.3,0,0,1-.43.29,1.36,1.36,0,0,1-.53.11H138a1.32,1.32,0,0,1-.53-.11,1.35,1.35,0,0,1-.44-.29,1.46,1.46,0,0,1-.29-.44,1.32,1.32,0,0,1-.11-.53v-1.4h.76v1.46a.67.67,0,0,0,0,.24.91.91,0,0,0,.13.19.72.72,0,0,0,.2.14.61.61,0,0,0,.24,0h.73a.58.58,0,0,0,.61-.61V20.5a1,1,0,0,0,0-.18.36.36,0,0,0,0-.11.19.19,0,0,0,0-.08,1.89,1.89,0,0,0-.28-.26l-.57-.38h0l-.38-.24-.29-.2a1.4,1.4,0,0,1-.22-.17.93.93,0,0,1-.16-.18,1.19,1.19,0,0,1-.12-.22l-.06-.24a2.45,2.45,0,0,1,0-.27v-.32h.75v.25c0,.07,0,.13,0,.17a1,1,0,0,0,0,.12s0,.05,0,.08a1.51,1.51,0,0,0,.28.25c.13.1.32.23.55.38h0l.39.24.29.2a1.42,1.42,0,0,1,.22.18A.69.69,0,0,1,139.84,19.7Z"/><path class="cls-3" d="M144.34,20.45a.43.43,0,0,1,.16.13.92.92,0,0,1,.17.24,2.22,2.22,0,0,1,.13.31,1.5,1.5,0,0,1,0,.37v1.07a1.32,1.32,0,0,1-.11.53,1.31,1.31,0,0,1-.73.73,1.32,1.32,0,0,1-.53.11h-.73a1.32,1.32,0,0,1-.53-.11,1.3,1.3,0,0,1-.43-.29,1.49,1.49,0,0,1-.3-.44,1.32,1.32,0,0,1-.1-.53v-.71h.75v.77a.52.52,0,0,0,.05.24.5.5,0,0,0,.13.19.51.51,0,0,0,.43.18h.73a.61.61,0,0,0,.24,0,.72.72,0,0,0,.2-.14.91.91,0,0,0,.13-.19.69.69,0,0,0,0-.24V21.44a.6.6,0,0,0,0-.24,1,1,0,0,0-.13-.2.69.69,0,0,0-.2-.13.6.6,0,0,0-.24-.05h-.6v-.69h.52a.59.59,0,0,0,.23,0,.72.72,0,0,0,.2-.14.64.64,0,0,0,.13-.19.69.69,0,0,0,0-.24v-.65a.69.69,0,0,0,0-.24.64.64,0,0,0-.13-.19.72.72,0,0,0-.2-.14.59.59,0,0,0-.23,0h-.28v-.7h.28a1.4,1.4,0,0,1,.53.11,1.28,1.28,0,0,1,.43.3,1.33,1.33,0,0,1,.3.43,1.35,1.35,0,0,1,.1.53v.53a1.46,1.46,0,0,1-.11.55A1.52,1.52,0,0,1,144.34,20.45Z"/><path class="cls-3" d="M150.8,17.67a1.28,1.28,0,0,1,.43.3,1.3,1.3,0,0,1,.29.43,1.36,1.36,0,0,1,.11.53v4.93h-.75v-5a.69.69,0,0,0,0-.24.64.64,0,0,0-.13-.19.72.72,0,0,0-.2-.14.59.59,0,0,0-.23,0h-.37a.61.61,0,0,0-.24,0,.67.67,0,0,0-.19.14.5.5,0,0,0-.13.19.52.52,0,0,0-.05.24v2.84h-.76V18.87a.52.52,0,0,0-.05-.24.5.5,0,0,0-.13-.19.51.51,0,0,0-.43-.18h-.37a.51.51,0,0,0-.43.18.5.5,0,0,0-.13.19.69.69,0,0,0-.05.24v5h-.75V18.93a1.36,1.36,0,0,1,.11-.53,1.3,1.3,0,0,1,.29-.43,1.28,1.28,0,0,1,.43-.3,1.36,1.36,0,0,1,.53-.11h.37a1.3,1.3,0,0,1,.55.12,1.35,1.35,0,0,1,.44.31,1.39,1.39,0,0,1,1-.43h.37A1.4,1.4,0,0,1,150.8,17.67Z"/><path class="cls-3" d="M153.81,23.83a1.3,1.3,0,0,1-.43-.29,1.37,1.37,0,0,1-.41-1V17.64h.76v5a.66.66,0,0,0,.37.57.61.61,0,0,0,.24,0h.73a.47.47,0,0,0,.24,0,.69.69,0,0,0,.2-.13,1.37,1.37,0,0,0,.13-.2.59.59,0,0,0,0-.23,1.2,1.2,0,0,0-.05-.38l-.12-.36c0-.12-.09-.25-.13-.38a2,2,0,0,1,0-.43c0-.16,0-.3,0-.42s0-.21,0-.29a1.37,1.37,0,0,1,.07-.24h.75a2.82,2.82,0,0,0-.07.31c0,.09,0,.19,0,.3s0,.22,0,.34a.81.81,0,0,0,0,.31l.12.32c0,.11.08.24.12.37a1.77,1.77,0,0,1,.06.49,1.32,1.32,0,0,1-.11.53,1.31,1.31,0,0,1-.73.73,1.32,1.32,0,0,1-.53.11h-.73A1.32,1.32,0,0,1,153.81,23.83Z"/><path class="cls-3" d="M166,17.67a1.28,1.28,0,0,1,.43.3,1.3,1.3,0,0,1,.29.43,1.36,1.36,0,0,1,.11.53v4.93H166v-5a.69.69,0,0,0,0-.24.64.64,0,0,0-.13-.19.72.72,0,0,0-.2-.14.61.61,0,0,0-.24,0h-.36a.61.61,0,0,0-.24,0,.55.55,0,0,0-.19.14.51.51,0,0,0-.18.43v2.84h-.76V18.87a.69.69,0,0,0-.05-.24.5.5,0,0,0-.13-.19.51.51,0,0,0-.43-.18h-.37a.51.51,0,0,0-.43.18.5.5,0,0,0-.13.19.69.69,0,0,0-.05.24v5h-.75V18.93a1.2,1.2,0,0,1,.11-.53,1.3,1.3,0,0,1,.29-.43,1.28,1.28,0,0,1,.43-.3,1.36,1.36,0,0,1,.53-.11h.37a1.25,1.25,0,0,1,.54.12,1.39,1.39,0,0,1,.45.31,1.39,1.39,0,0,1,1-.43h.36A1.41,1.41,0,0,1,166,17.67Z"/><path class="cls-3" d="M173,20.46a.45.45,0,0,1,.17.13,1,1,0,0,1,.16.23,1.53,1.53,0,0,1,.13.32,1.5,1.5,0,0,1,0,.37v1.07a1.2,1.2,0,0,1-.11.53,1.17,1.17,0,0,1-.29.43,1.19,1.19,0,0,1-.43.3,1.36,1.36,0,0,1-.53.11h-1.48a1.37,1.37,0,0,1-1-.41,1.3,1.3,0,0,1-.29-.43,1.36,1.36,0,0,1-.11-.53v-.71H170v.77a.69.69,0,0,0,0,.24.67.67,0,0,0,.14.19.5.5,0,0,0,.19.13.47.47,0,0,0,.24.05h1.48a.52.52,0,0,0,.24-.05.62.62,0,0,0,.32-.32.69.69,0,0,0,0-.24V21.45a.6.6,0,0,0,0-.24.46.46,0,0,0-.13-.2.64.64,0,0,0-.19-.13.69.69,0,0,0-.24-.05h-.61v-.68H172a.52.52,0,0,0,.24-.05.53.53,0,0,0,.2-.13.91.91,0,0,0,.13-.19.69.69,0,0,0,.05-.24v-.65a.69.69,0,0,0-.05-.24.57.57,0,0,0-.33-.33.69.69,0,0,0-.24,0h-.36a.6.6,0,0,0-.24,0,1,1,0,0,0-.2.13.66.66,0,0,0-.18.44v.66a1.31,1.31,0,0,1-.4,1,1.3,1.3,0,0,1-.43.29,1.36,1.36,0,0,1-.53.11h-.37a1.4,1.4,0,0,1-.53-.11,1.42,1.42,0,0,1-.43-.29,1.49,1.49,0,0,1-.3-.44,1.32,1.32,0,0,1-.1-.53v-.6a1.32,1.32,0,0,1,.1-.53,1.49,1.49,0,0,1,.3-.44,1.42,1.42,0,0,1,.43-.29,1.4,1.4,0,0,1,.53-.11h.37a1.25,1.25,0,0,1,.54.12,1.39,1.39,0,0,1,.45.31,1.39,1.39,0,0,1,1-.43H172a1.32,1.32,0,0,1,.53.11,1.31,1.31,0,0,1,.73.73,1.32,1.32,0,0,1,.11.53v.53a1.3,1.3,0,0,1-.12.55A1.35,1.35,0,0,1,173,20.46Zm-3.28-.25a.67.67,0,0,0,.24,0,.91.91,0,0,0,.19-.13.53.53,0,0,0,.13-.2.47.47,0,0,0,.05-.24v-.72a.66.66,0,0,0-.18-.44.91.91,0,0,0-.19-.13.69.69,0,0,0-.24,0h-.37a.69.69,0,0,0-.24,0,.91.91,0,0,0-.19.13.53.53,0,0,0-.13.2.52.52,0,0,0,0,.24v.72a.47.47,0,0,0,0,.24.53.53,0,0,0,.13.2.91.91,0,0,0,.19.13.67.67,0,0,0,.24,0Z"/><path class="cls-3" d="M177.46,17.68a1.37,1.37,0,0,1,.83,1.26v4.92h-.75v-5a.6.6,0,0,0,0-.24.57.57,0,0,0-.33-.33.59.59,0,0,0-.23,0h-.74a.69.69,0,0,0-.24,0,.64.64,0,0,0-.19.13.53.53,0,0,0-.13.2.6.6,0,0,0,0,.24v5h-.75V18.94a1.24,1.24,0,0,1,.11-.54,1.26,1.26,0,0,1,.29-.43,1.3,1.3,0,0,1,.43-.29,1.2,1.2,0,0,1,.53-.11h.74A1.23,1.23,0,0,1,177.46,17.68Z"/><path class="cls-3" d="M183,20.45a.45.45,0,0,1,.17.13.92.92,0,0,1,.17.24,2.22,2.22,0,0,1,.13.31,1.5,1.5,0,0,1,.05.37v1.07a1.32,1.32,0,0,1-.11.53,1.31,1.31,0,0,1-.73.73,1.32,1.32,0,0,1-.53.11H181a1.4,1.4,0,0,1-.53-.11,1.55,1.55,0,0,1-.43-.29,1.46,1.46,0,0,1-.29-.44,1.32,1.32,0,0,1-.11-.53V17.64h.75v5a.69.69,0,0,0,.05.24.64.64,0,0,0,.13.19.72.72,0,0,0,.2.14.59.59,0,0,0,.23,0h1.13a.51.51,0,0,0,.43-.18.52.52,0,0,0,.14-.19.69.69,0,0,0,.05-.24V21.44a.6.6,0,0,0-.05-.24.56.56,0,0,0-.14-.2.64.64,0,0,0-.19-.13.69.69,0,0,0-.24-.05h-.6v-.69H182a.59.59,0,0,0,.23,0,.72.72,0,0,0,.2-.14.64.64,0,0,0,.13-.19.69.69,0,0,0,.05-.24.92.92,0,0,0,0-.32.53.53,0,0,0-.11-.21,1,1,0,0,0-.23-.13l-.35-.14-.35-.12-.22-.1-.14-.11-.12-.16A.92.92,0,0,1,181,18a1.06,1.06,0,0,1,0-.31h.76a.34.34,0,0,0,0,.1.2.2,0,0,0,0,.09l.08.08a.49.49,0,0,0,.13.08l.24.09.42.15a2,2,0,0,1,.44.2.77.77,0,0,1,.25.26,1,1,0,0,1,.11.36,3.33,3.33,0,0,1,0,.48,1.42,1.42,0,0,1-.13.51A1.21,1.21,0,0,1,183,20.45Z"/><path class="cls-3" d="M187.46,17.68a1.46,1.46,0,0,1,.44.29,1.42,1.42,0,0,1,.29.43,1.4,1.4,0,0,1,.1.54v4.92h-.75v-5a.47.47,0,0,0,0-.24.53.53,0,0,0-.13-.2.64.64,0,0,0-.19-.13.6.6,0,0,0-.24,0h-.73a.6.6,0,0,0-.24,0,.69.69,0,0,0-.2.13,1,1,0,0,0-.13.2.61.61,0,0,0,0,.24v5h-.76V18.94a1.37,1.37,0,0,1,.4-1,1.46,1.46,0,0,1,.44-.29,1.17,1.17,0,0,1,.53-.11h.73A1.17,1.17,0,0,1,187.46,17.68Z"/><path class="cls-3" d="M192.9,19.7a.94.94,0,0,1,.12.22,1.05,1.05,0,0,1,.06.24,2.13,2.13,0,0,1,0,.27c0,.1,0,.2,0,.32v1.82a1.37,1.37,0,0,1-.41,1,1.3,1.3,0,0,1-.43.29,1.36,1.36,0,0,1-.53.11H191a1.32,1.32,0,0,1-.53-.11,1.31,1.31,0,0,1-.73-.73,1.32,1.32,0,0,1-.11-.53v-1.4h.76v1.46a.66.66,0,0,0,.37.57.61.61,0,0,0,.24,0h.73a.67.67,0,0,0,.24,0,.66.66,0,0,0,.33-.33.67.67,0,0,0,0-.24V20.5a1,1,0,0,0,0-.18.36.36,0,0,0,0-.11.19.19,0,0,0,0-.08,1.48,1.48,0,0,0-.28-.26l-.57-.38h0l-.38-.24-.29-.2a1.4,1.4,0,0,1-.22-.17.93.93,0,0,1-.16-.18.76.76,0,0,1-.11-.22,2.17,2.17,0,0,1-.07-.24,2.45,2.45,0,0,1,0-.27v-.32h.75v.25a1.16,1.16,0,0,1,0,.17,1,1,0,0,0,0,.12s0,.05,0,.08a1.51,1.51,0,0,0,.28.25c.13.1.32.23.55.38h0l.39.24.3.2.21.18A.55.55,0,0,1,192.9,19.7Z"/><path class="cls-3" d="M200.82,17.68a1.37,1.37,0,0,1,.83,1.26v2.92h-.75v-3a.6.6,0,0,0-.05-.24.57.57,0,0,0-.33-.33.6.6,0,0,0-.24,0h-.17a.6.6,0,0,0-.24,0,.69.69,0,0,0-.2.13,1,1,0,0,0-.13.2.6.6,0,0,0,0,.24v2h-.75v-2a.6.6,0,0,0-.05-.24.53.53,0,0,0-.13-.2.64.64,0,0,0-.19-.13.69.69,0,0,0-.24,0H198a.59.59,0,0,0-.23,0,.57.57,0,0,0-.33.33.6.6,0,0,0,0,.24v2h-.75v-2a.6.6,0,0,0-.05-.24.57.57,0,0,0-.33-.33.59.59,0,0,0-.23,0h-.17a.6.6,0,0,0-.24,0,.64.64,0,0,0-.19.13.72.72,0,0,0-.14.2.6.6,0,0,0-.05.24v2.67a1.23,1.23,0,0,0,.06.39.86.86,0,0,0,.15.32.64.64,0,0,0,.25.21.8.8,0,0,0,.36.08h3.64a1.13,1.13,0,0,1,.45.09,1.13,1.13,0,0,1,.63.63,1.13,1.13,0,0,1,.09.45v.14h-.75v-.19a.35.35,0,0,0,0-.17.38.38,0,0,0-.09-.13.31.31,0,0,0-.13-.1.51.51,0,0,0-.17,0H196a1.56,1.56,0,0,1-.66-.14,1.66,1.66,0,0,1-.49-.38,1.79,1.79,0,0,1-.31-.56,2.17,2.17,0,0,1-.11-.69V18.94a1.37,1.37,0,0,1,.4-1,1.46,1.46,0,0,1,.44-.29,1.17,1.17,0,0,1,.53-.11H196a1.41,1.41,0,0,1,.54.11A1.57,1.57,0,0,1,197,18a1.33,1.33,0,0,1,1-.42h.18a1.41,1.41,0,0,1,.54.11,1.57,1.57,0,0,1,.45.31,1.4,1.4,0,0,1,.44-.31,1.42,1.42,0,0,1,.55-.11h.17A1.24,1.24,0,0,1,200.82,17.68Z"/><path class="cls-3" d="M205.58,17.67a1.28,1.28,0,0,1,.43.3,1.3,1.3,0,0,1,.29.43,1.2,1.2,0,0,1,.11.53v3.64a1.17,1.17,0,0,1-.11.53,1.46,1.46,0,0,1-.29.44,1.37,1.37,0,0,1-1,.4h-.73a1.4,1.4,0,0,1-.53-.11,1.42,1.42,0,0,1-.43-.29,1.49,1.49,0,0,1-.3-.44,1.32,1.32,0,0,1-.1-.53v-.71h.75v.77a.52.52,0,0,0,.05.24.5.5,0,0,0,.13.19.51.51,0,0,0,.43.18H205a.61.61,0,0,0,.24,0,.6.6,0,0,0,.2-.14.5.5,0,0,0,.13-.19.69.69,0,0,0,0-.24V18.87a.69.69,0,0,0,0-.24.5.5,0,0,0-.13-.19.6.6,0,0,0-.2-.14.61.61,0,0,0-.24,0h-.17a.61.61,0,0,0-.24,0,.58.58,0,0,0-.37.57v1.26h-.76V18.87a.58.58,0,0,0-.61-.61h-.53v-.7h.53a1.3,1.3,0,0,1,.55.12.47.47,0,0,0,.88,0,1.26,1.26,0,0,1,.55-.12H205A1.41,1.41,0,0,1,205.58,17.67Z"/><path class="cls-3" d="M212.36,20.23a1.26,1.26,0,0,1,.43.29,1.33,1.33,0,0,1,.3.43,1.35,1.35,0,0,1,.1.53v2.38h-.75V21.42a.52.52,0,0,0-.05-.24.62.62,0,0,0-.32-.32.69.69,0,0,0-.24-.05h-.36a.6.6,0,0,0-.24.05.53.53,0,0,0-.2.13.64.64,0,0,0-.13.19.69.69,0,0,0-.05.24v1.3h-.75v-1.3a.69.69,0,0,0,0-.24.64.64,0,0,0-.13-.19.53.53,0,0,0-.2-.13.59.59,0,0,0-.23-.05h-.37a.69.69,0,0,0-.24.05.53.53,0,0,0-.2.13.91.91,0,0,0-.13.19.69.69,0,0,0-.05.24v2.44h-.75V20a1.72,1.72,0,0,1,.14-.68,1.85,1.85,0,0,1,.38-.56,1.79,1.79,0,0,1,.56-.38,1.74,1.74,0,0,1,.69-.14h1.66a.47.47,0,0,0,.17,0,.71.71,0,0,0,.14-.1.38.38,0,0,0,.09-.13.53.53,0,0,0,0-.17v-.19h.75v.13a1,1,0,0,1-.1.46,1.17,1.17,0,0,1-.62.62,1,1,0,0,1-.46.1h-1.67a.85.85,0,0,0-.39.08,1.15,1.15,0,0,0-.33.21,1.21,1.21,0,0,0-.22.32,1,1,0,0,0-.08.39v.3a1.48,1.48,0,0,1,.62-.14h.37a1.41,1.41,0,0,1,.54.11,1.39,1.39,0,0,1,.45.31,1.25,1.25,0,0,1,.44-.31,1.42,1.42,0,0,1,.55-.11h.36A1.17,1.17,0,0,1,212.36,20.23Z"/><path class="cls-3" d="M217.17,17.68a1.37,1.37,0,0,1,.83,1.26v4.92h-.75v-5a.6.6,0,0,0-.05-.24.69.69,0,0,0-.13-.2.8.8,0,0,0-.19-.13.69.69,0,0,0-.24,0h-.74a.69.69,0,0,0-.24,0,.8.8,0,0,0-.19.13.69.69,0,0,0-.13.2.6.6,0,0,0-.05.24v5h-.75V18.94a1.37,1.37,0,0,1,.4-1,1.3,1.3,0,0,1,.43-.29,1.2,1.2,0,0,1,.53-.11h.74A1.2,1.2,0,0,1,217.17,17.68Z"/><path class="cls-3" d="M109.19,30.6a1.68,1.68,0,0,1,.5.13,1.5,1.5,0,0,1,.4.3,1.17,1.17,0,0,1,.27.42,1.25,1.25,0,0,1,.1.51V33a1.2,1.2,0,0,1-.11.53,1.42,1.42,0,0,1-.29.43,1.45,1.45,0,0,1-.43.3,1.35,1.35,0,0,1-.53.1h-.74a1.39,1.39,0,0,1-.53-.1,1.45,1.45,0,0,1-.43-.3,1.42,1.42,0,0,1-.29-.43A1.36,1.36,0,0,1,107,33V32a1.4,1.4,0,0,1,.11-.53,1.36,1.36,0,0,1,.72-.72,1.4,1.4,0,0,1,.53-.11h.08v-1h-.18a1.14,1.14,0,0,1-.46-.09,1.21,1.21,0,0,1-.37-.25,1.15,1.15,0,0,1-.25-.37,1.19,1.19,0,0,1-.1-.46v-.31h.74v.36a.33.33,0,0,0,0,.17.39.39,0,0,0,.23.23.47.47,0,0,0,.17,0h.83a.1.1,0,0,1,.07,0,.09.09,0,0,1,0,.07Zm.52,1.31a.7.7,0,0,0,0-.25.64.64,0,0,0-.13-.19.53.53,0,0,0-.2-.13.59.59,0,0,0-.23-.05h-.74a.69.69,0,0,0-.24.05.59.59,0,0,0-.19.13.64.64,0,0,0-.13.19.7.7,0,0,0,0,.25V33.1a.59.59,0,0,0,0,.23.69.69,0,0,0,.13.2.59.59,0,0,0,.19.13.52.52,0,0,0,.24.05h.74a.46.46,0,0,0,.23-.05.53.53,0,0,0,.2-.13.69.69,0,0,0,.13-.2.59.59,0,0,0,0-.23Z"/><path class="cls-3" d="M114.43,28.13a1.49,1.49,0,0,1,.44.3,1.42,1.42,0,0,1,.29.43,1.4,1.4,0,0,1,.11.53V33a1.32,1.32,0,0,1-.11.53,1.35,1.35,0,0,1-.29.44,1.46,1.46,0,0,1-.44.29,1.32,1.32,0,0,1-.53.11h-.73a1.32,1.32,0,0,1-.53-.11,1.46,1.46,0,0,1-.44-.29,1.35,1.35,0,0,1-.29-.44,1.32,1.32,0,0,1-.11-.53v-.71h.75v.77a.6.6,0,0,0,0,.24,1.37,1.37,0,0,0,.13.2.66.66,0,0,0,.44.18h.73a.69.69,0,0,0,.24-.05.57.57,0,0,0,.33-.33.6.6,0,0,0,0-.24V29.34a.6.6,0,0,0,0-.24.58.58,0,0,0-.13-.2.63.63,0,0,0-.2-.13.69.69,0,0,0-.24-.05h-.65a.59.59,0,0,0-.23.05.53.53,0,0,0-.2.13.58.58,0,0,0-.13.2.6.6,0,0,0,0,.24v.76h-.75v-.71a1.4,1.4,0,0,1,.11-.53,1.42,1.42,0,0,1,.29-.43,1.45,1.45,0,0,1,.43-.3,1.39,1.39,0,0,1,.53-.1h.65A1.32,1.32,0,0,1,114.43,28.13Z"/><path class="cls-3" d="M120.68,28a1.32,1.32,0,0,1,.53.1,1.49,1.49,0,0,1,.44.3,1.42,1.42,0,0,1,.29.43,1.4,1.4,0,0,1,.11.53v4.93h-.76v-5a.61.61,0,0,0,0-.24.6.6,0,0,0-.14-.2.43.43,0,0,0-.19-.13.6.6,0,0,0-.24-.05h-.36a.64.64,0,0,0-.24.05.53.53,0,0,0-.2.13.58.58,0,0,0-.13.2.6.6,0,0,0,0,.24V33a1.32,1.32,0,0,1-.1.53,1.37,1.37,0,0,1-.3.44,1.3,1.3,0,0,1-.43.29,1.32,1.32,0,0,1-.53.11H118a1.36,1.36,0,0,1-.53-.11A1.42,1.42,0,0,1,117,34a1.23,1.23,0,0,1-.3-.44,1.32,1.32,0,0,1-.1-.53V29.39a1.39,1.39,0,0,1,.1-.53,1.28,1.28,0,0,1,.3-.43,1.45,1.45,0,0,1,.43-.3A1.35,1.35,0,0,1,118,28h.37a1.37,1.37,0,0,1,.54.11,1.57,1.57,0,0,1,.45.31,1.4,1.4,0,0,1,.44-.31,1.42,1.42,0,0,1,.55-.11ZM119,29.39v-.05a.47.47,0,0,0,0-.24.46.46,0,0,0-.13-.2.5.5,0,0,0-.19-.13.69.69,0,0,0-.24-.05H118a.69.69,0,0,0-.24.05.59.59,0,0,0-.19.13.58.58,0,0,0-.13.2.6.6,0,0,0,0,.24v3.75a.6.6,0,0,0,0,.24.86.86,0,0,0,.13.2.8.8,0,0,0,.19.13.69.69,0,0,0,.24.05h.37a.69.69,0,0,0,.24-.05.64.64,0,0,0,.19-.13.63.63,0,0,0,.13-.2.47.47,0,0,0,0-.24Z"/><path class="cls-3" d="M126,28.14a1.33,1.33,0,0,1,.72.73,1.17,1.17,0,0,1,.11.53v4.92h-.75v-5a.6.6,0,0,0,0-.24.53.53,0,0,0-.13-.2.64.64,0,0,0-.19-.13.69.69,0,0,0-.24-.05h-.74a.59.59,0,0,0-.23.05.57.57,0,0,0-.33.33.6.6,0,0,0,0,.24v5h-.75V29.4a1.32,1.32,0,0,1,.11-.53,1.46,1.46,0,0,1,.29-.44,1.42,1.42,0,0,1,.43-.29,1.4,1.4,0,0,1,.53-.11h.74A1.36,1.36,0,0,1,126,28.14Z"/><path class="cls-3" d="M130.3,30.6a1.39,1.39,0,0,1,.53.1,1.45,1.45,0,0,1,.43.3,1.27,1.27,0,0,1,.4,1V33a1.32,1.32,0,0,1-.1.53,1.37,1.37,0,0,1-.3.44,1.42,1.42,0,0,1-.43.29,1.4,1.4,0,0,1-.53.11h-.73a1.37,1.37,0,0,1-1-.4,1.35,1.35,0,0,1-.29-.44,1.17,1.17,0,0,1-.11-.53V29.39a1.23,1.23,0,0,1,.11-.53,1.42,1.42,0,0,1,.29-.43,1.33,1.33,0,0,1,.43-.3,1.4,1.4,0,0,1,.54-.1,1.47,1.47,0,0,1,.32,0l.22.05.19,0,.28,0,.35,0,.32,0,.32-.07v.69l-.31.07-.32.05-.36,0-.32,0-.25-.05-.22-.05-.22,0a.6.6,0,0,0-.24.05.53.53,0,0,0-.2.13.58.58,0,0,0-.13.2.6.6,0,0,0-.05.24v1.5a.67.67,0,0,1,.28-.19,1.27,1.27,0,0,1,.34,0Zm.61,1.3a.52.52,0,0,0,0-.24.53.53,0,0,0-.13-.2,1,1,0,0,0-.2-.13.59.59,0,0,0-.23,0h-.73a.61.61,0,0,0-.24,0,.77.77,0,0,0-.2.13.53.53,0,0,0-.13.2.69.69,0,0,0-.05.24v1.19a.6.6,0,0,0,.05.24.63.63,0,0,0,.13.2.58.58,0,0,0,.2.13.6.6,0,0,0,.24.05h.73a.59.59,0,0,0,.23-.05.69.69,0,0,0,.2-.13.63.63,0,0,0,.13-.2.47.47,0,0,0,0-.24Z"/><path class="cls-3" d="M135.74,30.75A1.54,1.54,0,0,1,136,31a1.23,1.23,0,0,1,.23.28,1.14,1.14,0,0,1,.15.34,1.21,1.21,0,0,1,.06.38V33a1.32,1.32,0,0,1-.11.53,1.35,1.35,0,0,1-.29.44,1.46,1.46,0,0,1-.44.29,1.36,1.36,0,0,1-.53.11h-.73a1.32,1.32,0,0,1-.53-.11,1.46,1.46,0,0,1-.44-.29,1.35,1.35,0,0,1-.29-.44A1.32,1.32,0,0,1,133,33V32a1.32,1.32,0,0,1,.11-.53,1.3,1.3,0,0,1,.29-.43,1.49,1.49,0,0,1,.44-.3,1.32,1.32,0,0,1,.53-.1h.41a.42.42,0,0,0,.28-.14.41.41,0,0,0,.12-.3v-1a.47.47,0,0,0,0-.17.71.71,0,0,0-.1-.14.38.38,0,0,0-.13-.09.53.53,0,0,0-.17,0h-.2a.47.47,0,0,0-.17,0,.42.42,0,0,0-.14.09l-.09.14a.47.47,0,0,0,0,.17v.61h-.75V29.2a1.06,1.06,0,0,1,.1-.46,1.15,1.15,0,0,1,.25-.37,1.34,1.34,0,0,1,.37-.25,1.18,1.18,0,0,1,.46-.09h.2a1.22,1.22,0,0,1,.46.09,1.17,1.17,0,0,1,.62.62,1.22,1.22,0,0,1,.09.46v.91a1,1,0,0,1,0,.34A1,1,0,0,1,135.74,30.75Zm0,1.15a.69.69,0,0,0-.05-.24.57.57,0,0,0-.33-.33.67.67,0,0,0-.24,0h-.73a.61.61,0,0,0-.24,0,.91.91,0,0,0-.19.13.53.53,0,0,0-.13.2.52.52,0,0,0-.05.24v1.19a.47.47,0,0,0,.05.24.63.63,0,0,0,.13.2.64.64,0,0,0,.19.13.6.6,0,0,0,.24.05h.73a.66.66,0,0,0,.44-.18,1.37,1.37,0,0,0,.13-.2.6.6,0,0,0,.05-.24Z"/><path class="cls-3" d="M144.33,30.91a.59.59,0,0,1,.17.13,1.13,1.13,0,0,1,.17.24,1.33,1.33,0,0,1,.12.32,1,1,0,0,1,.05.36V33a1.32,1.32,0,0,1-.1.53,1.37,1.37,0,0,1-.3.44,1.42,1.42,0,0,1-.43.29,1.4,1.4,0,0,1-.53.11h-.73a1.37,1.37,0,0,1-1-.4,1.35,1.35,0,0,1-.29-.44,1.17,1.17,0,0,1-.11-.53v-.71h.75v.77a.6.6,0,0,0,.05.24.86.86,0,0,0,.13.2.69.69,0,0,0,.2.13.6.6,0,0,0,.24.05h.73a.69.69,0,0,0,.24-.05.64.64,0,0,0,.19-.13.63.63,0,0,0,.13-.2.47.47,0,0,0,.05-.24V31.9a.52.52,0,0,0-.05-.24.53.53,0,0,0-.13-.2.91.91,0,0,0-.19-.13.67.67,0,0,0-.24,0l-.6,0v-.69l.51,0a.6.6,0,0,0,.24-.05.64.64,0,0,0,.19-.13.63.63,0,0,0,.13-.2A.47.47,0,0,0,144,30a1,1,0,0,0,0-.32.56.56,0,0,0-.14-.2,1.17,1.17,0,0,0-.25-.13l-.36-.13-.37-.13-.26-.1-.17-.12a.73.73,0,0,1-.14-.16.82.82,0,0,1-.14-.28,1.53,1.53,0,0,1,0-.3h.76v.09a.2.2,0,0,0,0,.09l.1.09.16.08.29.1.43.15a2.4,2.4,0,0,1,.45.2.93.93,0,0,1,.27.25,1,1,0,0,1,.14.35,3.48,3.48,0,0,1,0,.49,1.36,1.36,0,0,1-.12.5A1.4,1.4,0,0,1,144.33,30.91Z"/><path class="cls-3" d="M149.45,30.16a1.19,1.19,0,0,1,.12.22l.06.24a2.45,2.45,0,0,1,0,.27V33a1.32,1.32,0,0,1-.1.53,1.23,1.23,0,0,1-.3.44,1.3,1.3,0,0,1-.43.29,1.36,1.36,0,0,1-.53.11h-.73a1.32,1.32,0,0,1-.53-.11,1.31,1.31,0,0,1-.73-.73,1.32,1.32,0,0,1-.11-.53v-1.4H147v1.46a.61.61,0,0,0,0,.24,1.37,1.37,0,0,0,.13.2.69.69,0,0,0,.2.13.6.6,0,0,0,.24.05h.73a.69.69,0,0,0,.24-.05.64.64,0,0,0,.19-.13.63.63,0,0,0,.13-.2.47.47,0,0,0,.05-.24V31a.86.86,0,0,0,0-.17.37.37,0,0,0,0-.12.19.19,0,0,0,0-.08,1.49,1.49,0,0,0-.28-.25c-.14-.11-.33-.23-.57-.38h0l-.38-.25-.29-.2a1,1,0,0,1-.22-.17,1.08,1.08,0,0,1-.28-.4l-.06-.24a2.13,2.13,0,0,1,0-.27v-.31h.75v.25c0,.06,0,.12,0,.17l0,.11a.19.19,0,0,0,0,.08,1.22,1.22,0,0,0,.28.25c.13.1.32.23.55.38h0l.39.25.29.19a2.38,2.38,0,0,1,.22.18A1.29,1.29,0,0,1,149.45,30.16Z"/><path class="cls-3" d="M155.6,30.69A1.42,1.42,0,0,1,156,31a1.26,1.26,0,0,1,.29.43,1.23,1.23,0,0,1,.11.53v2.38h-.75V31.88a.59.59,0,0,0-.05-.23.53.53,0,0,0-.13-.2.64.64,0,0,0-.19-.13.69.69,0,0,0-.24-.05h-.36a.6.6,0,0,0-.24.05.58.58,0,0,0-.2.13.53.53,0,0,0-.13.2.59.59,0,0,0,0,.23v1.3h-.75v-1.3a.59.59,0,0,0-.05-.23.57.57,0,0,0-.33-.33.59.59,0,0,0-.23-.05h-.37a.64.64,0,0,0-.24.05.57.57,0,0,0-.33.33.59.59,0,0,0,0,.23v2.44H151V30.5a1.74,1.74,0,0,1,.14-.69,1.8,1.8,0,0,1,.94-.94,1.74,1.74,0,0,1,.69-.14h1.66a.47.47,0,0,0,.17,0,.67.67,0,0,0,.14-.09.42.42,0,0,0,.09-.14.47.47,0,0,0,0-.17v-.19h.75v.14a1.13,1.13,0,0,1-.09.45,1.09,1.09,0,0,1-.25.38,1.21,1.21,0,0,1-.37.25,1.18,1.18,0,0,1-.46.09h-1.67a1,1,0,0,0-.39.08,1,1,0,0,0-.33.21,1.21,1.21,0,0,0-.22.32,1,1,0,0,0-.08.39v.3a1.44,1.44,0,0,1,.62-.14h.37a1.33,1.33,0,0,1,1,.42,1.57,1.57,0,0,1,.45-.31,1.42,1.42,0,0,1,.55-.11h.36A1.36,1.36,0,0,1,155.6,30.69Z"/><path class="cls-3" d="M160.26,28.72a1.36,1.36,0,0,1,1.26.83,1.24,1.24,0,0,1,.11.54V33a1.17,1.17,0,0,1-.11.53,1.35,1.35,0,0,1-.29.44,1.37,1.37,0,0,1-1,.4h-1.12a1.36,1.36,0,0,1-.53-.11,1.3,1.3,0,0,1-.43-.29,1.23,1.23,0,0,1-.3-.44,1.32,1.32,0,0,1-.11-.53V30.09a1.41,1.41,0,0,1,.11-.54,1.28,1.28,0,0,1,.3-.43,1.3,1.3,0,0,1,.43-.29,1.36,1.36,0,0,1,.53-.11h.19v-.61h.75v.61Zm.62,1.3a.69.69,0,0,0,0-.24.59.59,0,0,0-.13-.19.58.58,0,0,0-.2-.13.6.6,0,0,0-.24-.05h-.18v1.95h-.75V29.41h-.19a.69.69,0,0,0-.24.05.64.64,0,0,0-.19.13.59.59,0,0,0-.13.19.69.69,0,0,0-.05.24v3.07a.6.6,0,0,0,.05.24.63.63,0,0,0,.13.2.64.64,0,0,0,.19.13.69.69,0,0,0,.24.05h1.12a.6.6,0,0,0,.24-.05.58.58,0,0,0,.2-.13.63.63,0,0,0,.13-.2.6.6,0,0,0,0-.24Z"/><path class="cls-3" d="M165.08,30.6a1.39,1.39,0,0,1,.53.1,1.45,1.45,0,0,1,.43.3,1.37,1.37,0,0,1,.4,1V33a1.17,1.17,0,0,1-.11.53A1.21,1.21,0,0,1,166,34a1.42,1.42,0,0,1-.43.29,1.4,1.4,0,0,1-.53.11h-.74a1.4,1.4,0,0,1-.53-.11,1.42,1.42,0,0,1-.43-.29,1.21,1.21,0,0,1-.29-.44A1.17,1.17,0,0,1,163,33V29.39a1.23,1.23,0,0,1,.11-.53,1.26,1.26,0,0,1,.29-.43,1.33,1.33,0,0,1,.43-.3,1.35,1.35,0,0,1,.53-.1,1.52,1.52,0,0,1,.33,0l.22.05.19,0,.28,0,.35,0,.32,0,.32-.07v.69l-.31.07-.32.05-.36,0-.32,0-.25-.05-.22-.05-.23,0a.59.59,0,0,0-.23.05.53.53,0,0,0-.2.13.46.46,0,0,0-.13.2.47.47,0,0,0-.05.24v1.5a.67.67,0,0,1,.28-.19,1.26,1.26,0,0,1,.33,0Zm.61,1.3a.69.69,0,0,0-.05-.24.53.53,0,0,0-.13-.2,1,1,0,0,0-.2-.13.59.59,0,0,0-.23,0h-.74a.67.67,0,0,0-.24,0,.91.91,0,0,0-.19.13.53.53,0,0,0-.13.2.52.52,0,0,0-.05.24v1.19a.47.47,0,0,0,.05.24.63.63,0,0,0,.13.2.64.64,0,0,0,.19.13.69.69,0,0,0,.24.05h.74a.59.59,0,0,0,.23-.05.69.69,0,0,0,.2-.13.63.63,0,0,0,.13-.2.6.6,0,0,0,.05-.24Z"/><path class="cls-3" d="M170.41,28.14a1.31,1.31,0,0,1,.73.73,1.32,1.32,0,0,1,.1.53v4.92h-.75v-5a.61.61,0,0,0,0-.24.72.72,0,0,0-.14-.2.64.64,0,0,0-.19-.13.6.6,0,0,0-.24-.05h-.73a.6.6,0,0,0-.24.05.69.69,0,0,0-.2.13,1,1,0,0,0-.13.2.61.61,0,0,0,0,.24v5h-.76V29.4a1.32,1.32,0,0,1,.11-.53,1.31,1.31,0,0,1,.73-.73,1.32,1.32,0,0,1,.53-.11h.73A1.32,1.32,0,0,1,170.41,28.14Z"/><path class="cls-3" d="M177.2,28.13a1.45,1.45,0,0,1,.43.3,1.42,1.42,0,0,1,.29.43,1.4,1.4,0,0,1,.11.53v4.93h-.75v-5a.6.6,0,0,0-.05-.24.77.77,0,0,0-.13-.2.53.53,0,0,0-.2-.13.6.6,0,0,0-.24-.05h-.36a.6.6,0,0,0-.24.05.53.53,0,0,0-.2.13.77.77,0,0,0-.13.2.6.6,0,0,0,0,.24v2.84h-.75V29.34a.6.6,0,0,0-.05-.24.58.58,0,0,0-.13-.2.59.59,0,0,0-.19-.13.69.69,0,0,0-.24-.05H174a.69.69,0,0,0-.24.05.5.5,0,0,0-.19.13.46.46,0,0,0-.13.2.47.47,0,0,0,0,.24v5h-.75V29.39a1.39,1.39,0,0,1,.1-.53,1.5,1.5,0,0,1,.73-.73A1.32,1.32,0,0,1,174,28h.37a1.41,1.41,0,0,1,.54.11,1.57,1.57,0,0,1,.45.31,1.4,1.4,0,0,1,.44-.31,1.42,1.42,0,0,1,.55-.11h.36A1.4,1.4,0,0,1,177.2,28.13Z"/><path class="cls-3" d="M184,30.69a1.46,1.46,0,0,1,.44.29,1.42,1.42,0,0,1,.29.43,1.4,1.4,0,0,1,.11.53v2.38h-.75V31.88a.59.59,0,0,0-.05-.23.57.57,0,0,0-.33-.33.59.59,0,0,0-.23-.05h-.37a.69.69,0,0,0-.24.05.64.64,0,0,0-.19.13.72.72,0,0,0-.14.2.59.59,0,0,0,0,.23v1.3h-.76v-1.3a.59.59,0,0,0,0-.23.72.72,0,0,0-.14-.2.64.64,0,0,0-.19-.13.6.6,0,0,0-.24-.05h-.36a.6.6,0,0,0-.24.05.58.58,0,0,0-.2.13.53.53,0,0,0-.13.2.59.59,0,0,0,0,.23v2.44h-.75V30.5a1.74,1.74,0,0,1,.14-.69,1.68,1.68,0,0,1,.38-.56,1.64,1.64,0,0,1,.55-.38,1.81,1.81,0,0,1,.69-.14h1.67a.51.51,0,0,0,.17,0,.6.6,0,0,0,.13-.09.71.71,0,0,0,.1-.14.47.47,0,0,0,0-.17v-.19H184v.14a1.13,1.13,0,0,1-.09.45,1.25,1.25,0,0,1-.25.38,1.34,1.34,0,0,1-.37.25,1.22,1.22,0,0,1-.46.09h-1.68a1,1,0,0,0-.39.08,1,1,0,0,0-.32.21,1,1,0,0,0-.3.71v.3a1.44,1.44,0,0,1,.62-.14h.36a1.42,1.42,0,0,1,.55.11,1.52,1.52,0,0,1,.44.31,1.4,1.4,0,0,1,.44-.31,1.46,1.46,0,0,1,.55-.11h.37A1.31,1.31,0,0,1,184,30.69Z"/><path class="cls-3" d="M188.78,28.14a1.31,1.31,0,0,1,.73.73,1.32,1.32,0,0,1,.1.53v4.92h-.75v-5a.61.61,0,0,0,0-.24.72.72,0,0,0-.14-.2.64.64,0,0,0-.19-.13.6.6,0,0,0-.24-.05h-.73a.6.6,0,0,0-.24.05.69.69,0,0,0-.2.13,1,1,0,0,0-.13.2.61.61,0,0,0,0,.24v5h-.76V29.4a1.32,1.32,0,0,1,.11-.53,1.31,1.31,0,0,1,.73-.73,1.32,1.32,0,0,1,.53-.11h.73A1.32,1.32,0,0,1,188.78,28.14Z"/></g></g></svg>