<svg xmlns="http://www.w3.org/2000/svg" viewBox="0 0 218 92"><defs><style>.cls-1{fill:#c9a546;}.cls-2{fill:#fff;}.cls-3{fill:#c3322d;}.cls-4,.cls-6{opacity:0.2;}.cls-5{fill:#f0f1f1;}.cls-6{fill:#010101;}.cls-7{fill:none;}</style></defs><g id="Layer_2" data-name="Layer 2"><g id="Layer_1-2" data-name="Layer 1"><path id="BASE_COURONNE" data-name="BASE COURONNE" class="cls-1" d="M156.71,18.1s-2-.2-4.56-.2-4.57.2-4.57.2v-.84s2-.2,4.57-.2,4.56.2,4.56.2Z"/><path class="cls-1" d="M145.74,15.62c-.58-.65-.86-1.22-.75-1.56a.82.82,0,0,1,.59-.56,3.46,3.46,0,0,1-.27-.65,5.27,5.27,0,0,0-.57,0,1.84,1.84,0,0,0-.76.25,1.21,1.21,0,0,0-.59.76c-.34,1.39,2.16,2.57,3.22,3.09a.19.19,0,0,0,.12,0,.14.14,0,0,0,.1-.05.15.15,0,0,0,0-.18S146.26,16.2,145.74,15.62Z"/><path class="cls-1" d="M150.14,11.78c.05-.07,0-.18-.06-.19a3.24,3.24,0,0,0-2.24-1.09h-.11A2,2,0,0,0,146,11.55c-.65,1.21.48,2.47,1.21,3.31a11.79,11.79,0,0,0,2.08,1.81.24.24,0,0,0,.12,0,.13.13,0,0,0,.1,0,.13.13,0,0,0,0-.19c-.86-1-2.4-3-1.84-4.26.47-.86,1.79-.47,2.09-.39S150.05,11.91,150.14,11.78Z"/><path class="cls-1" d="M146.85,15.06l0-.05-.21-.24a1,1,0,0,0,.12,1,6.57,6.57,0,0,0,.6.92s.44-.05,1.21-.1A11.63,11.63,0,0,1,146.85,15.06Z"/><path class="cls-1" d="M157.44,15.06l0-.05c.07-.07.14-.16.21-.24a1,1,0,0,1-.13,1,6.21,6.21,0,0,1-.59.92s-.44-.05-1.22-.1A11.24,11.24,0,0,0,157.44,15.06Z"/><path class="cls-1" d="M150.92,13.22a10.67,10.67,0,0,0-2.7.66,11,11,0,0,0,1.65,2.52s.07.08.09.11l1.59-.05A11.3,11.3,0,0,1,150.92,13.22Z"/><path class="cls-1" d="M153.35,13.22a10.67,10.67,0,0,1,2.7.66,11,11,0,0,1-1.65,2.52l-.09.11-1.59-.05A11.69,11.69,0,0,0,153.35,13.22Z"/><path class="cls-1" d="M158.55,15.62c.58-.65.86-1.22.75-1.56a.82.82,0,0,0-.59-.56,3.46,3.46,0,0,0,.27-.65,5.32,5.32,0,0,1,.57,0,1.84,1.84,0,0,1,.76.25,1.24,1.24,0,0,1,.59.76c.34,1.39-2.16,2.57-3.23,3.09a.15.15,0,0,1-.11,0,.14.14,0,0,1-.1-.05.15.15,0,0,1,0-.18S158,16.2,158.55,15.62Z"/><path class="cls-1" d="M154.15,11.78c-.05-.07,0-.18.06-.19a3.22,3.22,0,0,1,2.24-1.09h.11a2,2,0,0,1,1.76,1.05c.66,1.21-.47,2.47-1.2,3.31A11.79,11.79,0,0,1,155,16.67a.24.24,0,0,1-.12,0,.17.17,0,0,1-.11,0,.13.13,0,0,1,0-.19c.85-1,2.4-3,1.84-4.26-.47-.86-1.79-.47-2.09-.39S154.24,11.91,154.15,11.78Z"/><path class="cls-1" d="M153.08,9.06V8.64h-.72V8h-.45v.69h-.72v.42h.72v.68a.77.77,0,0,0-.58.75.81.81,0,0,0,1.61,0,.77.77,0,0,0-.58-.75V9.06Z"/><path class="cls-1" d="M152.86,13.55c0-1.34-.32-2-.72-2h0c-.41,0-.74.66-.72,2a10.2,10.2,0,0,0,.62,3c0,.06.07.08.1.08s.07,0,.1-.08A9.8,9.8,0,0,0,152.86,13.55Z"/><path class="cls-1" d="M161.74,19.62c-.11-.06-3-1.11-9.6-1.11s-9.48,1-9.6,1.11a30.51,30.51,0,0,0-.61,6.2A18.37,18.37,0,0,0,144.69,36a39,39,0,0,0,7.45,7.53A38.64,38.64,0,0,0,159.6,36a18.37,18.37,0,0,0,2.76-10.17A29.37,29.37,0,0,0,161.74,19.62Z"/><path class="cls-2" d="M160.75,20.43a33.79,33.79,0,0,0-8.61-.8,33.75,33.75,0,0,0-8.6.8,34.57,34.57,0,0,0-.47,5.8,16.42,16.42,0,0,0,2.46,9.09,36.05,36.05,0,0,0,6.61,6.74,35.72,35.72,0,0,0,6.62-6.74,16.5,16.5,0,0,0,2.46-9.09A34.57,34.57,0,0,0,160.75,20.43Zm-2.41,14.25a35.21,35.21,0,0,1-6.2,6.38A35.58,35.58,0,0,1,146,34.68a15.14,15.14,0,0,1-2.29-8.4,32.5,32.5,0,0,1,.43-5.35,33.15,33.15,0,0,1,8-.69,33.2,33.2,0,0,1,8.06.69,32.5,32.5,0,0,1,.43,5.35A15.14,15.14,0,0,1,158.34,34.68Z"/><path class="cls-2" d="M160.06,25.19H144.23c0,.36,0,.73,0,1.09,0,1.49.21,5.26,2.19,8.09a38.4,38.4,0,0,0,5.74,6,37.5,37.5,0,0,0,5.74-6,14.94,14.94,0,0,0,2.2-8.09C160.08,25.92,160.07,25.55,160.06,25.19Z"/><path class="cls-3" d="M145.31,25.66v6.11a10.54,10.54,0,0,0,1.26,2.48,23.17,23.17,0,0,0,1.77,2.17V25.66Z"/><path class="cls-3" d="M159,25.66v6.11a10.94,10.94,0,0,1-1.26,2.48A23.17,23.17,0,0,1,156,36.42V25.66Z"/><path class="cls-3" d="M159.73,21.37a37.91,37.91,0,0,0-7.59-.6,37.76,37.76,0,0,0-7.58.6,37.19,37.19,0,0,0-.33,3.82h15.83A37.19,37.19,0,0,0,159.73,21.37Z"/><path class="cls-3" d="M152.14,25.66h-1.75V38.55c.73.7,1.37,1.27,1.75,1.59.39-.32,1-.89,1.76-1.59V25.66Z"/><path class="cls-2" d="M146.42,22.86a.17.17,0,0,1,.18-.18.31.31,0,0,1,.19.06l.08-.31a.62.62,0,0,0-.32-.09.5.5,0,0,0-.5.56.63.63,0,0,0,.35.56c.1.07.22.13.22.27a.2.2,0,0,1-.21.21.48.48,0,0,1-.18,0l-.11.29a.55.55,0,0,0,.32.1.53.53,0,0,0,.54-.59C147,23.19,146.42,23.17,146.42,22.86Z"/><path class="cls-2" d="M147.18,24.26h.53l.07-1.63h0v0l.32,1.59h.29l.29-1.63h0l.11,1.63h.52a.6.6,0,0,1-.08-.23c0-.14-.19-1.93-.21-2.15l-.61,0-.18,1.42h0L148,21.94l-.59,0c0,.32-.17,1.93-.18,2.05A.5.5,0,0,1,147.18,24.26Z"/><path class="cls-2" d="M151.12,24.26h.5V23.05l0-.24h0l.56,1.46h.42V22a.53.53,0,0,1,.07-.25h-.52v1.14a1.42,1.42,0,0,0,0,.36h0l-.53-1.51h-.46V24A.42.42,0,0,1,151.12,24.26Z"/><path class="cls-2" d="M154.35,23.06a1.1,1.1,0,0,0,1,1.22.5.5,0,0,0,.32-.07l-.11-.41a.47.47,0,0,1-.17,0c-.4,0-.57-.43-.57-.78s.17-.73.57-.73l.17,0,.12-.39a.89.89,0,0,0-.26-.07h-.1A1.1,1.1,0,0,0,154.35,23.06Z"/><polygon class="cls-2" points="158.39 22.72 158.51 22.37 157.61 22.37 157.61 24.26 157.98 24.26 157.98 23.48 158.3 23.48 158.3 23.12 157.98 23.12 157.98 22.72 158.39 22.72"/><path class="cls-2" d="M159.33,24c-.32,0-.5-.31-.51-.63s.17-.62.46-.62h.14l.08-.28a.62.62,0,0,0-.25-.05,1,1,0,0,0,.08,1.89.37.37,0,0,0,.25-.07l-.1-.28Z"/><path class="cls-2" d="M150.17,21.8c-.4,0-.8.34-.8,1.24s.4,1.24.8,1.24.79-.34.79-1.24S150.57,21.8,150.17,21.8Zm0,2c-.3,0-.32-.61-.32-.8s0-.8.32-.8.32.59.32.8S150.47,23.84,150.17,23.84Z"/><path class="cls-2" d="M145.53,22.4h-.39l-.43,1.86h.37l.06-.37h.38l.06.37H146a.39.39,0,0,1-.07-.15C145.92,24,145.53,22.4,145.53,22.4Zm-.33,1.2.08-.5,0-.22h0l0,.22.09.5Z"/><path class="cls-2" d="M153.26,24.26l.08-.47h.45l.08.47h.51a.74.74,0,0,1-.11-.23c0-.12-.42-1.94-.48-2.22h-.48l-.53,2.46Zm.25-1.49,0-.3h0l.05.3.11.64h-.31Z"/><path class="cls-2" d="M156.52,22c-.4,0-.8.32-.8,1.16s.4,1.16.8,1.16.8-.31.8-1.16S156.92,22,156.52,22Zm0,1.91c-.3,0-.32-.57-.32-.75s0-.75.32-.75.32.55.32.75S156.82,23.88,156.52,23.88Z"/><g class="cls-4"><rect class="cls-5" x="127.18" y="7.81" width="0.5" height="35.84"/></g><path class="cls-6" d="M211.59,6.74c-4,1.16-5.21,6.81-5.34,10.42-.9,1.94-2.16,8.45-2.42,13-1.94,2.85-3.1,10.47-3.36,12.54a7.7,7.7,0,0,0-1,1L197,29.84a65.13,65.13,0,0,0-3-13.83c-.26-.9-1.86-7.64-2.1-8.24A3.22,3.22,0,0,0,190.09,6c-1.56-.25-5,.44-6.55,2.25s-2.59,5.43.39,12.15c-.26,2.07.64,4.78,3,11.63a53,53,0,0,0,1.68,12.41c-3.75-2.07-6.07-1.42-7.37-.52-2.71,1.68-2.45,5.17-2.45,7.76a4.44,4.44,0,0,0-3.49.51c-5.56,3.49-2.85,13.83-1.17,17.45,1.43,8.79,5,12.8,8.28,14.48V92h26.36V81.57c6.08-7.75,5.95-29.85,3.23-37.22.31-1.53,1.83-8.76,3.21-16.16,1.53-8.24,2.69-16.14,2.76-17.16C218.61,7,213.78,6.09,211.59,6.74Z"/><path class="cls-2" d="M182,71c3.23.52,4.65-3.36,1.42-4.26-1.16-.35-2.42.87-2.95,1.59l-.75-.39a8.38,8.38,0,0,1,1.63-2.1c-1.94-1.17-3.49-2.72-3.23-5.82a4.89,4.89,0,0,1,2.33-3.62c-.82-1.29-1.44-3.63-3.47-2.9h0a3.1,3.1,0,0,0-.67.32A4.26,4.26,0,0,0,175.09,55,7.2,7.2,0,0,0,174,58.18c0,2.84,2.33,7.11,4.53,10.08C179.66,69.81,180.82,70.85,182,71Z"/><path class="cls-2" d="M216,10.83c-.1-1.19-.72-2.32-2.76-2.32a5.07,5.07,0,0,0-.66,0c-.11,0-.2.06-.31.08a2.46,2.46,0,0,0-.53.15h0a2.42,2.42,0,0,0-.4.25,3.73,3.73,0,0,0-.37.23,4,4,0,0,0-.47.45l-.08.07,0,0a6.46,6.46,0,0,0-.9,1.33h0l0,.1h0a11,11,0,0,0-.64,1.61c0,.06,0,.11,0,.16l-.06.25c-.05.2-.11.4-.15.6v0c-.06.29-.11.58-.15.88,0,.07,0,.14,0,.2s0,.16,0,.23,0,.44-.05.66a7.14,7.14,0,0,1,1.33-.29l.25,0h0a8.92,8.92,0,0,1,1.35-.07h0c.25,0,.5,0,.72,0v.64l-.44.12c-.18,0-.33.09-.5.14l-.55.15-.06,0a7.2,7.2,0,0,0-.85.35l-.18.1a5,5,0,0,0-.59.34l-.06,0a6.31,6.31,0,0,0-.79.62h0a28.34,28.34,0,0,0-1.16,4.56c-.1.52-.19,1.05-.28,1.6-.23,1.37-.42,2.82-.53,4.19l-.06.81a4.81,4.81,0,0,1,1.26-.51l.08,0h0l.53-.14c.25,0,.5-.09.76-.12h0c.31,0,.61-.07.91-.08l.21,0h0l.38,0v.78a3.26,3.26,0,0,0-.52,0l-.12,0-.27.06-.2.05-.09,0-.28.09-.24.09-.09,0-.27.12-.27.13-.33.17-.3.16-.28.17-.31.21-.16.12-.07,0-.31.25-.16.13a3.23,3.23,0,0,0-.37.37h0c-1.26,1.79-2.26,6.82-2.73,10,0,.24-.07.48-.1.7-.06.45-.11.84-.14,1.17A51,51,0,0,0,197,48.84c-.09.11-.15.16-.17.16l-.77-.38a9.2,9.2,0,0,1,1-1.88c.23-.34.48-.71.77-1.1L195.1,30.1a50,50,0,0,0-.89-5.73c-.24-1.12-.49-2.2-.74-3.19-.16-.65-.32-1.26-.46-1.81-.44-1.64-.77-2.74-.77-2.84s-1.51-6.09-2.15-8.42a4.59,4.59,0,0,0-1.55,0,8.09,8.09,0,0,0-1.27.18,5.43,5.43,0,0,0-.61.18,4.49,4.49,0,0,0-.54.26l-.12.09a4.08,4.08,0,0,0-.78.65,4.37,4.37,0,0,0-.44.62c-.05.08-.11.14-.15.22a5.36,5.36,0,0,0-.6,2.14s0,0,0,0v.11a8.5,8.5,0,0,0,0,1c0,.07,0,.14,0,.21s0,.24.05.36c0,.37.07.73.15,1.12,0,.24.12.5.18.75s.11.5.19.76l0,.11c.16.53.35,1.09.57,1.65,0,0,0,.07,0,.11h0a7.48,7.48,0,0,1,.68-.5h0A7.16,7.16,0,0,1,189.36,17v.77a3.26,3.26,0,0,0-.65.12l-.14.05-.35.13-.13.05-.14.08-.27.15-.13.09-.12.09a2.11,2.11,0,0,0-.23.19.69.69,0,0,0-.13.11l-.29.3-.13.14-.21.26,0,0-.12.17c-.05.08-.1.15-.14.23l0,0-.12.22a1.62,1.62,0,0,0-.1.18,2.84,2.84,0,0,0-.17.36c-.13,1.55.77,4.39,2.71,10a5.25,5.25,0,0,1,.71-.34h0l.33-.14L190,30h0l.58-.19h0l.68-.18.33-.09h0c.3-.06.6-.13.91-.18l.25.9a4.57,4.57,0,0,0-.8.25h0a6,6,0,0,0-.81.39l-.24.15-.55.34-.24.17c-.22.16-.43.32-.62.48l-.08.06a6.65,6.65,0,0,0-.53.49c0,.42,0,.87,0,1.33,0,.12,0,.23,0,.35,0,.45.07.9.12,1.37v.06c.05.49.11,1,.18,1.49,0,.13,0,.26,0,.39l.21,1.39s0,.07,0,.11c.08.49.16,1,.25,1.46l.06.36c.08.43.16.85.24,1.25v.08c.09.45.18.87.26,1.27,0,.08,0,.15,0,.22.08.37.15.72.22,1,.11.51.19.9.25,1.16l0,.13c0,.15.06.26.06.27l.64,2.45-2.07-1.42c-.29-.2-.57-.37-.85-.54s-.29-.19-.42-.26l-.22-.13c-.35-.19-.69-.37-1-.52l-.14-.07a8.24,8.24,0,0,0-1-.4l0,0a8.71,8.71,0,0,0-1-.26h-.12l-.58-.06H184l-.3,0h-.29l-.2.05a2.48,2.48,0,0,0-1,.38c-2,1.51-1.9,4.37-1.25,6.89.12.45.26.9.4,1.33.08.21.16.42.23.62.16.4.32.78.49,1.12l1.22-.27h0l.22,0h0l1.12-.18h.08c.38,0,.76-.07,1.15-.09h.31c.31,0,.62,0,.94,0h.34l1.2.12h0l.19,0h0c.47.08,1,.16,1.49.29l-.81-1.93c-.43-1-.86-2-1.27-2.9s-.81-1.7-1.15-2.28h1.55a.45.45,0,0,1,.07.09,3.59,3.59,0,0,1,.29.41,30.43,30.43,0,0,1,1.59,2.61,25.79,25.79,0,0,1,1.93,4.25l5.94.78c5.95.26,11.25,4.78,11.5,4.91l-.51.78h0a31.44,31.44,0,0,0-9.08-3.6,15.87,15.87,0,0,0-2-.28c-1.05,0-2-.13-3-.22h0c-1.2-.12-2.33-.26-3.37-.42l-.29,0h0l-1.35-.23c-1-.19-1.84-.32-2.59-.4a17.21,17.21,0,0,0-1.81-.11,13.67,13.67,0,0,0-2,.23c-2,.39-3.77,1.29-4,3.13a3.82,3.82,0,0,0,.52,2.71l3.74.26a5,5,0,0,1,0-1.23c0-.21,0-.42.09-.64a6.28,6.28,0,0,1,.44-1.33,7.38,7.38,0,0,1,.79-1.33,7.81,7.81,0,0,1,.53-.64h1c-1.56,1.56-1.33,4.33-.57,6,.06.13.12.26.18.37l-4.39.26a32.16,32.16,0,0,0,5.27,1.4,9.66,9.66,0,0,0,3.64-.1,28.94,28.94,0,0,1,2.61,1.38c1.32.78,2.65,1.66,3.85,2.5.8.55,1.55,1.08,2.2,1.55l.91.64-.52,1c-1.23-.58-2.36-1.16-3.44-1.76s-2.12-1.21-3.15-1.86A9.41,9.41,0,0,0,192.37,73a12.63,12.63,0,0,0-.17,1.36c-.13,5.56,5.56,7.63,6.46,8l-.39,4h-1.16l-.26-2.71c-1.68-.77-6.72-3.62-6.59-9.43a12.39,12.39,0,0,1,1.81-5.82l-1-.52a8.46,8.46,0,0,1-4-.13,3.82,3.82,0,0,1-1.75,4.08,4.08,4.08,0,0,1-1.4.48,5.19,5.19,0,0,1-.8.06,6.6,6.6,0,0,1-1.72-.24,8.46,8.46,0,0,1-1.8-.74A10.34,10.34,0,0,1,177,69.29a8.75,8.75,0,0,1-.94-1.14,18.11,18.11,0,0,1-1.13-1.83l1,3c.11.66.24,1.26.38,1.86,0,.12.05.25.07.36s0,.1,0,.15l.09.33c.16.58.31,1.15.49,1.69a22.26,22.26,0,0,0,1.14,2.72A16.6,16.6,0,0,0,181,80.5l0,0a13.69,13.69,0,0,0,2.56,2.06c.08,0,.17.12.25.16h0c.31.19.61.35.91.5s.56.26.83.38l0,0h0a8.14,8.14,0,0,0,.81.3l0,0,.1,0a10.68,10.68,0,0,0,1.3.35h.07c.2,0,.38.08.55.1h.14l.34,0h0l.35,0h.29l.13,1h0c-.29,0-.69,0-1.15,0l-1.5-.12-1.49-.17-.64-.09-.52-.1L183.87,92h23.57l-.51-8.62h0a5.45,5.45,0,0,1-.56.49,5.51,5.51,0,0,1-3.05,1.18v-.9a5.43,5.43,0,0,0,.84-.41,1.83,1.83,0,0,0,.26-.16,6.18,6.18,0,0,0,.53-.36l.28-.22a6.14,6.14,0,0,0,.47-.42l0,0,.25-.24c.15-.17.31-.34.46-.52l.18-.22,0,0c.2-.26.39-.52.58-.8l0-.07c.2-.3.39-.63.58-1,0-.1.1-.21.16-.31s.25-.48.37-.74l.18-.39.32-.75.15-.38v0c.11-.26.21-.54.3-.81,0-.07,0-.13.07-.19s0-.14.07-.21q.18-.52.33-1.08l.06-.19c.12-.43.24-.87.35-1.31,0-.14.06-.28.1-.41l.21-1,.06-.31c0-.08,0-.15,0-.22.06-.29.11-.58.16-.87s.07-.39.11-.58.09-.58.13-.87l.09-.55v0c0-.32.09-.65.13-1a2.89,2.89,0,0,1,0-.29,1.49,1.49,0,0,1,0-.21q.09-.7.15-1.41l.06-.65.06-.81,0-.39c0-.12,0-.24,0-.36s0-.48,0-.72,0-.52,0-.78,0-.44,0-.66l0-.82c0-.19,0-.38,0-.57v0c0-1.07,0-2.12,0-3.14v-.36c0-.13,0-.25,0-.37s0-.39,0-.59,0-.25,0-.37,0-.39,0-.58,0-.24,0-.36,0-.22,0-.33c0-.32,0-.64-.07-.95,0-.06,0-.12,0-.18,0-.51-.09-1-.14-1.47l0-.28c-.06-.48-.11-1-.18-1.39s-.09-.61-.14-.9S211,48.21,211,48c-.08-.46-.17-.9-.26-1.31l-.06-.24c0-.19-.09-.36-.14-.53s-.05-.23-.08-.33,0-.18-.08-.26c-.1-.32-.2-.63-.31-.89.58-3.5,1.67-8.69,2.72-14,.16-.76.3-1.53.45-2.29s.29-1.49.42-2.23.27-1.48.4-2.2c.27-1.46.51-2.88.74-4.24.47-2.71.87-5.13,1.18-7a6,6,0,0,0,.09-.63c0-.23,0-.46,0-.7S216.05,11,216,10.83Z"/><path class="cls-2" d="M28.23,20.08a2.51,2.51,0,0,1,.52-1.72,1.81,1.81,0,0,1,1.44-.6h1.18v.89H30.17c-.69,0-1,.48-1.06,1.43v.32h.82c1,0,1.44.38,1.44,1.13v.15c0,1.45-1,2.18-2.89,2.18h-.43c-2,0-3-.94-3-2.82v-2.1h.88V21c0,1.27.71,1.9,2.14,1.9h.43q2,0,2-1.17v-.06c0-.28-.18-.42-.56-.42h-.81c-.59,0-.89-.28-.89-.84Z"/><path class="cls-2" d="M36.38,20.65a1.44,1.44,0,0,1-.75.68,3.33,3.33,0,0,1-1.37.24H32.4v-.92h1.87c.9,0,1.35-.2,1.35-.61a1,1,0,0,0-.13-.43,3.41,3.41,0,0,0-.37-.52l-1.43-1.65.62-.7,2.28,2.68q.51.6.75.84a2.06,2.06,0,0,0,.37.32.66.66,0,0,0,.32.07h0c.08,0,.12.14.12.43v.05a1.4,1.4,0,0,1,0,.34c0,.07,0,.1-.09.1H38a1.42,1.42,0,0,1-.29,0l-.24-.06a1.17,1.17,0,0,1-.23-.11l-.2-.13a1.75,1.75,0,0,1-.22-.18l-.2-.19S36.49,20.77,36.38,20.65Z"/><path class="cls-2" d="M38,20.65h.9a1.49,1.49,0,0,0,.94-.24.92.92,0,0,0,.29-.75V18.34H41v1.32a1,1,0,0,0,.24.75,1.16,1.16,0,0,0,.82.24h.11c.08,0,.12.14.12.43v.05c0,.3,0,.44-.12.44h-.11a2.08,2.08,0,0,1-.89-.16,1.47,1.47,0,0,1-.58-.53,1.75,1.75,0,0,1-.68.53,2.84,2.84,0,0,1-1,.16H38c-.08,0-.13-.14-.13-.44v-.05C37.89,20.79,37.94,20.65,38,20.65Zm1.54-4.32.76-.75.75.75-.75.75Z"/><path class="cls-2" d="M42.15,20.65h.9a1.49,1.49,0,0,0,.94-.24,1,1,0,0,0,.29-.75V18.34h.87v1.32a1,1,0,0,0,.25.75,1.12,1.12,0,0,0,.81.24h.11c.08,0,.12.14.12.43v.05c0,.3,0,.44-.12.44h-.1a2.05,2.05,0,0,1-.89-.16,1.5,1.5,0,0,1-.59-.53,1.68,1.68,0,0,1-.68.53,2.81,2.81,0,0,1-1,.16h-.87c-.09,0-.13-.14-.13-.44v-.05C42,20.79,42.06,20.65,42.15,20.65Zm.4,2.62.75-.75.75.75L43.3,24Z"/><path class="cls-2" d="M46.27,20.65h.85l.41-.85V14.75h.85v3.76a2.3,2.3,0,0,1,1.7-.9,1.91,1.91,0,0,1,1.42.61,2.1,2.1,0,0,1,.58,1.48,1.67,1.67,0,0,1-.62,1.39,2.65,2.65,0,0,1-1.67.48H46.27c-.09,0-.13-.14-.13-.44v-.05C46.14,20.79,46.18,20.65,46.27,20.65Zm4.91-.85a1.22,1.22,0,0,0-.34-.89,1.07,1.07,0,0,0-.81-.36q-1,0-2,2.1h1.84C50.75,20.65,51.18,20.37,51.18,19.8Z"/><path class="cls-2" d="M56.14,21.57a1.26,1.26,0,0,1-1.1-.4v0a2.69,2.69,0,0,1-.75,2,3.08,3.08,0,0,1-2.17.73h-.37v-.9h.36a2.16,2.16,0,0,0,1.51-.48,1.76,1.76,0,0,0,.52-1.38V18.48H55v1.14c0,.69.37,1,1.1,1h.08c.08,0,.12.14.12.43v.05c0,.3,0,.44-.12.44Z"/><path class="cls-2" d="M62.46,21.57a1.69,1.69,0,0,1-.82-.17,1.38,1.38,0,0,1-.55-.55,1.48,1.48,0,0,1-1.41.72,1.51,1.51,0,0,1-1.35-.72,1.87,1.87,0,0,1-1.68.72h-.48c-.09,0-.13-.14-.13-.44v-.05c0-.29,0-.43.13-.43h.48c.81,0,1.22-.33,1.22-1V18.33h.87v1.34a1,1,0,0,0,.24.74,1,1,0,0,0,.71.24.93.93,0,0,0,.69-.24,1.09,1.09,0,0,0,.23-.74V18.33h.87v1.33q0,1,.93,1c.5,0,.74-.33.74-1V18.17h.9v1.55a2,2,0,0,1-.42,1.37A1.5,1.5,0,0,1,62.46,21.57Zm-3.13-5.05.69-.7.7.7-.7.68Zm.88-1.27.69-.68.69.68-.69.7Zm.88,1.27.69-.7.69.7-.69.68Z"/><path class="cls-2" d="M74.65,21.13c0,.3,0,.44-.12.44h-.27V22a1.62,1.62,0,0,1-.71,1.41,3.7,3.7,0,0,1-2.1.49H71c-2,0-3-.94-3-2.81V19.32h.89v1.73c0,1.27.7,1.9,2.11,1.9h.49l.56,0,.52-.09a1.62,1.62,0,0,0,.44-.18.81.81,0,0,0,.4-.73v-.37H72.08c-.17,0-.3-.15-.38-.45s-.08-.47,0-.47h2.8c.08,0,.12.14.12.43Z"/><path class="cls-2" d="M74.48,20.65H75a1,1,0,0,0,.52-.1.36.36,0,0,0,.18-.31c0-.15,0-.35,0-.58a2.21,2.21,0,0,1,.44-1.49,1.89,1.89,0,0,1,2.54,0,2.19,2.19,0,0,1,.43,1.5c0,.06,0,.14,0,.23a2.5,2.5,0,0,0,0,.25c0,.07,0,.12,0,.14,0,.24.25.36.73.36H80c.08,0,.12.14.12.43v.05c0,.3,0,.44-.12.44H79.8a1.78,1.78,0,0,1-.65-.11,1.1,1.1,0,0,1-.48-.32,1.57,1.57,0,0,1-1.28.51,1.89,1.89,0,0,1-.73-.12,1.79,1.79,0,0,1-.56-.38,1.36,1.36,0,0,1-1.1.42h-.52c-.08,0-.13-.14-.13-.44v-.05C74.35,20.79,74.4,20.65,74.48,20.65Zm2.92.11q.84,0,.84-1.11c0-.71-.29-1.06-.85-1.06s-.83.35-.83,1.06S76.84,20.76,77.4,20.76Z"/><path class="cls-2" d="M86.2,21.57a1.69,1.69,0,0,1-.82-.17,1.38,1.38,0,0,1-.55-.55,1.48,1.48,0,0,1-1.41.72,1.51,1.51,0,0,1-1.35-.72,1.87,1.87,0,0,1-1.68.72h-.48c-.09,0-.13-.14-.13-.44v-.05c0-.29,0-.43.13-.43h.48c.81,0,1.22-.33,1.22-1V18.33h.87v1.34a1.08,1.08,0,0,0,.25.74,1,1,0,0,0,.71.24.93.93,0,0,0,.69-.24,1.09,1.09,0,0,0,.23-.74V18.33h.87v1.33q0,1,.93,1c.49,0,.74-.33.74-1V18.17h.9v1.55a2,2,0,0,1-.42,1.37A1.5,1.5,0,0,1,86.2,21.57Z"/><path class="cls-2" d="M87.84,23.08a2.16,2.16,0,0,0,1.51-.48,1.78,1.78,0,0,0,.52-1.39V18.48h.89v2.73a2.7,2.7,0,0,1-.74,2,3.05,3.05,0,0,1-2.17.73h-.37v-.89Z"/><path class="cls-2" d="M98.6,21.57a1.26,1.26,0,0,1-1.1-.4v0a2.69,2.69,0,0,1-.75,2,3.08,3.08,0,0,1-2.17.73h-.37v-.9h.36a2.16,2.16,0,0,0,1.51-.48,1.76,1.76,0,0,0,.52-1.38V18.48h.9v1.14c0,.69.37,1,1.1,1h.08c.08,0,.12.14.12.43v.05c0,.3,0,.44-.12.44Z"/><path class="cls-2" d="M98.63,20.65h.9a1.49,1.49,0,0,0,.94-.24,1,1,0,0,0,.29-.75V18.34h.88v1.32a1,1,0,0,0,.24.75,1.14,1.14,0,0,0,.81.24h.12c.08,0,.11.14.11.43v.05c0,.3,0,.44-.11.44h-.11a2.05,2.05,0,0,1-.89-.16,1.47,1.47,0,0,1-.58-.53,1.71,1.71,0,0,1-.69.53,2.77,2.77,0,0,1-1,.16h-.87c-.09,0-.13-.14-.13-.44v-.05C98.5,20.79,98.54,20.65,98.63,20.65Zm1.54-4.32.76-.75.75.75-.75.75Z"/><path class="cls-2" d="M102.76,20.65h1.44a1.17,1.17,0,0,0,.79-.22,1,1,0,0,0,.25-.76V18.16h.89v1.51a1.69,1.69,0,0,1-1.92,1.9h-1.45c-.09,0-.13-.14-.13-.44v-.05C102.63,20.79,102.67,20.65,102.76,20.65Zm.34-4.32.74-.73.73.73-.73.74Zm1.8,0,.73-.73.74.73-.74.74Z"/><path class="cls-2" d="M106.17,23.08a2.18,2.18,0,0,0,1.52-.48,1.82,1.82,0,0,0,.52-1.39V18.48h.89v2.73a2.67,2.67,0,0,1-.75,2,3.05,3.05,0,0,1-2.17.73h-.37v-.89Z"/><path class="cls-2" d="M112.4,21.13c0,.3,0,.44-.12.44H112c-1.11,0-1.66-.63-1.66-1.91v-4.9h.84v4.9q0,1,.84,1h.22c.08,0,.12.14.12.43Z"/><path class="cls-2" d="M112.07,23.08l.69-.69.69.69-.69.69Zm.16-2.43h1.44a1.17,1.17,0,0,0,.79-.22,1,1,0,0,0,.25-.76V18.16h.89v1.51a1.69,1.69,0,0,1-1.92,1.9h-1.45c-.09,0-.13-.14-.13-.44v-.05C112.1,20.79,112.14,20.65,112.23,20.65Zm.72,3.69.69-.7.69.7-.69.69Zm.88-1.26.69-.69.69.69-.69.69Z"/><path class="cls-2" d="M64.45,34.45a2.15,2.15,0,0,1-.76,1.76,3.33,3.33,0,0,1-2.19.63h-.38v-.9h.35A2.68,2.68,0,0,0,63,35.56a1.26,1.26,0,0,0,.54-1.1h-.82A1.55,1.55,0,0,1,61,32.72a2.48,2.48,0,0,1,.11-.79,1.68,1.68,0,0,1,.33-.62,1.41,1.41,0,0,1,.56-.42,2,2,0,0,1,.77-.14,1.59,1.59,0,0,1,1.26.51,2.14,2.14,0,0,1,.44,1.41v.86h.72c.09,0,.13.15.13.43v0c0,.3,0,.44-.13.44ZM61.83,32.7c0,.56.31.83.92.83h.84v-.86a1.19,1.19,0,0,0-.23-.78.92.92,0,0,0-1.3,0A1.24,1.24,0,0,0,61.83,32.7Z"/><path class="cls-2" d="M65.12,33.53H66.9c.86,0,1.28-.22,1.28-.68,0-.19-.19-.5-.57-.94L66,30.05a1.08,1.08,0,0,1-.28-.7.78.78,0,0,1,.61-.81l3.19-1v.91l-2.92,1,1.58,1.82a5.3,5.3,0,0,1,.65.91,1.69,1.69,0,0,1,.2.75A1.4,1.4,0,0,1,68.49,34a2.57,2.57,0,0,1-1.6.41H65.12c-.08,0-.12-.14-.12-.44v0C65,33.68,65,33.53,65.12,33.53Z"/><path class="cls-2" d="M72.64,34c0,.3,0,.44-.12.44h-.24c-1.11,0-1.66-.63-1.66-1.91v-4.9h.85v4.9c0,.66.27,1,.83,1h.22c.08,0,.12.15.12.43Z"/><path class="cls-2" d="M72.46,33.53h1a1.17,1.17,0,0,0,.79-.22,1,1,0,0,0,.24-.76V31h.89v1.51a1.69,1.69,0,0,1-1.92,1.9h-1c-.08,0-.13-.14-.13-.44v0C72.33,33.68,72.38,33.53,72.46,33.53Zm1.44-4.32.76-.75.75.75-.75.75Z"/><path class="cls-2" d="M79.94,34.45a2.15,2.15,0,0,1-.76,1.76,3.37,3.37,0,0,1-2.2.63H76.6v-.9H77a2.66,2.66,0,0,0,1.57-.38,1.27,1.27,0,0,0,.55-1.1h-.83a1.55,1.55,0,0,1-1.78-1.73,2.79,2.79,0,0,1,.11-.79,2,2,0,0,1,.33-.62,1.48,1.48,0,0,1,.56-.42,2.13,2.13,0,0,1,.78-.14,1.58,1.58,0,0,1,1.25.51,2.09,2.09,0,0,1,.45,1.41v.86h.72c.08,0,.13.15.13.43v0c0,.3-.05.44-.13.44ZM77.32,32.7c0,.56.3.83.92.83h.83v-.86a1.19,1.19,0,0,0-.22-.78.83.83,0,0,0-.63-.26.79.79,0,0,0-.67.28A1.18,1.18,0,0,0,77.32,32.7Z"/><path class="cls-2" d="M80.61,33.53h.51c.45,0,.68-.13.7-.41s0-.35,0-.58a2.21,2.21,0,0,1,.43-1.49,1.61,1.61,0,0,1,1.25-.49,1.63,1.63,0,0,1,1.3.49,2.24,2.24,0,0,1,.43,1.5A2.21,2.21,0,0,1,84.8,34a1.62,1.62,0,0,1-1.29.51,2,2,0,0,1-.73-.12,1.76,1.76,0,0,1-.55-.38,1.37,1.37,0,0,1-1.1.42h-.52c-.09,0-.13-.14-.13-.44v0C80.48,33.68,80.52,33.53,80.61,33.53Zm2.91.11q.84,0,.84-1.11c0-.71-.28-1.06-.84-1.06s-.84.35-.84,1.06S83,33.64,83.52,33.64Z"/><path class="cls-2" d="M91,34.45a2.08,2.08,0,0,1-1.36-.4,1.47,1.47,0,0,1-.5-1.22A1.83,1.83,0,0,1,89.4,32a11.94,11.94,0,0,1,.93-1.26l-.17-.17.55-.67a12.07,12.07,0,0,1,1.67,1.69,2.18,2.18,0,0,1,.46,1.28,1.49,1.49,0,0,1-.49,1.22A2.07,2.07,0,0,1,91,34.45Zm-1-1.63c0,.49.34.73,1,.73a1.23,1.23,0,0,0,.73-.18A.67.67,0,0,0,92,32.8a1.25,1.25,0,0,0-.26-.63,4.68,4.68,0,0,0-.8-.86,10.49,10.49,0,0,0-.72.94A1.11,1.11,0,0,0,90,32.82Z"/><path class="cls-2" d="M96.12,34c0,.3,0,.44-.11.44h-.24c-1.11,0-1.67-.63-1.67-1.91v-4.9H95v4.9q0,1,.84,1H96c.07,0,.11.15.11.43Z"/><path class="cls-2" d="M96,33.53h1.78c.85,0,1.28-.22,1.28-.68,0-.19-.19-.5-.57-.94l-1.61-1.86a1.1,1.1,0,0,1-.29-.7.8.8,0,0,1,.61-.81l3.19-1v.91l-2.91,1,2.92,3.37c.45.52.85.79,1.18.79h.13c.08,0,.11.15.11.43v0c0,.3,0,.44-.11.44h-.08a2.19,2.19,0,0,1-1.79-1v0c-.23.7-.92,1-2.06,1H96c-.09,0-.13-.14-.13-.44v0C95.82,33.68,95.86,33.53,96,33.53Zm4.38-6.71L97.11,27.9v-.6l3.22-1.08Z"/><path class="cls-2" d="M107.9,34.45a1.73,1.73,0,0,1-.83-.17,1.52,1.52,0,0,1-.55-.55,1.45,1.45,0,0,1-1.4.72,1.53,1.53,0,0,1-1.36-.72,1.86,1.86,0,0,1-1.67.72h-.48c-.09,0-.13-.14-.13-.44v0c0-.28,0-.43.13-.43h.48c.81,0,1.21-.33,1.21-1V31.21h.88v1.34a1.08,1.08,0,0,0,.25.74.94.94,0,0,0,.71.24.89.89,0,0,0,.68-.24,1,1,0,0,0,.24-.74V31.21h.87v1.33c0,.66.31,1,.92,1s.75-.33.75-1V31.05h.9V32.6a2,2,0,0,1-.43,1.37A1.48,1.48,0,0,1,107.9,34.45Zm-3.13-5.05.69-.7.69.7-.69.68Zm.88-1.27.69-.68.69.68-.69.7Zm.87,1.27.7-.7.69.7-.69.68Z"/><path class="cls-2" d="M112.81,34c0,.3,0,.44-.12.44h-.24c-1.11,0-1.66-.63-1.66-1.91v-4.9h.84v4.9q0,1,.84,1h.22c.08,0,.12.15.12.43Z"/><path class="cls-2" d="M112.63,33.53h1a1.12,1.12,0,0,0,.78-.22,1,1,0,0,0,.25-.76V31h.89v1.51a1.69,1.69,0,0,1-1.93,1.9h-1c-.08,0-.13-.14-.13-.44v0C112.5,33.68,112.55,33.53,112.63,33.53Zm.4,2.62.75-.75.75.75-.75.75Z"/><rect class="cls-7" width="218" height="92"/></g></g></svg>