<svg xmlns="http://www.w3.org/2000/svg" viewBox="0 0 218 92"><defs><style>.cls-1{fill:none;}.cls-2{fill:#c9a546;}.cls-3{fill:#fff;}.cls-4{fill:#c3322d;}.cls-5,.cls-7{opacity:0.2;}.cls-6{fill:#f0f1f1;}.cls-7{fill:#010101;}</style></defs><g id="Layer_2" data-name="Layer 2"><g id="Layer_1-2" data-name="Layer 1"><rect class="cls-1" width="218" height="92"/><path id="BASE_COURONNE" data-name="BASE COURONNE" class="cls-2" d="M79.09,18.12s-2-.2-4.56-.2-4.58.2-4.58.2v-.84s2-.2,4.58-.2,4.56.2,4.56.2Z"/><path class="cls-2" d="M68.12,15.64c-.59-.65-.87-1.21-.75-1.56a.82.82,0,0,1,.59-.56,3.39,3.39,0,0,1-.27-.64,2.77,2.77,0,0,0-.58,0,1.79,1.79,0,0,0-.76.24,1.22,1.22,0,0,0-.58.76c-.34,1.4,2.16,2.58,3.22,3.09l.11,0a.2.2,0,0,0,.11-.06.14.14,0,0,0,0-.18S68.64,16.22,68.12,15.64Z"/><path class="cls-2" d="M72.52,11.8c0-.07,0-.17-.07-.19a3.22,3.22,0,0,0-2.24-1.09h-.1a2,2,0,0,0-1.77,1.06c-.65,1.21.47,2.46,1.2,3.3a12,12,0,0,0,2.09,1.82.24.24,0,0,0,.11,0,.2.2,0,0,0,.11,0,.13.13,0,0,0,0-.19c-.85-1-2.4-3-1.84-4.26.47-.86,1.79-.48,2.1-.39S72.43,11.94,72.52,11.8Z"/><path class="cls-2" d="M69.23,15.08l0,0L69,14.79a1,1,0,0,0,.13,1,6.56,6.56,0,0,0,.59.92l1.22-.1A10.58,10.58,0,0,1,69.23,15.08Z"/><path class="cls-2" d="M79.81,15.08l0,0,.21-.25a1,1,0,0,1-.13,1,6.56,6.56,0,0,1-.59.92l-1.22-.1A10.58,10.58,0,0,0,79.81,15.08Z"/><path class="cls-2" d="M73.29,13.25a10.69,10.69,0,0,0-2.69.65,11.11,11.11,0,0,0,1.64,2.52l.1.11c.51,0,1,0,1.59,0A11.73,11.73,0,0,1,73.29,13.25Z"/><path class="cls-2" d="M75.73,13.25a10.69,10.69,0,0,1,2.69.65,11.11,11.11,0,0,1-1.64,2.52l-.1.11c-.51,0-1,0-1.59,0A11.73,11.73,0,0,0,75.73,13.25Z"/><path class="cls-2" d="M80.92,15.64c.59-.65.87-1.21.75-1.56a.82.82,0,0,0-.59-.56,3.39,3.39,0,0,0,.27-.64,2.77,2.77,0,0,1,.58,0,1.75,1.75,0,0,1,.76.24,1.22,1.22,0,0,1,.58.76c.35,1.4-2.16,2.58-3.22,3.09l-.11,0a.2.2,0,0,1-.11-.06.14.14,0,0,1,0-.18S80.4,16.22,80.92,15.64Z"/><path class="cls-2" d="M76.52,11.8c0-.07,0-.17.07-.19a3.22,3.22,0,0,1,2.24-1.09h.1a2,2,0,0,1,1.77,1.06c.65,1.21-.47,2.46-1.2,3.3a12,12,0,0,1-2.09,1.82.24.24,0,0,1-.11,0,.2.2,0,0,1-.11,0,.13.13,0,0,1,0-.19c.85-1,2.4-3,1.84-4.26-.47-.86-1.79-.48-2.1-.39S76.61,11.94,76.52,11.8Z"/><path class="cls-2" d="M75.45,9.09V8.66h-.72V8h-.44v.69h-.72v.43h.72v.67a.81.81,0,1,0,.44,0V9.09Z"/><path class="cls-2" d="M75.23,13.57c0-1.34-.31-2-.71-2h0c-.4,0-.73.66-.71,2a9.89,9.89,0,0,0,.62,3c0,.06.07.09.1.09s.06,0,.1-.09A9.76,9.76,0,0,0,75.23,13.57Z"/><path class="cls-2" d="M84.12,19.64c-.11-.06-3-1.11-9.6-1.11s-9.49,1-9.6,1.11a29.82,29.82,0,0,0-.61,6.2A18.37,18.37,0,0,0,67.07,36a38.66,38.66,0,0,0,7.45,7.53A38.66,38.66,0,0,0,82,36a18.37,18.37,0,0,0,2.76-10.17A29.82,29.82,0,0,0,84.12,19.64Z"/><path class="cls-3" d="M83.13,20.45c-.1,0-2.78-.79-8.61-.79s-8.51.75-8.61.79a36.35,36.35,0,0,0-.46,5.8,16.52,16.52,0,0,0,2.45,9.1,35.9,35.9,0,0,0,6.62,6.73,35.9,35.9,0,0,0,6.62-6.73,16.52,16.52,0,0,0,2.45-9.1A36.35,36.35,0,0,0,83.13,20.45ZM80.71,34.7a35.73,35.73,0,0,1-6.19,6.39,35.73,35.73,0,0,1-6.19-6.39A15,15,0,0,1,66,26.31,33.09,33.09,0,0,1,66.46,21a33.29,33.29,0,0,1,8.06-.69,33.29,33.29,0,0,1,8.06.69A32.54,32.54,0,0,1,83,26.31,15.06,15.06,0,0,1,80.71,34.7Z"/><path class="cls-3" d="M82.43,25.21H66.61c0,.37,0,.73,0,1.1,0,1.49.21,5.25,2.19,8.08a37.94,37.94,0,0,0,5.74,6,37.94,37.94,0,0,0,5.74-6c2-2.83,2.19-6.59,2.19-8.08C82.45,25.94,82.45,25.58,82.43,25.21Z"/><path class="cls-4" d="M67.69,25.68v6.11a10.14,10.14,0,0,0,1.25,2.48,23.24,23.24,0,0,0,1.77,2.18V25.68Z"/><path class="cls-4" d="M81.35,25.68v6.11a10.14,10.14,0,0,1-1.25,2.48,23.24,23.24,0,0,1-1.77,2.18V25.68Z"/><path class="cls-4" d="M82.11,21.39a38.3,38.3,0,0,0-7.59-.59,38.3,38.3,0,0,0-7.59.59c-.09.63-.26,2.19-.32,3.82H82.43C82.37,23.58,82.2,22,82.11,21.39Z"/><path class="cls-4" d="M74.52,25.68H72.77V38.57c.73.7,1.36,1.27,1.75,1.59.39-.32,1-.89,1.75-1.59V25.68Z"/><path class="cls-3" d="M68.79,22.88A.18.18,0,0,1,69,22.7a.33.33,0,0,1,.19.06l.08-.3a.63.63,0,0,0-.33-.09.49.49,0,0,0-.49.55.62.62,0,0,0,.35.56c.1.08.22.13.22.28a.21.21,0,0,1-.22.2.37.37,0,0,1-.18,0l-.1.3a.57.57,0,0,0,.32.09.53.53,0,0,0,.54-.59C69.36,23.21,68.79,23.19,68.79,22.88Z"/><path class="cls-3" d="M69.55,24.28h.54l.06-1.63h0v0l.32,1.59h.29l.29-1.63h0l.11,1.63h.51a.6.6,0,0,1-.08-.23c0-.14-.19-1.93-.21-2.15l-.6,0-.18,1.41h0L70.4,22l-.6.05c0,.31-.16,1.92-.17,2A.6.6,0,0,1,69.55,24.28Z"/><path class="cls-3" d="M73.49,24.28H74V23.07l0-.24h0l.55,1.45H75V22.07a.58.58,0,0,1,.07-.26h-.51V23a2.22,2.22,0,0,0,0,.37h0L74,21.82h-.45v2.24A.35.35,0,0,1,73.49,24.28Z"/><path class="cls-3" d="M76.72,23.08a1.11,1.11,0,0,0,1,1.22.65.65,0,0,0,.32-.06L78,23.82a.59.59,0,0,1-.17,0c-.4,0-.58-.43-.58-.78s.18-.73.58-.73l.17,0,.12-.38a.72.72,0,0,0-.26-.08h-.1A1.11,1.11,0,0,0,76.72,23.08Z"/><polygon class="cls-3" points="80.77 22.75 80.88 22.4 79.99 22.4 79.99 24.28 80.36 24.28 80.36 23.5 80.67 23.5 80.67 23.15 80.36 23.15 80.36 22.75 80.77 22.75"/><path class="cls-3" d="M81.7,24c-.31,0-.49-.31-.5-.62s.17-.62.46-.62h.14l.08-.29a.49.49,0,0,0-.25,0,.87.87,0,0,0-.78.95.88.88,0,0,0,.85.93.37.37,0,0,0,.25-.07l-.1-.28A.31.31,0,0,1,81.7,24Z"/><path class="cls-3" d="M72.54,21.82c-.39,0-.79.34-.79,1.24s.4,1.24.79,1.24.8-.34.8-1.24S72.94,21.82,72.54,21.82Zm0,2c-.29,0-.31-.61-.31-.8s0-.8.31-.8.32.59.32.8S72.84,23.86,72.54,23.86Z"/><path class="cls-3" d="M67.91,22.43h-.39l-.43,1.85h.36l.07-.37h.37l.07.37h.43a.38.38,0,0,1-.08-.15C68.29,24,67.91,22.43,67.91,22.43Zm-.33,1.19.08-.49,0-.23h0l0,.23.1.49Z"/><path class="cls-3" d="M75.63,24.28l.08-.47h.46l.08.47h.51a.55.55,0,0,1-.11-.22l-.49-2.22-.48,0-.52,2.46Zm.25-1.49.05-.3h0l0,.3.11.65h-.32Z"/><path class="cls-3" d="M78.89,22c-.4,0-.8.32-.8,1.16s.4,1.17.8,1.17.81-.32.81-1.17S79.3,22,78.89,22Zm0,1.91c-.29,0-.32-.57-.32-.75s0-.74.32-.74.33.54.33.74S79.19,23.9,78.89,23.9Z"/><g class="cls-5"><rect class="cls-6" x="95.75" y="8.53" width="0.5" height="35.84"/></g><path class="cls-7" d="M39.65,6.74c-4,1.16-5.21,6.81-5.34,10.42-.9,1.94-2.16,8.45-2.42,13C30,33,28.79,40.6,28.53,42.67a8.33,8.33,0,0,0-1,1L25.1,29.84a63.84,63.84,0,0,0-3-13.83c-.26-.9-1.86-7.64-2.1-8.24A3.22,3.22,0,0,0,18.15,6c-1.55-.26-5,.44-6.55,2.25S9,13.72,12,20.44c-.26,2.07.65,4.78,3,11.63a53.53,53.53,0,0,0,1.68,12.41c-3.75-2.07-6.07-1.42-7.36-.52-2.72,1.68-2.46,5.17-2.46,7.76a4.46,4.46,0,0,0-3.49.51C-2.23,55.72.49,66.06,2.17,69.68c1.42,8.79,5,12.8,8.27,14.48V92H36.8V81.57c6.08-7.75,6-29.85,3.24-37.22.3-1.53,1.82-8.76,3.2-16.16C44.78,20,45.93,12.05,46,11,46.68,7,41.85,6.09,39.65,6.74Z"/><path class="cls-3" d="M10.05,71c3.23.52,4.65-3.36,1.42-4.26-1.16-.35-2.42.87-3,1.58l-.75-.38A8.54,8.54,0,0,1,9.4,65.8C7.47,64.64,5.91,63.09,6.17,60A4.88,4.88,0,0,1,8.5,56.37c-.82-1.29-1.43-3.63-3.47-2.9H5a3.56,3.56,0,0,0-.67.31A4.53,4.53,0,0,0,3.15,55,7.16,7.16,0,0,0,2,58.18C2,61,4.36,65.29,6.56,68.26,7.72,69.81,8.89,70.84,10.05,71Z"/><path class="cls-3" d="M44.11,10.83c-.11-1.19-.72-2.32-2.77-2.32a5.29,5.29,0,0,0-.66,0c-.1,0-.2.06-.3.08a2.55,2.55,0,0,0-.54.15h0a2.92,2.92,0,0,0-.4.25,3.73,3.73,0,0,0-.37.23,4,4,0,0,0-.47.45.46.46,0,0,0-.07.07l0,0a7.37,7.37,0,0,0-.9,1.33h0a.93.93,0,0,0,0,.1h0a10,10,0,0,0-.65,1.61c0,.06,0,.11,0,.16s0,.17-.07.25l-.15.6v0a8.49,8.49,0,0,0-.14.88l0,.2c0,.08,0,.16,0,.23s0,.44,0,.66a7.07,7.07,0,0,1,1.34-.29l.24,0h0a8.92,8.92,0,0,1,1.35-.07h0c.25,0,.5,0,.73,0v.64l-.45.12c-.18,0-.33.09-.49.14l-.55.15-.07,0a7.2,7.2,0,0,0-.85.35l-.18.1a4.88,4.88,0,0,0-.58.34l-.07,0a7.13,7.13,0,0,0-.79.62h0a29.48,29.48,0,0,0-1.16,4.56c-.1.52-.19,1.05-.28,1.6-.23,1.37-.42,2.82-.53,4.19l-.06.81a4.81,4.81,0,0,1,1.26-.51l.08,0h0l.54-.14q.38-.07.75-.12h0c.31,0,.61-.07.91-.08l.22,0h0l.38,0v.78a3.38,3.38,0,0,0-.53,0l-.11,0-.27.06-.2.05-.1,0-.28.1-.24.09-.08,0-.28.12-.27.13-.33.17-.29.16-.29.17-.3.21-.17.11-.06.05a2,2,0,0,0-.31.25,1.09,1.09,0,0,0-.17.13,4.3,4.3,0,0,0-.37.37h0c-1.25,1.79-2.26,6.82-2.73,10,0,.24-.07.48-.1.7-.06.45-.11.84-.14,1.16a50.91,50.91,0,0,0-5.39,5.53c-.09.11-.15.16-.17.16l-.77-.39a9.58,9.58,0,0,1,1-1.87c.23-.34.49-.71.78-1.1L23.16,30.1a50,50,0,0,0-.89-5.73c-.23-1.12-.49-2.2-.73-3.19-.17-.65-.32-1.26-.47-1.81-.44-1.65-.77-2.74-.77-2.84s-1.51-6.09-2.15-8.42a4.72,4.72,0,0,0-1.55-.06,8.3,8.3,0,0,0-1.27.19,6.13,6.13,0,0,0-.61.18,3.73,3.73,0,0,0-.53.26,1,1,0,0,0-.13.09,4.08,4.08,0,0,0-.78.65,4.37,4.37,0,0,0-.44.62c-.05.08-.11.14-.15.22a5.53,5.53,0,0,0-.6,2.14s0,0,0,0v.11a8.5,8.5,0,0,0,0,1,1.47,1.47,0,0,0,0,.21c0,.11,0,.24,0,.36,0,.37.08.73.15,1.12.05.24.12.5.18.75s.12.5.19.76l0,.11q.24.79.57,1.65a.49.49,0,0,1,0,.11h0a6.15,6.15,0,0,1,.67-.5h0A7.16,7.16,0,0,1,17.42,17v.77a3.4,3.4,0,0,0-.65.12l-.14.05-.35.13-.12.05a.71.71,0,0,0-.15.08l-.27.15-.13.09-.11.09-.24.19-.13.11-.29.3-.12.14-.21.26,0,0a1.77,1.77,0,0,0-.12.17,1.5,1.5,0,0,0-.15.23l0,0a2.53,2.53,0,0,0-.13.22l-.1.18a2.84,2.84,0,0,0-.17.36c-.13,1.55.77,4.39,2.71,10a6.74,6.74,0,0,1,.71-.34h0l.33-.14L18,30h0l.58-.19h0l.69-.18.32-.09h0c.3-.06.6-.13.91-.18l.26.9a4.32,4.32,0,0,0-.8.25h0a5.57,5.57,0,0,0-.82.39l-.24.14-.55.35-.23.17q-.34.24-.63.48l-.08.06c-.2.17-.38.34-.53.49,0,.42,0,.87.05,1.33,0,.12,0,.23,0,.35,0,.45.07.9.11,1.37v.06c.05.49.11,1,.18,1.49l.06.39c.06.47.13.93.2,1.38,0,0,0,.08,0,.12.08.49.17,1,.25,1.46,0,.12,0,.24.07.36.07.43.15.85.23,1.25l0,.08c.08.45.17.87.25,1.27,0,.08,0,.15.05.22.07.37.15.71.21,1l.26,1.16,0,.13a2.48,2.48,0,0,1,.06.27l.65,2.45-2.07-1.42c-.3-.2-.58-.37-.86-.54s-.29-.19-.42-.26l-.22-.13c-.35-.19-.68-.37-1-.52l-.14-.07a8.79,8.79,0,0,0-1-.4l-.05,0a7.16,7.16,0,0,0-1-.26h-.12a5.7,5.7,0,0,0-.58-.06h-.06l-.3,0h-.28l-.21.05a2.6,2.6,0,0,0-.4.1,2.51,2.51,0,0,0-.57.28c-2,1.51-1.9,4.37-1.25,6.89.12.45.26.9.41,1.33.07.21.15.42.23.62.15.4.32.78.48,1.11.42-.1.82-.18,1.22-.26h0l.22,0h0c.37-.07.74-.13,1.12-.18h.07c.38,0,.76-.07,1.15-.09h.31c.31,0,.62,0,.94,0h.34l1.2.12h0l.2,0h0c.47.08,1,.16,1.49.28l-.81-1.92c-.42-1-.86-2-1.27-2.9s-.81-1.7-1.15-2.28h1.55s0,0,.08.09l.29.4c.37.55,1,1.5,1.59,2.62a24.94,24.94,0,0,1,1.92,4.25l5.94.78c5.95.26,11.25,4.78,11.51,4.91l-.52.78h0a31.29,31.29,0,0,0-9.08-3.6,15.72,15.72,0,0,0-2-.28c-1.06,0-2-.13-3-.22h0c-1.21-.12-2.34-.26-3.38-.42l-.29,0h0l-1.35-.23c-1-.19-1.84-.32-2.58-.4a17.51,17.51,0,0,0-1.81-.11,13.64,13.64,0,0,0-2,.23c-2,.39-3.76,1.29-4,3.13a3.82,3.82,0,0,0,.52,2.71l3.75.26a5,5,0,0,1-.05-1.23,4.72,4.72,0,0,1,.1-.64,6.24,6.24,0,0,1,.43-1.33,7.63,7.63,0,0,1,.79-1.33,6.32,6.32,0,0,1,.54-.64h1c-1.56,1.56-1.33,4.33-.57,6,.06.13.12.26.18.37l-4.39.26a32,32,0,0,0,5.28,1.4,9.47,9.47,0,0,0,3.64-.11c.84.39,1.72.87,2.6,1.39,1.32.78,2.65,1.66,3.85,2.49.81.56,1.55,1.09,2.21,1.56l.9.64-.52,1C27.18,72.33,26,71.75,25,71.15s-2.11-1.21-3.15-1.86A9.41,9.41,0,0,0,20.43,73a12.63,12.63,0,0,0-.17,1.36c-.13,5.56,5.56,7.63,6.46,8l-.38,4H25.17l-.26-2.71c-1.68-.77-6.72-3.62-6.59-9.43a12.39,12.39,0,0,1,1.81-5.82l-1-.52a8.46,8.46,0,0,1-4-.13,3.82,3.82,0,0,1-1.75,4.08,4,4,0,0,1-1.4.48,5.19,5.19,0,0,1-.8.06,6.58,6.58,0,0,1-1.71-.24,8.05,8.05,0,0,1-1.8-.74A10.38,10.38,0,0,1,5,69.29a8.75,8.75,0,0,1-.94-1.14,20.13,20.13,0,0,1-1.13-1.83l1,3c.1.66.24,1.26.37,1.86,0,.12.05.25.08.36l0,.15a3.18,3.18,0,0,1,.09.33c.16.58.32,1.15.49,1.69a20.07,20.07,0,0,0,1.15,2.71A16.47,16.47,0,0,0,9,80.5l0,0a13.69,13.69,0,0,0,2.56,2.06l.25.16h0c.31.19.61.35.91.5s.56.26.83.38l.05,0h0c.29.12.56.22.82.3l0,0,.09,0a10.68,10.68,0,0,0,1.3.35H16c.2,0,.38.08.55.1h.15l.33,0h0l.36,0h0l.29,0,.13,1h0c-.3,0-.7,0-1.16,0s-1-.06-1.49-.11l-1.5-.17L13,85.16l-.51-.1L11.93,92H35.5L35,83.38h0a5.45,5.45,0,0,1-.56.49,5.51,5.51,0,0,1-3,1.18v-.9a5.91,5.91,0,0,0,.84-.41,1.75,1.75,0,0,0,.25-.16q.27-.16.54-.36l.28-.22.47-.42v0l.25-.24c.16-.17.31-.34.46-.52s.12-.15.19-.22l0,0c.2-.26.4-.52.58-.8l0-.07c.2-.3.39-.63.58-1l.16-.31c.13-.24.25-.49.37-.74l.18-.39c.11-.25.22-.49.32-.75l.15-.38,0,0c.1-.26.2-.54.29-.81,0-.07,0-.13.07-.19s0-.14.07-.21c.12-.35.23-.71.34-1.08a1.05,1.05,0,0,0,.05-.19c.13-.43.24-.87.35-1.31,0-.14.07-.28.1-.41.07-.32.15-.64.21-1,0-.1.05-.21.07-.31s0-.15,0-.22c.06-.29.11-.58.17-.87s.07-.39.1-.58.09-.58.14-.87,0-.37.08-.55v0c0-.32.09-.65.13-1,0-.1,0-.19,0-.29l0-.21c0-.47.1-.94.14-1.41l.06-.65.06-.81,0-.39c0-.12,0-.24,0-.36s0-.48.05-.72l0-.78,0-.66c0-.28,0-.55,0-.82s0-.38,0-.57v0c0-1.07,0-2.12,0-3.14v0c0-.12,0-.23,0-.34s0-.25,0-.37l0-.59c0-.12,0-.25,0-.37l0-.58c0-.12,0-.24,0-.36s0-.22,0-.33c0-.32,0-.64-.07-.95,0-.07,0-.12,0-.19,0-.5-.09-1-.14-1.46l0-.29c0-.47-.11-.94-.17-1.38s-.1-.61-.15-.9-.06-.38-.09-.55c-.08-.46-.17-.9-.26-1.31l-.06-.24c0-.19-.09-.36-.14-.53s-.05-.23-.08-.33,0-.18-.08-.26c-.1-.32-.2-.63-.3-.89.57-3.5,1.66-8.69,2.72-14,.15-.76.3-1.53.44-2.29s.29-1.49.43-2.23.27-1.48.4-2.2c.26-1.46.51-2.88.74-4.24.46-2.71.86-5.14,1.18-7,0-.2.06-.41.08-.63a5.39,5.39,0,0,0,0-.7C44.12,11.07,44.12,11,44.11,10.83Z"/><path class="cls-3" d="M112.71,21.13a3.6,3.6,0,0,1-.28,1.49,2.19,2.19,0,0,1-.81,1,2.4,2.4,0,0,1-2.43,0,2.31,2.31,0,0,1-.82-1,3.4,3.4,0,0,1-.3-1.48v-.36a3.43,3.43,0,0,1,.3-1.48,2.16,2.16,0,0,1,.82-1,2.11,2.11,0,0,1,1.2-.34,2.25,2.25,0,0,1,1.22.33,2.3,2.3,0,0,1,.81.95,3.57,3.57,0,0,1,.29,1.45Zm-.76-.37a3.23,3.23,0,0,0-.18-1.15,1.44,1.44,0,0,0-.54-.72,1.37,1.37,0,0,0-.84-.25,1.33,1.33,0,0,0-.82.25,1.51,1.51,0,0,0-.55.72,3,3,0,0,0-.19,1.15v.37a3.06,3.06,0,0,0,.19,1.16,1.59,1.59,0,0,0,.55.73,1.38,1.38,0,0,0,.83.25,1.36,1.36,0,0,0,1.15-.55,2.67,2.67,0,0,0,.4-1.59Z"/><path class="cls-3" d="M116.46,23.79v1.69h-.74V23.8a1.5,1.5,0,0,1-1.43-.14,1.67,1.67,0,0,1-.53-.73,2.87,2.87,0,0,1-.18-1.06v-.1a3.61,3.61,0,0,1,.18-1.2,1.68,1.68,0,0,1,.52-.81,1.44,1.44,0,0,1,1.44-.17V17.75h.74v1.86a1.42,1.42,0,0,1,.65-.14,1.33,1.33,0,0,1,.85.29,1.72,1.72,0,0,1,.52.8,3.59,3.59,0,0,1,.18,1.19v.1a3.22,3.22,0,0,1-.17,1.08,1.67,1.67,0,0,1-.53.73,1.38,1.38,0,0,1-.84.26A1.69,1.69,0,0,1,116.46,23.79Zm-1.15-.47a1.25,1.25,0,0,0,.41-.07V20.14a1,1,0,0,0-.4-.07.81.81,0,0,0-.77.48,2.9,2.9,0,0,0-.24,1.3,2.09,2.09,0,0,0,.24,1.07A.83.83,0,0,0,115.31,23.32Zm1.15-3.17v3.1a1.45,1.45,0,0,0,.44.07.86.86,0,0,0,.78-.41,2,2,0,0,0,.25-1.06v-.08a2.43,2.43,0,0,0-.26-1.22.83.83,0,0,0-.78-.48A1.06,1.06,0,0,0,116.46,20.15Z"/><path class="cls-3" d="M120.41,19.55v3.12l2-3.12h.74v4.28h-.74V20.71l-2,3.12h-.73V19.55Z"/><path class="cls-3" d="M127.8,23.23h.51l-.07,1.87h-.65V23.83h-3.23V19.55h.74v3.68h2V19.55h.73Z"/><path class="cls-3" d="M129.9,19.55v3.12l2-3.12h.74v4.28h-.74V20.71l-2,3.12h-.73V19.55Z"/><path class="cls-3" d="M136.43,23.83a1.37,1.37,0,0,1-.1-.45,1.78,1.78,0,0,1-.54.39,1.69,1.69,0,0,1-.68.14,1.55,1.55,0,0,1-.76-.17,1.25,1.25,0,0,1-.51-.45,1.22,1.22,0,0,1-.18-.65,1.32,1.32,0,0,1,.23-.77,1.38,1.38,0,0,1,.67-.47,2.9,2.9,0,0,1,1-.16h.72V20.9a.85.85,0,0,0-.23-.62,1,1,0,0,0-.67-.22,1.21,1.21,0,0,0-.48.09,1,1,0,0,0-.33.25.54.54,0,0,0-.12.34h-.73a1,1,0,0,1,.21-.61,1.63,1.63,0,0,1,.61-.47,1.93,1.93,0,0,1,.88-.19,2,2,0,0,1,.84.16,1.29,1.29,0,0,1,.55.48,1.43,1.43,0,0,1,.2.79v1.93a2.46,2.46,0,0,0,.15.94v.06Zm-.12-1.2v-.88h-.68c-.82,0-1.24.28-1.24.79a.72.72,0,0,0,.22.53.85.85,0,0,0,.6.2,1.28,1.28,0,0,0,.48-.09,1.6,1.6,0,0,0,.38-.23A1.17,1.17,0,0,0,136.31,22.63Z"/><path class="cls-3" d="M138.81,19.55h2.89v4.28H141V20.16h-1.46l-.08,1.6a5.3,5.3,0,0,1-.2,1.2,1.29,1.29,0,0,1-.43.66,1.17,1.17,0,0,1-.73.21h-.26v-.64H138a.63.63,0,0,0,.55-.38,4.21,4.21,0,0,0,.2-1.24Z"/><path class="cls-3" d="M146.18,23.14a1.36,1.36,0,0,1-.55.51,1.88,1.88,0,0,1-.86.18H143V19.55h.73V21h1.11a1.87,1.87,0,0,1,.85.18,1.34,1.34,0,0,1,.55.5,1.41,1.41,0,0,1,.18.71A1.4,1.4,0,0,1,146.18,23.14Zm-2.5.09h1.09a.81.81,0,0,0,.65-.23.79.79,0,0,0,.21-.56.86.86,0,0,0-.09-.39.7.7,0,0,0-.28-.31.89.89,0,0,0-.49-.12h-1.09Z"/><path class="cls-3" d="M150.78,23.83h-.73V22h-2v1.83h-.73V19.55h.73v1.86h2V19.55h.73Z"/><path class="cls-3" d="M155.26,23.14a1.43,1.43,0,0,1-.55.51,1.91,1.91,0,0,1-.86.18H152V19.55h.73V21h1.1a1.88,1.88,0,0,1,.86.18,1.25,1.25,0,0,1,.54.5,1.33,1.33,0,0,1,.19.71A1.5,1.5,0,0,1,155.26,23.14Zm-2.5.09h1.09a.82.82,0,0,0,.65-.23.79.79,0,0,0,.21-.56.86.86,0,0,0-.09-.39.7.7,0,0,0-.28-.31.91.91,0,0,0-.49-.12h-1.09Zm3.48-3.68H157v4.28h-.73Z"/><path class="cls-3" d="M159,19.55v3.12l2-3.12h.74v4.28H161V20.71l-2,3.12h-.72V19.55ZM161.21,18a1,1,0,0,1-.14.55,1,1,0,0,1-.41.37,1.39,1.39,0,0,1-.63.14,1.32,1.32,0,0,1-.62-.14,1,1,0,0,1-.42-.37,1,1,0,0,1-.14-.55h.59a.6.6,0,0,0,.15.42.54.54,0,0,0,.44.17.58.58,0,0,0,.45-.17.64.64,0,0,0,.14-.42Z"/><path class="cls-3" d="M165.67,23.65a1.87,1.87,0,0,1-.67-.75,2.52,2.52,0,0,1-.23-1.08v-.39a3.83,3.83,0,0,1,.52-2.17,2.08,2.08,0,0,1,1.41-.93,3.23,3.23,0,0,0,.56-.14.72.72,0,0,0,.32-.19.45.45,0,0,0,.11-.31h.6a1.21,1.21,0,0,1-.19.74,1.09,1.09,0,0,1-.54.35c-.23.07-.46.13-.7.18a2.05,2.05,0,0,0-1,.47,1.69,1.69,0,0,0-.48,1A2,2,0,0,1,166,20a1.9,1.9,0,0,1,.79-.17,1.73,1.73,0,0,1,1,.25,1.6,1.6,0,0,1,.62.69,2.26,2.26,0,0,1,.21,1v.08a2.52,2.52,0,0,1-.23,1.08,1.78,1.78,0,0,1-.66.75,2.06,2.06,0,0,1-2,0Zm.36-3.07a1.1,1.1,0,0,0-.4.48,1.87,1.87,0,0,0-.12.68v.08a2.06,2.06,0,0,0,.13.76,1.1,1.1,0,0,0,.39.53,1,1,0,0,0,.66.21,1.07,1.07,0,0,0,.65-.2,1.13,1.13,0,0,0,.39-.54,2,2,0,0,0,.13-.74v-.1a1.68,1.68,0,0,0-.13-.68,1.08,1.08,0,0,0-.39-.48,1.09,1.09,0,0,0-.66-.19A1,1,0,0,0,166,20.58Z"/><path class="cls-3" d="M170.89,24.49c-.25.67-.64,1-1.15,1.07h-.12a1.22,1.22,0,0,1-.41-.06v-.59h.2a1.35,1.35,0,0,0,.43-.06.77.77,0,0,0,.29-.22,1.37,1.37,0,0,0,.21-.42l.16-.43L169,19.55h.8l1.07,3.21,1-3.21h.79Z"/><path class="cls-3" d="M177,23.83h-.93L174.6,22h-.54v1.83h-.73V19.55h.73v1.81h.48L176,19.55h.89l-1.7,2.05Z"/><path class="cls-3" d="M178.66,19.55l1.45,3.31,1.46-3.31h.91v4.28h-.73V20.72l-1.39,3.11h-.5l-1.41-3.17v3.17h-.74V19.55Z"/><path class="cls-3" d="M187.05,23.09a1.84,1.84,0,0,1-1.61.82,2.08,2.08,0,0,1-1-.26,1.83,1.83,0,0,1-.69-.74,2.31,2.31,0,0,1-.24-1.07v-.16a2.54,2.54,0,0,1,.26-1.18,1.94,1.94,0,0,1,.7-.77,1.77,1.77,0,0,1,.91-.26,1.7,1.7,0,0,1,1,.27,1.58,1.58,0,0,1,.58.74,2.83,2.83,0,0,1,.19,1.09v.33h-2.89a1.73,1.73,0,0,0,.16.72,1.28,1.28,0,0,0,.44.51,1.23,1.23,0,0,0,.67.19,1.32,1.32,0,0,0,.64-.16,1.49,1.49,0,0,0,.48-.43Zm-2.82-1.79h2.14v-.06a1.55,1.55,0,0,0-.27-.83.89.89,0,0,0-.76-.34,1,1,0,0,0-.74.32A1.61,1.61,0,0,0,184.23,21.3Z"/><path class="cls-3" d="M191.71,23.83h-.93L189.29,22h-.54v1.83H188V19.55h.73v1.81h.49l1.43-1.81h.89l-1.69,2.05Z"/><path class="cls-3" d="M195.73,23.09a1.84,1.84,0,0,1-1.61.82,2.08,2.08,0,0,1-1-.26,1.9,1.9,0,0,1-.69-.74,2.31,2.31,0,0,1-.24-1.07v-.16a2.54,2.54,0,0,1,.26-1.18,1.94,1.94,0,0,1,.7-.77,1.77,1.77,0,0,1,.91-.26,1.7,1.7,0,0,1,1,.27,1.58,1.58,0,0,1,.58.74,2.83,2.83,0,0,1,.19,1.09v.33h-2.89a1.73,1.73,0,0,0,.16.72,1.36,1.36,0,0,0,.44.51,1.23,1.23,0,0,0,.67.19,1.29,1.29,0,0,0,.64-.16,1.63,1.63,0,0,0,.49-.43Zm-2.82-1.79h2.14v-.06a1.55,1.55,0,0,0-.27-.83.88.88,0,0,0-.76-.34,1,1,0,0,0-.74.32A1.61,1.61,0,0,0,192.91,21.3Z"/><path class="cls-3" d="M197.37,23.42v2.06h-.73V19.55h.67l0,.47a1.53,1.53,0,0,1,1.24-.55,1.51,1.51,0,0,1,.91.27,1.68,1.68,0,0,1,.57.77,3.07,3.07,0,0,1,.2,1.15v.08a3,3,0,0,1-.2,1.12,1.68,1.68,0,0,1-.57.77,1.43,1.43,0,0,1-.89.28A1.58,1.58,0,0,1,197.37,23.42Zm0-2.74v2.05a1.09,1.09,0,0,0,1,.58,1,1,0,0,0,.63-.21,1.24,1.24,0,0,0,.39-.57,2.43,2.43,0,0,0,.12-.79v-.08a2.45,2.45,0,0,0-.12-.8,1.21,1.21,0,0,0-.39-.56,1,1,0,0,0-.64-.21A1.09,1.09,0,0,0,197.37,20.68Z"/><path class="cls-3" d="M203.92,22.48h.69a1.27,1.27,0,0,1-.25.71,1.75,1.75,0,0,1-.62.52,1.72,1.72,0,0,1-.83.2,1.83,1.83,0,0,1-1-.28,1.75,1.75,0,0,1-.64-.78,2.5,2.5,0,0,1-.22-1.07v-.17a2.51,2.51,0,0,1,.22-1.08,1.72,1.72,0,0,1,.64-.77,1.83,1.83,0,0,1,1-.29,1.92,1.92,0,0,1,.87.2,1.62,1.62,0,0,1,.6.56,1.65,1.65,0,0,1,.23.79h-.69a1.34,1.34,0,0,0-.15-.48,1,1,0,0,0-.36-.34,1,1,0,0,0-.5-.13,1.1,1.1,0,0,0-.7.22,1.2,1.2,0,0,0-.37.59,2.58,2.58,0,0,0-.11.73v.17a2.27,2.27,0,0,0,.12.75,1.21,1.21,0,0,0,.35.55,1,1,0,0,0,.71.23,1,1,0,0,0,.48-.11,1.06,1.06,0,0,0,.37-.29A.94.94,0,0,0,203.92,22.48Z"/><path class="cls-3" d="M209.18,23.83h-.93L206.77,22h-.54v1.83h-.73V19.55h.73v1.81h.48l1.44-1.81H209l-1.7,2.05Z"/><path class="cls-3" d="M210.61,19.55v3.12l2-3.12h.74v4.28h-.74V20.71l-2,3.12h-.73V19.55Z"/><path class="cls-3" d="M215.29,19.55v3.12l2-3.12H218v4.28h-.74V20.71l-2,3.12h-.73V19.55ZM217.46,18a1,1,0,0,1-.15.55.93.93,0,0,1-.41.37,1.35,1.35,0,0,1-.62.14,1.39,1.39,0,0,1-.63-.14,1,1,0,0,1-.42-.37,1.12,1.12,0,0,1-.14-.55h.59a.6.6,0,0,0,.15.42.55.55,0,0,0,.45.17.56.56,0,0,0,.44-.17.59.59,0,0,0,.14-.42Z"/><path class="cls-3" d="M109,33.56h-.73V29.28h3.44v4.28h-.74V29.88h-2Z"/><path class="cls-3" d="M115.49,33.56a1.13,1.13,0,0,1-.11-.45,1.58,1.58,0,0,1-1.22.53,1.6,1.6,0,0,1-.76-.17,1.25,1.25,0,0,1-.51-.45,1.22,1.22,0,0,1-.18-.65,1.24,1.24,0,0,1,.24-.77,1.38,1.38,0,0,1,.67-.47,2.88,2.88,0,0,1,1-.16h.73v-.35a.81.81,0,0,0-.24-.61.9.9,0,0,0-.67-.22,1.21,1.21,0,0,0-.48.09.85.85,0,0,0-.33.25.6.6,0,0,0-.11.34h-.73a1,1,0,0,1,.21-.61,1.63,1.63,0,0,1,.6-.48,2.11,2.11,0,0,1,.89-.18,2,2,0,0,1,.83.16,1.26,1.26,0,0,1,.56.48,1.52,1.52,0,0,1,.2.79v1.93a2.46,2.46,0,0,0,.15.94v.06Zm-.12-1.2v-.88h-.68c-.83,0-1.24.28-1.24.79a.71.71,0,0,0,.21.53.9.9,0,0,0,.61.2,1.19,1.19,0,0,0,.47-.09,1.28,1.28,0,0,0,.38-.23A1.21,1.21,0,0,0,115.37,32.36Z"/><path class="cls-3" d="M118,33.15v2.06h-.73V29.28h.67l0,.47a1.66,1.66,0,0,1,2.14-.28,1.61,1.61,0,0,1,.57.77,3.07,3.07,0,0,1,.2,1.15v.08a3,3,0,0,1-.2,1.12,1.68,1.68,0,0,1-.57.77,1.43,1.43,0,0,1-.89.28A1.58,1.58,0,0,1,118,33.15Zm0-2.74v2.05a1.1,1.1,0,0,0,1,.58,1,1,0,0,0,.64-.21,1.3,1.3,0,0,0,.38-.57,2.43,2.43,0,0,0,.12-.79v-.08a2.45,2.45,0,0,0-.12-.8,1.21,1.21,0,0,0-.38-.56,1,1,0,0,0-.65-.21A1.07,1.07,0,0,0,118,30.41Z"/><path class="cls-3" d="M122.81,29.87H121.4v-.59H125v.59h-1.44v3.69h-.74Z"/><path class="cls-3" d="M129.2,33.56h-.73V31.73h-2v1.83h-.73V29.28h.73v1.86h2V29.28h.73Z"/><path class="cls-3" d="M133.77,32.81a1.82,1.82,0,0,1-1.62.83,2,2,0,0,1-1-.26,1.82,1.82,0,0,1-.69-.74,2.31,2.31,0,0,1-.24-1.07V31.4a2.41,2.41,0,0,1,.26-1.17,1.87,1.87,0,0,1,.7-.77,1.77,1.77,0,0,1,.91-.26,1.72,1.72,0,0,1,1,.27,1.65,1.65,0,0,1,.58.74,2.83,2.83,0,0,1,.19,1.09v.33h-2.9a1.9,1.9,0,0,0,.17.72,1.28,1.28,0,0,0,.44.51,1.21,1.21,0,0,0,.66.18,1.33,1.33,0,0,0,.65-.15,1.49,1.49,0,0,0,.48-.43ZM131,31h2.14V31a1.55,1.55,0,0,0-.27-.83.88.88,0,0,0-.76-.34,1,1,0,0,0-.74.32A1.55,1.55,0,0,0,131,31Z"/><path class="cls-3" d="M135.41,33.15v2.06h-.74V29.28h.68l0,.47a1.5,1.5,0,0,1,1.24-.55,1.53,1.53,0,0,1,.91.27,1.68,1.68,0,0,1,.57.77,3.08,3.08,0,0,1,.19,1.15v.08a3,3,0,0,1-.19,1.12,1.68,1.68,0,0,1-.57.77,1.44,1.44,0,0,1-.9.28A1.57,1.57,0,0,1,135.41,33.15Zm0-2.74v2.05a1.09,1.09,0,0,0,1,.58,1,1,0,0,0,.64-.21,1.22,1.22,0,0,0,.38-.57,2.18,2.18,0,0,0,.13-.79v-.08a2.2,2.2,0,0,0-.13-.8,1.14,1.14,0,0,0-.38-.56,1,1,0,0,0-.64-.21A1.06,1.06,0,0,0,135.41,30.41Z"/><path class="cls-3" d="M144.2,33v.78h-.74V33h-.13a2.33,2.33,0,0,1-1.18-.3,2.18,2.18,0,0,1-.83-.82,2.31,2.31,0,0,1-.31-1.2,2.43,2.43,0,0,1,.3-1.2,2.3,2.3,0,0,1,.84-.83,2.49,2.49,0,0,1,1.23-.3h.08v-.81h.74v.81h.07a2.49,2.49,0,0,1,1.23.3,2.14,2.14,0,0,1,.84.82,2.33,2.33,0,0,1,.31,1.2,2.28,2.28,0,0,1-.31,1.2,2.1,2.1,0,0,1-.84.83,2.49,2.49,0,0,1-1.23.3Zm-.74-.6V29h-.11a1.7,1.7,0,0,0-.87.22,1.33,1.33,0,0,0-.55.6,2.27,2.27,0,0,0,0,1.82,1.33,1.33,0,0,0,.55.6,1.7,1.7,0,0,0,.87.21ZM144.2,29v3.45h.11a1.7,1.7,0,0,0,.87-.21,1.36,1.36,0,0,0,.55-.61,2.27,2.27,0,0,0,0-1.82,1.36,1.36,0,0,0-.55-.59,1.61,1.61,0,0,0-.87-.22Z"/><path class="cls-3" d="M152.13,33.56h-.94L149.11,31h-.7v2.59h-.77V27.8h.77v2.54H149l2-2.54h1l-2.2,2.79Z"/><path class="cls-3" d="M155.81,27.8l1.89,4.7,1.88-4.7h1v5.76h-.76V31.31l.07-2.41L158,33.56h-.57l-1.9-4.66.08,2.41v2.25h-.76V27.8Z"/><path class="cls-3" d="M166.34,30.86a3.6,3.6,0,0,1-.28,1.49,2.3,2.3,0,0,1-.8,1,2.26,2.26,0,0,1-1.23.33,2.13,2.13,0,0,1-1.2-.34,2.18,2.18,0,0,1-.83-1,3.55,3.55,0,0,1-.29-1.48V30.5A3.55,3.55,0,0,1,162,29a2.22,2.22,0,0,1,.82-1,2.14,2.14,0,0,1,1.21-.34,2.22,2.22,0,0,1,1.21.33,2.17,2.17,0,0,1,.81.95,3.41,3.41,0,0,1,.29,1.45Zm-.75-.37a3.1,3.1,0,0,0-.19-1.16,1.58,1.58,0,0,0-.53-.72,1.48,1.48,0,0,0-.84-.24,1.42,1.42,0,0,0-.83.24,1.65,1.65,0,0,0-.54.73,3,3,0,0,0-.19,1.15v.37a3.06,3.06,0,0,0,.19,1.16,1.65,1.65,0,0,0,.54.73A1.48,1.48,0,0,0,164,33a1.34,1.34,0,0,0,1.15-.55,2.67,2.67,0,0,0,.41-1.59Z"/><path class="cls-3" d="M171.91,33.56h-.76V30.9h-2.9v2.66h-.77V27.8h.77v2.48h2.9V27.8h.76Z"/><path class="cls-3" d="M173.49,33.56h-.78l2.2-5.76h.67l2.21,5.76H177l-.55-1.51H174Zm1.76-4.82-1,2.69h2Z"/><path class="cls-3" d="M183.07,33.56h-.93L180.05,31h-.69v2.59h-.77V27.8h.77v2.54H180l2-2.54h.95l-2.2,2.79Z"/><path class="cls-3" d="M188.2,30.86a3.6,3.6,0,0,1-.28,1.49,2.3,2.3,0,0,1-.8,1,2.26,2.26,0,0,1-1.23.33,2.19,2.19,0,0,1-1.21-.34,2.22,2.22,0,0,1-.82-1,3.55,3.55,0,0,1-.29-1.48V30.5a3.55,3.55,0,0,1,.29-1.48,2.22,2.22,0,0,1,.82-1,2.13,2.13,0,0,1,1.2-.34,2.23,2.23,0,0,1,1.22.33,2.17,2.17,0,0,1,.81.95,3.41,3.41,0,0,1,.29,1.45Zm-.75-.37a3.1,3.1,0,0,0-.19-1.16,1.58,1.58,0,0,0-.53-.72,1.49,1.49,0,0,0-.85-.24,1.41,1.41,0,0,0-.82.24,1.58,1.58,0,0,0-.54.73,3,3,0,0,0-.2,1.15v.37a3.05,3.05,0,0,0,.2,1.16,1.58,1.58,0,0,0,.54.73,1.48,1.48,0,0,0,.83.25,1.36,1.36,0,0,0,1.15-.55,2.67,2.67,0,0,0,.41-1.59Z"/></g></g></svg>