<svg xmlns="http://www.w3.org/2000/svg" viewBox="0 0 218 92"><defs><style>.cls-1{fill:none;}.cls-2{fill:#c9a546;}.cls-3{fill:#fff;}.cls-4{fill:#c3322d;}.cls-5,.cls-7{opacity:0.2;}.cls-6{fill:#f0f1f1;}.cls-7{fill:#010101;}</style></defs><g id="Layer_2" data-name="Layer 2"><g id="Layer_1-2" data-name="Layer 1"><rect class="cls-1" width="218" height="92"/><path id="BASE_COURONNE" data-name="BASE COURONNE" class="cls-2" d="M78.82,17.94s-2-.2-4.56-.2-4.58.2-4.58.2V17.1s2-.2,4.58-.2,4.56.2,4.56.2Z"/><path class="cls-2" d="M67.85,15.46c-.58-.65-.87-1.21-.75-1.56a.82.82,0,0,1,.59-.56,3.39,3.39,0,0,1-.27-.64,2.77,2.77,0,0,0-.58,0,1.79,1.79,0,0,0-.76.24,1.22,1.22,0,0,0-.58.76c-.34,1.4,2.16,2.58,3.22,3.09l.11,0a.2.2,0,0,0,.11-.06.14.14,0,0,0,0-.18S68.37,16,67.85,15.46Z"/><path class="cls-2" d="M72.25,11.62c0-.07,0-.17-.07-.19a3.2,3.2,0,0,0-2.24-1.09h-.1a2,2,0,0,0-1.77,1.06c-.65,1.2.48,2.46,1.2,3.3a12,12,0,0,0,2.09,1.82.25.25,0,0,0,.12,0,.14.14,0,0,0,.1,0,.12.12,0,0,0,0-.18c-.85-1-2.4-3-1.84-4.26.47-.86,1.79-.48,2.1-.39S72.16,11.76,72.25,11.62Z"/><path class="cls-2" d="M69,14.9l0,0-.21-.25a1,1,0,0,0,.12,1,6.56,6.56,0,0,0,.59.92l1.22-.1A10.58,10.58,0,0,1,69,14.9Z"/><path class="cls-2" d="M79.55,14.9l0,0,.21-.25a1,1,0,0,1-.13,1,6.56,6.56,0,0,1-.59.92l-1.22-.1A10.68,10.68,0,0,0,79.55,14.9Z"/><path class="cls-2" d="M73,13.07a10.69,10.69,0,0,0-2.69.65A11.33,11.33,0,0,0,72,16.24l.1.11c.51,0,1,0,1.59,0A11.73,11.73,0,0,1,73,13.07Z"/><path class="cls-2" d="M75.46,13.07a10.88,10.88,0,0,1,2.7.65,11.75,11.75,0,0,1-1.65,2.52l-.1.11c-.51,0-1,0-1.59,0A11.35,11.35,0,0,0,75.46,13.07Z"/><path class="cls-2" d="M80.65,15.46c.59-.65.87-1.21.76-1.56a.85.85,0,0,0-.59-.56,2.78,2.78,0,0,0,.26-.64,2.77,2.77,0,0,1,.58,0,1.75,1.75,0,0,1,.76.24,1.27,1.27,0,0,1,.59.76c.34,1.4-2.16,2.58-3.23,3.09l-.11,0a.17.17,0,0,1-.1-.06.13.13,0,0,1,0-.18S80.13,16,80.65,15.46Z"/><path class="cls-2" d="M76.25,11.62c0-.07.06-.17.07-.19a3.22,3.22,0,0,1,2.24-1.09h.1a2,2,0,0,1,1.77,1.06c.66,1.2-.47,2.46-1.2,3.3a12,12,0,0,1-2.09,1.82.24.24,0,0,1-.11,0,.15.15,0,0,1-.11,0,.12.12,0,0,1,0-.18c.85-1,2.4-3,1.84-4.26-.47-.86-1.79-.48-2.1-.39S76.34,11.76,76.25,11.62Z"/><path class="cls-2" d="M75.19,8.9V8.48h-.72V7.79H74v.69H73.3V8.9H74v.68a.79.79,0,1,0,1,.75.8.8,0,0,0-.58-.75V8.9Z"/><path class="cls-2" d="M75,13.39c0-1.34-.32-2-.72-2h0c-.41,0-.74.66-.72,2a9.89,9.89,0,0,0,.62,3c0,.06.07.09.1.09s.06,0,.1-.09A10.11,10.11,0,0,0,75,13.39Z"/><path class="cls-2" d="M83.85,19.46c-.11-.06-3-1.11-9.6-1.11s-9.49,1-9.6,1.11a30.62,30.62,0,0,0-.61,6.2A18.37,18.37,0,0,0,66.8,35.83a39,39,0,0,0,7.45,7.53,38.66,38.66,0,0,0,7.45-7.53,18.37,18.37,0,0,0,2.76-10.17A29.82,29.82,0,0,0,83.85,19.46Z"/><path class="cls-3" d="M82.86,20.27c-.1,0-2.78-.79-8.61-.79s-8.51.75-8.6.79a34.57,34.57,0,0,0-.47,5.8,16.52,16.52,0,0,0,2.45,9.1,36.21,36.21,0,0,0,6.62,6.73,35.9,35.9,0,0,0,6.62-6.73,16.52,16.52,0,0,0,2.45-9.1A35.09,35.09,0,0,0,82.86,20.27ZM80.45,34.52a36,36,0,0,1-6.2,6.39,35.73,35.73,0,0,1-6.19-6.39,15,15,0,0,1-2.29-8.39,33.09,33.09,0,0,1,.42-5.36,33.39,33.39,0,0,1,8.06-.69,33.29,33.29,0,0,1,8.06.69,32.54,32.54,0,0,1,.43,5.36A15.13,15.13,0,0,1,80.45,34.52Z"/><path class="cls-3" d="M82.16,25H66.34c0,.37,0,.73,0,1.1,0,1.48.21,5.25,2.19,8.08a38.4,38.4,0,0,0,5.74,6,37.94,37.94,0,0,0,5.74-6,14.93,14.93,0,0,0,2.2-8.08C82.19,25.76,82.18,25.4,82.16,25Z"/><path class="cls-4" d="M67.42,25.5v6.11a9.83,9.83,0,0,0,1.26,2.48,23.06,23.06,0,0,0,1.76,2.18V25.5Z"/><path class="cls-4" d="M81.09,25.5v6.11a10.54,10.54,0,0,1-1.26,2.48,23.24,23.24,0,0,1-1.77,2.18V25.5Z"/><path class="cls-4" d="M81.84,21.21a38.3,38.3,0,0,0-7.59-.59,38.3,38.3,0,0,0-7.59.59c-.09.63-.26,2.19-.32,3.82H82.16A35.39,35.39,0,0,0,81.84,21.21Z"/><path class="cls-4" d="M74.25,25.5H72.5V38.39c.73.7,1.36,1.27,1.75,1.59.39-.32,1-.89,1.75-1.59V25.5Z"/><path class="cls-3" d="M68.52,22.7a.18.18,0,0,1,.19-.18.33.33,0,0,1,.19.06l.08-.3a.64.64,0,0,0-.33-.1.5.5,0,0,0-.49.56.63.63,0,0,0,.35.56c.1.07.22.13.22.28a.21.21,0,0,1-.22.2.58.58,0,0,1-.18,0l-.1.3a.57.57,0,0,0,.32.09.53.53,0,0,0,.54-.59C69.09,23,68.52,23,68.52,22.7Z"/><path class="cls-3" d="M69.28,24.1h.54l.07-1.63h0v0l.32,1.59h.29l.3-1.63h0l.11,1.63h.51a.51.51,0,0,1-.07-.23c0-.14-.19-1.93-.22-2.15l-.6,0-.18,1.41h0l-.21-1.38-.6.05c0,.31-.16,1.92-.17,2A.45.45,0,0,1,69.28,24.1Z"/><path class="cls-3" d="M73.22,24.1h.51V22.89l0-.24h0l.55,1.46h.43V21.89a.59.59,0,0,1,.06-.26h-.51v1.14a2.22,2.22,0,0,0,0,.37h0l-.54-1.51h-.45v2.24A.35.35,0,0,1,73.22,24.1Z"/><path class="cls-3" d="M76.46,22.9a1.1,1.1,0,0,0,1,1.22.62.62,0,0,0,.32-.06l-.11-.42a.53.53,0,0,1-.17,0c-.4,0-.58-.43-.58-.78s.18-.73.58-.73l.17,0,.12-.38a.66.66,0,0,0-.26-.08h-.1A1.1,1.1,0,0,0,76.46,22.9Z"/><polygon class="cls-3" points="80.5 22.56 80.61 22.21 79.72 22.21 79.72 24.1 80.09 24.1 80.09 23.32 80.41 23.32 80.41 22.97 80.09 22.97 80.09 22.56 80.5 22.56"/><path class="cls-3" d="M81.44,23.79c-.32,0-.5-.31-.51-.62s.17-.62.46-.62h.14l.08-.29a.49.49,0,0,0-.25,0,.85.85,0,0,0-.77.95.87.87,0,0,0,.84.93.37.37,0,0,0,.25-.07l-.1-.28A.29.29,0,0,1,81.44,23.79Z"/><path class="cls-3" d="M72.28,21.64c-.4,0-.8.34-.8,1.24s.4,1.24.8,1.24.79-.34.79-1.24S72.68,21.64,72.28,21.64Zm0,2c-.3,0-.32-.61-.32-.8s0-.8.32-.8.31.59.31.8S72.57,23.68,72.28,23.68Z"/><path class="cls-3" d="M67.64,22.25h-.39l-.43,1.85h.36l.07-.37h.37l.07.37h.43a.31.31,0,0,1-.07-.15C68,23.85,67.64,22.25,67.64,22.25Zm-.33,1.19.08-.49,0-.23h0l0,.23.09.49Z"/><path class="cls-3" d="M75.36,24.1l.08-.47h.46l.08.47h.51a.55.55,0,0,1-.11-.22l-.49-2.22-.47,0-.53,2.46Zm.25-1.49,0-.3h0l0,.3.11.65h-.31Z"/><path class="cls-3" d="M78.63,21.81c-.41,0-.81.32-.81,1.16s.4,1.17.81,1.17.8-.32.8-1.17S79,21.81,78.63,21.81Zm0,1.91c-.3,0-.32-.57-.32-.75s0-.75.32-.75.32.55.32.75S78.93,23.72,78.63,23.72Z"/><g class="cls-5"><rect class="cls-6" x="95.49" y="8.34" width="0.5" height="35.84"/></g><path class="cls-7" d="M39.65,6.74c-4,1.16-5.21,6.81-5.34,10.42-.9,1.94-2.16,8.45-2.42,13C30,33,28.79,40.6,28.53,42.67a7.7,7.7,0,0,0-1,1L25.1,29.84A64.27,64.27,0,0,0,22.1,16c-.25-.9-1.85-7.64-2.09-8.24A3.22,3.22,0,0,0,18.15,6c-1.56-.25-5,.44-6.55,2.25S9,13.72,12,20.44c-.26,2.07.64,4.78,3,11.63a53,53,0,0,0,1.68,12.41c-3.75-2.07-6.08-1.42-7.37-.52-2.71,1.68-2.45,5.17-2.45,7.76a4.44,4.44,0,0,0-3.49.51C-2.23,55.72.48,66.06,2.16,69.68c1.42,8.79,5,12.8,8.27,14.48V92H36.8V81.57c6.08-7.75,6-29.85,3.23-37.22.31-1.53,1.83-8.76,3.21-16.16C44.77,20,45.93,12.05,46,11,46.67,7,41.84,6.09,39.65,6.74Z"/><path class="cls-3" d="M10.05,71c3.23.52,4.65-3.36,1.42-4.26-1.16-.35-2.43.87-3,1.59l-.75-.39a8.38,8.38,0,0,1,1.63-2.1C7.46,64.64,5.91,63.09,6.17,60A4.89,4.89,0,0,1,8.5,56.37c-.82-1.29-1.44-3.63-3.47-2.9H5a3.1,3.1,0,0,0-.67.32A4.26,4.26,0,0,0,3.15,55,7.2,7.2,0,0,0,2,58.18C2,61,4.36,65.29,6.56,68.26,7.72,69.81,8.88,70.85,10.05,71Z"/><path class="cls-3" d="M44.1,10.83c-.11-1.19-.72-2.32-2.76-2.32a5.07,5.07,0,0,0-.66,0c-.11,0-.2.06-.31.08a2.46,2.46,0,0,0-.53.15h0a2.42,2.42,0,0,0-.4.25,3.73,3.73,0,0,0-.37.23,3.31,3.31,0,0,0-.47.45l-.08.07,0,0a6.46,6.46,0,0,0-.9,1.33h0l0,.1h0a10,10,0,0,0-.64,1.61c0,.06,0,.11-.05.16l-.06.25c-.05.2-.11.4-.15.6v0c-.06.29-.11.58-.15.88,0,.07,0,.14,0,.2s0,.16,0,.23,0,.44,0,.66a7,7,0,0,1,1.33-.29l.25,0h0a8.92,8.92,0,0,1,1.35-.07h0c.25,0,.5,0,.72,0v.64l-.44.12c-.18,0-.33.09-.5.14l-.55.15-.06,0a7.2,7.2,0,0,0-.85.35l-.18.1a5,5,0,0,0-.59.34l-.06,0a7.2,7.2,0,0,0-.8.62h0a28.34,28.34,0,0,0-1.16,4.56c-.1.52-.2,1.05-.29,1.6-.22,1.37-.41,2.82-.52,4.19q0,.41-.06.81a4.81,4.81,0,0,1,1.26-.51l.08,0h0l.53-.14c.25,0,.5-.09.76-.12h0c.31,0,.61-.07.91-.08l.21,0h0l.38,0v.78a3.26,3.26,0,0,0-.52,0l-.12,0-.27.06-.2.05-.09,0-.28.09-.24.09-.09,0-.27.12-.28.13-.32.17-.3.16-.28.17-.31.21-.16.12-.07,0-.31.25-.16.13a3.23,3.23,0,0,0-.37.37h0c-1.26,1.79-2.26,6.82-2.73,10,0,.24-.07.48-.1.7-.06.45-.11.84-.14,1.17a51,51,0,0,0-5.39,5.52c-.09.11-.15.16-.17.16l-.77-.38a9.2,9.2,0,0,1,1-1.88c.23-.34.48-.71.77-1.1L23.16,30.1a50,50,0,0,0-.89-5.73c-.24-1.12-.49-2.2-.74-3.19-.16-.65-.32-1.26-.46-1.81-.44-1.64-.78-2.74-.78-2.84s-1.5-6.09-2.14-8.42a4.59,4.59,0,0,0-1.55,0,8.09,8.09,0,0,0-1.27.18,5.43,5.43,0,0,0-.61.18,3.86,3.86,0,0,0-.54.26l-.12.09a4.08,4.08,0,0,0-.78.65,4.37,4.37,0,0,0-.44.62c-.05.08-.11.14-.15.22a5.36,5.36,0,0,0-.6,2.14s0,0,0,0v.11a8.5,8.5,0,0,0,0,1c0,.07,0,.14,0,.21s0,.24,0,.36c0,.37.07.73.15,1.12,0,.24.12.5.18.75s.11.5.19.76l0,.11c.16.53.35,1.09.57,1.65,0,0,0,.07,0,.11h0a6.3,6.3,0,0,1,.68-.5h0A7.16,7.16,0,0,1,17.41,17v.77a3.29,3.29,0,0,0-.64.12l-.14.05-.35.13-.13.05-.15.08-.26.15-.13.09-.12.09a2.11,2.11,0,0,0-.23.19.69.69,0,0,0-.13.11l-.29.3-.13.14-.21.26,0,0-.12.17-.15.23,0,0-.12.22a1.74,1.74,0,0,0-.11.18c-.06.13-.12.25-.16.36-.13,1.55.77,4.39,2.71,10a5.73,5.73,0,0,1,.7-.34h0l.34-.14L18,30h0l.58-.19h0l.68-.18.32-.09h0c.31-.06.61-.13.92-.18l.25.9a4.32,4.32,0,0,0-.8.25h0a6,6,0,0,0-.81.39l-.25.15-.54.34-.24.17c-.22.16-.43.32-.62.48l-.08.06a6.65,6.65,0,0,0-.53.49c0,.42,0,.87,0,1.33,0,.12,0,.23,0,.35,0,.45.07.9.12,1.37v.06c.05.49.11,1,.18,1.49,0,.13,0,.26.05.39L17.53,39s0,.07,0,.11c.08.49.16,1,.25,1.46l.06.36c.08.43.16.85.24,1.25v.08c.09.45.18.87.26,1.27,0,.08,0,.15,0,.22.08.37.15.72.22,1,.11.51.19.9.25,1.16l0,.13c0,.15.06.26.06.27l.64,2.45-2.07-1.42c-.29-.2-.57-.37-.85-.54s-.29-.19-.42-.26l-.22-.13c-.35-.19-.69-.37-1-.52l-.14-.07a8.24,8.24,0,0,0-1-.4l-.05,0a8.71,8.71,0,0,0-1-.26h-.12l-.58-.06h-.07l-.29,0h-.29l-.2.05a2.73,2.73,0,0,0-.41.1,2.26,2.26,0,0,0-.56.28c-2,1.51-1.9,4.37-1.25,6.89.12.45.26.9.4,1.33.08.21.15.42.23.62.16.4.32.78.49,1.12l1.22-.27h0l.22,0h0L12.74,55h.08q.57-.06,1.14-.09h.32c.31,0,.62,0,.94,0h.34l1.2.12h0l.19,0h0c.47.08,1,.16,1.49.29-.26-.62-.53-1.27-.82-1.93-.42-1-.85-2-1.27-2.9s-.8-1.7-1.14-2.28h1.55a.45.45,0,0,1,.07.09,3.59,3.59,0,0,1,.29.41c.38.55,1,1.49,1.59,2.61a25.79,25.79,0,0,1,1.93,4.25l5.94.78c5.95.26,11.25,4.78,11.5,4.91l-.51.78h0a31.44,31.44,0,0,0-9.08-3.6,15.87,15.87,0,0,0-2-.28c-1.05,0-2-.13-3-.22h0c-1.2-.12-2.33-.26-3.37-.42l-.29,0h0l-1.35-.23c-1-.19-1.84-.32-2.59-.4a17.21,17.21,0,0,0-1.81-.11,13.67,13.67,0,0,0-2,.23c-2,.39-3.77,1.29-4,3.13a3.82,3.82,0,0,0,.52,2.71l3.74.26a5,5,0,0,1,0-1.23c0-.21.05-.42.09-.64a6.28,6.28,0,0,1,.44-1.33,7.38,7.38,0,0,1,.79-1.33,7.81,7.81,0,0,1,.53-.64h1c-1.56,1.56-1.33,4.33-.57,6a3.18,3.18,0,0,0,.18.37l-4.4.26a32.59,32.59,0,0,0,5.28,1.4,9.66,9.66,0,0,0,3.64-.1A28.94,28.94,0,0,1,22,67.19c1.32.78,2.65,1.66,3.85,2.5.8.55,1.55,1.08,2.2,1.55l.91.64-.52,1C27.17,72.33,26,71.75,25,71.15s-2.12-1.21-3.15-1.86A9.41,9.41,0,0,0,20.43,73a12.63,12.63,0,0,0-.17,1.36c-.13,5.56,5.56,7.63,6.46,8l-.39,4H25.17l-.26-2.71c-1.68-.77-6.72-3.62-6.59-9.43a12.28,12.28,0,0,1,1.81-5.82l-1-.52c-.9.39-2.84.13-4-.13a3.82,3.82,0,0,1-1.75,4.08,4.08,4.08,0,0,1-1.4.48,5.29,5.29,0,0,1-.8.06,6.6,6.6,0,0,1-1.72-.24,8.25,8.25,0,0,1-1.8-.74A10.34,10.34,0,0,1,5,69.29a8,8,0,0,1-.94-1.14,18.11,18.11,0,0,1-1.13-1.83l1,3c.11.66.24,1.26.38,1.86,0,.12,0,.25.07.36a.83.83,0,0,0,0,.15l.09.33c.15.58.31,1.15.49,1.69A22.26,22.26,0,0,0,6.18,76.4,16.6,16.6,0,0,0,9,80.5v0a14.06,14.06,0,0,0,2.57,2.06,2.13,2.13,0,0,0,.25.16h0c.31.19.61.35.91.5s.56.26.83.38l0,0h0a8.14,8.14,0,0,0,.81.3l0,0,.1,0a10.68,10.68,0,0,0,1.3.35H16c.2,0,.38.08.55.1h.14l.34,0h0l.35,0h.29l.13,1h0c-.29,0-.69,0-1.15,0l-1.5-.12-1.49-.17L13,85.16l-.52-.1L11.92,92H35.5L35,83.38h0a6.77,6.77,0,0,1-.56.49,5.51,5.51,0,0,1-3.05,1.18v-.9a5.43,5.43,0,0,0,.84-.41,1.83,1.83,0,0,0,.26-.16,6.18,6.18,0,0,0,.53-.36l.28-.22a6.14,6.14,0,0,0,.47-.42l0,0,.25-.24c.15-.17.31-.34.46-.52l.18-.22,0,0c.2-.26.39-.52.58-.8l0-.07c.2-.3.39-.63.57-1l.17-.31c.12-.24.25-.48.37-.74l.18-.39.32-.75.15-.38v0c.11-.26.2-.54.3-.81a1.07,1.07,0,0,1,.07-.19c0-.07,0-.14.07-.21q.18-.52.33-1.08l.06-.19c.12-.43.24-.87.35-1.31,0-.14.06-.28.1-.41l.21-1,.06-.31c0-.08,0-.15,0-.22.06-.29.11-.58.16-.87s.07-.39.11-.58.09-.58.13-.87l.09-.55v0c0-.32.09-.65.13-1l0-.29,0-.21c.06-.47.1-.94.15-1.41l.06-.65.06-.81,0-.39c0-.12,0-.24,0-.36s0-.48,0-.72,0-.52,0-.78,0-.44,0-.66l0-.82c0-.19,0-.38,0-.57v0c0-1.07,0-2.12,0-3.14v-.36c0-.13,0-.25,0-.37s0-.39,0-.59,0-.25,0-.37,0-.39,0-.58,0-.24,0-.36,0-.22,0-.33c0-.32,0-.64-.07-.95,0-.06,0-.12,0-.18,0-.51-.09-1-.14-1.47l0-.28c-.06-.48-.11-1-.18-1.39s-.09-.61-.14-.9-.06-.38-.09-.55c-.08-.46-.17-.9-.26-1.31l-.06-.24c0-.19-.09-.36-.14-.53s-.06-.23-.09-.33a2,2,0,0,0-.07-.26c-.1-.32-.2-.63-.31-.89.58-3.5,1.67-8.69,2.72-14l.45-2.29c.14-.75.29-1.49.42-2.23s.27-1.48.4-2.2c.27-1.46.51-2.88.74-4.24.47-2.71.87-5.13,1.18-7a6,6,0,0,0,.09-.63c0-.23,0-.46,0-.7S44.11,11,44.1,10.83Z"/><path class="cls-3" d="M113.83,21.27v.15a1.71,1.71,0,0,1-.71,1.48,4.1,4.1,0,0,1-2.28.5,3.73,3.73,0,0,1-2.31-.57,2,2,0,0,1-.72-1.65h.81v0a1.51,1.51,0,0,0,.22.85,1.28,1.28,0,0,0,.57.51,1.8,1.8,0,0,0,.82.17h.2V20h-.25a2.41,2.41,0,0,1-1.47-.38,1.44,1.44,0,0,1-.5-1.2,1.38,1.38,0,0,1,.5-1.18,2.41,2.41,0,0,1,1.47-.38h1.07v2.47h.25a2.55,2.55,0,0,1,1.74.52A1.84,1.84,0,0,1,113.83,21.27Zm-3.4-2v-1.8h-.25a1.37,1.37,0,0,0-.88.22.85.85,0,0,0-.27.69.79.79,0,0,0,.27.67,1.37,1.37,0,0,0,.88.22Zm2.58,2a1.18,1.18,0,0,0-.2-.7,1.24,1.24,0,0,0-.54-.44,1.92,1.92,0,0,0-.77-.15h-.25v2.78h.21a2,2,0,0,0,.78-.15,1.28,1.28,0,0,0,.77-1.22Z"/><path class="cls-3" d="M120.21,23.46,119,22.25a1.81,1.81,0,0,1-.8.86,2.55,2.55,0,0,1-1.24.29,2.81,2.81,0,0,1-1.15-.23,1.91,1.91,0,0,1-.79-.7,2.14,2.14,0,0,1-.29-1.14V16.82h.81v4.51a1.38,1.38,0,0,0,.38,1.05,1.68,1.68,0,0,0,2.08,0,1.38,1.38,0,0,0,.38-1.05V16.82h.81v4.63l1.07,1Z"/><path class="cls-3" d="M129,17.49h-1.29v3.84a2.06,2.06,0,0,1-.29,1.14,1.79,1.79,0,0,1-.79.7,2.89,2.89,0,0,1-2.26,0,1.86,1.86,0,0,1-.81-.71,2,2,0,0,1-.3-1.13V16.82h.81v4.51a1.34,1.34,0,0,0,.38,1.05,1.45,1.45,0,0,0,1,.36,1.42,1.42,0,0,0,1-.36,1.34,1.34,0,0,0,.39-1.05V16.82H129Z"/><path class="cls-3" d="M130.58,20.05v3.27h-.78V18.74h.74l0,.57a1.66,1.66,0,0,1,1.36-.65,1.43,1.43,0,0,1,1.08.39,1.72,1.72,0,0,1,.39,1.25v3h-.79v-3a1,1,0,0,0-.23-.76.93.93,0,0,0-.68-.23,1.14,1.14,0,0,0-.66.19A1.52,1.52,0,0,0,130.58,20.05Z"/><path class="cls-3" d="M138.29,18.74v4.58h-.75l0-.45a1.65,1.65,0,0,1-1.33.53,1.49,1.49,0,0,1-1.11-.41,1.85,1.85,0,0,1-.4-1.3V17.47h-1.07v-.65h1.86V21.7a1.08,1.08,0,0,0,.23.8.82.82,0,0,0,.61.24,1.19,1.19,0,0,0,1.19-.66V18.74Z"/><path class="cls-3" d="M145.12,22.1V18.74h.79v4.58h-.74l0-.5a1.68,1.68,0,0,1-1.36.58,1.65,1.65,0,0,1-.79-.18,1.16,1.16,0,0,1-.52-.55,1.67,1.67,0,0,1-.61.54,1.74,1.74,0,0,1-.84.19,1.53,1.53,0,0,1-1.15-.4,1.73,1.73,0,0,1-.39-1.25v-3h.79v3a1,1,0,0,0,.25.76,1,1,0,0,0,.73.22,1.12,1.12,0,0,0,.53-.12,1,1,0,0,0,.36-.35,1.14,1.14,0,0,0,.16-.49v-3h.79v3a.86.86,0,0,0,1,1A1,1,0,0,0,145.12,22.1Z"/><path class="cls-3" d="M149.93,25.08V22.87a1.57,1.57,0,0,1-1.31.53,1.5,1.5,0,0,1-1.11-.41,1.85,1.85,0,0,1-.39-1.3V16.82h.78V21.7a1.12,1.12,0,0,0,.23.8.82.82,0,0,0,.61.24,1.18,1.18,0,0,0,1.19-.66V18.74h.79v6.34Z"/><path class="cls-3" d="M152.77,20.05v3.27H152V18.74h.74l0,.57a1.69,1.69,0,0,1,1.37-.65,1.43,1.43,0,0,1,1.08.39,1.76,1.76,0,0,1,.39,1.25v3h-.79v-3a1.08,1.08,0,0,0-.23-.76.93.93,0,0,0-.68-.23,1.14,1.14,0,0,0-.66.19A1.43,1.43,0,0,0,152.77,20.05Z"/><path class="cls-3" d="M156.82,18.74h.78v5.12c0,.87-.4,1.31-1.19,1.31a1.53,1.53,0,0,1-.49-.08v-.63a1.37,1.37,0,0,0,.36,0,.51.51,0,0,0,.4-.15.61.61,0,0,0,.14-.44Z"/><path class="cls-3" d="M159.65,20.05v5h-.78V16.82h.78v2.47a1.68,1.68,0,0,1,1.35-.63,1.47,1.47,0,0,1,1.09.39,1.76,1.76,0,0,1,.38,1.25v3h-.79v-3a1.08,1.08,0,0,0-.22-.76,1,1,0,0,0-.69-.23,1.18,1.18,0,0,0-.66.19A1.52,1.52,0,0,0,159.65,20.05Z"/><path class="cls-3" d="M113.69,32.49V29.14h.79v6.33h-.79V33.21a1.6,1.6,0,0,1-1.33.59,1.58,1.58,0,0,1-.8-.19,1.1,1.1,0,0,1-.51-.55,1.67,1.67,0,0,1-.61.54,1.81,1.81,0,0,1-.85.2,1.51,1.51,0,0,1-1.14-.41,1.72,1.72,0,0,1-.39-1.25v-3h.78v3a1,1,0,0,0,.25.77,1.1,1.1,0,0,0,.73.22,1.12,1.12,0,0,0,.53-.13,1,1,0,0,0,.37-.35,1.23,1.23,0,0,0,.16-.49v-3h.78v3a.87.87,0,0,0,1,1A1.05,1.05,0,0,0,113.69,32.49Z"/><path class="cls-3" d="M121.31,32.49V29.14h.79v4.57h-.74l0-.5a1.68,1.68,0,0,1-1.35.59,1.6,1.6,0,0,1-.8-.19,1.19,1.19,0,0,1-.51-.55,1.67,1.67,0,0,1-.61.54,1.77,1.77,0,0,1-.84.2,1.52,1.52,0,0,1-1.15-.41,1.72,1.72,0,0,1-.39-1.25v-3h.79v3a1,1,0,0,0,.24.77,1.12,1.12,0,0,0,.73.22A1.13,1.13,0,0,0,118,33a1,1,0,0,0,.36-.35,1.09,1.09,0,0,0,.16-.49v-3h.78v3a.87.87,0,0,0,1,1A1.05,1.05,0,0,0,121.31,32.49Z"/><path class="cls-3" d="M125,34.83h2.14v.64H125a2.54,2.54,0,0,1-1.33-.32,1.16,1.16,0,0,1-.51-1.07,1.32,1.32,0,0,1,.19-.73,1.69,1.69,0,0,1,.47-.49,8.36,8.36,0,0,1,.73-.41l.12-.06.28-.13c.27-.13.5-.25.68-.36a1.71,1.71,0,0,0,.49-.44,1.05,1.05,0,0,0,.2-.63,1.25,1.25,0,0,0-.12-.54,1.13,1.13,0,0,0-.38-.43,1,1,0,0,0-.58-.17,1,1,0,0,0-.58.17,1,1,0,0,0-.37.43,1.26,1.26,0,0,0-.13.54V31h-.78v-.2a1.7,1.7,0,0,1,.22-.84,1.73,1.73,0,0,1,.64-.65,2,2,0,0,1,1-.25,2,2,0,0,1,1,.25,1.73,1.73,0,0,1,.64.65,1.81,1.81,0,0,1,.22.84,1.75,1.75,0,0,1-.25.94,2.09,2.09,0,0,1-.6.62,8.86,8.86,0,0,1-.89.52l-.16.08-.2.1a4.17,4.17,0,0,0-.53.28,1.52,1.52,0,0,0-.38.34.71.71,0,0,0-.16.48.55.55,0,0,0,.28.53A1.69,1.69,0,0,0,125,34.83Z"/><path class="cls-3" d="M134.5,30.7v3h-.79v-3a.87.87,0,0,0-1-1,1.05,1.05,0,0,0-1,.65v3.35h-.79v-.47a1.88,1.88,0,0,1-.56.41,1.72,1.72,0,0,1-.72.15,1.52,1.52,0,0,1-1.15-.41,1.72,1.72,0,0,1-.39-1.25v-3h.79v3a.86.86,0,0,0,1,1,1.06,1.06,0,0,0,1.06-.65V29.14h.79v.47a1.69,1.69,0,0,1,1.28-.56,1.57,1.57,0,0,1,1.15.4A1.75,1.75,0,0,1,134.5,30.7Z"/><path class="cls-3" d="M136.49,30.44v3.27h-.79V29.14h.74l0,.57a1.65,1.65,0,0,1,1.36-.66,1.47,1.47,0,0,1,1.09.39,1.78,1.78,0,0,1,.38,1.25v3h-.79v-3a1.05,1.05,0,0,0-.22-.75.92.92,0,0,0-.69-.24,1.19,1.19,0,0,0-.66.2A1.37,1.37,0,0,0,136.49,30.44Z"/><path class="cls-3" d="M144.19,29.14v4.57h-.75l0-.45a1.61,1.61,0,0,1-1.33.54,1.47,1.47,0,0,1-1.11-.42,1.83,1.83,0,0,1-.39-1.29V27.86h-1.08v-.64h1.86V32.1a1.16,1.16,0,0,0,.23.8.85.85,0,0,0,.61.23,1.18,1.18,0,0,0,1.19-.66V29.14Z"/><path class="cls-3" d="M151,32.49V29.14h.78v4.57h-.74l0-.5a1.68,1.68,0,0,1-1.35.59,1.58,1.58,0,0,1-.8-.19,1.1,1.1,0,0,1-.51-.55,1.75,1.75,0,0,1-.61.54,1.81,1.81,0,0,1-.85.2,1.51,1.51,0,0,1-1.14-.41,1.72,1.72,0,0,1-.39-1.25v-3h.78v3a1,1,0,0,0,.25.77,1.1,1.1,0,0,0,.73.22,1.12,1.12,0,0,0,.53-.13,1,1,0,0,0,.37-.35,1.23,1.23,0,0,0,.16-.49v-3H149v3a.86.86,0,0,0,1,1A1.06,1.06,0,0,0,151,32.49Z"/><path class="cls-3" d="M155.84,35.47V33.26a1.57,1.57,0,0,1-1.32.54,1.43,1.43,0,0,1-1.1-.42,1.78,1.78,0,0,1-.4-1.29V27.22h.78V32.1a1.11,1.11,0,0,0,.24.8.83.83,0,0,0,.6.23,1.2,1.2,0,0,0,1.2-.66V29.14h.78v6.33Z"/><path class="cls-3" d="M163.46,32.49V29.14h.79v4.57h-.75l0-.5a1.68,1.68,0,0,1-1.35.59,1.58,1.58,0,0,1-.8-.19,1.1,1.1,0,0,1-.51-.55,1.67,1.67,0,0,1-.61.54,1.81,1.81,0,0,1-.85.2,1.51,1.51,0,0,1-1.14-.41,1.72,1.72,0,0,1-.39-1.25v-3h.78v3a1,1,0,0,0,.25.77,1.12,1.12,0,0,0,.73.22,1.2,1.2,0,0,0,.54-.13,1,1,0,0,0,.36-.35,1.23,1.23,0,0,0,.16-.49v-3h.78v3a.87.87,0,0,0,1,1A1.05,1.05,0,0,0,163.46,32.49Z"/><path class="cls-3" d="M169.2,29.14v4.57h-.75l0-.45a1.63,1.63,0,0,1-1.33.54,1.47,1.47,0,0,1-1.11-.42,1.83,1.83,0,0,1-.39-1.29V27.86h-1.08v-.64h1.86V32.1a1.16,1.16,0,0,0,.23.8.85.85,0,0,0,.61.23,1.18,1.18,0,0,0,1.19-.66V29.14Z"/><path class="cls-3" d="M177.36,33.71h-1.07v1.76h-.79V33.29a1.77,1.77,0,0,1-2.23.21,2,2,0,0,1-.63-.83,3.21,3.21,0,0,1-.22-1.2v-.08a3.29,3.29,0,0,1,.22-1.23,1.88,1.88,0,0,1,.63-.82,1.69,1.69,0,0,1,1-.29,1.58,1.58,0,0,1,1.28.55l0-.46h.72v3.93h1.07Zm-1.86-1.17V30.29a1.18,1.18,0,0,0-1.06-.6,1.08,1.08,0,0,0-.69.23,1.35,1.35,0,0,0-.41.61,2.88,2.88,0,0,0-.13.86v.08a2.76,2.76,0,0,0,.13.85,1.35,1.35,0,0,0,.41.61,1,1,0,0,0,.68.22A1.17,1.17,0,0,0,175.5,32.54Z"/><path class="cls-3" d="M178.6,30.44v3.27h-.78V29.14h.74l0,.57a1.64,1.64,0,0,1,1.36-.66,1.43,1.43,0,0,1,1.08.39,1.73,1.73,0,0,1,.39,1.25v3h-.79v-3a1,1,0,0,0-.23-.75.89.89,0,0,0-.68-.24,1.14,1.14,0,0,0-.66.2A1.49,1.49,0,0,0,178.6,30.44Z"/><path class="cls-3" d="M183.41,30.44v5h-.79V29.14h.74l0,.57a1.66,1.66,0,0,1,1.37-.66,1.46,1.46,0,0,1,1.08.39,1.78,1.78,0,0,1,.38,1.25v3h-.78v-3a1.05,1.05,0,0,0-.23-.75.9.9,0,0,0-.69-.24,1.14,1.14,0,0,0-.65.2A1.32,1.32,0,0,0,183.41,30.44Z"/><path class="cls-3" d="M190.69,29.78a2.53,2.53,0,0,1,.42.73,2.79,2.79,0,0,1,.16.91v0a2.73,2.73,0,0,1-.25,1.21,1.82,1.82,0,0,1-.7.82,2.08,2.08,0,0,1-2.95-.84,2.57,2.57,0,0,1-.27-1.19v-.09a2.59,2.59,0,0,1,.23-1.11,1.83,1.83,0,0,1,.64-.78,2,2,0,0,1,1-.35,3.32,3.32,0,0,1-.58-.64,1.33,1.33,0,0,1-.2-.71,2.46,2.46,0,0,1,0-.28c0-.08,0-.15,0-.2a.22.22,0,0,1,0-.09h.78l0,.07a1.39,1.39,0,0,0,0,.17.94.94,0,0,0,0,.25,1,1,0,0,0,.12.48,1.85,1.85,0,0,0,.3.39c.11.11.28.26.5.44l.14.12h1.45v.64Zm-1,0h-.51a1.17,1.17,0,0,0-.71.21,1.26,1.26,0,0,0-.44.57,2.1,2.1,0,0,0-.15.82v.09a2.3,2.3,0,0,0,.16.85,1.5,1.5,0,0,0,.46.61,1.19,1.19,0,0,0,.73.22,1.09,1.09,0,0,0,.69-.21,1.23,1.23,0,0,0,.42-.59,2.54,2.54,0,0,0,.14-.86v0a1.88,1.88,0,0,0-.21-.91A2.86,2.86,0,0,0,189.69,29.78Z"/><path class="cls-3" d="M196.3,34.83v.64h-3.93V29.14h.74l0,.57a1.64,1.64,0,0,1,1.36-.66,1.47,1.47,0,0,1,1.09.39,1.78,1.78,0,0,1,.38,1.25v3h-.79v-3A1.05,1.05,0,0,0,195,30a.93.93,0,0,0-.69-.24,1.17,1.17,0,0,0-.66.2,1.49,1.49,0,0,0-.46.53v4.39Z"/><path class="cls-3" d="M200.87,29.14v4.57h-.75l0-.45a1.63,1.63,0,0,1-1.33.54,1.45,1.45,0,0,1-1.11-.42,1.83,1.83,0,0,1-.4-1.29V27.86h-1.07v-.64h1.86V32.1a1.11,1.11,0,0,0,.23.8.85.85,0,0,0,.61.23,1.19,1.19,0,0,0,1.19-.66V29.14Z"/><path class="cls-3" d="M204.89,35.47V33.26a1.57,1.57,0,0,1-1.32.54,1.43,1.43,0,0,1-1.1-.42,1.78,1.78,0,0,1-.4-1.29V27.22h.78V32.1a1.11,1.11,0,0,0,.24.8.85.85,0,0,0,.61.23,1.2,1.2,0,0,0,1.19-.66V29.14h.79v6.33Z"/><path class="cls-3" d="M207.66,29.78V32.1a1.11,1.11,0,0,0,.24.8.83.83,0,0,0,.6.23,1.2,1.2,0,0,0,1.2-.66V30.83h.78v2.88h-.75v-.45a1.65,1.65,0,0,1-1.34.54,1.43,1.43,0,0,1-1.1-.42,1.78,1.78,0,0,1-.4-1.29V27.22h.78v1.92h3.14v.64Z"/><path class="cls-3" d="M212.47,30.44v5h-.78V29.14h.74l0,.57a1.64,1.64,0,0,1,1.36-.66,1.47,1.47,0,0,1,1.09.39,1.78,1.78,0,0,1,.38,1.25v3h-.79v-3a1.05,1.05,0,0,0-.22-.75.92.92,0,0,0-.69-.24,1.19,1.19,0,0,0-.66.2A1.49,1.49,0,0,0,212.47,30.44Z"/></g></g></svg>