<?xml version="1.0" encoding="utf-8"?>
<!-- Generator: Adobe Illustrator 22.1.0, SVG Export Plug-In . SVG Version: 6.00 Build 0)  -->
<svg version="1.1" id="sjalvtest" xmlns="http://www.w3.org/2000/svg" xmlns:xlink="http://www.w3.org/1999/xlink" x="0px" y="0px"
	 viewBox="0 0 74 22" style="enable-background:new 0 0 74 22;" xml:space="preserve">
<rect x="0.10112" y="0.20599" style="fill:#FFFFFF;" width="73.79775" height="21.58801"/>
<path style="fill:#020203;" d="M73.54928,0.41199v21.17603H0.40975V0.41199H73.54928 M74,0H0v22h74V0L74,0z"/>
<path style="fill:#FFFFFF;" d="M12.96964,19.69288c-2.26121-0.0412-4.39909-0.94757-6.00249-2.55431
	c-1.6034-1.64794-2.46678-3.79026-2.42566-6.09738C4.5826,6.38577,8.4061,2.55431,13.09298,2.55431h0.08223
	c2.26121,0.0412,4.39909,0.94757,6.00249,2.55431c1.6034,1.64794,2.46678,3.79026,2.42566,6.09738
	c-0.04111,4.65543-3.86462,8.48689-8.55149,8.48689H12.96964z"/>
<path style="fill:#020203;" d="M13.05187,2.34831V2.7603h0.08223c2.2201,0.0412,4.31686,0.90637,5.87915,2.51311
	s2.38455,3.70786,2.38455,5.93258c-0.04111,4.57303-3.78239,8.2809-8.34593,8.2809h-0.08223
	c-2.2201-0.0412-4.31686-0.90637-5.87915-2.51311c-1.56229-1.60674-2.38455-3.70787-2.38455-5.93258
	c0.04111-4.57303,3.78239-8.2809,8.34593-8.2809V2.34831 M13.05187,2.34831c-4.7691,0-8.67483,3.87266-8.75706,8.65169
	c-0.04111,4.82022,3.8235,8.81648,8.63372,8.85768c0.04111,0,0.04111,0,0.08223,0c4.7691,0,8.67483-3.87266,8.75706-8.65168
	c0.04111-4.82022-3.8235-8.81648-8.63372-8.85768C13.13409,2.34831,13.09298,2.34831,13.05187,2.34831L13.05187,2.34831z"/>
<linearGradient id="SVGID_1_" gradientUnits="userSpaceOnUse" x1="-840.65222" y1="851.63226" x2="-825.35193" y2="851.63226" gradientTransform="matrix(-1 0 0 1 -819.99951 -843.5365)">
	<stop  offset="0" style="stop-color:#E41913"/>
	<stop  offset="0.09744" style="stop-color:#EA6516"/>
	<stop  offset="0.2148" style="stop-color:#F3A518"/>
	<stop  offset="0.3121" style="stop-color:#F9CD1A"/>
	<stop  offset="0.384" style="stop-color:#FDE31A"/>
	<stop  offset="0.4228" style="stop-color:#FEEB1A"/>
	<stop  offset="0.6231" style="stop-color:#DFDE20"/>
	<stop  offset="1" style="stop-color:#009245"/>
</linearGradient>
<path style="fill:url(#SVGID_1_);" d="M6.76331,12.39576c-0.06303,0-0.12647-0.00443-0.19071-0.01328
	c-0.76183-0.1042-1.29502-0.80788-1.19083-1.5717c0.46533-3.40833,3.06059-7.05866,7.71611-7.01501
	c4.61798,0.04224,7.14819,3.6791,7.54507,7.04036c0.09034,0.76543-0.45569,1.45905-1.21934,1.54957
	c-0.76244,0.09415-1.45602-0.45624-1.54655-1.22167c-0.36998-3.13515-2.67977-4.55799-4.80447-4.5775
	c-0.01486-0.0002-0.02971-0.0002-0.04457-0.0002c-1.97475,0-4.42245,1.20216-4.88678,4.60305
	C8.04568,11.88842,7.44846,12.39576,6.76331,12.39576z"/>
<g>
	<path style="fill:#1E1E1C;" d="M11.2429,11.24719l3.61794-6.50936l-0.74003,7.41573
		c-0.24668,0.78277-1.11005,1.23596-1.8912,0.98876S10.99622,12.02996,11.2429,11.24719z"/>
</g>
<g>
	<g>
		<path style="fill:#020203;" d="M31.30602,12.56554c0,0.28839-0.08222,0.57678-0.20556,0.82397
			c-0.12334,0.24719-0.32891,0.49438-0.57558,0.70037c-0.24668,0.20599-0.57558,0.37079-0.90448,0.49438
			c-0.32891,0.1236-0.78115,0.16479-1.2745,0.16479c-0.53447,0-0.98671-0.0412-1.39784-0.16479
			c-0.41113-0.0824-0.86337-0.24719-1.2745-0.45318v-1.23596h0.08222c0.37002,0.28839,0.78115,0.53558,1.2745,0.70037
			s0.9456,0.24719,1.35673,0.24719c0.61669,0,1.06894-0.1236,1.39784-0.32959s0.49335-0.53558,0.49335-0.90637
			c0-0.32959-0.08223-0.57678-0.24668-0.70037c-0.16445-0.1236-0.41113-0.28839-0.74003-0.37079
			c-0.24668-0.0824-0.49335-0.1236-0.78115-0.16479c-0.28779-0.0412-0.57558-0.0824-0.90448-0.16479
			c-0.65781-0.1236-1.11005-0.37079-1.43895-0.70038c-0.3289-0.32959-0.45224-0.78277-0.45224-1.27715
			c0-0.61798,0.24668-1.11236,0.78115-1.48315c0.53447-0.37079,1.15116-0.57678,1.97342-0.57678
			c0.49335,0,0.98671,0.0412,1.39784,0.16479c0.41113,0.0824,0.82226,0.20599,1.15116,0.37079v1.15356h-0.08222
			c-0.28779-0.24719-0.65781-0.41198-1.11005-0.57678s-0.90448-0.24719-1.39784-0.24719c-0.53447,0-0.9456,0.1236-1.23339,0.32959
			c-0.32891,0.20599-0.45224,0.49438-0.45224,0.82397c0,0.28839,0.08222,0.53558,0.24668,0.70037
			c0.16445,0.16479,0.45224,0.28839,0.82226,0.41199c0.20556,0.0412,0.49335,0.0824,0.90448,0.16479
			c0.37002,0.0824,0.69892,0.1236,0.98671,0.20599c0.53447,0.1236,0.9456,0.37079,1.23339,0.65918
			C31.14157,11.65917,31.30602,12.07116,31.30602,12.56554z"/>
		<path style="fill:#020203;" d="M34.51283,14.79026c0,0.65918-0.16446,1.11236-0.49335,1.44195
			c-0.3289,0.32959-0.78115,0.49438-1.31561,0.49438c-0.12334,0-0.28779,0-0.53447-0.0412
			c-0.20557-0.0412-0.41113-0.0412-0.53447-0.0824v-0.86517h0.04111c0.08222,0.0412,0.20556,0.0824,0.37002,0.1236
			c0.16445,0.0412,0.28779,0.0824,0.45224,0.0824c0.24668,0,0.41113-0.0412,0.57558-0.0824
			c0.12334-0.0824,0.24668-0.16479,0.3289-0.28839s0.12334-0.28839,0.12334-0.45318
			c0.04111-0.16479,0.04111-0.41199,0.04111-0.65918V9.97004h-1.15116V9.18727h2.05564v5.603H34.51283z M34.59505,8.2809h-1.02782
			V7.33333h1.02782V8.2809z"/>
		<path style="fill:#020203;" d="M40.67978,14.66667h-0.9456v-0.57678c-0.08223,0.0412-0.20557,0.1236-0.32891,0.24719
			s-0.28779,0.16479-0.41113,0.24719c-0.16445,0.0824-0.3289,0.1236-0.53447,0.20599c-0.20556,0.0412-0.45224,0.0824-0.69892,0.0824
			c-0.49335,0-0.90448-0.16479-1.23339-0.49438c-0.3289-0.37078-0.49335-0.78277-0.49335-1.31835
			c0-0.41199,0.08223-0.74157,0.24668-0.98876c0.16446-0.24719,0.41113-0.45318,0.74004-0.61798
			c0.3289-0.16479,0.74003-0.24719,1.19228-0.28839c0.45224-0.0412,0.98671-0.0824,1.52118-0.1236v-0.1236
			c0-0.20599-0.04111-0.37079-0.12334-0.53558c-0.08223-0.16479-0.16445-0.24719-0.32891-0.32959
			c-0.12334-0.0824-0.28779-0.1236-0.45224-0.16479s-0.37002-0.0412-0.57558-0.0412c-0.24668,0-0.49335,0.0412-0.82226,0.0824
			c-0.28779,0.0824-0.6167,0.16479-0.90448,0.28839h-0.04111V9.26966c0.16445-0.0412,0.45224-0.1236,0.78115-0.16479
			c0.3289-0.0412,0.65781-0.0824,0.98671-0.0824c0.37002,0,0.74004,0.0412,0.98671,0.0824
			c0.28779,0.0824,0.53447,0.16479,0.74003,0.32959c0.20557,0.16479,0.37002,0.32959,0.45224,0.57678
			c0.08223,0.24719,0.16445,0.53558,0.16445,0.90637v3.74906H40.67978z M39.73418,13.30712v-1.52435
			c-0.28779,0-0.6167,0.0412-0.98671,0.0824s-0.65781,0.0824-0.90448,0.1236c-0.24668,0.0824-0.49335,0.20599-0.65781,0.37079
			s-0.24668,0.37079-0.24668,0.65918c0,0.32959,0.08223,0.53558,0.28779,0.70037c0.20557,0.16479,0.49335,0.24719,0.86337,0.24719
			c0.32891,0,0.6167-0.0824,0.90448-0.20599C39.28193,13.6367,39.52861,13.47191,39.73418,13.30712z M38.00743,8.2809h-0.98671
			V7.33333h0.98671V8.2809z M40.06308,8.2809h-0.98671V7.33333h0.98671V8.2809z"/>
		<path style="fill:#020203;" d="M43.47545,14.66667h-0.90448V7.04494h0.90448V14.66667z"/>
		<path style="fill:#020203;" d="M50.09464,9.18727l-2.2201,5.4794h-0.90448l-2.17899-5.4794h0.98671l1.68563,4.36704
			l1.68563-4.36704L50.09464,9.18727z"/>
		<path style="fill:#020203;" d="M54.24705,14.62547c-0.16445,0.0412-0.37001,0.0824-0.57558,0.1236
			c-0.20556,0.0412-0.37001,0.0412-0.53447,0.0412c-0.57558,0-0.98671-0.16479-1.2745-0.45318
			c-0.28779-0.28839-0.45224-0.78277-0.45224-1.44195V9.97004h-0.6167V9.18727h0.6167V7.62172h0.90448v1.56554h1.8912v0.78277
			h-1.89119v2.51311c0,0.28839,0,0.49438,0,0.65918s0.04111,0.32959,0.12334,0.45318
			c0.08223,0.1236,0.16445,0.20599,0.28779,0.28839c0.12334,0.0412,0.3289,0.0824,0.57558,0.0824
			c0.16445,0,0.28779-0.0412,0.45224-0.0824c0.16445-0.0412,0.28779-0.0824,0.37001-0.1236h0.04112v0.86517H54.24705z"/>
		<path style="fill:#020203;" d="M60.04397,12.02996H56.0149c0,0.32959,0.04112,0.61798,0.16445,0.86517
			c0.08223,0.24719,0.24668,0.45318,0.41113,0.61798c0.16445,0.16479,0.37001,0.28839,0.6167,0.37079
			c0.24668,0.0824,0.49335,0.1236,0.78114,0.1236c0.37001,0,0.74003-0.0824,1.11005-0.20599
			c0.37001-0.16479,0.65781-0.28839,0.82226-0.45318h0.04111v0.98876c-0.32891,0.1236-0.6167,0.24719-0.9456,0.32959
			c-0.32891,0.0824-0.65781,0.1236-1.02782,0.1236c-0.90448,0-1.6034-0.24719-2.13787-0.74157
			c-0.49335-0.49438-0.78114-1.19476-0.78114-2.10112s0.24668-1.60674,0.74004-2.14232
			c0.49335-0.53558,1.11005-0.78277,1.93231-0.78277c0.74003,0,1.31561,0.20599,1.68563,0.65918
			c0.41113,0.41198,0.61669,1.02996,0.61669,1.85393V12.02996z M59.13949,11.32959c0-0.49438-0.12334-0.86517-0.37001-1.11236
			s-0.61669-0.41199-1.11005-0.41199s-0.90448,0.16479-1.19228,0.45318c-0.28779,0.28839-0.45224,0.65918-0.49335,1.07116H59.13949z
			"/>
		<path style="fill:#020203;" d="M65.42977,13.05993c0,0.49438-0.20557,0.90637-0.61669,1.23596
			c-0.41113,0.32959-0.98671,0.49438-1.68563,0.49438c-0.41113,0-0.78114-0.0412-1.11005-0.16479
			c-0.3289-0.0824-0.61669-0.20599-0.86337-0.32959v-1.02996h0.04111c0.28779,0.20599,0.6167,0.41198,0.98671,0.53558
			s0.69892,0.20599,1.02782,0.20599c0.41113,0,0.74003-0.0824,0.94559-0.20599c0.24668-0.1236,0.32891-0.32959,0.32891-0.61798
			c0-0.20599-0.08223-0.37079-0.20557-0.49438c-0.12334-0.1236-0.37001-0.20599-0.69892-0.28839
			c-0.12334-0.0412-0.28779-0.0824-0.49335-0.1236c-0.20556-0.0412-0.41113-0.0824-0.57558-0.1236
			c-0.49335-0.1236-0.82226-0.32959-1.02782-0.57678c-0.20557-0.24719-0.28779-0.53558-0.28779-0.90637
			c0-0.20599,0.04111-0.45318,0.12334-0.61798c0.08223-0.20599,0.24668-0.37079,0.41113-0.53558
			c0.16445-0.16479,0.41113-0.28839,0.69892-0.37079c0.28779-0.0824,0.6167-0.1236,0.9456-0.1236
			c0.32891,0,0.65781,0.0412,0.98671,0.1236c0.3289,0.0824,0.61669,0.16479,0.82226,0.28839v0.98876h-0.04111
			c-0.24668-0.16479-0.53447-0.32959-0.86337-0.45318c-0.32891-0.1236-0.65781-0.16479-0.98671-0.16479
			c-0.32891,0-0.6167,0.0824-0.86338,0.20599c-0.24668,0.1236-0.3289,0.32959-0.3289,0.57678
			c0,0.20599,0.08223,0.41199,0.20557,0.49438c0.12334,0.1236,0.37001,0.20599,0.65781,0.28839
			c0.16445,0.0412,0.37001,0.0824,0.57558,0.1236c0.20557,0.0412,0.37001,0.0824,0.53447,0.1236
			c0.41113,0.0824,0.74004,0.24719,0.98671,0.49438C65.30643,12.35955,65.42977,12.68914,65.42977,13.05993z"/>
		<path style="fill:#020203;" d="M69.70552,14.62547c-0.16445,0.0412-0.37002,0.0824-0.57558,0.1236
			c-0.20556,0.0412-0.37001,0.0412-0.53447,0.0412c-0.57558,0-0.98671-0.16479-1.27451-0.45318
			c-0.28779-0.28839-0.45224-0.78277-0.45224-1.44195V9.97004h-0.6167V9.18727h0.6167V7.62172h0.90448v1.56554h1.8912v0.78277
			h-1.8912v2.51311c0,0.28839,0,0.49438,0,0.65918s0.04111,0.32959,0.12334,0.45318c0.08222,0.1236,0.16444,0.20599,0.28779,0.28839
			c0.12334,0.0412,0.3289,0.0824,0.57558,0.0824c0.16445,0,0.28779-0.0412,0.45225-0.0824
			c0.16445-0.0412,0.28779-0.0824,0.37001-0.1236h0.04111v0.86517H69.70552z"/>
	</g>
</g>
</svg>
