<?xml version="1.0" encoding="utf-8"?>
<!-- Generator: Adobe Illustrator 22.1.0, SVG Export Plug-In . SVG Version: 6.00 Build 0)  -->
<svg version="1.1" id="spelgranser" xmlns="http://www.w3.org/2000/svg" xmlns:xlink="http://www.w3.org/1999/xlink" x="0px"
	 y="0px" viewBox="0 0 90 22" style="enable-background:new 0 0 90 22;" xml:space="preserve">
<g>
	<rect x="0.20492" y="0.20599" style="fill:#FFFFFF;" width="89.54918" height="21.58801"/>
	<path style="fill:#020203;" d="M89.54918,0.41199v21.17603H0.40984V0.41199H89.54918 M90,0H0v22h90V0L90,0z"/>
</g>
<g>
	<g>
		<path style="fill:#020203;" d="M31.54869,12.60674c0,0.28839-0.0824,0.57678-0.20599,0.82397
			c-0.1236,0.28839-0.32959,0.49438-0.57678,0.70037c-0.24719,0.20599-0.57678,0.37079-0.90637,0.49438
			c-0.32959,0.1236-0.78277,0.16479-1.27715,0.16479c-0.53558,0-0.98877-0.0412-1.40075-0.16479
			c-0.41199-0.0824-0.86517-0.24719-1.27715-0.45318v-1.19476h0.0824c0.37079,0.28839,0.78277,0.53558,1.27715,0.70037
			c0.49438,0.16479,0.94757,0.24719,1.35955,0.24719c0.61798,0,1.07116-0.1236,1.40075-0.32959
			c0.32959-0.20599,0.49438-0.53558,0.49438-0.90637c0-0.32959-0.0824-0.57678-0.24719-0.70037s-0.41199-0.28839-0.74158-0.37079
			c-0.24719-0.0824-0.49438-0.1236-0.78277-0.16479c-0.28839-0.0412-0.57678-0.0824-0.90637-0.16479
			c-0.65917-0.1236-1.11236-0.37079-1.44195-0.70037c-0.32959-0.32959-0.45318-0.78277-0.45318-1.27715
			c0-0.61798,0.24719-1.11236,0.78277-1.48315c0.53558-0.37079,1.15356-0.57678,1.97753-0.57678
			c0.49438,0,0.98877,0.0412,1.40075,0.16479c0.41199,0.0824,0.82397,0.20599,1.15356,0.37079v1.15356h-0.0824
			c-0.28839-0.24719-0.65918-0.41198-1.11236-0.57678C29.61237,8.1985,29.15918,8.1161,28.6648,8.1161
			c-0.53558,0-0.94757,0.1236-1.23595,0.32959c-0.28839,0.20599-0.45318,0.49438-0.45318,0.82397
			c0,0.28839,0.0824,0.53558,0.24719,0.70037c0.16479,0.16479,0.45318,0.28839,0.82397,0.41199
			c0.20599,0.0412,0.49438,0.0824,0.90637,0.16479c0.37079,0.0824,0.70037,0.1236,0.98876,0.20599
			c0.53558,0.1236,0.94757,0.37079,1.23596,0.65918C31.42509,11.65917,31.54869,12.07116,31.54869,12.60674z"/>
		<path style="fill:#020203;" d="M37.89326,11.86517c0,0.45318-0.08239,0.86517-0.20599,1.23596
			c-0.1236,0.37079-0.28839,0.65918-0.53558,0.94757c-0.20599,0.24719-0.45318,0.41199-0.74157,0.57678
			c-0.28839,0.1236-0.61798,0.20599-0.94757,0.20599c-0.28839,0-0.53558-0.0412-0.78277-0.0824
			c-0.24719-0.0824-0.45318-0.16479-0.70037-0.28839v2.30711h-0.90636V9.18727h0.90636v0.57678
			c0.24719-0.20599,0.53558-0.37079,0.82397-0.53558c0.28839-0.1236,0.61798-0.20599,0.98877-0.20599
			c0.65917,0,1.15356,0.24719,1.52434,0.74157C37.72846,10.29963,37.89326,11,37.89326,11.86517z M36.94569,11.90637
			c0-0.65918-0.1236-1.15356-0.32959-1.48315c-0.20599-0.32959-0.57678-0.49438-1.02996-0.49438
			c-0.24719,0-0.53558,0.0412-0.78277,0.16479c-0.28839,0.1236-0.53558,0.24719-0.78277,0.45318v3.08989
			c0.24719,0.1236,0.49438,0.20599,0.65918,0.24719c0.20599,0.0412,0.41198,0.0824,0.65917,0.0824
			c0.49438,0,0.90637-0.16479,1.19476-0.53558C36.8221,13.10112,36.94569,12.56554,36.94569,11.90637z"/>
		<path style="fill:#020203;" d="M43.94944,12.02996h-4.03746c0,0.32959,0.0412,0.61798,0.16479,0.86517
			c0.0824,0.24719,0.24719,0.45318,0.41199,0.61798c0.16479,0.16479,0.37078,0.28839,0.61798,0.37079
			c0.24719,0.0824,0.49438,0.1236,0.78277,0.1236c0.37078,0,0.74157-0.0824,1.11236-0.20599
			c0.37079-0.16479,0.65918-0.28839,0.82397-0.45318h0.04119v0.98876c-0.32959,0.1236-0.61798,0.24719-0.94756,0.32959
			c-0.32959,0.0824-0.65918,0.1236-1.02996,0.1236c-0.90636,0-1.60674-0.24719-2.14232-0.74157
			c-0.49438-0.49438-0.78277-1.19476-0.78277-2.10112s0.24719-1.60674,0.74158-2.14232
			c0.49438-0.53558,1.11236-0.78277,1.93633-0.78277c0.74157,0,1.31835,0.20599,1.68914,0.65918
			c0.41198,0.41198,0.61798,1.02996,0.61798,1.85393L43.94944,12.02996z M43.08427,11.32959
			c0-0.49438-0.1236-0.86517-0.37078-1.11236c-0.24719-0.24719-0.61798-0.41199-1.11236-0.41199s-0.90637,0.16479-1.19476,0.45318
			c-0.28839,0.28839-0.45318,0.65918-0.49438,1.07116H43.08427z"/>
		<path style="fill:#020203;" d="M46.33895,14.66667h-0.90637V7.04494h0.90637V14.66667z"/>
		<path style="fill:#020203;" d="M52.64232,14.04869c0,0.94757-0.20599,1.60674-0.61798,2.05993
			c-0.41198,0.45318-1.07116,0.65917-1.93633,0.65917c-0.28839,0-0.57678,0-0.86517-0.0412
			c-0.28839-0.0412-0.53558-0.0824-0.82397-0.16479v-0.94757h0.0412c0.16479,0.0412,0.37078,0.1236,0.70037,0.20599
			c0.32959,0.0824,0.65918,0.1236,0.98877,0.1236s0.57678-0.0412,0.78277-0.1236c0.20599-0.0824,0.37079-0.16479,0.49438-0.32959
			c0.1236-0.1236,0.20599-0.28839,0.24719-0.45318c0.0412-0.16479,0.0824-0.37079,0.0824-0.61798v-0.49438
			c-0.28839,0.20599-0.53558,0.37079-0.78277,0.49438c-0.24719,0.1236-0.57678,0.16479-0.94757,0.16479
			c-0.65918,0-1.15356-0.24719-1.56554-0.70037c-0.37079-0.45318-0.57678-1.15356-0.57678-1.97753
			c0-0.45318,0.08239-0.86517,0.20599-1.23596c0.1236-0.32959,0.32959-0.61798,0.53558-0.86517s0.45318-0.41198,0.78277-0.53558
			c0.28839-0.1236,0.61798-0.20599,0.90636-0.20599c0.32959,0,0.57678,0.0412,0.78277,0.0824
			c0.20599,0.0412,0.45318,0.16479,0.65918,0.28839l0.0412-0.24719h0.86517L52.64232,14.04869L52.64232,14.04869z
			 M51.73595,13.18352v-2.96629c-0.24719-0.1236-0.45318-0.20599-0.70037-0.24719c-0.20599-0.0412-0.41198-0.0824-0.61798-0.0824
			c-0.49438,0-0.90636,0.16479-1.19476,0.49438c-0.28839,0.32959-0.45319,0.82397-0.45319,1.48315
			c0,0.61798,0.1236,1.07116,0.32959,1.40075c0.20599,0.32959,0.57678,0.49438,1.07116,0.49438
			c0.28839,0,0.53558-0.0412,0.82397-0.16479C51.28277,13.47191,51.48876,13.34832,51.73595,13.18352z"/>
		<path style="fill:#020203;" d="M57.91573,10.21723h-0.0412c-0.1236-0.0412-0.28839-0.0412-0.41198-0.0824
			c-0.1236,0-0.28839-0.0412-0.45319-0.0412c-0.28839,0-0.57678,0.0824-0.82397,0.20599s-0.53558,0.28839-0.78277,0.49438v3.87266
			h-0.86517v-5.4794h0.90636v0.82397c0.37078-0.28839,0.70037-0.49438,0.94757-0.61798
			c0.28839-0.1236,0.57678-0.16479,0.86517-0.16479c0.16479,0,0.28839,0,0.32959,0c0.08239,0,0.16479,0.0412,0.32959,0.0412
			L57.91573,10.21723L57.91573,10.21723z"/>
		<path style="fill:#020203;" d="M63.10674,14.66667h-0.90637v-0.57678c-0.08239,0.0412-0.20599,0.1236-0.32959,0.24719
			c-0.1236,0.1236-0.28839,0.16479-0.41199,0.24719c-0.16479,0.0824-0.32959,0.1236-0.53558,0.20599
			c-0.20599,0.0412-0.45319,0.0824-0.70037,0.0824c-0.49438,0-0.90636-0.16479-1.23595-0.49438
			c-0.32959-0.32959-0.49438-0.74157-0.49438-1.23595c0-0.41199,0.08239-0.74157,0.24719-0.98876
			c0.16479-0.24719,0.41199-0.45318,0.74157-0.61798c0.32959-0.16479,0.74158-0.24719,1.19476-0.28839
			s0.98876-0.0824,1.52434-0.1236V11c0-0.20599-0.0412-0.37079-0.1236-0.53558c-0.08239-0.1236-0.16479-0.24719-0.32959-0.32959
			c-0.1236-0.0824-0.28839-0.1236-0.45319-0.16479c-0.16479-0.0824-0.37078-0.0824-0.57677-0.0824
			c-0.24719,0-0.49438,0.0412-0.82397,0.0824c-0.28839,0.0824-0.61798,0.16479-0.90636,0.28839h-0.0412V9.31086
			c0.16479-0.0412,0.45319-0.0824,0.78277-0.16479c0.32959-0.0412,0.65918-0.0824,0.98876-0.0824
			c0.37078,0,0.74158,0.0412,0.98876,0.0824c0.28839,0.0824,0.53558,0.16479,0.74157,0.32959
			c0.20599,0.16479,0.37078,0.32959,0.45319,0.57678c0.1236,0.24719,0.16479,0.53558,0.16479,0.90637v3.70786H63.10674z
			 M62.20037,13.30712v-1.52435c-0.28839,0-0.61798,0.0412-0.98876,0.0824c-0.37078,0.0412-0.70037,0.0824-0.90637,0.1236
			c-0.24719,0.0824-0.49438,0.20599-0.65918,0.37079c-0.1648,0.16479-0.2472,0.37079-0.2472,0.65918
			c0,0.32959,0.0824,0.53558,0.28839,0.70037c0.20599,0.16479,0.49438,0.24719,0.86517,0.24719
			c0.32959,0,0.61798-0.0824,0.90636-0.20599C61.70599,13.6367,61.95318,13.51311,62.20037,13.30712z M60.47004,8.2809h-0.98876
			V7.33333h0.98876V8.2809z M62.48877,8.2809H61.5V7.33333h0.98876V8.2809z"/>
		<path style="fill:#020203;" d="M69.49251,14.66667h-0.90636v-3.13109c0-0.24719,0-0.49438-0.0412-0.70038
			c-0.04121-0.20599-0.0824-0.41198-0.16479-0.53558s-0.20599-0.24719-0.37078-0.28839
			c-0.16479-0.0824-0.37079-0.0824-0.61798-0.0824s-0.49438,0.0824-0.78277,0.20599
			c-0.28838,0.1236-0.53558,0.28839-0.78277,0.49438v4.07865h-0.90636v-5.5206h0.90636v0.61798
			c0.28839-0.24719,0.57677-0.41198,0.90636-0.57678c0.28839-0.1236,0.61798-0.20599,0.94757-0.20599
			c0.57677,0,1.02996,0.16479,1.35955,0.53558c0.32959,0.37079,0.45319,0.86517,0.45319,1.52434v3.58427H69.49251z"/>
		<path style="fill:#020203;" d="M75.2603,13.10112c0,0.49438-0.20599,0.90637-0.61798,1.23596
			c-0.41198,0.32959-0.98875,0.49438-1.68914,0.49438c-0.41198,0-0.78277-0.0412-1.11236-0.16479
			c-0.32959-0.0824-0.61797-0.20599-0.86517-0.32959v-1.02996h0.0412c0.28839,0.20599,0.61798,0.41198,0.98876,0.53558
			s0.70037,0.20599,1.02996,0.20599c0.41199,0,0.74158-0.0824,0.94757-0.20599c0.24719-0.1236,0.32959-0.32959,0.32959-0.61798
			c0-0.20599-0.0824-0.37079-0.20599-0.49438c-0.1236-0.1236-0.37079-0.20599-0.70038-0.28839
			c-0.1236-0.0412-0.28838-0.0824-0.49438-0.1236c-0.20599-0.0412-0.41199-0.0824-0.57677-0.1236
			c-0.49438-0.1236-0.82397-0.32959-1.02997-0.57678c-0.20599-0.24719-0.28838-0.53558-0.28838-0.90637
			c0-0.20599,0.0412-0.45318,0.1236-0.61798c0.0824-0.20599,0.24719-0.37079,0.41199-0.53558
			c0.16479-0.16479,0.41198-0.28839,0.70037-0.37079c0.28839-0.0824,0.61797-0.1236,0.94756-0.1236s0.65918,0.0412,0.98876,0.1236
			c0.32959,0.0824,0.61798,0.16479,0.82397,0.28839v0.98876h-0.04121c-0.24719-0.16479-0.53558-0.32959-0.86517-0.45318
			c-0.32959-0.1236-0.65918-0.16479-0.98876-0.16479c-0.32959,0-0.61798,0.0824-0.86517,0.20599s-0.32959,0.32959-0.32959,0.57678
			c0,0.20599,0.0824,0.41198,0.20599,0.49438c0.1236,0.1236,0.37078,0.20599,0.65918,0.28839
			c0.16479,0.0412,0.37078,0.0824,0.57677,0.1236c0.20599,0.0412,0.37078,0.0824,0.53558,0.12359
			c0.41199,0.0824,0.74157,0.24719,0.98876,0.49438C75.1367,12.35955,75.2603,12.68914,75.2603,13.10112z"/>
		<path style="fill:#020203;" d="M81.19288,12.02996h-4.03745c0,0.32959,0.0412,0.61798,0.16479,0.86517
			c0.12359,0.24719,0.24719,0.45318,0.41198,0.61798c0.16479,0.16479,0.37079,0.28839,0.61798,0.37079
			s0.49438,0.1236,0.78277,0.1236c0.37078,0,0.74158-0.0824,1.11236-0.20599c0.37078-0.16479,0.65918-0.28839,0.82397-0.45318
			h0.04121v0.98876c-0.32959,0.1236-0.61798,0.24719-0.94757,0.32959s-0.65918,0.1236-1.02996,0.1236
			c-0.90636,0-1.60674-0.24719-2.14232-0.74157c-0.49438-0.49438-0.78277-1.19476-0.78277-2.10112s0.24719-1.60674,0.74157-2.14232
			c0.49438-0.53558,1.11236-0.78277,1.93633-0.78277c0.74157,0,1.31835,0.20599,1.68914,0.65918
			c0.37079,0.45318,0.61797,1.02996,0.61797,1.85393V12.02996z M80.28651,11.32959c0-0.49438-0.1236-0.86517-0.37078-1.11236
			c-0.24719-0.24719-0.61798-0.41199-1.11236-0.41199c-0.49438,0-0.90636,0.16479-1.19476,0.45318
			c-0.28839,0.28839-0.45319,0.65918-0.49438,1.07116H80.28651z"/>
		<path style="fill:#020203;" d="M86.05431,10.21723h-0.0412c-0.1236-0.0412-0.28839-0.0412-0.41199-0.0824
			c-0.1236,0-0.28839-0.0412-0.45319-0.0412c-0.28839,0-0.57677,0.0824-0.82397,0.20599
			c-0.2472,0.1236-0.53558,0.28839-0.78278,0.49438v3.87266h-0.90636v-5.4794h0.90636v0.82397
			c0.37079-0.28839,0.70038-0.49438,0.94757-0.61798c0.28839-0.1236,0.57677-0.16479,0.86517-0.16479c0.16479,0,0.28838,0,0.32959,0
			c0.08239,0,0.16479,0.0412,0.32958,0.0412v0.94757H86.05431z"/>
	</g>
</g>
<g>
	<path style="fill:#FFFFFF;" d="M12.72097,19.48689c-4.61423,0-8.3633-3.74906-8.3633-8.3633s3.74906-8.3633,8.3633-8.3633
		s8.3633,3.74906,8.3633,8.3633S17.33521,19.48689,12.72097,19.48689z"/>
	<path style="fill:#009739;" d="M12.72097,3.17228c4.40824,0,7.95131,3.58427,7.95131,7.95131
		c0,4.40824-3.58427,7.95131-7.95131,7.95131c-4.40824,0-7.95131-3.58427-7.95131-7.95131
		C4.76966,6.71536,8.31273,3.17228,12.72097,3.17228 M12.72097,2.34831c-4.82023,0-8.77528,3.91386-8.77528,8.77528
		c0,4.82022,3.91386,8.77528,8.77528,8.77528c4.82022,0,8.77528-3.91386,8.77528-8.77528
		C21.45506,6.26217,17.5412,2.34831,12.72097,2.34831L12.72097,2.34831z"/>
</g>
<path style="fill:#009739;" d="M13.50451,11.71502c-0.26473,0-0.52343-0.13156-0.67511-0.37175l-3.17216-5.0263
	C9.42208,5.94441,9.53352,5.45196,9.90588,5.217c0.37276-0.23576,0.86481-0.12352,1.09997,0.24864l3.17216,5.0263
	c0.23516,0.37256,0.12372,0.86501-0.24864,1.09997C13.7972,11.67519,13.64995,11.71502,13.50451,11.71502z"/>
<path style="fill:#009739;" d="M9.75521,14.51644c-0.25206,0-0.5003-0.11949-0.65519-0.34198
	c-0.25146-0.36169-0.16234-0.85857,0.19915-1.11003l3.79034-2.63666c0.36129-0.25125,0.85817-0.16254,1.11003,0.19915
	c0.25146,0.36169,0.16234,0.85857-0.19915,1.11023l-3.79034,2.63646C10.07123,14.47017,9.91252,14.51644,9.75521,14.51644z"/>
<circle style="fill:#009739;" cx="19.35393" cy="14.91386" r="5.31461"/>
<g>
	<path style="fill:#FFFFFF;" d="M16.34644,12.27715h1.11236v2.22472l0,0l1.73034-2.22472h1.40075l-1.97753,2.51311l2.05993,2.7603
		h-1.35955l-1.85393-2.47191l0,0v2.47191h-1.11236V12.27715z"/>
	<path style="fill:#FFFFFF;" d="M22.03184,14.08989v0.49438l0,0c0.0824-0.16479,0.20599-0.28839,0.37079-0.41198
		c0.12359-0.0824,0.24719-0.16479,0.37079-0.16479c0.0824,0,0.1236,0,0.20599,0v1.11236c-0.0824,0-0.16479-0.0412-0.24719-0.0412
		c-0.20599,0-0.37079,0.0824-0.49438,0.20599c-0.1236,0.16479-0.16479,0.37079-0.16479,0.61798v1.52435h-1.02996v-3.41948h0.98876
		V14.08989z"/>
</g>
<path style="fill:#009739;" d="M6.91195,11.5223H5.92322c-0.22028,0-0.39871-0.17843-0.39871-0.39871
	s0.17843-0.39871,0.39871-0.39871h0.98872c0.22027,0,0.39871,0.17843,0.39871,0.39871S7.13222,11.5223,6.91195,11.5223z"/>
<path style="fill:#009739;" d="M12.80345,5.631c-0.22028,0-0.39871-0.17843-0.39871-0.39871V4.24337
	c0-0.22028,0.17843-0.39871,0.39871-0.39871c0.22027,0,0.39871,0.17843,0.39871,0.39871v0.98892
	C13.20216,5.45257,13.02373,5.631,12.80345,5.631z"/>
<path style="fill:#009739;" d="M12.72097,18.60853c-0.22028,0-0.39871-0.17863-0.39871-0.39871v-0.98893
	c0-0.22007,0.17843-0.39871,0.39871-0.39871c0.22027,0,0.39871,0.17863,0.39871,0.39871v0.98893
	C13.11968,18.42989,12.94125,18.60853,12.72097,18.60853z"/>
</svg>
