<?xml version="1.0" encoding="utf-8"?>
<!-- Generator: Adobe Illustrator 22.1.0, SVG Export Plug-In . SVG Version: 6.00 Build 0)  -->
<svg version="1.1" id="spelpaus" xmlns="http://www.w3.org/2000/svg" xmlns:xlink="http://www.w3.org/1999/xlink" x="0px" y="0px"
	 viewBox="0 0 76 22" style="enable-background:new 0 0 76 22;" xml:space="preserve">
<g>
	<rect x="0.20552" y="0.20599" style="fill:#FFFFFF;" width="75.58897" height="21.58801"/>
	<path style="fill:#020203;" d="M75.58897,0.41199v21.17603H0.41103V0.41199H75.58897 M76,0H0v22h76V0L76,0z"/>
</g>
<path style="fill:#E20D18;" d="M21.90806,11.0412c0,4.82022-3.90481,8.73408-8.755,8.73408c-4.80909,0-8.755-3.91386-8.755-8.77528
	c0.0411-4.82022,3.94592-8.73408,8.755-8.73408C18.00324,2.26592,21.90806,6.17978,21.90806,11.0412z"/>
<g>
	<g>
		<path style="fill:#020203;" d="M31.69064,12.56554c0,0.28839-0.0822,0.57678-0.20551,0.82397
			c-0.12331,0.28839-0.32883,0.49438-0.53435,0.70037c-0.24662,0.20599-0.57545,0.37079-0.90427,0.49438
			c-0.32883,0.1236-0.78096,0.16479-1.2742,0.16479c-0.53434,0-0.98648-0.0412-1.39751-0.16479
			c-0.41103-0.0824-0.86317-0.24719-1.2742-0.45318v-1.23596h0.08221c0.36993,0.28839,0.78096,0.53558,1.2742,0.70037
			c0.49324,0.16479,0.94538,0.24719,1.35641,0.24719c0.61655,0,1.06869-0.1236,1.39751-0.32959
			c0.32883-0.20599,0.49324-0.53558,0.49324-0.90637c0-0.32959-0.0822-0.57678-0.24662-0.70037s-0.41103-0.28839-0.73986-0.37079
			c-0.24662-0.0824-0.49324-0.1236-0.78096-0.16479c-0.28773-0.0412-0.57545-0.0824-0.90427-0.16479
			c-0.65765-0.1236-1.10979-0.37079-1.43862-0.70038c-0.32883-0.32959-0.45214-0.78277-0.45214-1.27715
			c0-0.61798,0.24662-1.11236,0.78096-1.48315c0.53434-0.37079,1.15089-0.57678,1.97296-0.57678
			c0.49324,0,0.98648,0.0412,1.39751,0.16479c0.41103,0.0824,0.82207,0.20599,1.15089,0.37079v1.15356h-0.0822
			c-0.28772-0.24719-0.65765-0.41198-1.10979-0.57678c-0.45214-0.16479-0.90427-0.24719-1.39751-0.24719
			c-0.53434,0-0.94538,0.1236-1.2331,0.32959c-0.32883,0.20599-0.45214,0.49438-0.45214,0.82397
			c0,0.28839,0.0822,0.53558,0.24662,0.70037c0.16442,0.16479,0.45214,0.28839,0.82207,0.41199
			c0.20552,0.0412,0.49324,0.0824,0.90427,0.16479c0.36993,0.0824,0.69876,0.1236,0.98648,0.20599
			c0.53434,0.1236,0.94538,0.37079,1.2331,0.65918C31.52623,11.61798,31.69064,12.02996,31.69064,12.56554z"/>
		<path style="fill:#020203;" d="M38.06166,11.86517c0,0.45318-0.08221,0.86517-0.20552,1.23596
			c-0.12331,0.37079-0.28772,0.65918-0.53434,0.94757c-0.20552,0.24719-0.45214,0.41199-0.78096,0.57678
			c-0.32883,0.16479-0.61655,0.20599-0.94538,0.20599c-0.28772,0-0.53434-0.0412-0.78096-0.0824
			c-0.24662-0.0824-0.45214-0.16479-0.69875-0.28839v2.30711h-0.90427V9.18727h0.90427v0.57678
			c0.24662-0.20599,0.53434-0.37079,0.82206-0.53558c0.28772-0.1236,0.61655-0.20599,0.98648-0.20599
			c0.65765,0,1.15089,0.24719,1.52082,0.74157C37.89724,10.25843,38.06166,10.9588,38.06166,11.86517z M37.11628,11.86517
			c0-0.65918-0.12331-1.15356-0.32883-1.48315c-0.24662-0.32959-0.57545-0.49438-1.02758-0.49438
			c-0.24662,0-0.53434,0.0412-0.78096,0.16479c-0.28772,0.1236-0.53434,0.24719-0.78096,0.45318v3.08989
			c0.24662,0.1236,0.49324,0.20599,0.65765,0.24719c0.20552,0.0412,0.41103,0.0824,0.65765,0.0824
			c0.49324,0,0.90427-0.16479,1.192-0.53558C36.95187,13.05993,37.11628,12.56554,37.11628,11.86517z"/>
		<path style="fill:#020203;" d="M44.18605,11.98876h-4.02812c0,0.32959,0.0411,0.61798,0.16441,0.86517
			c0.0822,0.24719,0.24662,0.45318,0.41103,0.61798c0.16441,0.16479,0.36993,0.28839,0.61655,0.37079
			c0.24662,0.0824,0.49324,0.1236,0.78096,0.1236c0.36993,0,0.73986-0.0824,1.10979-0.20599
			c0.36993-0.16479,0.65765-0.28839,0.82207-0.45318h0.0411v0.98876c-0.32883,0.1236-0.61655,0.24719-0.94538,0.32959
			s-0.65765,0.1236-1.02758,0.1236c-0.90427,0-1.60303-0.24719-2.13737-0.74157c-0.53434-0.49438-0.78096-1.19476-0.78096-2.10112
			s0.24662-1.60674,0.73986-2.14232c0.49324-0.53558,1.10979-0.78277,1.93185-0.78277c0.73986,0,1.3153,0.20599,1.68523,0.65918
			c0.41103,0.41199,0.61655,1.02996,0.61655,1.85393C44.18605,11.49438,44.18605,11.98876,44.18605,11.98876z M43.28178,11.28839
			c0-0.49438-0.12331-0.86517-0.36993-1.11236s-0.61655-0.41199-1.10979-0.41199c-0.49324,0-0.90427,0.16479-1.192,0.45318
			c-0.28772,0.28839-0.45214,0.65918-0.49324,1.07116H43.28178z"/>
		<path style="fill:#020203;" d="M46.57004,14.66667h-0.90427V7.00375h0.90427V14.66667z"/>
		<path style="fill:#020203;" d="M53.31098,11.86517c0,0.45318-0.0822,0.86517-0.20552,1.23596
			c-0.12331,0.37079-0.28772,0.65918-0.53434,0.94757c-0.20552,0.24719-0.45213,0.41199-0.78096,0.57678
			c-0.32883,0.16479-0.61655,0.20599-0.94538,0.20599c-0.28772,0-0.53435-0.0412-0.78096-0.0824
			c-0.24662-0.0824-0.45214-0.16479-0.69876-0.28839v2.30711H48.5019V9.18727h0.90427v0.57678
			c0.24662-0.20599,0.53434-0.37079,0.82207-0.53558c0.28772-0.1236,0.61655-0.20599,0.98648-0.20599
			c0.65765,0,1.15089,0.24719,1.52082,0.74157C53.14657,10.25843,53.31098,10.9588,53.31098,11.86517z M52.3656,11.86517
			c0-0.65918-0.12331-1.15356-0.32883-1.48315s-0.57545-0.49438-1.02758-0.49438c-0.24662,0-0.53434,0.0412-0.78096,0.16479
			c-0.28772,0.1236-0.53434,0.24719-0.78096,0.45318v3.08989c0.24662,0.1236,0.49324,0.20599,0.65765,0.24719
			c0.20552,0.0412,0.41103,0.0824,0.65765,0.0824c0.49324,0,0.90427-0.16479,1.192-0.53558
			C52.24229,13.05993,52.3656,12.56554,52.3656,11.86517z"/>
		<path style="fill:#020203;" d="M59.10655,14.66667h-0.90427v-0.57678c-0.0822,0.0412-0.20551,0.1236-0.32883,0.24719
			c-0.12331,0.0824-0.28772,0.16479-0.41103,0.24719c-0.16441,0.0824-0.32883,0.1236-0.53434,0.20599
			c-0.20552,0.0412-0.45214,0.0824-0.69875,0.0824c-0.49324,0-0.90427-0.16479-1.2331-0.49438
			c-0.32883-0.32959-0.49324-0.74157-0.49324-1.23595c0-0.41199,0.08221-0.74157,0.24662-0.98876
			c0.16441-0.24719,0.41103-0.45318,0.73986-0.61798c0.32883-0.16479,0.73986-0.24719,1.19199-0.28839
			c0.45214-0.0412,0.98648-0.0824,1.52082-0.1236V11c0-0.20599-0.0411-0.37079-0.12331-0.53558
			c-0.0822-0.1236-0.16441-0.24719-0.32883-0.32959c-0.12331-0.0824-0.28772-0.1236-0.45214-0.16479
			c-0.16441-0.0412-0.36993-0.0412-0.57544-0.0412c-0.24662,0-0.49324,0.0412-0.82206,0.0824
			c-0.32883,0.0412-0.61655,0.16479-0.90427,0.28839h-0.0411V9.35206c0.16441-0.0412,0.45214-0.1236,0.78096-0.16479
			c0.32883-0.0412,0.65765-0.0824,0.98648-0.0824c0.36993,0,0.73986,0.0412,0.98648,0.0824
			c0.28772,0.0824,0.53434,0.16479,0.73986,0.32959s0.36993,0.32959,0.45214,0.57678S59.06543,10.62921,59.06543,11v3.66667
			H59.10655z M58.16117,13.30712v-1.52435c-0.28772,0-0.61655,0.0412-0.98648,0.0824s-0.69876,0.0824-0.90427,0.1236
			c-0.24662,0.0824-0.49324,0.20599-0.65766,0.37079s-0.24662,0.37079-0.24662,0.65918c0,0.32959,0.0822,0.53558,0.28772,0.70037
			c0.20552,0.16479,0.49324,0.24719,0.86317,0.24719c0.32883,0,0.61655-0.0824,0.90427-0.20599
			C57.70903,13.6367,57.95565,13.47191,58.16117,13.30712z"/>
		<path style="fill:#020203;" d="M65.47756,14.66667h-0.90427v-0.61798c-0.32883,0.24719-0.61655,0.45318-0.90427,0.57678
			c-0.28772,0.1236-0.61655,0.20599-0.94538,0.20599c-0.57544,0-1.02758-0.16479-1.35641-0.53558s-0.49324-0.86517-0.49324-1.56554
			V9.18727h0.90427v3.13109c0,0.28839,0,0.53558,0.0411,0.70037c0.04111,0.20599,0.08221,0.37079,0.16441,0.49438
			c0.0822,0.1236,0.20552,0.24719,0.32883,0.32959s0.32883,0.0824,0.61655,0.0824c0.24662,0,0.49324-0.0824,0.78096-0.20599
			c0.28772-0.1236,0.53434-0.28839,0.78096-0.49438V9.14607h0.90427v5.5206H65.47756z"/>
		<path style="fill:#020203;" d="M71.31422,13.05993c0,0.49438-0.20551,0.90637-0.61655,1.23596
			c-0.41103,0.32959-0.98648,0.49438-1.68524,0.49438c-0.41103,0-0.78096-0.0412-1.10979-0.16479
			c-0.32883-0.0824-0.61655-0.20599-0.86317-0.32959v-1.02996h0.0411c0.28773,0.20599,0.61655,0.41198,0.98648,0.53558
			s0.69875,0.20599,1.02758,0.20599c0.41103,0,0.73986-0.0824,0.94538-0.20599c0.24662-0.1236,0.32883-0.32959,0.32883-0.61798
			c0-0.20599-0.08221-0.37079-0.20552-0.49438c-0.12331-0.1236-0.36993-0.20599-0.69875-0.28839
			c-0.12331-0.0412-0.28772-0.0824-0.49324-0.1236c-0.20551-0.0412-0.41103-0.0824-0.57544-0.1236
			c-0.49324-0.1236-0.82207-0.32959-1.02758-0.57678c-0.20552-0.24719-0.28773-0.53558-0.28773-0.90637
			c0-0.20599,0.04111-0.45318,0.12331-0.61798c0.08221-0.20599,0.24662-0.37079,0.41103-0.53558
			c0.16441-0.16479,0.41103-0.28839,0.69875-0.37079c0.28772-0.0824,0.61655-0.1236,0.94537-0.1236
			c0.32883,0,0.65766,0.0412,0.98648,0.1236c0.32883,0.0824,0.61655,0.16479,0.82207,0.28839v0.98876H71.0265
			c-0.24662-0.16479-0.53435-0.32959-0.86317-0.45318c-0.32883-0.1236-0.65765-0.16479-0.98647-0.16479
			c-0.32883,0-0.61655,0.0824-0.86317,0.20599s-0.32883,0.32959-0.32883,0.57678c0,0.20599,0.08221,0.41199,0.20552,0.49438
			c0.12331,0.1236,0.36993,0.20599,0.65765,0.28839c0.16441,0.0412,0.36993,0.0824,0.57544,0.1236
			c0.20552,0.0412,0.36993,0.0824,0.53435,0.1236c0.41103,0.0824,0.73986,0.24719,0.98647,0.49438
			C71.19092,12.35955,71.31422,12.68914,71.31422,13.05993z"/>
	</g>
</g>
<path style="fill:#FFFFFF;" d="M11.79665,15.44944h-2.5484c-0.20552,0-0.36993-0.16479-0.36993-0.37079v-8.1161
	c0-0.20599,0.16441-0.37079,0.36993-0.37079h2.5484c0.20552,0,0.36993,0.16479,0.36993,0.37079v8.1161
	C12.16658,15.28464,12.00216,15.44944,11.79665,15.44944z"/>
<path style="fill:#FFFFFF;" d="M17.05787,15.49064h-2.5484c-0.20552,0-0.36993-0.16479-0.36993-0.37079v-8.1573
	c0-0.20599,0.16441-0.37079,0.36993-0.37079h2.5484c0.20552,0,0.36993,0.16479,0.36993,0.37079v8.1161
	C17.4278,15.32584,17.26339,15.49064,17.05787,15.49064z"/>
</svg>
