<svg xmlns="http://www.w3.org/2000/svg" width="14" height="14" viewBox="0 0 14 14">
    <defs>
        <linearGradient id="ssorpfbt8a" x1="0%" x2="100%" y1="94.598%" y2="5.402%">
            <stop offset="0%" stop-color="#751F9F"/>
            <stop offset="100%" stop-color="#A71F67"/>
        </linearGradient>
    </defs>
    <g fill="none" fill-rule="evenodd">
        <g>
            <g>
                <path fill="#FFF" fill-opacity="0" d="M0 0H14V14H0z" transform="translate(-109 -256) translate(109 256)"/>
                <g>
                    <path d="M0 0L14 0 14 14 0 14z" transform="translate(-109 -256) translate(109 256)"/>
                    <g fill-rule="nonzero">
                        <path fill="#FFF" d="M10.274 13.3c-.247 0-.487-.048-.714-.145L7.007 12.07 4.54 13.147c-.678.295-1.506.135-2.008-.377-.33-.34-.492-.78-.452-1.242l.255-2.97L.442 6.555c-.42-.443-.55-1.046-.349-1.61.2-.563.69-.97 1.308-1.085l2.541-.475 1.55-2.56C5.807.31 6.37 0 7 0c.632 0 1.196.31 1.509.826l1.55 2.559 2.54.474c.62.116 1.108.523 1.309 1.086.2.565.07 1.167-.35 1.61l-1.88 1.993.322 2.945c.05.461-.109.921-.436 1.264-.33.344-.8.543-1.29.543" transform="translate(-109 -256) translate(109 256)"/>
                        <path fill="url(#ssorpfbt8a)" d="M10.364 12.6c-.126 0-.25-.025-.368-.075l-2.87-1.21c-.039-.016-.08-.025-.123-.025s-.085.01-.124.026L4.096 12.52c-.12.052-.245.078-.375.078-.248 0-.486-.099-.656-.271-.17-.173-.253-.397-.233-.633l.282-3.268c.007-.075-.021-.151-.074-.208L.927 5.998c-.215-.227-.283-.534-.18-.822.103-.287.355-.494.673-.553l2.877-.535c.085-.016.158-.064.2-.135l1.728-2.832C6.386.857 6.675.7 7 .7s.613.157.775.421l1.728 2.832c.042.07.116.12.2.135l2.877.535c.319.059.57.266.673.553.103.288.035.595-.18.822l-2.107 2.216c-.056.058-.082.136-.073.214l.359 3.25c.025.237-.054.467-.224.644-.17.176-.412.278-.664.278" transform="translate(-109 -256) translate(109 256)"/>
                    </g>
                </g>
            </g>
        </g>
    </g>
</svg>
