<svg xmlns="http://www.w3.org/2000/svg" width="14" height="14" viewBox="0 0 14 14">
    <defs>
        <linearGradient id="0vup3nftda" x1="50%" x2="50%" y1="0%" y2="135.588%">
            <stop offset="0%" stop-color="#0085FE"/>
            <stop offset="100%" stop-color="#7B00FF"/>
        </linearGradient>
    </defs>
    <g fill="none" fill-rule="evenodd">
        <g>
            <g>
                <path fill="#FFF" fill-opacity="0" d="M0 0H14V14H0z" transform="translate(-147 -256) translate(147 256)"/>
                <g fill-rule="nonzero">
                    <g fill="#FFF">
                        <path d="M9.652.718c-.456-.72-1.418-.935-2.14-.478-.183.114-.488.384-1.025 1.39l-.138.262c-.045-.086-.089-.174-.138-.262C5.679.624 5.374.354 5.188.24 4.466-.214 3.507 0 3.048.718c-.222.348-.295.764-.203 1.166.044.192.122.374.232.533H.3c-.166 0-.3.134-.3.3v3.171c0 .166.134.3.3.3h.159V13c0 .166.134.3.3.3h11.185c.165 0 .3-.134.3-.3V6.188h.156c.166 0 .3-.134.3-.3V2.717c0-.166-.134-.3-.3-.3H9.623c.337-.494.37-1.161.03-1.699z" transform="translate(-147 -256) translate(147 256) translate(.6 .3)"/>
                    </g>
                    <g fill="url(#0vup3nftda)" transform="translate(-147 -256) translate(147 256) translate(.6 .3) translate(.7 .7)">
                        <path d="M4.057 5.527V12H.765c-.166 0-.3-.134-.3-.3V5.827c0-.165.134-.3.3-.3h3.292zM6.483 2.47V12h-1.63V2.469h1.63zm4.089 3.058c.165 0 .3.135.3.3V11.7c0 .166-.135.3-.3.3H7.28V5.527h3.292zM4.057 2.47v2.262H.3c-.166 0-.3-.134-.3-.3V2.769c0-.166.134-.3.3-.3h3.757zm6.98 0c.165 0 .3.134.3.3v1.662c0 .166-.135.3-.3.3H7.28V2.469h3.756zM7.693 0c.058 0 .114.005.172.019.205.045.377.167.492.345.23.363.122.85-.242 1.08-.22.138-1.022.218-1.824.229.35-.72.765-1.413.985-1.55.127-.08.27-.123.417-.123zM3.642 0c.146 0 .29.04.417.122.22.138.635.834.988 1.55-.401-.005-.802-.029-1.131-.066-.33-.037-.584-.093-.693-.162-.178-.111-.3-.286-.345-.488-.048-.207-.01-.417.1-.592.112-.178.287-.3.492-.345C3.528.005 3.587 0 3.642 0z"/>
                    </g>
                </g>
            </g>
        </g>
    </g>
</svg>
