<svg xmlns="http://www.w3.org/2000/svg" width="14" height="14" viewBox="0 0 14 14">
    <defs>
        <linearGradient id="z0uskirnwa" x1=".005%" x2="99.995%" y1="100%" y2="0%">
            <stop offset="0%" stop-color="#751F9F"/>
            <stop offset="100%" stop-color="#EF8D55"/>
        </linearGradient>
    </defs>
    <g fill="none" fill-rule="evenodd">
        <g>
            <g>
                <path fill="#FFF" fill-opacity="0" d="M0 0H14V14H0z" transform="translate(-90 -256) translate(90 256)"/>
                <g>
                    <path d="M0 0L12.6 0 12.6 12.6 0 12.6z" transform="translate(-90 -256) translate(90 256) translate(.7 .7)"/>
                    <g fill-rule="nonzero">
                        <path fill="#FFF" d="M8.175 8.382l-.002-.46h.002v.46zM6.853 11.34c-.577 0-.878-.567-1.194-1.168-.058-.12-.12-.233-.19-.339-.058.021-.115.043-.179.072l-.071.03c-.264.087-.63.054-1.045-.088-.044.107-.107.203-.189.286l-.861.868c-.332.336-.925.337-1.261 0-.049-.048-.09-.102-.125-.159-.333.33-.928.327-1.256-.005-.343-.346-.343-.91 0-1.255l.004-.005c-.06-.037-.117-.08-.167-.132-.342-.345-.342-.908 0-1.254l.86-.868c.097-.096.214-.17.342-.213-.114-.374-.133-.704-.053-.946.008-.025.018-.05.03-.076.029-.062.05-.12.073-.183l.024-.066c-.134-.092-.267-.167-.412-.235C.538 5.269.082 4.997.008 4.519c-.011-.073-.01-.148.002-.221.04-.232.162-.443.342-.593.686-.666 2.352-1.192 3.32-1.192l.123.003c.087.003.17.02.249.053l.12-.11.052-.045c.172-.15.324-.274.474-.389l.09-.07c.246-.183.502-.358.782-.532.227-.13.457-.251.697-.367.64-.3 1.303-.551 1.977-.75.593-.171 1.2-.272 1.804-.3.04-.004.09-.006.14-.006.224 0 .442.042.648.127.073.03.14.072.199.125.08.068.146.16.187.263.1.248.143.525.12.78-.028.608-.128 1.225-.297 1.824-.198.68-.448 1.348-.745 1.99-.113.238-.234.47-.367.707-.17.276-.343.534-.52.774l-.068.092c-.119.156-.24.308-.365.454l-.07.08-.128.142c.066.117.096.253.085.39-.028.354-.086.709-.173 1.051l-.05.185c-.11.32-.515 1.417-1.081 2.007-.132.163-.334.286-.557.334-.046.01-.095.015-.145.015z" transform="translate(-90 -256) translate(90 256) translate(.7 .7) translate(.63 .63)"/>
                        <path fill="url(#z0uskirnwa)" d="M3.649 3.173l.107.001c-.639.667-1.193 1.41-1.65 2.212-.205-.159-.427-.295-.662-.405-.275-.143-.788-.41-.814-.582.013-.076.055-.145.117-.191.544-.548 2.076-1.036 2.902-1.036m3.14.378c.271 0 .531.109.722.301.4.404.4 1.053 0 1.456-.19.193-.45.302-.723.302-.27 0-.53-.109-.722-.302-.398-.403-.398-1.052 0-1.456.192-.192.451-.301.722-.301m.001-.434c-.386 0-.755.155-1.027.43-.566.572-.566 1.494 0 2.067l.071.067c.366.317.867.434 1.338.306.503-.137.894-.531 1.027-1.034.134-.504-.013-1.04-.383-1.407l-.07-.066c-.262-.233-.602-.363-.956-.363M1.766 7.772c.054 0 .105.022.144.06.078.08.078.21 0 .29l-.872.877c-.038.039-.09.06-.143.06-.054 0-.106-.021-.144-.06-.08-.08-.08-.209 0-.289l.871-.877c.038-.039.09-.06.144-.06M10.143.633c.165-.014.33.01.483.073l.003.004.004.003c.062.155.088.32.073.487-.027.573-.119 1.142-.275 1.695-.19.654-.43 1.292-.714 1.91-.105.22-.219.44-.34.655-.157.255-.321.5-.493.731l-.003.006-.056.075c-.112.148-.226.29-.342.426l-.023.025-.042.048c-.106.12-.214.237-.324.347-.15.15-.302.295-.456.433-.479.426-.989.815-1.525 1.164-.27.176-.529.331-.769.467l-.1.038c-.075.027-.158.058-.252.102-.122.04-.466-.001-.897-.202-.394-.19-.754-.447-1.06-.76l-.114-.119c-.26-.281-.476-.602-.64-.95-.201-.433-.242-.78-.201-.903.044-.095.073-.178.1-.253l.038-.101c.135-.242.29-.503.465-.775.346-.54.731-1.052 1.154-1.534.138-.155.28-.31.43-.46.11-.11.225-.22.346-.326l.047-.042.025-.023c.135-.117.276-.232.423-.344l.074-.058.006-.004c.23-.172.473-.338.726-.496.214-.122.432-.236.65-.342.613-.287 1.247-.528 1.896-.72.549-.157 1.113-.25 1.683-.277M2.43 8.674c.054 0 .106.023.144.061.08.08.08.209 0 .29l-1.373 1.382c-.038.038-.089.06-.143.06-.054 0-.106-.022-.143-.06-.08-.08-.08-.209 0-.29l1.372-1.382c.038-.038.09-.06.143-.06m.896.67c.054 0 .105.022.143.06.08.08.08.21 0 .29l-.87.877c-.039.038-.09.06-.144.06-.054 0-.105-.022-.144-.06-.08-.08-.08-.21 0-.29l.871-.876c.039-.039.09-.06.144-.06m4.876-1.63c-.026.322-.078.64-.158.952-.01.042-.02.084-.032.126-.246.715-.614 1.45-.953 1.792-.047.063-.116.107-.192.124-.164 0-.438-.516-.584-.792-.11-.236-.25-.458-.412-.662.844-.4 1.63-.918 2.33-1.54" transform="translate(-90 -256) translate(90 256) translate(.7 .7) translate(.63 .63)"/>
                    </g>
                </g>
            </g>
        </g>
    </g>
</svg>
