<svg xmlns="http://www.w3.org/2000/svg" width="20" height="20" viewBox="0 0 20 20">
    <defs>
        <linearGradient id="1l0g9wd12a" x1="0%" x2="100%" y1="90.029%" y2="9.971%">
            <stop offset="0%" stop-color="#751F9F"/>
            <stop offset="100%" stop-color="#FFC353"/>
        </linearGradient>
    </defs>
    <g fill="none" fill-rule="evenodd">
        <g>
            <g>
                <path fill="#FFF" fill-opacity="0" d="M0 0H20V20H0z" transform="translate(-762 -443) translate(762 443)"/>
                <g>
                    <path d="M0.9 0L18.9 0 18.9 18 0.9 18z" transform="translate(-762 -443) translate(762 443) translate(0 1)"/>
                    <g fill-rule="nonzero">
                        <path fill="#FFF" d="M9.9 18c-.52 0-1.011-.234-1.346-.644L.41 7.328c-.545-.673-.545-1.647 0-2.317L3.953.648C4.285.237 4.777 0 5.3 0h9.2c.525 0 1.017.237 1.351.652l3.54 4.357c.545.672.545 1.646.001 2.317L11.25 17.352c-.338.413-.829.648-1.349.648" transform="translate(-762 -443) translate(762 443) translate(0 1)"/>
                        <path fill="url(#1l0g9wd12a)" d="M18.867 5.653l-3.692-4.545C15.068.975 14.91.9 14.748.9H5.159c-.164 0-.32.075-.428.207L1.039 5.654c-.185.227-.185.564 0 .79l2.005 2.47c.188.231.465.364.757.364h6.983c.275 0 .525-.165.64-.423l.273-.62c.122-.276-.074-.592-.37-.592H5.713c-.307 0-.594-.153-.772-.41L4.576 6.7c-.227-.33-.227-.77 0-1.1l1.906-2.772c.172-.252.452-.401.75-.401h6.033c.163 0 .319.083.414.22l.607.884c.18.26-.002.623-.312.623H8.75c-.199 0-.38.12-.463.306l-.342.775c-.114.26.07.554.347.554h6.853c.497 0 .789.577.503.997l-2.713 3.946c-.201.293-.529.468-.878.468h-6.33c-.327 0-.506.395-.295.653l4.093 5.04c.108.131.263.207.428.207.165 0 .32-.076.429-.207l8.485-10.448c.184-.227.184-.563 0-.79" transform="translate(-762 -443) translate(762 443) translate(0 1)"/>
                    </g>
                </g>
            </g>
        </g>
    </g>
</svg>
