<?xml version="1.0" encoding="utf-8"?>
<!-- Generator: Adobe Illustrator 18.0.0, SVG Export Plug-In . SVG Version: 6.00 Build 0)  -->
<!DOCTYPE svg PUBLIC "-//W3C//DTD SVG 1.1//EN" "http://www.w3.org/Graphics/SVG/1.1/DTD/svg11.dtd">
<svg version="1.1" id="Layer_1" xmlns="http://www.w3.org/2000/svg" xmlns:xlink="http://www.w3.org/1999/xlink" x="0px" y="0px"
	 viewBox="0 0 32 32" enable-background="new 0 0 32 32" xml:space="preserve">
<path fill="#2C41B3" d="M32,27V5c0-2.8-2.2-5-5-5L5,0C2.2,0,0,2.2,0,5l0,22c0,2.8,2.2,5,5,5h22C29.8,32,32,29.8,32,27z"/>
<g>
	<path fill="#FFFFFF" d="M20.8,21.4c0.4,0,0.7,0.1,0.9,0.3c0.2,0.2,0.3,0.5,0.3,0.9v2.2H9.8v-1.2c0-0.2,0-0.5,0.1-0.7
		c0.1-0.3,0.3-0.5,0.5-0.7l5-5.1c0.4-0.4,0.8-0.8,1.1-1.2c0.3-0.4,0.6-0.8,0.8-1.2s0.4-0.8,0.5-1.1c0.1-0.4,0.2-0.8,0.2-1.2
		c0-0.7-0.2-1.2-0.5-1.6c-0.3-0.4-0.8-0.6-1.5-0.6c-0.6,0-1,0.1-1.4,0.4c-0.4,0.3-0.6,0.7-0.8,1.1c-0.2,0.4-0.4,0.7-0.7,0.9
		c-0.3,0.1-0.7,0.2-1.2,0.1l-2-0.3c0.1-0.9,0.4-1.6,0.7-2.3c0.4-0.6,0.8-1.2,1.4-1.6s1.2-0.8,1.9-1c0.7-0.2,1.4-0.3,2.2-0.3
		c0.9,0,1.6,0.1,2.3,0.4c0.7,0.3,1.3,0.6,1.8,1c0.5,0.4,0.9,1,1.1,1.6s0.4,1.3,0.4,2c0,0.6-0.1,1.2-0.3,1.8
		c-0.2,0.5-0.4,1.1-0.7,1.6s-0.7,1-1.1,1.4c-0.4,0.5-0.9,0.9-1.3,1.4L15,21.8c0.4-0.1,0.9-0.2,1.3-0.3s0.8-0.1,1.2-0.1H20.8z"/>
</g>
</svg>
