<?xml version="1.0" encoding="utf-8"?>
<!-- Generator: Adobe Illustrator 18.0.0, SVG Export Plug-In . SVG Version: 6.00 Build 0)  -->
<!DOCTYPE svg PUBLIC "-//W3C//DTD SVG 1.1//EN" "http://www.w3.org/Graphics/SVG/1.1/DTD/svg11.dtd">
<svg version="1.1" id="Layer_1" xmlns="http://www.w3.org/2000/svg" xmlns:xlink="http://www.w3.org/1999/xlink" x="0px" y="0px"
	 viewBox="0 0 32 32" enable-background="new 0 0 32 32" xml:space="preserve">
<path fill="#FFD708" d="M32,27V5c0-2.8-2.2-5-5-5L5,0C2.2,0,0,2.2,0,5l0,22c0,2.8,2.2,5,5,5h22C29.8,32,32,29.8,32,27z"/>
<g>
	<path fill="#EE0000" d="M14.4,13.4c0.3-0.1,0.6-0.1,0.9-0.1s0.6,0,0.9,0c0.9,0,1.7,0.1,2.4,0.4c0.7,0.3,1.3,0.7,1.8,1.1
		c0.5,0.5,0.8,1.1,1.1,1.7c0.2,0.7,0.4,1.3,0.4,2.1c0,0.9-0.2,1.8-0.5,2.6c-0.3,0.8-0.8,1.4-1.4,2c-0.6,0.6-1.3,1-2.1,1.3
		C17,24.8,16.1,25,15.2,25c-0.6,0-1.1-0.1-1.6-0.2c-0.5-0.1-1-0.3-1.5-0.5c-0.5-0.2-0.9-0.4-1.3-0.7c-0.4-0.3-0.7-0.6-1-0.9l1.2-1.5
		c0.1-0.2,0.3-0.3,0.4-0.4c0.2-0.1,0.3-0.1,0.5-0.1c0.2,0,0.5,0.1,0.7,0.2c0.2,0.1,0.4,0.3,0.7,0.4c0.3,0.2,0.5,0.3,0.9,0.4
		s0.8,0.2,1.2,0.2c0.5,0,0.9-0.1,1.3-0.2c0.4-0.2,0.6-0.4,0.9-0.7c0.2-0.3,0.4-0.6,0.5-1c0.1-0.4,0.1-0.8,0.1-1.2
		c0-0.8-0.2-1.5-0.7-1.9c-0.5-0.4-1.2-0.7-2-0.7c-0.8,0-1.6,0.1-2.3,0.4L10.8,16l1.5-8.7h9v1.5c0,0.3,0,0.5-0.1,0.7
		s-0.2,0.4-0.4,0.5c-0.2,0.2-0.4,0.3-0.7,0.4s-0.6,0.1-1,0.1h-4.2L14.4,13.4z"/>
</g>
</svg>
